ISO-10303-21;
HEADER;
FILE_DESCRIPTION(('rustyOCCT STEP fixture'),'2;1');
FILE_NAME('box_void.stp','2026-09-28T00:00:00',('rustyOCCT'),('rustyOCCT'),'generate_step_fixtures.py','generate_step_fixtures.py','');
FILE_SCHEMA(('AUTOMOTIVE_DESIGN { 1 0 10303 214 1 1 1 1 }'));
ENDSEC;
DATA;
#1=APPLICATION_CONTEXT('core data for automotive mechanical design processes');
#2=APPLICATION_PROTOCOL_DEFINITION('international standard','automotive_design',2000,#1);
#3=PRODUCT_CONTEXT('',#1,'mechanical');
#4=PRODUCT('box_void','box_void','',(#3));
#5=PRODUCT_DEFINITION_FORMATION('','',#4);
#6=PRODUCT_DEFINITION_CONTEXT('part definition',#1,'design');
#7=PRODUCT_DEFINITION('design','',#5,#6);
#8=PRODUCT_DEFINITION_SHAPE('','',#7);
#9=( LENGTH_UNIT() NAMED_UNIT(*) SI_UNIT(.MILLI.,.METRE.) );
#10=( NAMED_UNIT(*) PLANE_ANGLE_UNIT() SI_UNIT($,.RADIAN.) );
#11=( NAMED_UNIT(*) SI_UNIT($,.STERADIAN.) SOLID_ANGLE_UNIT() );
#12=UNCERTAINTY_MEASURE_WITH_UNIT(LENGTH_MEASURE(1.E-07),#9,'distance_accuracy_value','confusion accuracy');
#13=( GEOMETRIC_REPRESENTATION_CONTEXT(3) GLOBAL_UNCERTAINTY_ASSIGNED_CONTEXT((#12)) GLOBAL_UNIT_ASSIGNED_CONTEXT((#9,#10,#11)) REPRESENTATION_CONTEXT('Context #1','3D Context with UNIT and UNCERTAINTY') );
#14=CARTESIAN_POINT('',(0.,0.,0.));
#15=DIRECTION('',(0.,0.,1.));
#16=DIRECTION('',(1.,0.,0.));
#17=AXIS2_PLACEMENT_3D('',#14,#15,#16);
#18=CARTESIAN_POINT('',(0.,20.,0.));
#19=VERTEX_POINT('',#18);
#20=CARTESIAN_POINT('',(0.,0.,0.));
#21=VERTEX_POINT('',#20);
#22=DIRECTION('',(0.,-20.,0.));
#23=VECTOR('',#22,1.);
#24=CARTESIAN_POINT('',(0.,20.,0.));
#25=LINE('',#24,#23);
#26=EDGE_CURVE('',#19,#21,#25,.T.);
#27=ORIENTED_EDGE('',*,*,#26,.F.);
#28=CARTESIAN_POINT('',(20.,20.,0.));
#29=VERTEX_POINT('',#28);
#30=DIRECTION('',(-20.,0.,0.));
#31=VECTOR('',#30,1.);
#32=CARTESIAN_POINT('',(20.,20.,0.));
#33=LINE('',#32,#31);
#34=EDGE_CURVE('',#29,#19,#33,.T.);
#35=ORIENTED_EDGE('',*,*,#34,.F.);
#36=CARTESIAN_POINT('',(20.,0.,0.));
#37=VERTEX_POINT('',#36);
#38=DIRECTION('',(0.,20.,0.));
#39=VECTOR('',#38,1.);
#40=CARTESIAN_POINT('',(20.,0.,0.));
#41=LINE('',#40,#39);
#42=EDGE_CURVE('',#37,#29,#41,.T.);
#43=ORIENTED_EDGE('',*,*,#42,.F.);
#44=DIRECTION('',(20.,0.,0.));
#45=VECTOR('',#44,1.);
#46=CARTESIAN_POINT('',(0.,0.,0.));
#47=LINE('',#46,#45);
#48=EDGE_CURVE('',#21,#37,#47,.T.);
#49=ORIENTED_EDGE('',*,*,#48,.F.);
#50=EDGE_LOOP('',(#27,#35,#43,#49));
#51=FACE_OUTER_BOUND('',#50,.T.);
#52=CARTESIAN_POINT('',(0.,0.,0.));
#53=DIRECTION('',(0.,0.,-1.));
#54=DIRECTION('',(1.,0.,0.));
#55=AXIS2_PLACEMENT_3D('',#52,#53,#54);
#56=PLANE('',#55);
#57=ADVANCED_FACE('',(#51),#56,.T.);
#58=CARTESIAN_POINT('',(0.,0.,20.));
#59=VERTEX_POINT('',#58);
#60=CARTESIAN_POINT('',(20.,0.,20.));
#61=VERTEX_POINT('',#60);
#62=DIRECTION('',(20.,0.,0.));
#63=VECTOR('',#62,1.);
#64=CARTESIAN_POINT('',(0.,0.,20.));
#65=LINE('',#64,#63);
#66=EDGE_CURVE('',#59,#61,#65,.T.);
#67=ORIENTED_EDGE('',*,*,#66,.T.);
#68=CARTESIAN_POINT('',(20.,20.,20.));
#69=VERTEX_POINT('',#68);
#70=DIRECTION('',(0.,20.,0.));
#71=VECTOR('',#70,1.);
#72=CARTESIAN_POINT('',(20.,0.,20.));
#73=LINE('',#72,#71);
#74=EDGE_CURVE('',#61,#69,#73,.T.);
#75=ORIENTED_EDGE('',*,*,#74,.T.);
#76=CARTESIAN_POINT('',(0.,20.,20.));
#77=VERTEX_POINT('',#76);
#78=DIRECTION('',(-20.,0.,0.));
#79=VECTOR('',#78,1.);
#80=CARTESIAN_POINT('',(20.,20.,20.));
#81=LINE('',#80,#79);
#82=EDGE_CURVE('',#69,#77,#81,.T.);
#83=ORIENTED_EDGE('',*,*,#82,.T.);
#84=DIRECTION('',(0.,-20.,0.));
#85=VECTOR('',#84,1.);
#86=CARTESIAN_POINT('',(0.,20.,20.));
#87=LINE('',#86,#85);
#88=EDGE_CURVE('',#77,#59,#87,.T.);
#89=ORIENTED_EDGE('',*,*,#88,.T.);
#90=EDGE_LOOP('',(#67,#75,#83,#89));
#91=FACE_OUTER_BOUND('',#90,.T.);
#92=CARTESIAN_POINT('',(0.,0.,20.));
#93=DIRECTION('',(0.,0.,1.));
#94=DIRECTION('',(1.,0.,0.));
#95=AXIS2_PLACEMENT_3D('',#92,#93,#94);
#96=PLANE('',#95);
#97=ADVANCED_FACE('',(#91),#96,.T.);
#98=ORIENTED_EDGE('',*,*,#48,.T.);
#99=DIRECTION('',(0.,0.,20.));
#100=VECTOR('',#99,1.);
#101=CARTESIAN_POINT('',(20.,0.,0.));
#102=LINE('',#101,#100);
#103=EDGE_CURVE('',#37,#61,#102,.T.);
#104=ORIENTED_EDGE('',*,*,#103,.T.);
#105=ORIENTED_EDGE('',*,*,#66,.F.);
#106=DIRECTION('',(0.,0.,20.));
#107=VECTOR('',#106,1.);
#108=CARTESIAN_POINT('',(0.,0.,0.));
#109=LINE('',#108,#107);
#110=EDGE_CURVE('',#21,#59,#109,.T.);
#111=ORIENTED_EDGE('',*,*,#110,.F.);
#112=EDGE_LOOP('',(#98,#104,#105,#111));
#113=FACE_OUTER_BOUND('',#112,.T.);
#114=CARTESIAN_POINT('',(0.,0.,0.));
#115=DIRECTION('',(0.,-1.,0.));
#116=DIRECTION('',(1.,0.,0.));
#117=AXIS2_PLACEMENT_3D('',#114,#115,#116);
#118=PLANE('',#117);
#119=ADVANCED_FACE('',(#113),#118,.T.);
#120=ORIENTED_EDGE('',*,*,#42,.T.);
#121=DIRECTION('',(0.,0.,20.));
#122=VECTOR('',#121,1.);
#123=CARTESIAN_POINT('',(20.,20.,0.));
#124=LINE('',#123,#122);
#125=EDGE_CURVE('',#29,#69,#124,.T.);
#126=ORIENTED_EDGE('',*,*,#125,.T.);
#127=ORIENTED_EDGE('',*,*,#74,.F.);
#128=ORIENTED_EDGE('',*,*,#103,.F.);
#129=EDGE_LOOP('',(#120,#126,#127,#128));
#130=FACE_OUTER_BOUND('',#129,.T.);
#131=CARTESIAN_POINT('',(20.,0.,0.));
#132=DIRECTION('',(1.,-0.,0.));
#133=DIRECTION('',(0.,1.,0.));
#134=AXIS2_PLACEMENT_3D('',#131,#132,#133);
#135=PLANE('',#134);
#136=ADVANCED_FACE('',(#130),#135,.T.);
#137=ORIENTED_EDGE('',*,*,#34,.T.);
#138=DIRECTION('',(0.,0.,20.));
#139=VECTOR('',#138,1.);
#140=CARTESIAN_POINT('',(0.,20.,0.));
#141=LINE('',#140,#139);
#142=EDGE_CURVE('',#19,#77,#141,.T.);
#143=ORIENTED_EDGE('',*,*,#142,.T.);
#144=ORIENTED_EDGE('',*,*,#82,.F.);
#145=ORIENTED_EDGE('',*,*,#125,.F.);
#146=EDGE_LOOP('',(#137,#143,#144,#145));
#147=FACE_OUTER_BOUND('',#146,.T.);
#148=CARTESIAN_POINT('',(20.,20.,0.));
#149=DIRECTION('',(0.,1.,0.));
#150=DIRECTION('',(-1.,0.,0.));
#151=AXIS2_PLACEMENT_3D('',#148,#149,#150);
#152=PLANE('',#151);
#153=ADVANCED_FACE('',(#147),#152,.T.);
#154=ORIENTED_EDGE('',*,*,#26,.T.);
#155=ORIENTED_EDGE('',*,*,#110,.T.);
#156=ORIENTED_EDGE('',*,*,#88,.F.);
#157=ORIENTED_EDGE('',*,*,#142,.F.);
#158=EDGE_LOOP('',(#154,#155,#156,#157));
#159=FACE_OUTER_BOUND('',#158,.T.);
#160=CARTESIAN_POINT('',(0.,20.,0.));
#161=DIRECTION('',(-1.,-0.,0.));
#162=DIRECTION('',(0.,-1.,0.));
#163=AXIS2_PLACEMENT_3D('',#160,#161,#162);
#164=PLANE('',#163);
#165=ADVANCED_FACE('',(#159),#164,.T.);
#166=CLOSED_SHELL('',(#57,#97,#119,#136,#153,#165));
#167=CARTESIAN_POINT('',(5.,12.,7.));
#168=VERTEX_POINT('',#167);
#169=CARTESIAN_POINT('',(5.,6.,7.));
#170=VERTEX_POINT('',#169);
#171=DIRECTION('',(0.,-6.,0.));
#172=VECTOR('',#171,1.);
#173=CARTESIAN_POINT('',(5.,12.,7.));
#174=LINE('',#173,#172);
#175=EDGE_CURVE('',#168,#170,#174,.T.);
#176=ORIENTED_EDGE('',*,*,#175,.F.);
#177=CARTESIAN_POINT('',(10.,12.,7.));
#178=VERTEX_POINT('',#177);
#179=DIRECTION('',(-5.,0.,0.));
#180=VECTOR('',#179,1.);
#181=CARTESIAN_POINT('',(10.,12.,7.));
#182=LINE('',#181,#180);
#183=EDGE_CURVE('',#178,#168,#182,.T.);
#184=ORIENTED_EDGE('',*,*,#183,.F.);
#185=CARTESIAN_POINT('',(10.,6.,7.));
#186=VERTEX_POINT('',#185);
#187=DIRECTION('',(0.,6.,0.));
#188=VECTOR('',#187,1.);
#189=CARTESIAN_POINT('',(10.,6.,7.));
#190=LINE('',#189,#188);
#191=EDGE_CURVE('',#186,#178,#190,.T.);
#192=ORIENTED_EDGE('',*,*,#191,.F.);
#193=DIRECTION('',(5.,0.,0.));
#194=VECTOR('',#193,1.);
#195=CARTESIAN_POINT('',(5.,6.,7.));
#196=LINE('',#195,#194);
#197=EDGE_CURVE('',#170,#186,#196,.T.);
#198=ORIENTED_EDGE('',*,*,#197,.F.);
#199=EDGE_LOOP('',(#176,#184,#192,#198));
#200=FACE_OUTER_BOUND('',#199,.T.);
#201=CARTESIAN_POINT('',(0.,0.,7.));
#202=DIRECTION('',(0.,0.,-1.));
#203=DIRECTION('',(1.,0.,0.));
#204=AXIS2_PLACEMENT_3D('',#201,#202,#203);
#205=PLANE('',#204);
#206=ADVANCED_FACE('',(#200),#205,.T.);
#207=CARTESIAN_POINT('',(5.,6.,14.));
#208=VERTEX_POINT('',#207);
#209=CARTESIAN_POINT('',(10.,6.,14.));
#210=VERTEX_POINT('',#209);
#211=DIRECTION('',(5.,0.,0.));
#212=VECTOR('',#211,1.);
#213=CARTESIAN_POINT('',(5.,6.,14.));
#214=LINE('',#213,#212);
#215=EDGE_CURVE('',#208,#210,#214,.T.);
#216=ORIENTED_EDGE('',*,*,#215,.T.);
#217=CARTESIAN_POINT('',(10.,12.,14.));
#218=VERTEX_POINT('',#217);
#219=DIRECTION('',(0.,6.,0.));
#220=VECTOR('',#219,1.);
#221=CARTESIAN_POINT('',(10.,6.,14.));
#222=LINE('',#221,#220);
#223=EDGE_CURVE('',#210,#218,#222,.T.);
#224=ORIENTED_EDGE('',*,*,#223,.T.);
#225=CARTESIAN_POINT('',(5.,12.,14.));
#226=VERTEX_POINT('',#225);
#227=DIRECTION('',(-5.,0.,0.));
#228=VECTOR('',#227,1.);
#229=CARTESIAN_POINT('',(10.,12.,14.));
#230=LINE('',#229,#228);
#231=EDGE_CURVE('',#218,#226,#230,.T.);
#232=ORIENTED_EDGE('',*,*,#231,.T.);
#233=DIRECTION('',(0.,-6.,0.));
#234=VECTOR('',#233,1.);
#235=CARTESIAN_POINT('',(5.,12.,14.));
#236=LINE('',#235,#234);
#237=EDGE_CURVE('',#226,#208,#236,.T.);
#238=ORIENTED_EDGE('',*,*,#237,.T.);
#239=EDGE_LOOP('',(#216,#224,#232,#238));
#240=FACE_OUTER_BOUND('',#239,.T.);
#241=CARTESIAN_POINT('',(0.,0.,14.));
#242=DIRECTION('',(0.,0.,1.));
#243=DIRECTION('',(1.,0.,0.));
#244=AXIS2_PLACEMENT_3D('',#241,#242,#243);
#245=PLANE('',#244);
#246=ADVANCED_FACE('',(#240),#245,.T.);
#247=ORIENTED_EDGE('',*,*,#197,.T.);
#248=DIRECTION('',(0.,0.,7.));
#249=VECTOR('',#248,1.);
#250=CARTESIAN_POINT('',(10.,6.,7.));
#251=LINE('',#250,#249);
#252=EDGE_CURVE('',#186,#210,#251,.T.);
#253=ORIENTED_EDGE('',*,*,#252,.T.);
#254=ORIENTED_EDGE('',*,*,#215,.F.);
#255=DIRECTION('',(0.,0.,7.));
#256=VECTOR('',#255,1.);
#257=CARTESIAN_POINT('',(5.,6.,7.));
#258=LINE('',#257,#256);
#259=EDGE_CURVE('',#170,#208,#258,.T.);
#260=ORIENTED_EDGE('',*,*,#259,.F.);
#261=EDGE_LOOP('',(#247,#253,#254,#260));
#262=FACE_OUTER_BOUND('',#261,.T.);
#263=CARTESIAN_POINT('',(5.,6.,7.));
#264=DIRECTION('',(0.,-1.,0.));
#265=DIRECTION('',(1.,0.,0.));
#266=AXIS2_PLACEMENT_3D('',#263,#264,#265);
#267=PLANE('',#266);
#268=ADVANCED_FACE('',(#262),#267,.T.);
#269=ORIENTED_EDGE('',*,*,#191,.T.);
#270=DIRECTION('',(0.,0.,7.));
#271=VECTOR('',#270,1.);
#272=CARTESIAN_POINT('',(10.,12.,7.));
#273=LINE('',#272,#271);
#274=EDGE_CURVE('',#178,#218,#273,.T.);
#275=ORIENTED_EDGE('',*,*,#274,.T.);
#276=ORIENTED_EDGE('',*,*,#223,.F.);
#277=ORIENTED_EDGE('',*,*,#252,.F.);
#278=EDGE_LOOP('',(#269,#275,#276,#277));
#279=FACE_OUTER_BOUND('',#278,.T.);
#280=CARTESIAN_POINT('',(10.,6.,7.));
#281=DIRECTION('',(1.,-0.,0.));
#282=DIRECTION('',(0.,1.,0.));
#283=AXIS2_PLACEMENT_3D('',#280,#281,#282);
#284=PLANE('',#283);
#285=ADVANCED_FACE('',(#279),#284,.T.);
#286=ORIENTED_EDGE('',*,*,#183,.T.);
#287=DIRECTION('',(0.,0.,7.));
#288=VECTOR('',#287,1.);
#289=CARTESIAN_POINT('',(5.,12.,7.));
#290=LINE('',#289,#288);
#291=EDGE_CURVE('',#168,#226,#290,.T.);
#292=ORIENTED_EDGE('',*,*,#291,.T.);
#293=ORIENTED_EDGE('',*,*,#231,.F.);
#294=ORIENTED_EDGE('',*,*,#274,.F.);
#295=EDGE_LOOP('',(#286,#292,#293,#294));
#296=FACE_OUTER_BOUND('',#295,.T.);
#297=CARTESIAN_POINT('',(10.,12.,7.));
#298=DIRECTION('',(0.,1.,0.));
#299=DIRECTION('',(-1.,0.,0.));
#300=AXIS2_PLACEMENT_3D('',#297,#298,#299);
#301=PLANE('',#300);
#302=ADVANCED_FACE('',(#296),#301,.T.);
#303=ORIENTED_EDGE('',*,*,#175,.T.);
#304=ORIENTED_EDGE('',*,*,#259,.T.);
#305=ORIENTED_EDGE('',*,*,#237,.F.);
#306=ORIENTED_EDGE('',*,*,#291,.F.);
#307=EDGE_LOOP('',(#303,#304,#305,#306));
#308=FACE_OUTER_BOUND('',#307,.T.);
#309=CARTESIAN_POINT('',(5.,12.,7.));
#310=DIRECTION('',(-1.,-0.,0.));
#311=DIRECTION('',(0.,-1.,0.));
#312=AXIS2_PLACEMENT_3D('',#309,#310,#311);
#313=PLANE('',#312);
#314=ADVANCED_FACE('',(#308),#313,.T.);
#315=CLOSED_SHELL('',(#206,#246,#268,#285,#302,#314));
#316=ORIENTED_CLOSED_SHELL('',*,#315,.F.);
#317=BREP_WITH_VOIDS('',#166,(#316));
#318=ADVANCED_BREP_SHAPE_REPRESENTATION('',(#17,#317),#13);
#319=SHAPE_DEFINITION_REPRESENTATION(#8,#318);
ENDSEC;
END-ISO-10303-21;
