DBRep_DrawableShape

CASCADE Topology V1, (c) Matra-Datavision
Locations 2
1
              1               0               0               0 
              0               1               0               0 
              0               0               1               3 
2  1 -1 0
Curve2ds 8
1 3.1415926535897931 0 0 -1 
1 0 0 0 -1 
1 0.92729521800161208 0 0 -1 
1 2.2142974355881808 0 0 -1 
1 0 0 1 0 
1 0 -3 1 0 
1 0 0 1 0 
1 0 -3 1 0 
Curves 6
1 3.2679491924311228 2 -0.5 0 0 1 
1 6.7320508075688767 4 -0.5 0 0 1 
1 3.2679491924311228 2 -0.5 0.86602540378443871 0.50000000000000011 0 
1 3 6.4641016151377544 -0.5 0 0 1 
2 2.401923788646684 1.5 -0.5 0 0 1 0.86602540378443871 0.50000000000000011 -0 -0.50000000000000011 0.86602540378443871 0 5
2 7.598076211353316 4.5 -0.5 0 0 1 0.86602540378443871 0.50000000000000011 -0 -0.50000000000000011 0.86602540378443871 0 5
Polygon3D 0
PolygonOnTriangulations 0
Surfaces 4
1 3.2679491924311228 2 -0.5 -0.50000000000000011 0.86602540378443871 0 0.86602540378443871 0.50000000000000011 0 0 0 -1 
2 7.598076211353316 4.5 -0.5 -0 -0 -1 0.86602540378443871 0.50000000000000011 -0 -0.50000000000000011 0.86602540378443871 0 5
2 2.401923788646684 1.5 -0.5 -0 -0 -1 0.86602540378443871 0.50000000000000011 -0 -0.50000000000000011 0.86602540378443871 0 5
1 5 3 -0.5 0 0 1 0.86602540378443871 0.50000000000000011 -0 -0.50000000000000011 0.86602540378443871 0 
Triangulations 0

TShapes 19
Ve
1e-07
3.26794919243112 2 -0.5
0 0

0101101
*
Ed
 1e-07 1 1 0
1  1 0 0 3
2  1 2 0 0 3
0

0101000
+19 0 -19 1 *
Ve
1e-07
6.73205080756888 4 -0.5
0 0

0101101
*
Ed
 1e-07 1 1 0
1  2 0 0 3
2  2 3 0 0 3
0

0101000
+17 0 -17 1 *
Ed
 1e-07 1 1 0
1  3 0 0 4
0

0101000
+19 0 -17 0 *
Wi

0101100
+18 0 -16 0 -15 0 +15 1 *
Fa
0  1e-07 1 0

0101000
+14 0 *
Ve
1e-07
3 6.46410161513775 -0.5
0 0

0101101
*
Ed
 1e-07 1 1 0
1  4 0 0 3
2  3 3 0 0 3
2  4 2 0 0 3
0

0101000
+12 0 -12 1 *
Ed
 1e-07 1 1 0
1  5 0 0 0.927295218001612
2  5 3 0 0 0.927295218001612
2  6 3 2 0 0.927295218001612
0

0101000
+17 0 -12 0 *
Wi

0101100
+16 0 -11 0 -10 0 +10 1 *
Fa
0  1e-07 3 0

0101000
+9 0 *
Ed
 1e-07 1 1 0
1  6 0 2.21429743558818 3.14159265358979
2  7 2 0 2.21429743558818 3.14159265358979
2  8 2 2 2.21429743558818 3.14159265358979
0

0101000
+12 0 -19 0 *
Wi

0101100
+11 0 -18 0 -7 0 +7 1 *
Fa
0  1e-07 2 0

0101000
+6 0 *
Wi

0101100
+15 0 +10 0 +7 0 *
Fa
0  1e-07 4 0

0101000
+4 0 *
Sh

0101100
+13 0 +8 0 +5 0 +3 0 -3 1 *
So

1100000
-2 0 *

+1 0 