DBRep_DrawableShape

CASCADE Topology V1, (c) Matra-Datavision
Locations 2
1
              1               0               0 3.55555555555556 
              0               1               0 3.55555555555556 
              0               0               1 6.22222222222222 
2  1 -1 0
Curve2ds 17
1 6.2831853071795862 -6.2831853071795862 0 1 
1 0 -6.2831853071795862 0 1 
2 0 -0 1 1.4871505947139442e-16 1.4871505947139442e-16 -1 4
1 0 -1.5707963267948966 1 0 
1 0 0 1 0 
2 0 0 1 1.0965165675310187e-17 -1.0965165675310187e-17 1 4
1 1.5707963267948966 -1.1071487177940906 0 1 
2 7.9999999999999991 4.0022854714882187e-16 -0.44721359549995798 0.89442719099991597 -0.89442719099991597 -0.44721359549995798 4
1 0 1.5707963267948966 1 0 
1 0 -0 1 5.0028568393602733e-17 
1 4.386066270124075e-16 -7.9999999999999991 1 5.0028568393602733e-17 
1 0 0 1 6.6476316906568014e-17 
1 0 -0 1.0416907391544678e-16 -1 
1 7.9999999999999991 4.0022854714882187e-16 6.0993734068912921e-17 -1 
1 0 -0 1 6.23643797783267e-17 
1 4.8794987255130337e-16 -8 1 6.23643797783267e-17 
1 5.0713891248309618e-16 8 -3.8720741290939101e-17 -1 
Curves 6
2 5 5 5 -0.88888888888888895 0.11111111111111129 0.44444444444444425 0.11111111111111087 -0.88888888888888906 0.44444444444444453 0.44444444444444442 0.44444444444444436 0.7777777777777779 4
2 5 5 5 0.44444444444444442 0.44444444444444442 0.7777777777777779 0.11111111111111109 -0.88888888888888895 0.44444444444444442 0.88888888888888895 -0.11111111111111112 -0.44444444444444442 4
2 5 5 5 0.11111111111111104 -0.88888888888888895 0.44444444444444442 2.3320605014991139e-18 -0.44721359549995793 -0.89442719099991597 0.99380798999990649 0.099380798999990583 -0.049690399499995284 4
1 5 5 5 0.11111111111111116 -0.88888888888888884 0.44444444444444442 
1 5 5 5 0.44444444444444442 0.44444444444444442 0.77777777777777779 
1 12.111111111111111 4.1111111111111107 1.4444444444444446 -0.88888888888888895 0.11111111111111117 0.44444444444444448 
Polygon3D 0
PolygonOnTriangulations 0
Surfaces 4
4 5 5 5 0.44444444444444442 0.44444444444444442 0.77777777777777779 0.11111111111111109 -0.88888888888888895 0.44444444444444442 0.88888888888888895 -0.11111111111111112 -0.44444444444444442 4
1 5 5 5 0.88888888888888895 -0.11111111111111106 -0.44444444444444448 0.11111111111111117 -0.88888888888888884 0.44444444444444448 -0.44444444444444442 -0.44444444444444453 -0.77777777777777779 
1 5 5 5 0.44444444444444442 0.44444444444444442 0.77777777777777779 0.11111111111111109 -0.88888888888888895 0.44444444444444442 0.88888888888888895 -0.11111111111111112 -0.44444444444444442 
1 12.111111111111111 4.1111111111111107 1.4444444444444446 0.11111111111111105 -0.88888888888888895 0.44444444444444448 -0.88888888888888884 0.11111111111111117 0.44444444444444442 -0.44444444444444453 -0.44444444444444448 -0.77777777777777779 
Triangulations 0

TShapes 24
Ve
1.00000031188376e-07
5.44444444444443 1.44444444444443 6.77777777777775
0 0

0101101
*
Ve
1.00000002874206e-07
6.77777777777778 6.77777777777778 8.11111111111111
0 0

0101101
*
Ed
 1.00000000888178e-07 1 1 0
1  1 0 6.28318530717958 7.85398163397448
3  1 2CN 1 0 6.28318530717958 7.85398163397448
2  3 2 0 6.28318530717958 7.85398163397448
0

0101000
+24 0 -23 0 *
Ve
1e-07
3.22222222222222 3.22222222222222 1.88888888888889
0 0

0101101
*
Ed
 1e-07 1 1 0
1  1 0 4.71238898038469 6.28318530717958
3  1 2CN 1 0 4.71238898038469 6.28318530717958
0

0101000
+21 0 -24 0 *
Ed
 1e-07 1 1 1
2  4 1 0 0 6.28318530717959
0

0101000
+21 0 -21 0 *
Ve
1.00000002035072e-07
8.55555555555556 4.55555555555556 3.22222222222222
0 0

0101101
*
Ed
 1e-07 1 1 0
1  2 0 0 1.5707963267949
2  5 1 0 0 1.5707963267949
2  6 3 0 0 1.5707963267949
0

0101000
+24 0 -18 0 *
Ed
 1e-07 1 1 0
1  3 0 1.10714871779409 2.67794504458899
2  7 1 0 1.10714871779409 2.67794504458899
2  8 4 0 1.10714871779409 2.67794504458899
0

0101000
+18 0 -23 0 *
Ed
 1e-07 1 1 1
2  9 1 0 1.5707963267949 6.28318530717959
0

0101000
+23 0 -23 0 *
Wi

0101100
+22 0 +20 0 +19 0 -20 0 -17 0 -16 0 -15 0 *
Fa
0  1e-07 1 0

0101000
+14 0 *
Ve
1e-07
5 5 5
0 0

0101101
*
Ed
 1e-07 1 1 0
1  4 0 0 4
2  10 2 0 0 4
2  11 2 2 0 4
2  12 3 0 0 4
0

0101000
+12 0 -24 0 *
Ed
 1e-07 1 1 0
1  5 0 0 4
2  13 2 0 0 4
2  14 4 0 0 4
0

0101000
+12 0 -23 0 *
Wi

0101100
-11 0 -22 0 +10 0 *
Fa
0  1e-07 2 0

0101000
+9 0 *
Ed
 1e-07 1 1 0
1  6 0 4 8
2  15 4 0 4 8
2  16 4 2 4 8
2  17 3 0 4 8
0

0101000
+18 0 -12 0 *
Wi

0101100
+7 0 +17 0 +11 0 *
Fa
0  1e-07 3 0

0101000
+6 0 *
Wi

0101100
-7 0 -10 0 +16 0 *
Fa
0  1e-07 4 0

0101000
+4 0 *
Sh

0101100
+13 0 +8 0 +5 0 +3 0 *
So

0100000
+2 0 *

+1 0 