DBRep_DrawableShape

CASCADE Topology V1, (c) Matra-Datavision
Locations 2
1
              1               0               0               0 
              0               1               0               0 
              0               0               1               3 
2  1 -1 0
Curve2ds 8
1 5.9993911979712582 0 0 -1 
1 6.5669794163879143 0 0 -1 
1 0.39479111969976155 0 0 -1 
1 0 0 1 0 
1 0 -3 1 0 
1 1.5707963267948966 0 0 -1 
1 0 0 1 0 
1 0 -3 1 0 
Curves 10
1 12.142304845413264 2.9689110867544648 0 0 0 1 
1 8.642304845413264 9.0310889132455348 0 0 0 1 
2 0 0 0 0 0 1 0.86602540378443871 0.50000000000000011 -0 -0.50000000000000011 0.86602540378443871 0 12.5
1 1.446152422706632 9.49519052838329 0 0 0 1 
2 4.696152422706632 3.8660254037844384 0 0 0 1 0.86602540378443871 0.50000000000000011 -0 -0.50000000000000011 0.86602540378443871 0 6.5
1 -3.75 6.4951905283832891 0 0 0 1 
1 1.446152422706632 9.49519052838329 0 -0.8660254037844386 -0.50000000000000011 0 
1 1.75 -3.0310889132455352 0 0 0 1 
1 -3.75 6.4951905283832891 0 0.5 -0.8660254037844386 0 
1 1.75 -3.0310889132455352 0 0.86602540378443871 0.5 0 
Polygon3D 0
PolygonOnTriangulations 0
Surfaces 6
2 0 0 0 -0 -0 -1 0.86602540378443871 0.50000000000000011 -0 -0.50000000000000011 0.86602540378443871 0 12.5
2 4.696152422706632 3.8660254037844384 0 -0 -0 -1 0.86602540378443871 0.50000000000000011 -0 -0.50000000000000011 0.86602540378443871 0 6.5
1 1.446152422706632 9.49519052838329 0 0.50000000000000011 -0.8660254037844386 0 -0.8660254037844386 -0.50000000000000011 0 0 -0 -1 
1 -3.75 6.4951905283832891 0 0.86602540378443871 0.50000000000000011 -0 0.50000000000000011 -0.86602540378443871 0 0 -0 -1 
1 1.75 -3.0310889132455352 0 -0.5 0.86602540378443871 0 0.86602540378443871 0.5 0 0 0 -1 
1 0 0 0 0 0 1 0.86602540378443871 0.50000000000000011 -0 -0.50000000000000011 0.86602540378443871 0 
Triangulations 0

TShapes 29
Ve
1e-07
12.1423048454133 2.96891108675446 0
0 0

0101101
*
Ed
 1e-07 1 1 0
1  1 0 0 3
2  1 1 0 0 3
0

0101000
+29 0 -29 1 *
Ve
1e-07
8.64230484541326 9.03108891324553 0
0 0

0101101
*
Ed
 1e-07 1 1 0
1  2 0 0 3
2  2 1 0 0 3
2  3 2 0 0 3
0

0101000
+27 0 -27 1 *
Ed
 1e-07 1 1 0
1  3 0 5.99939119797126 6.56697941638791
2  4 1 0 5.99939119797126 6.56697941638791
2  5 1 2 5.99939119797126 6.56697941638791
0

0101000
+29 0 -27 0 *
Wi

0101100
+28 0 -26 0 -25 0 +25 1 *
Fa
0  1e-07 1 0

0101000
+24 0 *
Ve
1e-07
1.44615242270663 9.49519052838329 0
0 0

0101101
*
Ed
 1e-07 1 1 0
1  4 0 0 3
2  6 2 0 0 3
4 G1 2 0 3 0
0

0101000
+22 0 -22 1 *
Ed
 1e-07 1 1 0
1  5 0 0.394791119699762 1.5707963267949
2  7 2 0 0.394791119699762 1.5707963267949
2  8 2 2 0.394791119699762 1.5707963267949
0

0101000
+27 0 -22 0 *
Wi

0101100
+26 0 -21 0 -20 0 +20 1 *
Fa
0  1e-07 2 0

0101000
+19 0 *
Ve
1e-07
-3.75 6.49519052838329 0
0 0

0101101
*
Ed
 1e-07 1 1 0
1  6 0 0 3
0

0101000
+17 0 -17 1 *
Ed
 1e-07 1 1 0
1  7 0 0 6
0

0101000
+22 0 -17 0 *
Wi

0101100
+21 0 -16 0 -15 0 +15 1 *
Fa
0  1e-07 3 0

0101000
+14 0 *
Ve
1e-07
1.75 -3.03108891324554 0
0 0

0101101
*
Ed
 1e-07 1 1 0
1  8 0 0 3
0

0101000
+12 0 -12 1 *
Ed
 1e-07 1 1 0
1  9 0 0 11
0

0101000
+17 0 -12 0 *
Wi

0101100
+16 0 -11 0 -10 0 +10 1 *
Fa
0  1e-07 4 0

0101000
+9 0 *
Ed
 1e-07 1 1 0
1  10 0 0 12
0

0101000
+12 0 -29 0 *
Wi

0101100
+11 0 -28 0 -7 0 +7 1 *
Fa
0  1e-07 5 0

0101000
+6 0 *
Wi

0101100
+25 0 +20 0 +15 0 +10 0 +7 0 *
Fa
0  1e-07 6 0

0101000
+4 0 *
Sh

0101100
+23 0 +18 0 +13 0 +8 0 +5 0 +3 0 -3 1 *
So

1100000
-2 0 *

+1 0 