DBRep_DrawableShape

CASCADE Topology V1, (c) Matra-Datavision
Locations 2
1
              1               0               0               0 
              0               1               0               0 
              0               0               1               3 
2  1 -1 0
Curve2ds 8
1 4.0688878715914054 0 0 -1 
1 6.2831853071795862 0 0 -1 
1 0 0 0 -1 
1 0 0 1 0 
1 0 -3 1 0 
1 1.5707963267948966 0 0 -1 
1 0 0 1 0 
1 0 -3 1 0 
Curves 8
1 3.7692307692307692 0.1538461538461533 0 0 0 1 
1 9.6153846153846168 6.9230769230769234 0 0 0 1 
2 5 5 0 0 0 1 0.92307692307692313 0.38461538461538464 -0 -0.38461538461538464 0.92307692307692313 0 5
1 5.6923076923076925 8.5384615384615383 0 0 0 1 
2 6.8461538461538467 5.7692307692307692 0 0 0 1 0.92307692307692313 0.38461538461538464 -0 -0.38461538461538464 0.92307692307692313 0 3
1 1.0769230769230769 6.615384615384615 0 0 0 1 
1 5.6923076923076925 8.5384615384615383 0 -0.92307692307692313 -0.38461538461538469 0 
1 1.0769230769230769 6.615384615384615 0 0.38461538461538458 -0.92307692307692302 0 
Polygon3D 0
PolygonOnTriangulations 0
Surfaces 5
2 5 5 0 -0 -0 -1 0.92307692307692313 0.38461538461538464 -0 -0.38461538461538464 0.92307692307692313 0 5
2 6.8461538461538467 5.7692307692307692 0 -0 -0 -1 0.92307692307692313 0.38461538461538464 -0 -0.38461538461538464 0.92307692307692313 0 3
1 5.6923076923076925 8.5384615384615383 0 0.38461538461538469 -0.92307692307692313 0 -0.92307692307692313 -0.38461538461538469 0 0 -0 -1 
1 1.0769230769230769 6.615384615384615 0 0.92307692307692313 0.38461538461538464 -0 0.38461538461538464 -0.92307692307692313 0 0 -0 -1 
1 5 5 0 0 0 1 0.92307692307692313 0.38461538461538464 -0 -0.38461538461538464 0.92307692307692313 0 
Triangulations 0

TShapes 24
Ve
1e-07
3.76923076923077 0.153846153846153 0
0 0

0101101
*
Ed
 1e-07 1 1 0
1  1 0 0 3
2  1 1 0 0 3
0

0101000
+24 0 -24 1 *
Ve
1e-07
9.61538461538462 6.92307692307692 0
0 0

0101101
*
Ed
 1e-07 1 1 0
1  2 0 0 3
2  2 1 0 0 3
2  3 2 0 0 3
4 G1 1 0 2 0
0

0101000
+22 0 -22 1 *
Ed
 1e-07 1 1 0
1  3 0 4.06888787159141 6.28318530717959
2  4 1 0 4.06888787159141 6.28318530717959
2  5 1 2 4.06888787159141 6.28318530717959
0

0101000
+24 0 -22 0 *
Wi

0101100
+23 0 -21 0 -20 0 +20 1 *
Fa
0  1e-07 1 0

0101000
+19 0 *
Ve
1e-07
5.69230769230769 8.53846153846154 0
0 0

0101101
*
Ed
 1e-07 1 1 0
1  4 0 0 3
2  6 2 0 0 3
4 G1 2 0 3 0
0

0101000
+17 0 -17 1 *
Ed
 1e-07 1 1 0
1  5 0 0 1.5707963267949
2  7 2 0 0 1.5707963267949
2  8 2 2 0 1.5707963267949
0

0101000
+22 0 -17 0 *
Wi

0101100
+21 0 -16 0 -15 0 +15 1 *
Fa
0  1e-07 2 0

0101000
+14 0 *
Ve
1e-07
1.07692307692308 6.61538461538461 0
0 0

0101101
*
Ed
 1e-07 1 1 0
1  6 0 0 3
0

0101000
+12 0 -12 1 *
Ed
 1e-07 1 1 0
1  7 0 0 5
0

0101000
+17 0 -12 0 *
Wi

0101100
+16 0 -11 0 -10 0 +10 1 *
Fa
0  1e-07 3 0

0101000
+9 0 *
Ed
 1e-07 1 1 0
1  8 0 0 7
0

0101000
+12 0 -24 0 *
Wi

0101100
+11 0 -23 0 -7 0 +7 1 *
Fa
0  1e-07 4 0

0101000
+6 0 *
Wi

0101100
+20 0 +15 0 +10 0 +7 0 *
Fa
0  1e-07 5 0

0101000
+4 0 *
Sh

0101100
+18 0 +13 0 +8 0 +5 0 +3 0 -3 1 *
So

1100000
-2 0 *

+1 0 