DBRep_DrawableShape

CASCADE Topology V1, (c) Matra-Datavision
Locations 4
1
              1               0               0 3.55555555555556 
              0               1               0 1.77777777777778 
              0               0               1 0.444444444444444 
2  1 -1 0
1
              1               0               0 6.22222222222222 
              0               1               0 3.11111111111111 
              0               0               1 0.777777777777778 
2  3 -1 0
Curve2ds 12
1 0 0 0 -1 
1 6.2831853071795862 0 0 -1 
1 0 0 1 0 
1 0 -3.9999999999999996 1 0 
2 0 0 1 -1.384352166507911e-16 1.384352166507911e-16 1 3
2 0 0 1 -1.3226731095842911e-16 -1.3226731095842911e-16 -1 1.5
1 6.2831853071795862 -2 -1 0 
1 0 0 0 -1 
1 6.2831853071795862 0 0 -1 
1 0 0 1 0 
1 0 -6.9999999999999991 1 0 
2 0 0 1 -1.384352166507911e-16 1.384352166507911e-16 1 1.5
Curves 5
1 0.66666666666666674 3.333333333333333 -2.166666666666667 0.88888888888888895 0.44444444444444448 0.11111111111111112 
2 1 2 0.5 0.88888888888888895 0.44444444444444448 0.11111111111111112 -0.11111111111111108 0.44444444444444436 -0.88888888888888895 -0.44444444444444448 0.7777777777777779 0.44444444444444436 3
2 4.5555555555555554 3.7777777777777777 0.94444444444444442 -0.88888888888888895 -0.44444444444444448 -0.11111111111111112 -0.11111111111111109 0.44444444444444442 -0.88888888888888906 0.44444444444444442 -0.77777777777777779 -0.44444444444444431 1.5
1 2.6111111111111112 3.5555555555555554 -0.61111111111111127 0.88888888888888884 0.44444444444444442 0.1111111111111111 
2 2.7777777777777777 2.8888888888888888 0.72222222222222221 0.88888888888888895 0.44444444444444448 0.11111111111111112 -0.11111111111111108 0.44444444444444436 -0.88888888888888895 -0.44444444444444448 0.7777777777777779 0.44444444444444436 1.5
Polygon3D 0
PolygonOnTriangulations 0
Surfaces 4
2 1 2 0.5 -0.88888888888888895 -0.44444444444444448 -0.11111111111111112 -0.11111111111111108 0.44444444444444436 -0.88888888888888895 -0.44444444444444448 0.7777777777777779 0.44444444444444436 3
1 1 2 0.5 0.88888888888888895 0.44444444444444448 0.11111111111111112 -0.11111111111111112 0.44444444444444448 -0.88888888888888906 -0.44444444444444442 0.77777777777777768 0.44444444444444442 
2 2.7777777777777777 2.8888888888888888 0.72222222222222221 -0.88888888888888895 -0.44444444444444448 -0.11111111111111112 -0.11111111111111108 0.44444444444444436 -0.88888888888888895 -0.44444444444444448 0.7777777777777779 0.44444444444444436 1.5
1 2.7777777777777777 2.8888888888888888 0.72222222222222221 0.88888888888888895 0.44444444444444448 0.11111111111111112 -0.11111111111111112 0.44444444444444448 -0.88888888888888906 -0.44444444444444442 0.77777777777777768 0.44444444444444442 
Triangulations 0

TShapes 21
Ve
1e-07
0.666666666666667 3.33333333333333 -2.16666666666667
0 0

0101101
*
Ed
 1e-07 1 1 0
1  1 0 0 4
3  1 2CN 1 0 0 4
0

0101000
+21 0 -21 1 *
Ed
 1e-07 1 1 0
1  2 0 0 6.28318530717959
2  3 1 0 0 6.28318530717959
2  4 1 2 0 6.28318530717959
2  5 2 0 0 6.28318530717959
0

0101100
+21 0 -21 0 *
Wi

0101100
+20 0 -20 0 -19 0 +19 1 *
Fa
0  1e-07 1 0

0101000
+18 0 *
Wi

0101100
+19 0 *
Fa
0  1e-07 2 0

0101000
+16 0 *
Wi

0101100
+19 1 *
Ve
1.00000000889911e-07
4.38888888888889 4.44444444444444 -0.388888888888889
0 0

0101101
*
Ed
 1e-07 1 1 0
1  3 0 0 6.28318530717959
2  6 2 1 0 6.28318530717959
2  7 3 0 0 6.28318530717959
0

0101100
+13 0 -13 0 *
Wi

0101100
+12 0 *
Fa
0  1e-07 2 1

0101000
+14 0 +11 0 *
Ve
1e-07
2.61111111111111 3.55555555555556 -0.611111111111111
0 0

0101101
*
Ed
 1e-07 1 1 0
1  4 0 2 7
3  8 9CN 3 0 2 7
0

0101000
+13 0 -9 3 *
Ed
 1e-07 1 1 0
1  5 0 0 6.28318530717959
2  10 3 0 0 6.28318530717959
2  11 3 4 0 6.28318530717959
2  12 4 0 0 6.28318530717959
0

0101100
+9 0 -9 0 *
Wi

0101100
+12 0 -8 0 +7 3 +8 0 *
Fa
0  1e-07 3 0

0101000
+6 0 *
Wi

0101100
+7 0 *
Fa
0  1e-07 4 0

0101000
+4 0 *
Sh

0101100
-17 0 -15 0 +10 0 -5 0 +3 3 *
So

0100000
+2 0 *

+1 0 