DBRep_DrawableShape

CASCADE Topology V1, (c) Matra-Datavision
Locations 0
Curve2ds 8
1 8.9611303517685741 0.9272952180016123 -1 0 
1 8.9611303517685741 -10 -1 0 
1 6.2831853071795862 -6.2831853071795862 0 1 
1 0 -6.2831853071795862 0 1 
1 8.9611303517685741 -0.9272952180016123 -1 0 
1 8.9611303517685741 -1.9999999999999998 -1 0 
1 0 0 0 -1 
1 6.2831853071795862 0 0 -1 
Curves 4
2 3.7777777777777777 1.4444444444444446 4.0555555555555554 -0.44444444444444453 -0.11111111111111115 -0.88888888888888895 0.89442719099991586 1.4030554742721405e-18 -0.44721359549995798 0.049690399499995347 -0.9938079899999066 0.09938079899999068 3
2 2 1 0.5 -0.44444444444444425 0.88888888888888895 0.11111111111111104 -0.7777777777777779 -0.44444444444444431 0.44444444444444453 0.44444444444444453 0.11111111111111113 0.88888888888888895 5
2 0.2222222222222221 0.55555555555555547 -3.0555555555555554 -0.44444444444444453 -0.11111111111111115 -0.88888888888888895 0.89442719099991586 1.4030554742721405e-18 -0.44721359549995798 0.049690399499995347 -0.9938079899999066 0.09938079899999068 3
1 -2.9999999999999996 -1 -3.4999999999999996 0.44444444444444448 0.11111111111111112 0.88888888888888895 
Polygon3D 0
PolygonOnTriangulations 0
Surfaces 2
4 2 1 0.5 0.44444444444444448 0.11111111111111112 0.88888888888888895 -0.77777777777777779 -0.44444444444444453 0.44444444444444453 0.44444444444444453 -0.88888888888888895 -0.11111111111111116 5
2 -0.66666666666666652 0.33333333333333337 -4.833333333333333 -0.44444444444444448 -0.11111111111111113 -0.88888888888888884 -0.77777777777777768 -0.44444444444444453 0.44444444444444448 0.44444444444444453 -0.88888888888888884 -0.11111111111111117 3
Triangulations 0

TShapes 12
Ve
1.00000102473198e-07
1.44444444444453 0.111111111111146 5.38888888888894
0 0

0101101
*
Ed
 1e-07 1 1 0
1  1 0 2.67794504458899 8.96113035176857
2  1 1 0 2.67794504458899 8.96113035176857
2  2 2 0 2.67794504458899 8.96113035176857
0

0101100
+12 0 -12 0 *
Ve
1.0000000469061e-07
-2.11111111111111 -0.777777777777777 -1.72222222222223
0 0

0101101
*
Ed
 1e-07 1 1 0
1  2 0 5.35589008917797 7.21048052518122
3  3 4CN 1 0 5.35589008917797 7.21048052518122
0

0101000
+10 0 -12 0 *
Ed
 1e-07 1 1 0
1  3 0 2.67794504458899 8.96113035176857
2  5 1 0 2.67794504458899 8.96113035176857
2  6 2 0 2.67794504458899 8.96113035176857
0

0101100
+10 0 -10 0 *
Wi

0101100
+11 0 +9 0 -8 0 -9 0 *
Fa
0  1e-07 1 0

0101000
+7 0 *
Ed
 1e-07 1 1 0
1  4 0 2 10.0000000000001
3  7 8CN 2 0 2 10.0000000000001
0

0101000
+10 0 -12 0 *
Wi

0101100
+8 0 -5 0 -11 0 +5 0 *
Fa
0  1e-07 2 0

0101000
+4 0 *
Sh

0101100
+6 0 +3 0 *
So

0100000
+2 0 *

+1 0 