DBRep_DrawableShape

CASCADE Topology V1, (c) Matra-Datavision
Locations 0
Curve2ds 9
1 7.8539816339744828 2.0615528128088303 -1 0 
1 7.8539816339744828 0.9272952180016123 -1 0 
1 6.2831853071795862 -0 0 1 
1 0 -0 0 1 
1 0 0 1 0 
2 0 0 1 0 -0 1 3.5
1 6.2831853071795862 -6.2831853071795862 0 1 
1 0 -6.2831853071795862 0 1 
1 0 1.5707963267948966 1 0 
Curves 4
2 0 0 2 0 0 -1 0 1 0 1 -0 0 3
1 3.5 -8.5725275940314722e-16 0 -0.24253562503633297 5.9404095375989563e-17 0.97014250014533188 
2 0 0 0 0 0 1 1 0 -0 -0 1 0 3.5
2 0 0 -2 -2.4492935982947064e-16 -1 0 1 -2.4492935982947064e-16 0 0 0 1 5
Polygon3D 0
PolygonOnTriangulations 0
Surfaces 3
3 0 0 0 0 0 1 1 0 -0 -0 1 0 3.5
-0.24497866312686414
4 0 0 -2 0 0 1 1 0 -0 -0 1 0 5
1 0 0 0 0 0 1 1 0 -0 -0 1 0 
Triangulations 0

TShapes 16
Ve
1.00000281579826e-07
2.99999999999983 -7.34788079488371e-16 2.00000000000023
0 0

0101101
*
Ed
 1e-07 1 1 0
1  1 0 1.5707963267949 7.85398163397448
2  1 1 0 1.5707963267949 7.85398163397448
2  2 2 0 1.5707963267949 7.85398163397448
0

0101100
+16 0 -16 0 *
Ve
1e-07
3.5 -8.57252759403147e-16 0
0 0

0101101
*
Ed
 1e-07 1 1 0
1  2 0 0 2.06155281280909
3  3 4CN 1 0 0 2.06155281280909
0

0101000
+14 0 -16 0 *
Ed
 1e-07 1 1 0
1  3 0 0 6.28318530717959
2  5 1 0 0 6.28318530717959
2  6 3 0 0 6.28318530717959
0

0101000
+14 0 -14 0 *
Wi

0101100
+15 0 +13 0 +12 0 -13 0 *
Fa
0  1e-07 1 0

0101000
+11 0 *
Ve
1e-07
3.06161699786838e-16 -7.49879891330929e-32 3
0 0

0101101
*
Ed
 1e-07 1 1 0
1  4 0 7.21048052518125 7.85398163397448
3  7 8CN 2 0 7.21048052518125 7.85398163397448
0

0101000
+16 0 -9 0 *
Ed
 1e-07 1 1 1
2  9 2 0 0 6.28318530717959
0

0101000
+9 0 -9 0 *
Wi

0101100
+8 0 -15 0 -8 0 -7 0 *
Fa
0  1e-07 2 0

0101000
+6 0 *
Wi

0101100
-12 0 *
Fa
0  1e-07 3 0

0111000
-4 0 *
Sh

0101100
+10 0 +5 0 -3 0 *
So

0100000
+2 0 *

+1 0 