DBRep_DrawableShape

CASCADE Topology V1, (c) Matra-Datavision
Locations 4
1
              1               0               0 2.22222222222222 
              0               1               0 2.22222222222222 
              0               0               1 3.88888888888889 
2  1 -1 0
1
              1               0               0 2.66666666666667 
              0               1               0 2.66666666666667 
              0               0               1 4.66666666666667 
2  3 -1 0
Curve2ds 12
1 0 0 0 -1 
1 6.2831853071795862 0 0 -1 
1 0 0 1 0 
1 0 -5 1 0 
2 0 0 1 7.8812128291291957e-18 -7.8812128291291957e-18 1 3.0000000000000004
2 0 0 1 7.8812128291291957e-18 7.8812128291291957e-18 -1 2
1 6.2831853071795862 -4.0000000000000009 -1 0 
1 0 0 1 0 
1 0 -6 1 0 
2 0 0 1 7.8812128291291957e-18 -7.8812128291291957e-18 1 2
1 0 0 0 -1 
1 6.2831853071795862 0 0 -1 
Curves 5
1 0.83333333333333326 -1.666666666666667 2.833333333333333 0.44444444444444448 0.44444444444444448 0.77777777777777779 
2 0.5 1 1.5 0.44444444444444442 0.44444444444444442 0.77777777777777779 0.11111111111111109 -0.88888888888888895 0.44444444444444442 0.88888888888888895 -0.11111111111111112 -0.44444444444444442 3
2 2.7222222222222223 3.2222222222222223 5.3888888888888893 -0.44444444444444431 -0.44444444444444431 -0.77777777777777779 0.11111111111111106 -0.88888888888888895 0.44444444444444436 -0.88888888888888906 0.11111111111111109 0.44444444444444442 2
2 0.94444444444444442 1.4444444444444444 2.2777777777777777 0.44444444444444442 0.44444444444444442 0.77777777777777779 0.11111111111111109 -0.88888888888888895 0.44444444444444442 0.88888888888888895 -0.11111111111111112 -0.44444444444444442 2
1 1.1666666666666665 -0.33333333333333348 3.1666666666666665 0.44444444444444442 0.44444444444444442 0.77777777777777779 
Polygon3D 0
PolygonOnTriangulations 0
Surfaces 4
2 0.5 1 1.5 -0.44444444444444442 -0.44444444444444442 -0.7777777777777779 0.11111111111111109 -0.88888888888888895 0.44444444444444442 0.88888888888888895 -0.11111111111111112 -0.44444444444444442 3
1 0.5 1 1.5 0.44444444444444442 0.44444444444444442 0.77777777777777779 0.11111111111111109 -0.88888888888888895 0.44444444444444442 0.88888888888888895 -0.11111111111111112 -0.44444444444444442 
2 0.94444444444444442 1.4444444444444444 2.2777777777777777 -0.44444444444444442 -0.44444444444444442 -0.7777777777777779 0.11111111111111109 -0.88888888888888895 0.44444444444444442 0.88888888888888895 -0.11111111111111112 -0.44444444444444442 2
1 0.94444444444444442 1.4444444444444444 2.2777777777777777 0.44444444444444442 0.44444444444444442 0.77777777777777779 0.11111111111111109 -0.88888888888888895 0.44444444444444442 0.88888888888888895 -0.11111111111111112 -0.44444444444444442 
Triangulations 0

TShapes 21
Ve
1e-07
0.833333333333333 -1.66666666666667 2.83333333333333
0 0

0101101
*
Ed
 1e-07 1 1 0
1  1 0 0 5
3  1 2CN 1 0 0 5
0

0101000
+21 0 -21 1 *
Ed
 1e-07 1 1 0
1  2 0 0 6.28318530717959
2  3 1 0 0 6.28318530717959
2  4 1 2 0 6.28318530717959
2  5 2 0 0 6.28318530717959
0

0101100
+21 0 -21 0 *
Wi

0101100
+20 0 -20 0 -19 0 +19 1 *
Fa
0  1e-07 1 0

0101000
+18 0 *
Wi

0101100
+19 0 *
Fa
0  1e-07 2 0

0101000
+16 0 *
Wi

0101100
+19 1 *
Ve
1.00000000915513e-07
2.94444444444444 1.44444444444444 6.27777777777778
0 0

0101101
*
Ed
 1e-07 1 1 0
1  3 0 0 6.28318530717959
2  6 2 1 0 6.28318530717959
2  7 3 0 0 6.28318530717959
0

0101100
+13 0 -13 0 *
Wi

0101100
+12 0 *
Fa
0  1e-07 2 1

0101000
+14 0 +11 0 *
Ve
1e-07
1.16666666666667 -0.333333333333333 3.16666666666667
0 0

0101101
*
Ed
 1e-07 1 1 0
1  4 0 0 6.28318530717959
2  8 3 0 0 6.28318530717959
2  9 3 4 0 6.28318530717959
2  10 4 0 0 6.28318530717959
0

0101100
+9 0 -9 0 *
Ed
 1e-07 1 1 0
1  5 0 0 4
3  11 12CN 3 0 0 4
0

0101000
+9 0 -13 0 *
Wi

0101100
-8 0 -7 0 -12 0 +7 0 *
Fa
0  1e-07 3 0

0101000
+6 0 *
Wi

0101100
+8 0 *
Fa
0  1e-07 4 0

0101000
+4 0 *
Sh

0101100
-17 0 -15 0 +10 0 +5 0 +3 0 *
So

0100000
+2 0 *

+1 0 