DBRep_DrawableShape

CASCADE Topology V1, (c) Matra-Datavision
Locations 2
1
              1               0               0               0 
              0               1               0               0 
              0               0               1               6 
2  1 -1 0
Curve2ds 10
1 0 0 1 0 
1 0 -6 1 0 
2 0 0 1 0 -0 1 1.3999999999999999
1 0 0 0 -1 
1 6.2831853071795862 0 0 -1 
1 7.8539816339744828 -2.7999999999999998 -1 0 
1 7.8539816339744828 1.2870022175865687 -1 0 
1 6.2831853071795862 -6.2831853071795862 0 1 
1 0 -6.2831853071795862 0 1 
1 0 1.5707963267948966 1 0 
Curves 4
2 0 0 0 0 0 1 1 0 -0 -0 1 0 1.3999999999999999
1 1.3999999999999999 0 0 0 0 1 
2 0 0 2.7999999999999998 0 -0 -1 0 1 -0 1 -0 0 1.3999999999999999
2 0 0 -2 -2.4492935982947064e-16 -1 0 1 -2.4492935982947064e-16 0 0 0 1 5
Polygon3D 0
PolygonOnTriangulations 0
Surfaces 3
2 0 0 0 -0 -0 -1 1 0 -0 -0 1 0 1.3999999999999999
1 0 0 0 0 0 1 1 0 -0 -0 1 0 
4 0 0 -2 0 0 1 1 0 -0 -0 1 0 5
Triangulations 0

TShapes 16
Ve
1e-07
1.4 0 0
0 0

0101101
*
Ed
 1e-07 1 1 0
1  1 0 0 6.28318530717959
2  1 1 0 0 6.28318530717959
2  2 1 2 0 6.28318530717959
2  3 2 0 0 6.28318530717959
0

0101100
+16 0 -16 0 *
Ve
1.0000003862e-07
1.40000000000003 -1.71450551880638e-16 2.79999999999998
0 0

0101101
*
Ed
 1e-07 1 1 0
1  2 0 0 2.79999999999998
3  4 5CN 1 0 0 2.79999999999998
0

0101000
+16 0 -14 0 *
Ed
 1e-07 1 1 0
1  3 0 1.5707963267949 7.85398163397448
2  6 1 0 1.5707963267949 7.85398163397448
2  7 3 0 1.5707963267949 7.85398163397448
0

0101100
+14 0 -14 0 *
Wi

0101100
-15 0 -13 0 -12 0 +13 0 *
Fa
0  1e-07 1 0

0101000
+11 0 *
Wi

0101100
+15 0 *
Fa
0  1e-07 2 0

0101000
+9 0 *
Ve
1e-07
3.06161699786838e-16 -7.49879891330929e-32 3
0 0

0101101
*
Ed
 1e-07 1 1 0
1  4 0 7.57018752476615 7.85398163397448
3  8 9CN 3 0 7.57018752476615 7.85398163397448
0

0101000
+14 0 -7 0 *
Ed
 1e-07 1 1 1
2  10 3 0 0 6.28318530717959
0

0101000
+7 0 -7 0 *
Wi

0101100
+6 0 -12 0 -6 0 -5 0 *
Fa
0  1e-07 3 0

0101000
+4 0 *
Sh

0101100
-10 0 -8 0 +3 0 *
So

0100000
+2 0 *

+1 0 