DBRep_DrawableShape

CASCADE Topology V1, (c) Matra-Datavision
Locations 2
1
              1               0               0               0 
              0               1               0               0 
              0               0               1               5 
2  1 -1 0
Curve2ds 10
1 7.8539816339744828 0.9272952180016123 -1 0 
1 7.8539816339744828 -1.6000000000000001 -1 0 
1 6.2831853071795862 -6.2831853071795862 0 1 
1 0 -6.2831853071795862 0 1 
1 0 -1.5707963267948966 1 0 
1 0 0 0 -1 
1 6.2831853071795862 0 0 -1 
1 0 0 1 0 
1 0 -5 1 0 
2 0 0 1 0 -0 1 1.2000000000000002
Curves 4
2 1 1 2.6000000000000001 0 -0 -1 0 1 -0 1 -0 0 1.2
2 1 1 1 -2.4492935982947064e-16 -1 0 1 -2.4492935982947064e-16 0 0 0 1 2
1 2.2000000000000002 1 1 0 0 1 
2 1 1 1 0 0 1 1 0 -0 -0 1 0 1.2
Polygon3D 0
PolygonOnTriangulations 0
Surfaces 3
4 1 1 1 0 0 1 1 0 -0 -0 1 0 2
2 1 1 1 -0 -0 -1 1 0 -0 -0 1 0 1.2
1 1 1 1 0 0 1 1 0 -0 -0 1 0 
Triangulations 0

TShapes 16
Ve
1.00000023411758e-07
2.20000000000001 1 2.59999999999998
0 0

0101101
*
Ed
 1e-07 1 1 0
1  1 0 1.5707963267949 7.85398163397448
2  1 1 0 1.5707963267949 7.85398163397448
2  2 2 0 1.5707963267949 7.85398163397448
0

0101100
+16 0 -16 0 *
Ve
1e-07
1 1 -1
0 0

0101101
*
Ed
 1e-07 1 1 0
1  2 0 4.71238898038469 7.21048052518119
3  3 4CN 1 0 4.71238898038469 7.21048052518119
0

0101000
+14 0 -16 0 *
Ed
 1e-07 1 1 1
2  5 1 0 0 6.28318530717959
0

0101000
+14 0 -14 0 *
Wi

0101100
+15 0 +13 0 +12 0 -13 0 *
Fa
0  1e-07 1 0

0101000
+11 0 *
Ve
1e-07
2.2 1 1
0 0

0101101
*
Ed
 1e-07 1 1 0
1  3 0 1.59999999999998 5
3  6 7CN 2 0 1.59999999999998 5
0

0101000
+16 0 -9 1 *
Ed
 1e-07 1 1 0
1  4 0 0 6.28318530717959
2  8 2 0 0 6.28318530717959
2  9 2 2 0 6.28318530717959
2  10 3 0 0 6.28318530717959
0

0101100
+9 0 -9 0 *
Wi

0101100
+15 0 -8 0 +7 1 +8 0 *
Fa
0  1e-07 2 0

0101000
+6 0 *
Wi

0101100
+7 0 *
Fa
0  1e-07 3 0

0101000
+4 0 *
Sh

0101100
+10 0 -5 0 +3 1 *
So

0100000
+2 0 *

+1 0 