DBRep_DrawableShape

CASCADE Topology V1, (c) Matra-Datavision
Locations 4
1
              1               0               0               0 
              0               1               0               0 
              0               0               1               6 
2  1 -1 0
1
              1               0               0               0 
              0               1               0               0 
              0               0               1               4 
2  3 -1 0
Curve2ds 61
1 0 0 0 -1 
1 6.2831853071795862 0 0 -1 
1 0 0 1 0 
1 0 -6 1 0 
2 0 0 1 5.7624032419990767e-18 -5.7624032419990767e-18 1 4
8 -3.7500000000000004 1.2500000000000004
1 2.5 -1.2500000000000002 -6.1273554473256887e-17 -1 
8 -3.7500000000000004 1.2500000000000004
1 1.2500000000000004 -3 -1 -0 
8 -3.75 1.2500000000000009
1 1.2499999999999998 2.5000000000000004 1 -4.3218024314993114e-17 
8 -3.75 1.2500000000000009
1 1.2500000000000009 -3 -1 0 
8 -3.7500000000000009 1.2500000000000002
1 -2.5000000000000013 1.2500000000000004 6.1273554473256887e-17 1 
8 -3.7500000000000009 1.2500000000000002
1 1.2500000000000002 -3 -1 -0 
8 -3.7500000000000009 1.2500000000000002
1 -1.2500000000000007 -2.5 -1 4.3218024314993114e-17 
8 -3.7500000000000009 1.2500000000000002
1 1.2500000000000002 -3 -1 -0 
1 0 0 1 0 
1 0 -4 1 0 
1 2.5000000000000004 -2.5000000000000009 6.1273554473256887e-17 1 
1 5.0000000000000009 0 0 -1 
1 0 0 0 -1 
1 5.0000000000000009 0 0 -1 
1 0 0 0 -1 
1 0 0 1 0 
1 0 -4 1 0 
1 2.5000000000000009 2.5000000000000004 -1 4.3218024314993114e-17 
1 5.0000000000000009 0 0 -1 
1 0 0 0 -1 
1 0 0 1 0 
1 0 -4 1 0 
1 -2.5000000000000004 2.5000000000000009 -6.1273554473256887e-17 -1 
1 0 0 0 -1 
1 5.0000000000000009 0 0 -1 
1 0 0 1 0 
1 0 -4 1 0 
1 -2.5000000000000009 -2.5000000000000004 1 -4.3218024314993114e-17 
1 0 0 1 0 
1 0 -4 1 0 
1 -0.99999999999999989 -1.0000000000000004 1 5.7624032419990767e-18 
1 0 0 1 0 
1 0 -4 1 0 
1 1.0000000000000007 -1.0000000000000004 -1.0525989922051656e-16 1 
1 0 0 1 0 
1 0 -4 1 0 
1 1.0000000000000004 1.0000000000000007 -1 -2.0821483714423347e-16 
1 0 0 1 0 
1 0 -4 1 0 
1 -1 1.0000000000000002 -2.4970414048662703e-18 -1 
1 2.0000000000000009 0 0 -1 
1 0 0 0 -1 
8 -1.5000000000000011 0.49999999999999983
1 -0.50000000000000011 -1.0000000000000007 -1 -5.7624032419990767e-18 
8 -1.5000000000000011 0.49999999999999983
1 0.49999999999999983 -3 -1 -0 
1 0 0 0 -1 
1 2.0000000000000004 0 0 -1 
1 2.0000000000000009 0 0 -1 
1 0 0 0 -1 
8 -1.5000000000000007 0.50000000000000022
1 1.0000000000000007 -0.50000000000000011 1.0525989922051656e-16 -1 
8 -1.5000000000000007 0.50000000000000022
1 0.50000000000000022 -3 -1 -0 
1 2.0000000000000004 0 0 -1 
1 0 0 0 -1 
8 -1.5000000000000002 0.50000000000000022
1 0.50000000000000011 1.0000000000000007 1 2.0821483714423347e-16 
8 -1.5000000000000002 0.50000000000000022
1 0.50000000000000022 -3 -1 0 
8 -1.5000000000000007 0.49999999999999983
1 -1.0000000000000002 0.50000000000000033 5.7624032419990767e-18 1 
8 -1.5000000000000007 0.49999999999999983
1 0.49999999999999983 -3 -1 -0 
Curves 26
1 6.757352941176471 6.6544117647058822 -1.25 0 0 1 
2 4.875 3.125 -1.25 0 0 1 0.4705882352941177 0.88235294117647067 -0 -0.88235294117647067 0.4705882352941177 0 4
1 7.1544117647058822 4.742647058823529 4.75 0.88235294117647067 -0.47058823529411775 0 
1 3.2573529411764701 5.4044117647058822 4.75 0.47058823529411775 0.88235294117647067 -0 
1 2.5955882352941169 1.5073529411764701 4.75 -0.88235294117647067 0.47058823529411775 0 
1 6.492647058823529 0.84558823529411742 4.75 -0.47058823529411775 -0.88235294117647067 0 
1 8.257352941176471 4.1544117647058822 1.75 -0.88235294117647067 0.47058823529411775 0 
1 3.8455882352941178 6.507352941176471 1.75 0 0 1 
1 8.257352941176471 4.1544117647058822 1.75 0 0 1 
1 3.8455882352941178 6.507352941176471 1.75 -0.47058823529411764 -0.88235294117647045 0 
1 1.492647058823529 2.0955882352941178 1.75 0 0 1 
1 1.492647058823529 2.0955882352941178 1.75 0.88235294117647067 -0.47058823529411775 0 
1 5.9044117647058822 -0.25735294117647078 1.75 0 0 1 
1 5.9044117647058822 -0.25735294117647078 1.75 0.47058823529411764 0.88235294117647045 0 
1 5.2867647058823533 1.7720588235294117 1.75 0.47058823529411764 0.88235294117647056 0 
1 6.2279411764705888 3.5367647058823533 1.75 -0.88235294117647056 0.47058823529411753 0 
1 4.4632352941176467 4.4779411764705888 1.75 -0.47058823529411753 -0.88235294117647078 0 
1 3.5220588235294117 2.7132352941176472 1.75 0.88235294117647056 -0.47058823529411764 0 
1 6.2279411764705888 3.5367647058823533 1.75 0 0 1 
1 5.5220588235294121 2.2132352941176467 4.75 -0.4705882352941177 -0.88235294117647067 0 
1 5.2867647058823533 1.7720588235294117 1.75 0 0 1 
1 4.4632352941176467 4.4779411764705888 1.75 0 0 1 
1 5.7867647058823533 3.7720588235294121 4.75 0.88235294117647067 -0.47058823529411759 0 
1 3.5220588235294117 2.7132352941176472 1.75 0 0 1 
1 4.2279411764705879 4.0367647058823533 4.75 0.47058823529411753 0.88235294117647078 -0 
1 3.9632352941176467 2.4779411764705883 4.75 -0.88235294117647067 0.4705882352941177 0 
Polygon3D 0
PolygonOnTriangulations 0
Surfaces 11
2 4.875 3.125 -1.25 -0 -0 -1 0.4705882352941177 0.88235294117647067 -0 -0.88235294117647067 0.4705882352941177 0 4
1 4.875 3.125 -1.25 0 0 1 0.4705882352941177 0.88235294117647067 -0 -0.88235294117647067 0.4705882352941177 0 
1 8.257352941176471 4.1544117647058822 1.75 -0.47058823529411775 -0.88235294117647067 0 -0.88235294117647067 0.47058823529411775 0 -0 0 -1 
1 3.8455882352941178 6.507352941176471 1.75 0.88235294117647067 -0.47058823529411775 0 -0.47058823529411775 -0.88235294117647067 0 0 -0 -1 
1 1.492647058823529 2.0955882352941178 1.75 0.47058823529411775 0.88235294117647067 -0 0.88235294117647067 -0.47058823529411775 0 0 -0 -1 
1 5.9044117647058822 -0.25735294117647078 1.75 -0.88235294117647067 0.47058823529411775 0 0.47058823529411775 0.88235294117647067 0 0 0 -1 
1 4.875 3.125 1.75 0 0 1 0.4705882352941177 0.88235294117647067 -0 -0.88235294117647067 0.4705882352941177 0 
1 5.2867647058823533 1.7720588235294117 1.75 -0.88235294117647067 0.4705882352941177 0 0.4705882352941177 0.88235294117647067 0 0 0 -1 
1 6.2279411764705888 3.5367647058823533 1.75 -0.47058823529411759 -0.88235294117647067 0 -0.88235294117647067 0.47058823529411759 0 -0 0 -1 
1 4.4632352941176467 4.4779411764705888 1.75 0.88235294117647078 -0.47058823529411753 0 -0.47058823529411753 -0.88235294117647078 0 0 -0 -1 
1 3.5220588235294117 2.7132352941176472 1.75 0.4705882352941177 0.88235294117647067 -0 0.88235294117647067 -0.4705882352941177 0 0 -0 -1 
Triangulations 0

TShapes 73
Ve
1e-07
6.75735294117647 6.65441176470588 -1.25
0 0

0101101
*
Ed
 1e-07 1 1 0
1  1 0 0 6
3  1 2CN 1 0 0 6
0

0101000
+73 0 -73 1 *
Ed
 1e-07 1 1 0
1  2 0 0 6.28318530717959
2  3 1 0 0 6.28318530717959
2  4 1 2 0 6.28318530717959
2  5 2 0 0 6.28318530717959
0

0101100
+73 0 -73 0 *
Wi

0101100
+72 0 -72 0 -71 0 +71 1 *
Fa
0  1e-07 1 0

0101000
+70 0 *
Wi

0101100
+71 0 *
Fa
0  1e-07 2 0

0101000
+68 0 *
Wi

0101100
+71 1 *
Ve
1.50000000888178e-07
3.84558823529412 6.50735294117647 4.75
0 0

0101101
*
Ve
1.50000000888178e-07
8.25735294117647 4.15441176470588 4.75
0 0

0101101
*
Ed
 1.5e-07 1 1 0
1  3 0 -3.75 1.25
2  6 2 1 -3.75 1.25
2  7 3 0 -3.75 1.25
0

0101000
+65 0 -64 0 *
Ve
1.50000000800593e-07
1.49264705882353 2.09558823529412 4.75
0 0

0101101
*
Ed
 1.5e-07 1 1 0
1  4 0 -3.75 1.25
2  8 2 1 -3.75 1.25
2  9 4 0 -3.75 1.25
0

0101000
+62 0 -65 0 *
Ve
1.50000001110223e-07
5.90441176470588 -0.257352941176471 4.75
0 0

0101101
*
Ed
 1.5e-07 1 1 0
1  5 0 -3.75 1.25
2  10 2 1 -3.75 1.25
2  11 5 0 -3.75 1.25
0

0101000
+60 0 -62 0 *
Ed
 1.5e-07 1 1 0
1  6 0 -3.75 1.25
2  12 2 1 -3.75 1.25
2  13 6 0 -3.75 1.25
0

0101000
+64 0 -60 0 *
Wi

0101100
+63 0 +61 0 +59 0 +58 0 *
Fa
0  1e-07 2 1

0101000
+66 0 +57 0 *
Ve
1e-07
8.25735294117647 4.15441176470588 1.75
0 0

0101101
*
Ve
1e-07
3.84558823529412 6.50735294117647 1.75
0 0

0101101
*
Ed
 1e-07 1 1 0
1  7 0 0 5
2  14 3 0 0 5
2  15 3 4 0 5
2  16 7 0 0 5
0

0101000
+55 0 -54 0 *
Ed
 1e-07 1 1 0
1  8 0 0 3
2  17 3 0 0 3
2  18 4 0 0 3
0

0101000
+54 0 -65 0 *
Ed
 1e-07 1 1 0
1  9 0 0 3
2  19 6 0 0 3
2  20 3 0 0 3
0

0101000
+55 0 -64 0 *
Wi

0101100
-53 0 -52 0 -63 0 +51 0 *
Fa
0  1e-07 3 0

0101000
+50 0 *
Ve
1e-07
1.49264705882353 2.09558823529412 1.75
0 0

0101101
*
Ed
 1e-07 1 1 0
1  10 0 0 5
2  21 4 0 0 5
2  22 4 4 0 5
2  23 7 0 0 5
0

0101000
+54 0 -48 0 *
Ed
 1e-07 1 1 0
1  11 0 0 3
2  24 4 0 0 3
2  25 5 0 0 3
0

0101000
+48 0 -62 0 *
Wi

0101100
-47 0 -46 0 -61 0 +52 0 *
Fa
0  1e-07 4 0

0101000
+45 0 *
Ve
1e-07
5.90441176470588 -0.257352941176471 1.75
0 0

0101101
*
Ed
 1e-07 1 1 0
1  12 0 0 5
2  26 5 0 0 5
2  27 5 4 0 5
2  28 7 0 0 5
0

0101000
+48 0 -43 0 *
Ed
 1e-07 1 1 0
1  13 0 0 3
2  29 6 0 0 3
2  30 5 0 0 3
0

0101000
+43 0 -60 0 *
Wi

0101100
-42 0 -41 0 -59 0 +46 0 *
Fa
0  1e-07 5 0

0101000
+40 0 *
Ed
 1e-07 1 1 0
1  14 0 0 5
2  31 6 0 0 5
2  32 6 4 0 5
2  33 7 0 0 5
0

0101000
+43 0 -55 0 *
Wi

0101100
-38 0 -51 0 -58 0 +41 0 *
Fa
0  1e-07 6 0

0101000
+37 0 *
Wi

0101100
+38 0 +53 0 +47 0 +42 0 *
Ve
1e-07
5.28676470588235 1.77205882352941 1.75
0 0

0101101
*
Ve
1e-07
6.22794117647059 3.53676470588235 1.75
0 0

0101101
*
Ed
 1e-07 1 1 0
1  15 0 0 2
2  34 8 0 0 2
2  35 8 4 0 2
2  36 7 0 0 2
0

0101000
+34 0 -33 0 *
Ve
1e-07
4.46323529411765 4.47794117647059 1.75
0 0

0101101
*
Ed
 1e-07 1 1 0
1  16 0 0 2
2  37 9 0 0 2
2  38 9 4 0 2
2  39 7 0 0 2
0

0101000
+33 0 -31 0 *
Ve
1e-07
3.52205882352941 2.71323529411765 1.75
0 0

0101101
*
Ed
 1e-07 1 1 0
1  17 0 0 2
2  40 10 0 0 2
2  41 10 4 0 2
2  42 7 0 0 2
0

0101000
+31 0 -29 0 *
Ed
 1e-07 1 1 0
1  18 0 0 2
2  43 11 0 0 2
2  44 11 4 0 2
2  45 7 0 0 2
0

0101000
+29 0 -34 0 *
Wi

0101100
+32 0 +30 0 +28 0 +27 0 *
Fa
0  1e-07 7 0

0101000
+35 0 -26 0 *
Ve
1.50000000444089e-07
6.22794117647059 3.53676470588235 4.75
0 0

0101101
*
Ed
 1e-07 1 1 0
1  19 0 0 3
2  46 8 0 0 3
2  47 9 0 0 3
0

0101000
+33 0 -24 0 *
Ve
1.50000000222045e-07
5.28676470588235 1.77205882352941 4.75
0 0

0101101
*
Ed
 1.5e-07 1 1 0
1  20 0 -1.5 0.5
2  48 2 1 -1.5 0.5
2  49 8 0 -1.5 0.5
0

0101000
+24 0 -22 0 *
Ed
 1e-07 1 1 0
1  21 0 0 3
2  50 8 0 0 3
2  51 11 0 0 3
0

0101000
+34 0 -22 0 *
Wi

0101100
-32 0 -23 0 -21 0 +20 0 *
Fa
0  1e-07 8 0

0101000
+19 0 *
Ve
1.5e-07
4.46323529411765 4.47794117647059 4.75
0 0

0101101
*
Ed
 1e-07 1 1 0
1  22 0 0 3
2  52 9 0 0 3
2  53 10 0 0 3
0

0101000
+31 0 -17 0 *
Ed
 1.5e-07 1 1 0
1  23 0 -1.5 0.5
2  54 2 1 -1.5 0.5
2  55 9 0 -1.5 0.5
0

0101000
+17 0 -24 0 *
Wi

0101100
-30 0 -16 0 -15 0 +23 0 *
Fa
0  1e-07 9 0

0101000
+14 0 *
Ve
1.50000000444089e-07
3.52205882352941 2.71323529411765 4.75
0 0

0101101
*
Ed
 1e-07 1 1 0
1  24 0 0 3
2  56 10 0 0 3
2  57 11 0 0 3
0

0101000
+29 0 -12 0 *
Ed
 1.5e-07 1 1 0
1  25 0 -1.5 0.5
2  58 2 1 -1.5 0.5
2  59 10 0 -1.5 0.5
0

0101000
+12 0 -17 0 *
Wi

0101100
-28 0 -11 0 -10 0 +16 0 *
Fa
0  1e-07 10 0

0101000
+9 0 *
Ed
 1.5e-07 1 1 0
1  26 0 -1.5 0.5
2  60 2 1 -1.5 0.5
2  61 11 0 -1.5 0.5
0

0101000
+22 0 -12 0 *
Wi

0101100
-27 0 -20 0 -7 0 +11 0 *
Fa
0  1e-07 11 0

0101000
+6 0 *
Wi

0101100
-21 0 -7 0 -10 0 -15 0 *
Fa
0  1e-07 2 1

0101000
+4 0 *
Sh

0101100
-69 0 -67 0 +56 0 +49 0 +44 0 +39 0 +36 0 +25 0 -18 0 -13 0 
-8 0 -5 0 +3 0 *
So

0100000
+2 0 *

+1 0 