DBRep_DrawableShape

CASCADE Topology V1, (c) Matra-Datavision
Locations 4
1
              1               0               0               0 
              0               1               0               0 
              0               0               1             6.5 
2  1 -1 0
1
              1               0               0               0 
              0               1               0               0 
              0               0               1               5 
2  3 -1 0
Curve2ds 89
1 0 0 0 -1 
1 6.2831853071795862 0 0 -1 
1 0 0 1 0 
1 0 -6.5 1 0 
2 0 0 1 -2.6277468038465255e-18 2.6277468038465255e-18 1 4
8 -3.75 1.25
1 2.5 -1.2500000000000002 -4.861331587116069e-17 -1 
8 -3.75 1.25
1 1.25 -4 -1 -0 
8 -3.7500000000000004 1.2500000000000004
1 1.25 2.5000000000000004 1 5.2883404427411289e-17 
8 -3.7500000000000004 1.2500000000000004
1 1.2500000000000004 -4 -1 0 
8 -3.7500000000000018 1.2500000000000002
1 -2.5000000000000004 1.2500000000000002 4.861331587116069e-17 1 
8 -3.7500000000000018 1.2500000000000002
1 1.2500000000000002 -4 -1 -0 
8 -3.7500000000000009 1.2500000000000002
1 -1.2500000000000002 -2.5000000000000009 -1 -9.5584289989917331e-17 
8 -3.7500000000000009 1.2500000000000002
1 1.2500000000000002 -4 -1 -0 
1 0 0 1 0 
1 0 -5 1 0 
1 2.5 -2.5 4.861331587116069e-17 1 
1 5 0 0 -1 
1 0 0 0 -1 
1 5.0000000000000009 0 0 -1 
1 0 0 0 -1 
1 0 0 1 0 
1 0 -5 1 0 
1 2.5000000000000004 2.5000000000000004 -1 -5.2883404427411289e-17 
1 5.0000000000000009 0 0 -1 
1 0 0 0 -1 
1 0 0 1 0 
1 0 -5 1 0 
1 -2.5000000000000004 2.5000000000000004 -4.861331587116069e-17 -1 
1 0 0 0 -1 
1 5.0000000000000018 0 0 -1 
1 0 0 1 0 
1 0 -5 1 0 
1 -2.5000000000000004 -2.5000000000000009 1 9.5584289989917331e-17 
1 0 0 1 0 
1 0 -5 1 0 
1 -1.5 -1.5000000000000002 1 1.5109544122117516e-16 
1 0 0 1 0 
1 0 -5 1 0 
1 1.5000000000000002 -1.5 -5.3868809478853741e-17 1 
1 0 0 1 0 
1 0 -5 1 0 
1 1.5000000000000002 -0.5 -1 5.8138898035104352e-17 
1 0 0 1 0 
1 0 -5 1 0 
1 -0.5 -0.49999999999999994 -2.6277468038465247e-18 1 
1 0 0 1 0 
1 0 -5 1 0 
1 -0.5 0.50000000000000011 1 1.083945556586691e-16 
1 0 0 1 0 
1 0 -5 1 0 
1 1.4999999999999998 0.50000000000000022 -2.6277468038465247e-18 1 
1 0 0 1 0 
1 0 -5 1 0 
1 1.5 1.5000000000000002 -1 -1.5109544122117516e-16 
1 0 0 1 0 
1 0 -5 1 0 
1 -1.5000000000000002 1.5 5.3868809478853741e-17 -1 
1 3 0 0 -1 
1 0 0 0 -1 
8 -2.25 0.75000000000000022
1 -0.74999999999999989 -1.5 -1 -1.5109544122117516e-16 
8 -2.25 0.75000000000000022
1 0.75000000000000022 -4 -1 -0 
1 0 0 0 -1 
1 3.0000000000000004 0 0 -1 
1 0.99999999999999989 0 0 -1 
1 0 0 0 -1 
8 -0.24999999999999989 0.75
1 1.5000000000000004 -0.75 5.3868809478853741e-17 -1 
8 -0.24999999999999989 0.75
1 0.75 -4 -1 -0 
1 2 0 0 -1 
1 0 0 0 -1 
8 -1.2499999999999998 0.75000000000000022
1 0.75 -0.50000000000000011 1 -5.8138898035104352e-17 
8 -1.2499999999999998 0.75000000000000022
1 0.75000000000000022 -4 -1 0 
1 1 0 0 -1 
1 0 0 0 -1 
8 -0.74999999999999989 0.25000000000000011
1 -0.5 -0.24999999999999986 2.6277468038465247e-18 -1 
8 -0.74999999999999989 0.25000000000000011
1 0.25000000000000011 -4 -1 -0 
1 2 0 0 -1 
1 0 0 0 -1 
8 -1.75 0.25
1 -0.25 0.50000000000000022 -1 -1.083945556586691e-16 
8 -1.75 0.25
1 0.25 -4 -1 -0 
1 1 0 0 -1 
1 0 0 0 -1 
8 -1.25 -0.25000000000000011
1 1.5 0.25000000000000006 2.6277468038465247e-18 -1 
8 -1.25 -0.25000000000000011
1 -0.25000000000000011 -4 -1 -0 
1 3 0 0 -1 
1 0 0 0 -1 
8 -2.25 0.75
1 0.74999999999999989 1.5 1 1.5109544122117516e-16 
8 -2.25 0.75
1 0.75 -4 -1 0 
8 -2.2500000000000004 0.75000000000000011
1 -1.5000000000000002 0.74999999999999989 -5.3868809478853741e-17 1 
8 -2.2500000000000004 0.75000000000000011
1 0.75000000000000011 -4 -1 -0 
Curves 38
1 4.6923076923076925 0.53846153846153855 0 0 0 1 
2 1 -1 0 0 0 1 0.92307692307692313 0.38461538461538464 -0 -0.38461538461538464 0.92307692307692313 0 4
1 3.7884615384615383 -1.1923076923076925 6.5 0.38461538461538458 -0.92307692307692313 0 
1 1.1923076923076921 1.7884615384615388 6.5 0.92307692307692313 0.38461538461538469 -0 
1 -1.7884615384615388 -0.80769230769230771 6.5 -0.38461538461538458 0.92307692307692313 0 
1 0.80769230769230793 -3.7884615384615392 6.5 -0.92307692307692302 -0.38461538461538469 0 
1 4.2692307692307692 -2.3461538461538463 2.5 -0.38461538461538458 0.92307692307692313 0 
1 2.3461538461538463 2.2692307692307696 2.5 0 0 1 
1 4.2692307692307692 -2.3461538461538463 2.5 0 0 1 
1 2.3461538461538463 2.2692307692307696 2.5 -0.92307692307692313 -0.38461538461538469 0 
1 -2.2692307692307696 0.34615384615384626 2.5 0 0 1 
1 -2.2692307692307696 0.34615384615384626 2.5 0.38461538461538453 -0.92307692307692302 0 
1 -0.34615384615384637 -4.2692307692307701 2.5 0 0 1 
1 -0.34615384615384637 -4.2692307692307701 2.5 0.92307692307692302 0.38461538461538469 0 
1 0.1923076923076924 -2.9615384615384617 2.5 0.92307692307692302 0.38461538461538475 0 
1 2.9615384615384617 -1.8076923076923075 2.5 -0.38461538461538469 0.92307692307692313 0 
1 2.5769230769230771 -0.88461538461538458 2.5 -0.92307692307692313 -0.38461538461538458 0 
1 0.73076923076923073 -1.6538461538461537 2.5 -0.38461538461538464 0.92307692307692313 0 
1 0.34615384615384615 -0.73076923076923073 2.5 0.92307692307692313 0.38461538461538475 0 
1 2.1923076923076921 0.038461538461538547 2.5 -0.38461538461538464 0.92307692307692313 0 
1 1.8076923076923075 0.96153846153846156 2.5 -0.92307692307692302 -0.38461538461538475 0 
1 -0.96153846153846156 -0.19230769230769251 2.5 0.38461538461538464 -0.92307692307692302 0 
1 2.9615384615384617 -1.8076923076923075 2.5 0 0 1 
1 0.8846153846153848 -2.6730769230769229 6.5 -0.92307692307692302 -0.38461538461538475 0 
1 0.1923076923076924 -2.9615384615384617 2.5 0 0 1 
1 2.5769230769230771 -0.88461538461538458 2.5 0 0 1 
1 2.6730769230769234 -1.1153846153846152 6.5 0.38461538461538469 -0.92307692307692313 0 
1 0.73076923076923073 -1.6538461538461537 2.5 0 0 1 
1 1.8846153846153846 -1.1730769230769231 6.5 0.92307692307692313 0.38461538461538458 -0 
1 0.34615384615384615 -0.73076923076923073 2.5 0 0 1 
1 0.63461538461538458 -1.4230769230769229 6.5 0.38461538461538464 -0.92307692307692313 0 
1 2.1923076923076921 0.038461538461538547 2.5 0 0 1 
1 0.57692307692307687 -0.63461538461538447 6.5 -0.92307692307692313 -0.38461538461538475 0 
1 1.8076923076923075 0.96153846153846156 2.5 0 0 1 
1 2.2884615384615383 -0.19230769230769229 6.5 0.38461538461538464 -0.92307692307692313 0 
1 -0.96153846153846156 -0.19230769230769251 2.5 0 0 1 
1 1.1153846153846152 0.67307692307692291 6.5 0.92307692307692302 0.38461538461538475 -0 
1 -0.67307692307692313 -0.8846153846153848 6.5 -0.38461538461538469 0.92307692307692313 0 
Polygon3D 0
PolygonOnTriangulations 0
Surfaces 15
2 1 -1 0 -0 -0 -1 0.92307692307692313 0.38461538461538464 -0 -0.38461538461538464 0.92307692307692313 0 4
1 1 -1 0 0 0 1 0.92307692307692313 0.38461538461538464 -0 -0.38461538461538464 0.92307692307692313 0 
1 4.2692307692307692 -2.3461538461538463 2.5 -0.92307692307692313 -0.38461538461538458 0 -0.38461538461538458 0.92307692307692313 0 -0 0 -1 
1 2.3461538461538463 2.2692307692307696 2.5 0.38461538461538469 -0.92307692307692313 0 -0.92307692307692313 -0.38461538461538469 0 0 -0 -1 
1 -2.2692307692307696 0.34615384615384626 2.5 0.92307692307692313 0.38461538461538458 -0 0.38461538461538458 -0.92307692307692313 0 0 -0 -1 
1 -0.34615384615384637 -4.2692307692307701 2.5 -0.38461538461538469 0.92307692307692302 0 0.92307692307692302 0.38461538461538469 0 0 0 -1 
1 1 -1 2.5 0 0 1 0.92307692307692313 0.38461538461538464 -0 -0.38461538461538464 0.92307692307692313 0 
1 0.1923076923076924 -2.9615384615384617 2.5 -0.38461538461538475 0.92307692307692302 0 0.92307692307692302 0.38461538461538475 0 0 0 -1 
1 2.9615384615384617 -1.8076923076923075 2.5 -0.92307692307692313 -0.38461538461538469 0 -0.38461538461538469 0.92307692307692313 0 -0 0 -1 
1 2.5769230769230771 -0.88461538461538458 2.5 0.38461538461538458 -0.92307692307692313 0 -0.92307692307692313 -0.38461538461538458 0 0 -0 -1 
1 0.73076923076923073 -1.6538461538461537 2.5 -0.92307692307692313 -0.38461538461538464 0 -0.38461538461538464 0.92307692307692313 0 -0 0 -1 
1 0.34615384615384615 -0.73076923076923073 2.5 -0.38461538461538475 0.92307692307692313 0 0.92307692307692313 0.38461538461538475 0 0 0 -1 
1 2.1923076923076921 0.038461538461538547 2.5 -0.92307692307692313 -0.38461538461538464 0 -0.38461538461538464 0.92307692307692313 0 -0 0 -1 
1 1.8076923076923075 0.96153846153846156 2.5 0.38461538461538475 -0.92307692307692302 0 -0.92307692307692302 -0.38461538461538475 0 0 -0 -1 
1 -0.96153846153846156 -0.19230769230769251 2.5 0.92307692307692313 0.38461538461538469 -0 0.38461538461538469 -0.92307692307692313 0 0 -0 -1 
Triangulations 0

TShapes 101
Ve
1e-07
4.69230769230769 0.538461538461539 0
0 0

0101101
*
Ed
 1e-07 1 1 0
1  1 0 0 6.5
3  1 2CN 1 0 0 6.5
0

0101000
+101 0 -101 1 *
Ed
 1e-07 1 1 0
1  2 0 0 6.28318530717959
2  3 1 0 0 6.28318530717959
2  4 1 2 0 6.28318530717959
2  5 2 0 0 6.28318530717959
0

0101100
+101 0 -101 0 *
Wi

0101100
+100 0 -100 0 -99 0 +99 1 *
Fa
0  1e-07 1 0

0101000
+98 0 *
Wi

0101100
+99 0 *
Fa
0  1e-07 2 0

0101000
+96 0 *
Wi

0101100
+99 1 *
Ve
1.50000000444089e-07
2.34615384615385 2.26923076923077 6.5
0 0

0101101
*
Ve
1.50000000888178e-07
4.26923076923077 -2.34615384615385 6.5
0 0

0101101
*
Ed
 1.5e-07 1 1 0
1  3 0 -3.75 1.25
2  6 2 1 -3.75 1.25
2  7 3 0 -3.75 1.25
0

0101000
+93 0 -92 0 *
Ve
1.50000000523691e-07
-2.26923076923077 0.346153846153846 6.5
0 0

0101101
*
Ed
 1.5e-07 1 1 0
1  4 0 -3.75 1.25
2  8 2 1 -3.75 1.25
2  9 4 0 -3.75 1.25
0

0101000
+90 0 -93 0 *
Ve
1.50000000993014e-07
-0.346153846153846 -4.26923076923077 6.5
0 0

0101101
*
Ed
 1.5e-07 1 1 0
1  5 0 -3.75 1.25
2  10 2 1 -3.75 1.25
2  11 5 0 -3.75 1.25
0

0101000
+88 0 -90 0 *
Ed
 1.5e-07 1 1 0
1  6 0 -3.75 1.25
2  12 2 1 -3.75 1.25
2  13 6 0 -3.75 1.25
0

0101000
+92 0 -88 0 *
Wi

0101100
+91 0 +89 0 +87 0 +86 0 *
Fa
0  1e-07 2 1

0101000
+94 0 +85 0 *
Ve
1e-07
4.26923076923077 -2.34615384615385 2.5
0 0

0101101
*
Ve
1e-07
2.34615384615385 2.26923076923077 2.5
0 0

0101101
*
Ed
 1e-07 1 1 0
1  7 0 0 5
2  14 3 0 0 5
2  15 3 4 0 5
2  16 7 0 0 5
0

0101000
+83 0 -82 0 *
Ed
 1e-07 1 1 0
1  8 0 0 4
2  17 3 0 0 4
2  18 4 0 0 4
0

0101000
+82 0 -93 0 *
Ed
 1e-07 1 1 0
1  9 0 0 4
2  19 6 0 0 4
2  20 3 0 0 4
0

0101000
+83 0 -92 0 *
Wi

0101100
-81 0 -80 0 -91 0 +79 0 *
Fa
0  1e-07 3 0

0101000
+78 0 *
Ve
1e-07
-2.26923076923077 0.346153846153846 2.5
0 0

0101101
*
Ed
 1e-07 1 1 0
1  10 0 0 5
2  21 4 0 0 5
2  22 4 4 0 5
2  23 7 0 0 5
0

0101000
+82 0 -76 0 *
Ed
 1e-07 1 1 0
1  11 0 0 4
2  24 4 0 0 4
2  25 5 0 0 4
0

0101000
+76 0 -90 0 *
Wi

0101100
-75 0 -74 0 -89 0 +80 0 *
Fa
0  1e-07 4 0

0101000
+73 0 *
Ve
1e-07
-0.346153846153846 -4.26923076923077 2.5
0 0

0101101
*
Ed
 1e-07 1 1 0
1  12 0 0 5
2  26 5 0 0 5
2  27 5 4 0 5
2  28 7 0 0 5
0

0101000
+76 0 -71 0 *
Ed
 1e-07 1 1 0
1  13 0 0 4
2  29 6 0 0 4
2  30 5 0 0 4
0

0101000
+71 0 -88 0 *
Wi

0101100
-70 0 -69 0 -87 0 +74 0 *
Fa
0  1e-07 5 0

0101000
+68 0 *
Ed
 1e-07 1 1 0
1  14 0 0 5
2  31 6 0 0 5
2  32 6 4 0 5
2  33 7 0 0 5
0

0101000
+71 0 -83 0 *
Wi

0101100
-66 0 -79 0 -86 0 +69 0 *
Fa
0  1e-07 6 0

0101000
+65 0 *
Wi

0101100
+66 0 +81 0 +75 0 +70 0 *
Ve
1e-07
0.192307692307692 -2.96153846153846 2.5
0 0

0101101
*
Ve
1e-07
2.96153846153846 -1.80769230769231 2.5
0 0

0101101
*
Ed
 1e-07 1 1 0
1  15 0 0 3
2  34 8 0 0 3
2  35 8 4 0 3
2  36 7 0 0 3
0

0101000
+62 0 -61 0 *
Ve
1e-07
2.57692307692308 -0.884615384615385 2.5
0 0

0101101
*
Ed
 1e-07 1 1 0
1  16 0 0 1
2  37 9 0 0 1
2  38 9 4 0 1
2  39 7 0 0 1
0

0101000
+61 0 -59 0 *
Ve
1e-07
0.730769230769231 -1.65384615384615 2.5
0 0

0101101
*
Ed
 1e-07 1 1 0
1  17 0 0 2
2  40 10 0 0 2
2  41 10 4 0 2
2  42 7 0 0 2
0

0101000
+59 0 -57 0 *
Ve
1e-07
0.346153846153846 -0.730769230769231 2.5
0 0

0101101
*
Ed
 1e-07 1 1 0
1  18 0 0 1
2  43 11 0 0 1
2  44 11 4 0 1
2  45 7 0 0 1
0

0101000
+57 0 -55 0 *
Ve
1e-07
2.19230769230769 0.0384615384615385 2.5
0 0

0101101
*
Ed
 1e-07 1 1 0
1  19 0 0 2
2  46 12 0 0 2
2  47 12 4 0 2
2  48 7 0 0 2
0

0101000
+55 0 -53 0 *
Ve
1e-07
1.80769230769231 0.961538461538462 2.5
0 0

0101101
*
Ed
 1e-07 1 1 0
1  20 0 0 1
2  49 13 0 0 1
2  50 13 4 0 1
2  51 7 0 0 1
0

0101000
+53 0 -51 0 *
Ve
1e-07
-0.961538461538462 -0.192307692307693 2.5
0 0

0101101
*
Ed
 1e-07 1 1 0
1  21 0 0 3
2  52 14 0 0 3
2  53 14 4 0 3
2  54 7 0 0 3
0

0101000
+51 0 -49 0 *
Ed
 1e-07 1 1 0
1  22 0 0 3
2  55 15 0 0 3
2  56 15 4 0 3
2  57 7 0 0 3
0

0101000
+49 0 -62 0 *
Wi

0101100
+60 0 +58 0 +56 0 +54 0 +52 0 +50 0 +48 0 +47 0 *
Fa
0  1e-07 7 0

0101000
+63 0 -46 0 *
Ve
1.50000000222045e-07
2.96153846153846 -1.80769230769231 6.5
0 0

0101101
*
Ed
 1e-07 1 1 0
1  23 0 0 4
2  58 8 0 0 4
2  59 9 0 0 4
0

0101000
+61 0 -44 0 *
Ve
1.5000000048473e-07
0.192307692307692 -2.96153846153846 6.5
0 0

0101101
*
Ed
 1.5e-07 1 1 0
1  24 0 -2.25 0.75
2  60 2 1 -2.25 0.75
2  61 8 0 -2.25 0.75
0

0101000
+44 0 -42 0 *
Ed
 1e-07 1 1 0
1  25 0 0 4
2  62 8 0 0 4
2  63 15 0 0 4
0

0101000
+62 0 -42 0 *
Wi

0101100
-60 0 -43 0 -41 0 +40 0 *
Fa
0  1e-07 8 0

0101000
+39 0 *
Ve
1.50000000111022e-07
2.57692307692308 -0.884615384615385 6.5
0 0

0101101
*
Ed
 1e-07 1 1 0
1  26 0 0 4
2  64 9 0 0 4
2  65 10 0 0 4
0

0101000
+59 0 -37 0 *
Ed
 1.5e-07 1 1 0
1  27 0 -0.25 0.75
2  66 2 1 -0.25 0.75
2  67 9 0 -0.25 0.75
0

0101000
+37 0 -44 0 *
Wi

0101100
-58 0 -36 0 -35 0 +43 0 *
Fa
0  1e-07 9 0

0101000
+34 0 *
Ve
1.50000000111022e-07
0.730769230769231 -1.65384615384615 6.5
0 0

0101101
*
Ed
 1e-07 1 1 0
1  28 0 0 4
2  68 10 0 0 4
2  69 11 0 0 4
0

0101000
+57 0 -32 0 *
Ed
 1.5e-07 1 1 0
1  29 0 -1.25 0.75
2  70 2 1 -1.25 0.75
2  71 10 0 -1.25 0.75
0

0101000
+32 0 -37 0 *
Wi

0101100
-56 0 -31 0 -30 0 +36 0 *
Fa
0  1e-07 10 0

0101000
+29 0 *
Ve
1.50000000124127e-07
0.346153846153846 -0.730769230769231 6.5
0 0

0101101
*
Ed
 1e-07 1 1 0
1  30 0 0 4
2  72 11 0 0 4
2  73 12 0 0 4
0

0101000
+55 0 -27 0 *
Ed
 1.5e-07 1 1 0
1  31 0 -0.75 0.25
2  74 2 1 -0.75 0.25
2  75 11 0 -0.75 0.25
0

0101000
+27 0 -32 0 *
Wi

0101100
-54 0 -26 0 -25 0 +31 0 *
Fa
0  1e-07 11 0

0101000
+24 0 *
Ve
1.50000000531177e-07
2.19230769230769 0.0384615384615385 6.5
0 0

0101101
*
Ed
 1e-07 1 1 0
1  32 0 0 4
2  76 12 0 0 4
2  77 13 0 0 4
0

0101000
+53 0 -22 0 *
Ed
 1.5e-07 1 1 0
1  33 0 -1.75 0.25
2  78 2 1 -1.75 0.25
2  79 12 0 -1.75 0.25
0

0101000
+22 0 -27 0 *
Wi

0101100
-52 0 -21 0 -20 0 +26 0 *
Fa
0  1e-07 12 0

0101000
+19 0 *
Ve
1.50000000111022e-07
1.80769230769231 0.961538461538462 6.5
0 0

0101101
*
Ed
 1e-07 1 1 0
1  34 0 0 4
2  80 13 0 0 4
2  81 14 0 0 4
0

0101000
+51 0 -17 0 *
Ed
 1.5e-07 1 1 0
1  35 0 -1.25 -0.25
2  82 2 1 -1.25 -0.25
2  83 13 0 -1.25 -0.25
0

0101000
+17 0 -22 0 *
Wi

0101100
-50 0 -16 0 -15 0 +21 0 *
Fa
0  1e-07 13 0

0101000
+14 0 *
Ve
1.50000000277556e-07
-0.961538461538462 -0.192307692307693 6.5
0 0

0101101
*
Ed
 1e-07 1 1 0
1  36 0 0 4
2  84 14 0 0 4
2  85 15 0 0 4
0

0101000
+49 0 -12 0 *
Ed
 1.5e-07 1 1 0
1  37 0 -2.25 0.75
2  86 2 1 -2.25 0.75
2  87 14 0 -2.25 0.75
0

0101000
+12 0 -17 0 *
Wi

0101100
-48 0 -11 0 -10 0 +16 0 *
Fa
0  1e-07 14 0

0101000
+9 0 *
Ed
 1.5e-07 1 1 0
1  38 0 -2.25 0.75
2  88 2 1 -2.25 0.75
2  89 15 0 -2.25 0.75
0

0101000
+42 0 -12 0 *
Wi

0101100
-47 0 -40 0 -7 0 +11 0 *
Fa
0  1e-07 15 0

0101000
+6 0 *
Wi

0101100
-41 0 -7 0 -10 0 -15 0 -20 0 -25 0 -30 0 -35 0 *
Fa
0  1e-07 2 1

0101000
+4 0 *
Sh

0101100
-97 0 -95 0 +84 0 +77 0 +72 0 +67 0 +64 0 +45 0 -38 0 -33 0 
-28 0 -23 0 -18 0 -13 0 -8 0 -5 0 +3 0 *
So

0100000
+2 0 *

+1 0 