DBRep_DrawableShape

CASCADE Topology V1, (c) Matra-Datavision
Locations 0
Curve2ds 48
1 -3.7197163128545014 6.3637754357012799 0 -1 
1 2 -6 0 1 
1 -3.7197163128545014 -5.6362245642987201 1 0 
1 -2.8827822185373186 -1.9487996824738807 1 0 
1 2.2802836871454986 -5.6362245642987201 0.70710678118654757 0.70710678118654757 
1 1.9445436482630052 2.0077973005261263 -1 2.5141726837622646e-17 
1 5.2802836871454986 -2.6362245642987201 0 1 
1 -2.0155644370746373 1 0 -1 
1 5.2802836871454986 -0.6362245642987201 -1 0 
1 -1.1172177814626814 -1.9132782218537319 1 0 
1 3.2802836871454986 -0.6362245642987201 0 1 
1 -2 2 0 -1 
1 3.2802836871454986 3.3637754357012799 -0.70710678118654757 0.70710678118654757 
1 -2.1213203435596424 -2 1 0 
1 0.28028368714549856 6.3637754357012799 -1 0 
1 -2 -2 1 0 
1 2 6 -1 0 
8 0 4
1 -2.8827822185373186 -1.9487996824738807 -0 1 
1 -3.5422705584983283 6.2801099422243114 0 -1 
8 0 12
1 -2 -6 -0 1 
1 -2 -6 1 0 
8 0 4
1 2 2 -0 -1 
1 -3.5422705584983283 -5.7198900577756886 1 0 
8 0 5.5
1 -2.8827822185373186 2.0512003175261193 1 -0 
1 1.9577294415016717 -5.7198900577756886 0.70710678118654757 0.70710678118654757 
8 0 4.2426406871192848
1 2.2980970388562785 -2.0077973005261263 -1 2.5141726837622646e-17 
1 4.9577294415016713 -2.7198900577756886 0 1 
8 0 2
1 2.0155644370746373 1 -0 -1 
1 4.9577294415016713 -0.7198900577756886 -1 0 
8 0 1.5
1 -0.61721778146268136 2.0867217781462681 1 -0 
1 3.4577294415016717 -0.7198900577756886 0 1 
8 0 4
1 2 2 -0 -1 
1 3.4577294415016717 3.2801099422243114 -0.70710678118654757 0.70710678118654757 
8 0 4.2426406871192848
1 -2.1213203435596424 2 1 -0 
1 0.45772944150167172 6.2801099422243114 -1 0 
8 0 4
1 -2 2 1 -0 
1 3.1172177814626814 -1.9487996824738807 -0.12403473458920847 0.99227787671366774 
8 0 4.0311288741492746
1 1.9445436482630052 2.0077973005261267 0.087705801930702917 -0.99614642111874929 
1 -2.2980970388562802 2.0077973005261263 0.087705801930702917 -0.99614642111874929 
8 0 4.0311288741492746
1 -2.0155644370746373 1 1 -0 
1 -2.0155644370746373 -1 1 0 
8 0 4.0311288741492746
1 -1.1172177814626814 -1.9132782218537319 0.12403473458920847 0.99227787671366774 
1 0.88278221853731864 -1.9132782218537319 0 1 
8 0 4
1 -2 2 1 -0 
1 -2 -2 1 0 
8 0 4
1 -2.1213203435596424 -2 0 1 
1 2.1213203435596424 -2 0 1 
8 0 4
1 -2 -2 -0 1 
Curves 24
1 0 0 0 0 1 0 
1 0 12 0 0 0 1 
1 0 12 6 0 -0.70710678118654757 0.70710678118654757 
1 0 9 9 0 -1 0 
1 0 7 9 0 0 -1 
1 0 7 7 0 -1 0 
1 0 3 7 0 -0.70710678118654757 -0.70710678118654757 
1 0 0 4 0 0 -1 
1 0 12 0 1 0 0 
1 4 0 0 0 1 0 
1 4 0 0 -1 0 0 
1 4 12 0 0 0 1 
1 4 12 5.5 0 -0.70710678118654757 0.70710678118654757 
1 4 9 8.5 0 -1 0 
1 4 7 8.5 0 0 -1 
1 4 7 7 0 -1 0 
1 4 3 7 0 -0.70710678118654757 -0.70710678118654757 
1 4 0 4 0 0 -1 
1 0 12 6 0.99227787671366774 0 -0.12403473458920847 
1 0 9 9 0.99227787671366774 0 -0.12403473458920847 
1 0 7 9 0.99227787671366774 0 -0.12403473458920847 
1 0 7 7 1 0 0 
1 0 3 7 1 0 0 
1 0 0 4 1 0 0 
Polygon3D 0
PolygonOnTriangulations 0
Surfaces 10
1 0 6.3637754357012799 3.7197163128545014 1 0 0 -0 0 1 0 -1 0 
1 2 6 0 -0 -0 -1 -1 0 0 0 1 -0 
1 1.9487996824738807 12 2.8827822185373186 0 1 0 0 -0 1 1 0 -0 
1 2 10.500000000000002 7.2500000000000009 0.088045090632562384 0.70436072506049896 0.70436072506049918 -8.8043293417712646e-18 0.70710678118654768 -0.70710678118654746 -0.99611649018350457 0.062257280636469021 0.062257280636469056 
1 2 8 8.75 0.12403473458920847 0 0.99227787671366763 0.99227787671366763 0 -0.12403473458920847 -0 1 0 
1 1.9132782218537319 7.0000000000000009 7.8827822185373186 -0 -1 -0 0 0 -1 1 -0 0 
1 2 5 7 0 0 1 1 0 -0 -0 1 0 
1 2 1.5000000000000002 5.5 -0 -0.70710678118654757 0.70710678118654746 0 -0.70710678118654746 -0.70710678118654757 1 0 0 
1 2 0 2 -0 -1 -0 0 0 -1 1 -0 0 
1 4 6.2801099422243114 3.5422705584983283 1 0 0 -0 0 1 0 -1 0 
Triangulations 0

TShapes 62
Ve
1e-07
0 0 0
0 0

0101101
*
Ve
1e-07
0 12 0
0 0

0101101
*
Ed
 1e-07 1 1 0
1  1 0 0 12
2  1 1 0 0 12
2  2 2 0 0 12
4 C0 1 0 2 0
0

0101000
+62 0 -61 0 *
Ve
1e-07
0 12 6
0 0

0101101
*
Ed
 1e-07 1 1 0
1  2 0 0 6
2  3 1 0 0 6
2  4 3 0 0 6
4 C0 1 0 3 0
0

0101000
+61 0 -59 0 *
Ve
1e-07
0 9 9
0 0

0101101
*
Ed
 1e-07 1 1 0
1  3 0 0 4.24264068711928
2  5 1 0 0 4.24264068711928
2  6 4 0 0 4.24264068711928
4 C0 1 0 4 0
0

0101000
+59 0 -57 0 *
Ve
1e-07
0 7 9
0 0

0101101
*
Ed
 1e-07 1 1 0
1  4 0 0 2
2  7 1 0 0 2
2  8 5 0 0 2
4 C0 1 0 5 0
0

0101000
+57 0 -55 0 *
Ve
1e-07
0 7 7
0 0

0101101
*
Ed
 1e-07 1 1 0
1  5 0 0 2
2  9 1 0 0 2
2  10 6 0 0 2
4 C0 1 0 6 0
0

0101000
+55 0 -53 0 *
Ve
1e-07
0 3 7
0 0

0101101
*
Ed
 1e-07 1 1 0
1  6 0 0 4
2  11 1 0 0 4
2  12 7 0 0 4
4 C0 1 0 7 0
0

0101000
+53 0 -51 0 *
Ve
1e-07
0 0 4
0 0

0101101
*
Ed
 1e-07 1 1 0
1  7 0 0 4.24264068711928
2  13 1 0 0 4.24264068711928
2  14 8 0 0 4.24264068711928
4 C0 1 0 8 0
0

0101000
+51 0 -49 0 *
Ed
 1e-07 1 1 0
1  8 0 0 4
2  15 1 0 0 4
2  16 9 0 0 4
4 C0 1 0 9 0
0

0101000
+49 0 -62 0 *
Wi

0101100
+60 0 +58 0 +56 0 +54 0 +52 0 +50 0 +48 0 +47 0 *
Fa
0  1e-07 1 0

0101000
+46 0 *
Ve
1e-07
4 12 0
0 0

0101101
*
Ed
 1e-07 1 1 0
1  9 0 0 4
2  17 2 0 0 4
2  18 3 0 0 4
4 C0 2 0 3 0
0

0101000
+61 0 -44 0 *
Ve
1e-07
4 0 0
0 0

0101101
*
Ed
 1e-07 1 1 0
1  10 0 0 12
2  19 10 0 0 12
2  20 2 0 0 12
4 C0 2 0 10 0
0

0101000
+42 0 -44 0 *
Ed
 1e-07 1 1 0
1  11 0 0 4
2  21 2 0 0 4
2  22 9 0 0 4
4 C0 2 0 9 0
0

0101000
+42 0 -62 0 *
Wi

0101100
+60 0 +43 0 -41 0 +40 0 *
Fa
0  1e-07 2 0

0101000
+39 0 *
Ve
1e-07
4 12 5.5
0 0

0101101
*
Ed
 1e-07 1 1 0
1  12 0 0 5.5
2  23 10 0 0 5.5
2  24 3 0 0 5.5
4 C0 10 0 3 0
0

0101000
+44 0 -37 0 *
Ve
1e-07
4 9 8.5
0 0

0101101
*
Ed
 1e-07 1 1 0
1  13 0 0 4.24264068711928
2  25 10 0 0 4.24264068711928
2  26 4 0 0 4.24264068711928
4 C0 10 0 4 0
0

0101000
+37 0 -35 0 *
Ve
1e-07
4 7 8.5
0 0

0101101
*
Ed
 1e-07 1 1 0
1  14 0 0 2
2  27 10 0 0 2
2  28 5 0 0 2
4 C0 10 0 5 0
0

0101000
+35 0 -33 0 *
Ve
1e-07
4 7 7
0 0

0101101
*
Ed
 1e-07 1 1 0
1  15 0 0 1.5
2  29 10 0 0 1.5
2  30 6 0 0 1.5
4 C0 10 0 6 0
0

0101000
+33 0 -31 0 *
Ve
1e-07
4 3 7
0 0

0101101
*
Ed
 1e-07 1 1 0
1  16 0 0 4
2  31 10 0 0 4
2  32 7 0 0 4
4 C0 10 0 7 0
0

0101000
+31 0 -29 0 *
Ve
1e-07
4 0 4
0 0

0101101
*
Ed
 1e-07 1 1 0
1  17 0 0 4.24264068711928
2  33 10 0 0 4.24264068711928
2  34 8 0 0 4.24264068711928
4 C0 10 0 8 0
0

0101000
+29 0 -27 0 *
Ed
 1e-07 1 1 0
1  18 0 0 4
2  35 10 0 0 4
2  36 9 0 0 4
4 C0 10 0 9 0
0

0101000
+27 0 -42 0 *
Wi

0101100
+41 0 +36 0 +34 0 +32 0 +30 0 +28 0 +26 0 +25 0 *
Fa
0  1e-07 10 0

0101000
+24 0 *
Ed
 1e-07 1 1 0
1  19 0 0 4.03112887414927
2  37 3 0 0 4.03112887414927
2  38 4 0 0 4.03112887414927
4 C0 3 0 4 0
0

0101000
+59 0 -37 0 *
Wi

0101100
+58 0 +22 0 -36 0 -43 0 *
Fa
0  1e-07 3 0

0101000
+21 0 *
Ed
 1e-07 1 1 0
1  20 0 0 4.03112887414927
2  39 4 0 0 4.03112887414927
2  40 5 0 0 4.03112887414927
4 C0 4 0 5 0
0

0101000
+57 0 -35 0 *
Wi

0101100
+56 0 +19 0 -34 0 -22 0 *
Fa
0  1e-07 4 0

0101000
+18 0 *
Ed
 1e-07 1 1 0
1  21 0 0 4.03112887414927
2  41 5 0 0 4.03112887414927
2  42 6 0 0 4.03112887414927
4 C0 5 0 6 0
0

0101000
+55 0 -33 0 *
Wi

0101100
+54 0 +16 0 -32 0 -19 0 *
Fa
0  1e-07 5 0

0101000
+15 0 *
Ed
 1e-07 1 1 0
1  22 0 0 4
2  43 6 0 0 4
2  44 7 0 0 4
4 C0 6 0 7 0
0

0101000
+53 0 -31 0 *
Wi

0101100
+52 0 +13 0 -30 0 -16 0 *
Fa
0  1e-07 6 0

0101000
+12 0 *
Ed
 1e-07 1 1 0
1  23 0 0 4
2  45 7 0 0 4
2  46 8 0 0 4
4 C0 7 0 8 0
0

0101000
+51 0 -29 0 *
Wi

0101100
+50 0 +10 0 -28 0 -13 0 *
Fa
0  1e-07 7 0

0101000
+9 0 *
Ed
 1e-07 1 1 0
1  24 0 0 4
2  47 8 0 0 4
2  48 9 0 0 4
4 C0 8 0 9 0
0

0101000
+49 0 -27 0 *
Wi

0101100
+48 0 +7 0 -26 0 -10 0 *
Fa
0  1e-07 8 0

0101000
+6 0 *
Wi

0101100
+47 0 -40 0 -25 0 -7 0 *
Fa
0  1e-07 9 0

0101000
+4 0 *
Sh

0101100
+45 0 -38 0 -23 0 -20 0 -17 0 -14 0 -11 0 -8 0 -5 0 -3 0 
*
So

1100000
+2 0 *

-1 0 