DBRep_DrawableShape

CASCADE Topology V1, (c) Matra-Datavision
Locations 0
Curve2ds 60
1 0 0 1 0 
1 0 0 1 0 
1 3 0 0 -1 
1 0 0 0 1 
1 0 -6 1 0 
1 0 0 1 0 
1 0 0 0 -1 
1 0 0 0 1 
1 0 0 0 1 
1 0 0 1 0 
1 0 0 1 0 
1 0 6 1 0 
1 3 0 0 1 
1 0 0 1 0 
1 3 0 0 1 
1 0 6 1 0 
8 -2.8708348754011475 -1.7990381056766584
1 -0.55801270189222008 4.5645825622994263 -0.86602540378443871 -0.50000000000000011 
8 -2.8708348754011475 -1.7990381056766584
1 -1.7990381056766584 -1 -1 -0 
8 0.1160254037844384 4.1160254037844402
1 3.0580127018922196 1.8995190528383294 -0.50000000000000011 0.86602540378443871 
8 0.1160254037844384 4.1160254037844402
1 -0.1160254037844384 1 1 0 
8 -5.2631397208144124 -1.799038105676658
1 1.4419872981077808 1.100480947161671 -0.86602540378443871 -0.50000000000000011 
8 -5.2631397208144124 -1.799038105676658
1 -1.799038105676658 -1 -1 -0 
1 3 0 0 -1 
1 6 0 0 1 
1 0 -6 1 0 
1 0 6 1 0 
8 -0.50000000000000133 4.5
1 2 1.5 0 1 
8 -0.50000000000000133 4.5
1 -1.5 4 1 0 
8 1 2
1 1 1.9282032302755083 1 0 
8 1 2
1 1.0717967697244903 1 0 -1 
1 0 0 0 1 
1 0 6 1 0 
1 0 0 0 -1 
1 6 0 0 1 
8 1 2
1 1 -3.7320508075688785 1 0 
8 1 2
1 3.4641016151377557 1 0 -1 
8 -5 -1
1 2 -1 0 1 
8 -5 -1
1 3 -1 0 -1 
1 0 0 1 0 
1 -2.0000000000000004 3.4641016151377553 0.86602540378443871 0.50000000000000011 
1 4 0 0 1 
1 6.0000000000000018 0 0 -1 
1 0 -3 1 0 
1 -2.0000000000000004 3.4641016151377553 0.86602540378443871 0.50000000000000011 
1 4.0000000000000018 0 0 1 
1 0 0 0 -1 
1 0 0 0 1 
1 0 0 0 -1 
1 0 3 1 0 
1 0 0 -0.50000000000000011 0.86602540378443871 
1 0 0 1 0 
1 0 0 0.86602540378443871 0.50000000000000011 
1 0 0 0 1 
1 6.0000000000000018 0 0 -1 
1 0 -3 1 0 
1 0 0 0.86602540378443871 0.50000000000000011 
1 0 0 1 0 
1 5.196152422706632 3.0000000000000009 -0.50000000000000011 0.86602540378443871 
1 0 3 1 0 
1 5.196152422706632 3.0000000000000009 -0.50000000000000011 0.86602540378443871 
Curves 30
1 0 0 0 0 0 1 
1 0 0 3 -0 1 0 
1 0 6 0 0 0 1 
1 0 0 0 -0 1 0 
1 0 0 0 1 0 -0 
1 6 0 0 0 0 1 
1 0 0 3 1 0 -0 
1 0 6 3 1 0 -0 
1 -0.55801270189222008 4.5645825622994263 3 -0.86602540378443871 -0.50000000000000011 0 
1 3.0580127018922196 1.8995190528383294 3 -0.50000000000000011 0.86602540378443871 0 
1 1.4419872981077808 1.100480947161671 3 -0.86602540378443871 -0.50000000000000011 0 
1 6 0 3 -0 1 0 
1 6 6 0 0 0 1 
1 1.5 6 2 1 0 -0 
1 1.9282032302755083 6 1 0 0 1 
1 0 6 0 1 0 -0 
1 6 0 0 -0 1 0 
1 6 3.7320508075688785 1 0 0 1 
1 6 1 2 0 -1 0 
1 0.99999999999999956 5.4641016151377553 2 0.86602540378443871 0.50000000000000011 -0 
1 6.196152422706632 8.4641016151377553 2 0 0 1 
1 0.99999999999999956 5.4641016151377553 5 0.86602540378443871 0.50000000000000011 -0 
1 0.99999999999999956 5.4641016151377553 2 0 0 1 
1 3 2 2 0 0 1 
1 3 2 5 -0.50000000000000011 0.86602540378443871 0 
1 3 2 2 0.86602540378443871 0.50000000000000011 -0 
1 8.196152422706632 5.0000000000000009 2 0 0 1 
1 3 2 5 0.86602540378443871 0.50000000000000011 -0 
1 8.196152422706632 5.0000000000000009 2 -0.50000000000000011 0.86602540378443871 0 
1 8.196152422706632 5.0000000000000009 5 -0.50000000000000011 0.86602540378443871 0 
Polygon3D 0
PolygonOnTriangulations 0
Surfaces 12
1 0 0 0 1 0 -0 0 0 1 0 -1 0 
1 0 0 0 -0 1 0 0 0 1 1 0 -0 
1 0 0 3 0 0 1 1 0 -0 -0 1 0 
1 0 6 0 -0 1 0 0 0 1 1 0 -0 
1 0 0 0 0 0 1 1 0 -0 -0 1 0 
1 6 0 0 1 0 -0 0 0 1 0 -1 0 
1 0.99999999999999956 5.4641016151377553 2 -0.50000000000000011 0.86602540378443871 0 0.86602540378443871 0.50000000000000011 0 0 0 -1 
1 3 2 2 0.86602540378443871 0.50000000000000011 -0 -0.50000000000000011 0.86602540378443871 0 0 0 1 
1 3 2 2 -0.50000000000000011 0.86602540378443871 0 0.86602540378443871 0.50000000000000011 0 0 0 -1 
1 3 2 2 0 0 1 1 0 -0 -0 1 0 
1 8.196152422706632 5.0000000000000009 2 0.86602540378443871 0.50000000000000011 -0 -0.50000000000000011 0.86602540378443871 0 0 0 1 
1 3 2 5 0 0 1 1 0 -0 -0 1 0 
Triangulations 0

TShapes 76
Ve
1e-07
0 0 3
0 0

0101101
*
Ve
1e-07
0 0 0
0 0

0101101
*
Ed
 1e-07 1 1 0
1  1 0 0 3
2  1 1 0 0 3
2  2 2 0 0 3
0

0101000
-76 0 +75 0 *
Ve
1e-07
0 6 3
0 0

0101101
*
Ed
 1e-07 1 1 0
1  2 0 0 6
2  3 1 0 0 6
2  4 3 0 0 6
0

0101000
-73 0 +76 0 *
Ve
1e-07
0 6 0
0 0

0101101
*
Ed
 1e-07 1 1 0
1  3 0 0 3
2  5 1 0 0 3
2  6 4 0 0 3
0

0101000
-73 0 +71 0 *
Ed
 1e-07 1 1 0
1  4 0 0 6
2  7 1 0 0 6
2  8 5 0 0 6
0

0101000
-71 0 +75 0 *
Wi

0101100
-74 0 -72 0 +70 0 +69 0 *
Fa
0  1e-07 1 0

0111000
+68 0 *
Ve
1e-07
6 0 0
0 0

0101101
*
Ed
 1e-07 1 1 0
1  5 0 0 6
2  9 2 0 0 6
2  10 5 0 0 6
0

0101000
-66 0 +75 0 *
Ve
1e-07
6 0 3
0 0

0101101
*
Ed
 1e-07 1 1 0
1  6 0 0 3
2  11 6 0 0 3
2  12 2 0 0 3
0

0101000
-64 0 +66 0 *
Ed
 1e-07 1 1 0
1  7 0 0 6
2  13 2 0 0 6
2  14 3 0 0 6
0

0101000
-64 0 +76 0 *
Wi

0101100
-65 0 -63 0 +62 0 +74 0 *
Fa
0  1e-07 2 0

0111000
+61 0 *
Ve
1.50000000666134e-07
1.92820323027551 6 3
0 0

0101101
*
Ed
 1e-07 1 1 0
1  8 0 0 1.92820323027551
2  15 4 0 0 1.92820323027551
2  16 3 0 0 1.92820323027551
0

0101000
+73 0 -59 0 *
Ve
1.50000000993014e-07
1 5.46410161513776 3
0 0

0101101
*
Ed
 1.5e-07 1 1 0
1  9 0 -2.87083487540115 -1.79903810567666
2  17 3 0 -2.87083487540115 -1.79903810567666
2  18 7 0 -2.87083487540115 -1.79903810567666
0

0101000
+59 0 -57 0 *
Ve
1.50000000628037e-07
3 2 3
0 0

0101101
*
Ed
 1.5e-07 1 1 0
1  10 0 0.116025403784438 4.11602540378444
2  19 3 0 0.116025403784438 4.11602540378444
2  20 8 0 0.116025403784438 4.11602540378444
0

0101000
+55 0 -57 0 *
Ve
1.50000000888178e-07
6 3.73205080756888 3
0 0

0101101
*
Ed
 1.5e-07 1 1 0
1  11 0 -5.26313972081441 -1.79903810567666
2  21 3 0 -5.26313972081441 -1.79903810567666
2  22 9 0 -5.26313972081441 -1.79903810567666
0

0101000
+53 0 -55 0 *
Ed
 1e-07 1 1 0
1  12 0 0 3.73205080756888
2  23 6 0 0 3.73205080756888
2  24 3 0 0 3.73205080756888
0

0101000
+64 0 -53 0 *
Wi

0101100
-58 0 -56 0 +54 0 +52 0 +51 0 +62 0 -72 0 *
Fa
0  1e-07 3 0

0101000
+50 0 *
Ve
1e-07
6 6 0
0 0

0101101
*
Ve
1.5e-07
6 6 2
0 0

0101101
*
Ed
 1e-07 1 1 0
1  13 0 0 2
2  25 6 0 0 2
2  26 4 0 0 2
0

0101000
+48 0 -47 0 *
Ve
1.50000000444089e-07
1.92820323027551 6 2
0 0

0101101
*
Ed
 1.5e-07 1 1 0
1  14 0 0.428203230275508 4.5
2  27 4 0 0.428203230275508 4.5
2  28 10 0 0.428203230275508 4.5
0

0101000
+45 0 -47 0 *
Ed
 1.5e-07 1 1 0
1  15 0 1 2
2  29 4 0 1 2
2  30 7 0 1 2
0

0101000
+45 0 -59 0 *
Ed
 1e-07 1 1 0
1  16 0 0 6
2  31 4 0 0 6
2  32 5 0 0 6
0

0101000
-48 0 +71 0 *
Wi

0101100
-46 0 +44 0 -43 0 +58 0 +70 0 -42 0 *
Fa
0  1e-07 4 0

0101000
+41 0 *
Ed
 1e-07 1 1 0
1  17 0 0 6
2  33 6 0 0 6
2  34 5 0 0 6
0

0101000
-48 0 +66 0 *
Wi

0101100
-69 0 -42 0 +39 0 +65 0 *
Fa
0  1e-07 5 0

0111000
+38 0 *
Ve
1.50000000888178e-07
6 3.73205080756888 2
0 0

0101101
*
Ed
 1.5e-07 1 1 0
1  18 0 1 2
2  35 6 0 1 2
2  36 9 0 1 2
0

0101000
+36 0 -53 0 *
Ed
 1.5e-07 1 1 0
1  19 0 -5 -2.73205080756888
2  37 6 0 -5 -2.73205080756888
2  38 10 0 -5 -2.73205080756888
0

0101000
+47 0 -36 0 *
Wi

0101100
-51 0 +35 0 +34 0 +46 0 +39 0 -63 0 *
Fa
0  1e-07 6 0

0101000
+33 0 *
Ve
1e-07
6.19615242270663 8.46410161513776 2
0 0

0101101
*
Ed
 1e-07 1 1 0
1  20 0 1.07179676972449 6
2  39 7 0 1.07179676972449 6
2  40 10 0 1.07179676972449 6
0

0101000
+45 0 -31 0 *
Ve
1e-07
6.19615242270663 8.46410161513776 5
0 0

0101101
*
Ed
 1e-07 1 1 0
1  21 0 0 3
2  41 11 0 0 3
2  42 7 0 0 3
0

0101000
-29 0 +31 0 *
Ve
1e-07
1 5.46410161513776 5
0 0

0101101
*
Ed
 1e-07 1 1 0
1  22 0 0 6
2  43 7 0 0 6
2  44 12 0 0 6
0

0101000
-29 0 +27 0 *
Ed
 1e-07 1 1 0
1  23 0 1 3
2  45 8 0 1 3
2  46 7 0 1 3
0

0101000
+57 0 -27 0 *
Wi

0101100
-30 0 -28 0 +26 0 +25 0 +56 0 +43 0 *
Fa
0  1e-07 7 0

0101000
+24 0 *
Ve
1e-07
3 2 5
0 0

0101101
*
Ed
 1e-07 1 1 0
1  24 0 1 3
2  47 8 0 1 3
2  48 9 0 1 3
0

0101000
+55 0 -22 0 *
Ed
 1e-07 1 1 0
1  25 0 0 4
2  49 8 0 0 4
2  50 12 0 0 4
0

0101000
-27 0 +22 0 *
Wi

0101100
-21 0 -20 0 +25 0 +54 0 *
Fa
0  1e-07 8 0

0101000
+19 0 *
Ve
1e-07
8.19615242270663 5 2
0 0

0101101
*
Ed
 1e-07 1 1 0
1  26 0 3.46410161513776 6
2  51 9 0 3.46410161513776 6
2  52 10 0 3.46410161513776 6
0

0101000
+36 0 -17 0 *
Ve
1e-07
8.19615242270663 5 5
0 0

0101101
*
Ed
 1e-07 1 1 0
1  27 0 0 3
2  53 11 0 0 3
2  54 9 0 0 3
0

0101000
-15 0 +17 0 *
Ed
 1e-07 1 1 0
1  28 0 0 6
2  55 9 0 0 6
2  56 12 0 0 6
0

0101000
-15 0 +22 0 *
Wi

0101100
-16 0 -14 0 +13 0 +21 0 +52 0 +35 0 *
Fa
0  1e-07 9 0

0101000
+12 0 *
Ed
 1e-07 1 1 0
1  29 0 0 4
2  57 11 0 0 4
2  58 10 0 0 4
0

0101000
-31 0 +17 0 *
Wi

0101100
-30 0 +10 0 +16 0 +34 0 +44 0 *
Fa
0  1e-07 10 0

0101000
+9 0 *
Ed
 1e-07 1 1 0
1  30 0 0 4
2  59 11 0 0 4
2  60 12 0 0 4
0

0101000
-29 0 +15 0 *
Wi

0101100
-14 0 -7 0 +28 0 +10 0 *
Fa
0  1e-07 11 0

0111000
+6 0 *
Wi

0101100
-20 0 -26 0 +7 0 +13 0 *
Fa
0  1e-07 12 0

0111000
+4 0 *
Sh

0101100
-67 0 -60 0 +49 0 +40 0 -37 0 +32 0 +23 0 -18 0 -11 0 -8 0 
+5 0 +3 0 *
So

0100000
+2 0 *

+1 0 