DBRep_DrawableShape

CASCADE Topology V1, (c) Matra-Datavision
Locations 4
1
              1               0               0               0 
              0               1               0               0 
              0               0               1               4 
2  1 -1 0
1
              1               0               0               6 
              0               1               0               0 
              0               0               1               0 
2  3 -1 0
Curve2ds 20
1 6 0 0 -1 
1 0 0 1 0 
1 0 6 0 -1 
1 0 0 1 0 
1 0 -4 1 0 
2 3 -4.5 -1 -0 -0 1 1.25
1 6.2831853071795862 -1 -1 0 
1 0 -4 1 0 
1 0 0 0 -1 
1 8 0 0 1 
1 8 6 -1 0 
8 -6.0000005999999999 -0.20000000000000018
1 -1 1.8543560762610403 -1 0 
8 -6.0000005999999999 -0.20000000000000018
1 3.553109499657281 0 0 1 
8 1.75 4.25
1 5 0 0 1 
8 1.75 4.25
1 0 4 1 0 
8 -6.0000005999999999 -0.20000000000000018
1 -1 4.1456439237389597 -1 0 
8 -6.0000005999999999 -0.20000000000000018
1 5.8716684611120984 0 0 1 
1 0 0 1 0 
1 0 -6 1 0 
2 3 4.5 1 0 -0 1 1.25
Curves 13
1 4 1.25 2.5 0 0 1 
1 12 1.25 2.5 0 0 1 
1 4 1.25 2.5 1 0 0 
1 4 7.25 2.5 0 -1 0 
2 4 4.25 7 -1 0 -0 -0 1 0 0 0 -1 1.25
1 4 7.25 2.5 0 0 1 
1 12 7.25 2.5 0 0 1 
1 12 1.25 2.5 0 1 0 
1 12 7.25 2.5 -1 0 0 
1 3 3.1043560762610403 6.5 -1 -0 -0 
1 9 1.25 6.5 0 1 0 
1 3 5.3956439237389597 6.5 -1 -0 -0 
2 3 4.25 7 1 0 0 -0 1 0 0 -0 1 1.25
Polygon3D 0
PolygonOnTriangulations 0
Surfaces 7
1 4 1.25 2.5 0 1 0 1 0 0 0 0 -1 
1 4 7.25 2.5 1 0 -0 0 -1 0 0 -0 -1 
1 4 1.25 2.5 0 0 1 1 0 -0 -0 1 0 
2 3 4.25 7 -1 -0 -0 -0 1 0 0 -0 1 1.25
1 12 1.25 2.5 -1 0 0 0 1 0 0 0 -1 
1 3 1.25 2.5 1 0 0 -0 1 0 0 -0 1 
1 12 7.25 2.5 0 -1 0 -1 0 0 -0 -0 -1 
Triangulations 0

TShapes 41
Ve
1e-07
4 1.25 2.5
0 0

0101101
*
Ed
 1e-07 1 1 0
1  1 0 0 4
2  1 2 0 0 4
0

0101000
+41 0 -41 1 *
Ve
1e-07
12 1.25 2.5
0 0

0101101
*
Ed
 1e-07 1 1 0
1  2 0 0 4
0

0101000
+39 0 -39 1 *
Ed
 1e-07 1 1 0
1  3 0 0 8
2  2 3 0 0 8
0

0101000
+41 0 -39 0 *
Wi

0101100
+40 0 -38 0 -37 0 +37 1 *
Fa
0  1e-07 1 0

0101000
+36 0 *
Ve
1e-07
4 7.25 2.5
0 0

0101101
*
Ed
 1e-07 1 1 0
1  4 0 0 6
2  3 3 0 0 6
2  4 2 0 0 6
0

0101000
+34 0 -41 0 *
Ve
1e-07
4 3.10435607626104 6.5
0 0

0101101
*
Ed
 1e-07 1 1 0
1  4 0 4.14564392373896 6
2  3 3 0 4.14564392373896 6
2  5 2 2 4.14564392373896 6
0

0101000
+32 2 -41 0 *
Ve
1e-07
4 5.39564392373896 6.5
0 0

0101101
*
Ed
 1e-07 1 1 0
1  5 0 0.411516846067488 2.7300758075223
2  6 2 0 0.411516846067488 2.7300758075223
2  7 4 0 0.411516846067488 2.7300758075223
0

0101000
+30 0 -32 0 *
Ed
 1e-07 1 1 0
1  4 0 0 1.85435607626104
2  3 3 0 0 1.85435607626104
2  8 2 2 0 1.85435607626104
0

0101000
+34 0 -30 2 *
Ed
 1e-07 1 1 0
1  6 0 0 4
2  9 2 0 0 4
0

0101000
+34 0 -34 1 *
Wi

0101100
-33 0 -40 0 +31 1 +29 0 +28 1 +27 0 *
Fa
0  1e-07 2 0

0101000
+26 0 *
Ve
1e-07
12 7.25 2.5
0 0

0101101
*
Ed
 1e-07 1 1 0
1  7 0 0 4
0

0101000
+24 0 -24 1 *
Ed
 1e-07 1 1 0
1  8 0 0 6
2  10 3 0 0 6
0

0101000
+39 0 -24 0 *
Wi

0101100
+38 0 -23 0 -22 0 +22 1 *
Fa
0  1e-07 5 0

0101000
+21 0 *
Ed
 1e-07 1 1 0
1  9 0 0 8
2  11 3 0 0 8
0

0101000
+24 0 -34 0 *
Wi

0101100
+37 0 +22 0 +19 0 +33 0 *
Fa
0  1e-07 3 0

0101000
+18 0 *
Ve
1.5e-07
9 3.10435607626104 6.5
0 0

0101101
*
Ed
 1e-07 1 1 0
1  10 0 -6 -1
2  12 3 1 -6 -1
2  13 4 0 -6 -1
0

0101000
+16 0 -32 0 *
Ve
1.5e-07
9 5.39564392373896 6.5
0 0

0101101
*
Ed
 1.5e-07 1 1 0
1  11 0 1.85435607626104 4.14564392373896
2  14 3 1 1.85435607626104 4.14564392373896
2  15 6 3 1.85435607626104 4.14564392373896
0

0101000
+16 0 -14 0 *
Ed
 1e-07 1 1 0
1  12 0 -6 -1
2  16 3 1 -6 -1
2  17 4 0 -6 -1
0

0101000
+14 0 -30 0 *
Wi

0101100
+31 1 +15 0 -13 0 -12 0 +28 1 +19 1 +22 1 +37 1 *
Fa
0  1e-07 3 1

0101000
+11 0 *
Ed
 1e-07 1 1 0
1  13 0 3.55310949965728 5.8716684611121
2  18 4 0 3.55310949965728 5.8716684611121
2  19 4 4 3.55310949965728 5.8716684611121
2  20 6 0 3.55310949965728 5.8716684611121
0

0101000
+16 4 -14 4 *
Wi

0101100
-15 0 +29 0 +12 0 +9 3 *
Fa
0  1e-07 4 0

0101000
+8 0 *
Wi

0101100
+23 0 -27 0 -19 0 +19 1 *
Fa
0  1e-07 7 0

0101000
+6 0 *
Wi

0101100
-13 0 +9 3 *
Fa
0  1e-07 6 3

0101000
+4 0 *
Sh

0101100
-35 0 -25 0 -20 0 -17 0 +10 0 +7 0 -5 0 -3 0 *
So

0100000
+2 0 *

+1 0 