DBRep_DrawableShape

CASCADE Topology V1, (c) Matra-Datavision
Locations 0
Curve2ds 18
1 0 2.2360679774997898 1 0 
2 0 0 1 0 -0 1 0.99999999999999989
8 2.2360679774997889 4.4721359549995787
1 5.497787143782138 4.4721359549995787 0 -1 
8 2.2360679774997889 4.4721359549995787
1 0 -4.9999999999999991 0.44721359549995804 0.89442719099991586 
1 0 0 1 0 
2 0 0 1 0 -0 1 2
8 2.2360679774997889 4.4721359549995787
1 0.78539816339744817 4.4721359549995778 0 -1 
8 2.2360679774997889 4.4721359549995787
1 5 -4.9999999999999991 -0.44721359549995804 0.89442719099991586 
8 -2.5 -1.0857864376269055
1 1.7677669529663689 1.7677669529663689 0.70710678118654757 0.70710678118654757 
8 -2.5 -1.0857864376269055
1 2.5 -3 -1 -0 
8 -1.4142135623730949 0
1 0 0 -0.70710678118654757 0.70710678118654757 
8 -1.4142135623730949 0
1 0 -3 -1 0 
8 -2.8284271247461903 0
1 0 0 -0.70710678118654757 0.70710678118654757 
8 -2.8284271247461903 0
1 0 -1 -1 0 
1 0 0 0 -1 
1 5 0 0 -1 
8 -2.5 0.32842712474619001
1 1.7677669529663689 1.7677669529663689 0.70710678118654757 0.70710678118654757 
8 -2.5 0.32842712474619001
1 2.5 -1 -1 -0 
Curves 9
2 1 1 3 0 0 1 0.70710678118654757 0.70710678118654757 -0 -0.70710678118654757 0.70710678118654757 0 0.99999999999999989
1 1 1 4.9999999999999991 0.44721359549995804 -0 -0.89442719099991586 
2 1 1 1 0 0 1 0.70710678118654757 0.70710678118654757 -0 -0.70710678118654757 0.70710678118654757 0 2
1 1 1 4.9999999999999991 -0 0.44721359549995804 -0.89442719099991586 
1 1 3.5 3 -0 1 0 
1 1 1 3 -1 0 0 
1 1 1 1 -1 0 0 
1 1 1 0 0 0 1 
1 1 3.5 1 -0 1 0 
Polygon3D 0
PolygonOnTriangulations 0
Surfaces 5
3 1 1 1 0 0 1 0.70710678118654757 0.70710678118654757 -0 -0.70710678118654757 0.70710678118654757 0 2
-0.46364760900080615
1 1 1 3 0 0 1 0.70710678118654757 0.70710678118654757 -0 -0.70710678118654757 0.70710678118654757 0 
1 1 1 0 0 1 0 1 0 0 0 0 -1 
1 1 1 1 0 0 1 0.70710678118654757 0.70710678118654757 -0 -0.70710678118654757 0.70710678118654757 0 
1 1 6 0 1 0 -0 0 -1 0 0 -0 -1 
Triangulations 0

TShapes 27
Ve
1.50000000111022e-07
1 2 3
0 0

0101101
*
Ve
1.50000000333067e-07
2 1 3
0 0

0101101
*
Ed
 1e-07 1 1 0
1  1 0 0.785398163397448 5.49778714378214
2  1 1 0 0.785398163397448 5.49778714378214
2  2 2 0 0.785398163397448 5.49778714378214
0

0101000
+27 0 -26 0 *
Ve
1.50000000444089e-07
3 1 1
0 0

0101101
*
Ed
 1e-07 1 1 0
1  2 0 2.23606797749979 4.47213595499958
2  3 1 0 2.23606797749979 4.47213595499958
2  4 3 0 2.23606797749979 4.47213595499958
0

0101000
+26 0 -24 0 *
Ve
1.50000000222045e-07
1 3 1
0 0

0101101
*
Ed
 1e-07 1 1 0
1  3 0 0.785398163397448 5.49778714378214
2  5 1 0 0.785398163397448 5.49778714378214
2  6 4 0 0.785398163397448 5.49778714378214
0

0101000
+22 0 -24 0 *
Ed
 1e-07 1 1 0
1  4 0 2.23606797749979 4.47213595499958
2  7 1 0 2.23606797749979 4.47213595499958
2  8 5 0 2.23606797749979 4.47213595499958
0

0101000
+27 0 -22 0 *
Wi

0101100
-25 0 -23 0 +21 0 +20 0 *
Fa
0  1e-07 1 0

0101000
+19 0 *
Ve
1.5e-07
1 1 3
0 0

0101101
*
Ed
 1.5e-07 1 1 0
1  5 0 -2.5 -1.5
2  9 2 0 -2.5 -1.5
2  10 5 0 -2.5 -1.5
0

0101000
+17 0 -27 0 *
Ed
 1.5e-07 1 1 0
1  6 0 -1 0
2  11 2 0 -1 0
2  12 3 0 -1 0
0

0101000
+26 0 -17 0 *
Wi

0101100
+16 0 +15 0 +25 0 *
Fa
0  1e-07 2 0

0101000
+14 0 *
Ve
1.5e-07
1 1 1
0 0

0101101
*
Ed
 1.5e-07 1 1 0
1  7 0 -2 0
2  13 4 0 -2 0
2  14 3 0 -2 0
0

0101000
+24 0 -12 0 *
Ed
 1e-07 1 1 0
1  8 0 1 3
2  15 3 0 1 3
2  16 5 0 1 3
0

0101000
+12 0 -17 0 *
Wi

0101100
+11 0 +23 0 -15 0 +10 0 *
Fa
0  1e-07 3 0

0101000
+9 0 *
Ed
 1.5e-07 1 1 0
1  9 0 -2.5 -0.5
2  17 4 0 -2.5 -0.5
2  18 5 0 -2.5 -0.5
0

0101000
+12 0 -22 0 *
Wi

0101100
+7 0 +11 0 +21 0 *
Fa
0  1e-07 4 0

0101000
+6 0 *
Wi

0101100
-10 0 -16 0 -20 0 +7 0 *
Fa
0  1e-07 5 0

0101000
+4 0 *
Sh

0101100
+18 0 +13 0 +8 0 -5 0 +3 0 *
So

0100000
+2 0 *

+1 0 