DBRep_DrawableShape

CASCADE Topology V1, (c) Matra-Datavision
Locations 4
1
              1               0               0               0 
              0               1               0               0 
              0               0               1               6 
2  1 -1 0
1
              1               0               0               0 
              0               1               0               0 
              0               0               1             2.5 
2  3 -1 0
Curve2ds 20
1 0 0 1 0 
1 0 -6 1 0 
1 0 0 0 -1 
1 6.2831853071795862 0 0 -1 
1 6.2831853071795862 -4.5 -1 0 
2 4 3 1 0 0 -1 3
8 -4.75 -1.75
1 1.2309594173407747 0 0 1 
8 -4.75 -1.75
1 6.1715728752538102 2 0 1 
1 6.2831853071795862 -2 -1 0 
2 4 3 1 0 0 -1 3
8 -4.75 -1.75
1 0.33983690945412198 0 0 1 
8 -4.75 -1.75
1 1.8284271247461898 2 -0 1 
1 0 0 1 0 
1 0 -2.5 1 0 
1 5 12 0 -1 
1 0 0 1 0 
1 0 -2.5 1 0 
1 5 4 1 0 
1 0 0 0 -1 
1 8 0 0 -1 
Curves 9
2 4 3 0 0 0 1 1 0 -0 -0 1 0 3
1 7 3 0 0 0 1 
2 4 3 4.5 0 -0 -1 1 0 -0 0 -1 0 3
1 5 5.8284271247461898 0 -0 -0 -1 
2 4 3 2 0 -0 -1 1 0 -0 0 -1 0 3
1 6.8284271247461898 4 0 -0 -0 -1 
1 5 12 2 0 -1 0 
1 5 4 2 1 0 0 
1 5 4 2 0 0 1 
Polygon3D 0
PolygonOnTriangulations 0
Surfaces 5
2 4 3 0 -0 -0 -1 1 0 -0 -0 1 0 3
1 0 0 2 0 0 1 1 0 -0 -0 1 0 
1 5 12 2 1 0 -0 0 -1 0 0 -0 -1 
1 5 4 2 0 1 0 1 0 0 0 0 -1 
1 0 0 0 0 0 1 1 0 -0 -0 1 0 
Triangulations 0

TShapes 32
Ve
1e-07
7 3 0
0 0

0101101
*
Ed
 1e-07 1 1 0
1  1 0 0 6.28318530717959
2  1 1 0 0 6.28318530717959
2  2 1 2 0 6.28318530717959
0

0101100
+32 0 -32 0 *
Ed
 1e-07 1 1 0
1  2 0 0 6
3  3 4CN 1 0 0 6
0

0101000
+32 0 -32 1 *
Wi

0101100
-31 0 -30 0 +31 1 +30 0 *
Ve
1.00000000888178e-07
5 5.82842712474619 4.5
0 0

0101101
*
Ve
1e-07
6.82842712474619 4 4.5
0 0

0101101
*
Ed
 1e-07 1 1 0
1  3 0 5.05222588983881 5.94334839772546
2  5 1 0 5.05222588983881 5.94334839772546
2  6 2 3 5.05222588983881 5.94334839772546
0

0101000
+28 0 -27 0 *
Ve
1.00000000888178e-07
5 5.82842712474619 2
0 0

0101101
*
Ed
 1e-07 1 1 0
1  4 0 -4.5 -2
2  7 1 0 -4.5 -2
2  8 3 0 -4.5 -2
0

0101000
+28 0 -25 0 *
Ve
1e-07
6.82842712474619 4 2
0 0

0101101
*
Ed
 1e-07 1 1 0
1  5 0 5.05222588983881 5.94334839772546
2  9 1 0 5.05222588983881 5.94334839772546
2  10 2 0 5.05222588983881 5.94334839772546
0

0101000
+25 0 -23 0 *
Ed
 1e-07 1 1 0
1  6 0 -4.5 -2
2  11 1 0 -4.5 -2
2  12 4 0 -4.5 -2
0

0101000
+27 0 -23 0 *
Wi

0101100
+26 0 -24 0 -22 0 +21 0 *
Fa
0  1e-07 1 0

0101000
+29 0 +20 0 *
Wi

0101100
+31 0 *
Fa
0  1e-07 5 0

0101000
+18 0 *
Ve
1e-07
5 4 2
0 0

0101101
*
Ed
 1e-07 1 1 0
1  7 0 6.17157287525381 8
2  13 3 0 6.17157287525381 8
2  14 3 4 6.17157287525381 8
2  15 2 0 6.17157287525381 8
0

0101000
+28 4 -16 0 *
Ed
 1e-07 1 1 0
1  8 0 0 1.82842712474619
2  16 4 0 0 1.82842712474619
2  17 4 4 0 1.82842712474619
2  18 2 0 0 1.82842712474619
0

0101000
+16 0 -27 4 *
Wi

0101100
+15 3 -26 0 +14 3 *
Fa
0  1e-07 2 3

0101000
+13 0 *
Ed
 1e-07 1 1 0
1  7 0 6.17157287525381 8
2  13 3 0 6.17157287525381 8
2  14 3 4 6.17157287525381 8
2  15 2 0 6.17157287525381 8
0

0101000
+25 0 -16 0 *
Ed
 1e-07 1 1 0
1  9 0 0 2.5
2  19 4 0 0 2.5
2  20 3 0 0 2.5
0

0101000
+16 0 -16 3 *
Wi

0101100
-11 0 -10 0 +15 3 -24 0 *
Fa
0  1e-07 3 0

0101000
+9 0 *
Ed
 1e-07 1 1 0
1  8 0 0 1.82842712474619
2  16 4 0 0 1.82842712474619
2  17 4 4 0 1.82842712474619
2  18 2 0 0 1.82842712474619
0

0101000
+16 0 -23 0 *
Wi

0101100
+11 0 -22 0 +7 0 *
Fa
0  1e-07 2 0

0101000
+6 0 *
Wi

0101100
-7 0 +21 0 +14 3 +10 0 *
Fa
0  1e-07 4 0

0101000
+4 0 *
Sh

0101100
-19 0 -17 0 +17 1 -12 0 +8 0 +5 0 +3 0 *
So

0100000
+2 0 *

+1 0 