DBRep_DrawableShape

CASCADE Topology V1, (c) Matra-Datavision
Locations 4
1
              1               0               0               0 
              0               1               0               0 
              0               0               1               6 
2  1 -1 0
1
              1               0               0               0 
              0               1               0               0 
              0               0               1             2.5 
2  3 -1 0
Curve2ds 45
1 0 0 1 0 
1 0 -6 1 0 
1 0 0 0 -1 
1 6.2831853071795862 0 0 -1 
8 -4.75 -1.75
1 3.6651914291880918 0 0 1 
8 -4.75 -1.75
1 4.401923788646684 2 -0 1 
1 6.2831853071795862 -2 -1 0 
2 4 4 1 0 0 -1 3
8 -4.75 -1.75
1 2.6179938779914944 0 0 1 
8 -4.75 -1.75
1 1.598076211353316 2 0 1 
1 6.2831853071795862 -4.5 -1 0 
2 4 4 1 0 0 -1 3
1 0 0 1 0 
1 0 -2.5 1 0 
1 -3 2.5 1 0 
1 6 0 0 -1 
1 0 0 0 -1 
1 0 -0 1 0 
1 0 -2.5 1 0 
1 3 5.5 -1 0 
1 0 0 1 0 
1 0 -2.5 1 0 
1 3 4.5 0 1 
1 0 0 1 0 
1 0 -2.5 1 0 
1 2 4.5 1 0 
1 0 0 1 0 
1 0 -2.5 1 0 
1 2 3.5 0 1 
1 0 -0 1 0 
1 0 -2.5 1 0 
1 3 3.5 -1 0 
1 0 0 1 0 
1 0 -2.5 1 0 
1 3 2.5 0 1 
1 1 0 0 -1 
1 0 -0 0 -1 
1 1 0 0 -1 
1 0 -0 0 -1 
1 1 0 0 -1 
1 0 0 0 -1 
1 1 0 0 -1 
1 0 0 0 -1 
1 1 0 0 -1 
1 0 0 0 -1 
Curves 19
2 4 4 0 0 0 1 1 0 -0 -0 1 0 3
1 7 4 0 0 0 1 
1 1.401923788646684 2.5 0 -0 -0 -1 
2 4 4 2 0 -0 -1 1 0 -0 0 -1 0 3
1 1.401923788646684 5.5 0 -0 -0 -1 
2 4 4 4.5 0 -0 -1 1 0 -0 0 -1 0 3
1 -3 2.5 2 1 0 0 
1 3 2.5 2 0 0 1 
1 3 5.5 2 -1 0 0 
1 3 4.5 2 0 1 0 
1 2 4.5 2 1 0 0 
1 2 3.5 2 0 1 0 
1 3 3.5 2 -1 0 0 
1 3 2.5 2 0 1 0 
1 3 5.5 2 0 0 1 
1 3 3.5 2 0 0 1 
1 3 4.5 2 0 0 1 
1 2 4.5 2 0 0 1 
1 2 3.5 2 0 0 1 
Polygon3D 0
PolygonOnTriangulations 0
Surfaces 10
2 4 4 0 -0 -0 -1 1 0 -0 -0 1 0 3
1 -3 2.5 2 0 1 0 1 0 0 0 0 -1 
1 0 0 2 0 0 1 1 0 -0 -0 1 0 
1 3 5.5 2 0 -1 0 -1 0 0 -0 -0 -1 
1 0 0 0 0 0 1 1 0 -0 -0 1 0 
1 3 2.5 2 -1 0 0 0 1 0 0 0 -1 
1 3 4.5 2 -1 0 0 0 1 0 0 0 -1 
1 2 4.5 2 0 1 0 1 0 0 0 0 -1 
1 2 3.5 2 -1 0 0 0 1 0 0 0 -1 
1 3 3.5 2 0 -1 0 -1 0 0 -0 -0 -1 
Triangulations 0

TShapes 57
Ve
1e-07
7 4 0
0 0

0101101
*
Ed
 1e-07 1 1 0
1  1 0 0 6.28318530717959
2  1 1 0 0 6.28318530717959
2  2 1 2 0 6.28318530717959
0

0101100
+57 0 -57 0 *
Ed
 1e-07 1 1 0
1  2 0 0 6
3  3 4CN 1 0 0 6
0

0101000
+57 0 -57 1 *
Wi

0101100
-56 0 -55 0 +56 1 +55 0 *
Ve
1e-07
1.40192378864668 2.5 4.5
0 0

0101101
*
Ve
1e-07
1.40192378864668 2.5 2
0 0

0101101
*
Ed
 1e-07 1 1 0
1  3 0 -4.5 -2
2  5 1 0 -4.5 -2
2  6 2 0 -4.5 -2
0

0101000
+53 0 -52 0 *
Ve
1.00000000993014e-07
1.40192378864668 5.5 2
0 0

0101101
*
Ed
 1e-07 1 1 0
1  4 0 2.61799387799149 3.66519142918809
2  7 1 0 2.61799387799149 3.66519142918809
2  8 3 0 2.61799387799149 3.66519142918809
0

0101000
+52 0 -50 0 *
Ve
1.00000000993014e-07
1.40192378864668 5.5 4.5
0 0

0101101
*
Ed
 1e-07 1 1 0
1  5 0 -4.5 -2
2  9 1 0 -4.5 -2
2  10 4 0 -4.5 -2
0

0101000
+48 0 -50 0 *
Ed
 1e-07 1 1 0
1  6 0 2.61799387799149 3.66519142918809
2  11 1 0 2.61799387799149 3.66519142918809
2  12 3 3 2.61799387799149 3.66519142918809
0

0101000
+53 0 -48 0 *
Wi

0101100
-51 0 -49 0 +47 0 +46 0 *
Fa
0  1e-07 1 0

0101000
+54 0 +45 0 *
Wi

0101100
+56 0 *
Fa
0  1e-07 5 0

0101000
+43 0 *
Ve
1e-07
3 2.5 2
0 0

0101101
*
Ed
 1e-07 1 1 0
1  7 0 4.40192378864668 6
2  13 2 0 4.40192378864668 6
2  14 2 4 4.40192378864668 6
2  15 3 0 4.40192378864668 6
0

0101000
+52 0 -41 0 *
Ed
 1e-07 1 1 0
1  8 0 0 2.5
2  16 2 0 0 2.5
2  17 6 0 0 2.5
0

0101000
+41 0 -41 3 *
Ed
 1e-07 1 1 0
1  7 0 4.40192378864668 6
2  13 2 0 4.40192378864668 6
2  14 2 4 4.40192378864668 6
2  15 3 0 4.40192378864668 6
0

0101000
+53 4 -41 0 *
Wi

0101100
-40 0 -39 0 +38 3 -51 0 *
Fa
0  1e-07 2 0

0101000
+37 0 *
Ve
1e-07
3 5.5 2
0 0

0101101
*
Ed
 1e-07 1 1 0
1  9 0 0 1.59807621135332
2  18 4 0 0 1.59807621135332
2  19 4 4 0 1.59807621135332
2  20 3 0 0 1.59807621135332
0

0101000
+35 0 -50 0 *
Ve
1e-07
3 4.5 2
0 0

0101101
*
Ed
 1e-07 1 1 0
1  10 0 0 1
2  21 7 0 0 1
2  22 7 4 0 1
2  23 3 0 0 1
0

0101000
+33 0 -35 0 *
Ve
1e-07
2 4.5 2
0 0

0101101
*
Ed
 1e-07 1 1 0
1  11 0 0 1
2  24 8 0 0 1
2  25 8 4 0 1
2  26 3 0 0 1
0

0101000
+31 0 -33 0 *
Ve
1e-07
2 3.5 2
0 0

0101101
*
Ed
 1e-07 1 1 0
1  12 0 0 1
2  27 9 0 0 1
2  28 9 4 0 1
2  29 3 0 0 1
0

0101000
+29 0 -31 0 *
Ve
1e-07
3 3.5 2
0 0

0101101
*
Ed
 1e-07 1 1 0
1  13 0 0 1
2  30 10 0 0 1
2  31 10 4 0 1
2  32 3 0 0 1
0

0101000
+27 0 -29 0 *
Ed
 1e-07 1 1 0
1  14 0 0 1
2  33 6 0 0 1
2  34 6 4 0 1
2  35 3 0 0 1
0

0101000
+41 0 -27 0 *
Wi

0101100
-49 0 +34 0 +32 0 +30 0 +28 0 +26 0 +25 0 +40 0 *
Fa
0  1e-07 3 0

0101000
+24 0 *
Ed
 1e-07 1 1 0
1  9 0 0 1.59807621135332
2  18 4 0 0 1.59807621135332
2  19 4 4 0 1.59807621135332
2  20 3 0 0 1.59807621135332
0

0101000
+35 0 -48 4 *
Ed
 1e-07 1 1 0
1  15 0 0 2.5
2  36 7 0 0 2.5
2  37 4 0 0 2.5
0

0101000
+35 0 -35 3 *
Wi

0101100
-34 0 +47 0 +22 3 +21 0 *
Fa
0  1e-07 4 0

0101000
+20 0 *
Wi

0101100
-46 0 +22 3 +32 3 +30 3 +28 3 +26 3 +25 3 +38 3 *
Fa
0  1e-07 3 3

0101000
+18 0 *
Ed
 1e-07 1 1 0
1  16 0 0 2.5
2  38 6 0 0 2.5
2  39 10 0 0 2.5
0

0101000
+27 0 -27 3 *
Wi

0101100
+39 0 -16 0 -25 0 +25 3 *
Fa
0  1e-07 6 0

0101000
+15 0 *
Ed
 1e-07 1 1 0
1  17 0 0 2.5
2  40 8 0 0 2.5
2  41 7 0 0 2.5
0

0101000
+33 0 -33 3 *
Wi

0101100
+13 0 -21 0 -32 0 +32 3 *
Fa
0  1e-07 7 0

0101000
+12 0 *
Ed
 1e-07 1 1 0
1  18 0 0 2.5
2  42 9 0 0 2.5
2  43 8 0 0 2.5
0

0101000
+31 0 -31 3 *
Wi

0101100
+10 0 -13 0 -30 0 +30 3 *
Fa
0  1e-07 8 0

0101000
+9 0 *
Ed
 1e-07 1 1 0
1  19 0 0 2.5
2  44 10 0 0 2.5
2  45 9 0 0 2.5
0

0101000
+29 0 -29 3 *
Wi

0101100
+7 0 -10 0 -28 0 +28 3 *
Fa
0  1e-07 9 0

0101000
+6 0 *
Wi

0101100
+16 0 -7 0 -26 0 +26 3 *
Fa
0  1e-07 10 0

0101000
+4 0 *
Sh

0101100
-44 0 -42 0 +42 1 +36 0 +23 0 +19 0 -17 0 +14 0 +11 0 +8 0 
+5 0 +3 0 *
So

0100000
+2 0 *

+1 0 