DBRep_DrawableShape

CASCADE Topology V1, (c) Matra-Datavision
Locations 2
1
              1               0               0 1.77777777777778 
              0               1               0 0.444444444444444 
              0               0               1 3.55555555555556 
2  1 -1 0
Curve2ds 22
1 0 -0 -8.3609388274240161e-17 -1 
1 0 -0 -3.6150780585788277e-17 -1 
1 8 -1.6996006796730788e-16 -8.3609388274240161e-17 -1 
1 0 0 1 -5.6624800870156517e-17 
1 0 -0 1 -2.1245008495913485e-17 
1 -3.0976593032751281e-16 -4 1 -2.1245008495913485e-17 
1 8 6.140492778173705e-16 8.3609388274240161e-17 -1 
1 3.1182189889163348e-16 8 -4.0519713784544674e-17 -1 
1 7.9999999999999982 5.4825828376550937e-17 -3.6150780585788277e-17 -1 
1 0 -0 8.3609388274240161e-17 -1 
1 0 -0 1 -1.9360370645469554e-17 
1 7.1273576889516218e-17 -4 1 -1.9360370645469554e-17 
1 8 -4.5299840696125213e-16 4.0519713784544674e-17 1 
1 8.0000000000000018 7.9999999999999991 -1 1.1213595210141434e-16 
1 0 -0 1 7.6756159727171312e-17 
1 5.0713891248309618e-16 -4 1 7.6756159727171312e-17 
2 4.0000000000000018 4.0000000000000009 1 4.1290701996089925e-17 -4.1290701996089925e-17 1 1.3333333333333333
1 4.1290701996089925e-17 1.0540925533894598 1 0 
2 4.0000000000000018 4.0000000000000009 1 4.1290701996089925e-17 -4.1290701996089925e-17 1 2.6666666666666665
1 4.1290701996089925e-17 5.2704627669472988 1 0 
1 6.2831853071795862 -0 0 1 
1 0 -0 0 1 
Curves 11
1 2 1 0.5 0.44444444444444448 0.11111111111111112 0.88888888888888895 
1 -4.2222222222222223 -2.5555555555555558 4.0555555555555554 0.44444444444444448 0.11111111111111112 0.88888888888888895 
1 2 1 0.5 -0.77777777777777779 -0.44444444444444448 0.44444444444444442 
1 5.5555555555555554 -6.1111111111111107 -0.38888888888888884 0.44444444444444448 0.11111111111111112 0.88888888888888895 
1 5.5555555555555554 -6.1111111111111107 -0.38888888888888884 -0.44444444444444448 0.88888888888888895 0.11111111111111112 
1 -0.66666666666666696 -9.6666666666666661 3.1666666666666665 0.44444444444444448 0.11111111111111112 0.88888888888888895 
1 -4.2222222222222223 -2.5555555555555558 4.0555555555555554 0.44444444444444448 -0.88888888888888895 -0.11111111111111112 
1 -0.66666666666666696 -9.6666666666666661 3.1666666666666665 0.77777777777777779 0.44444444444444442 -0.44444444444444442 
2 0.66666666666666607 -4.3333333333333339 1.8333333333333335 0.44444444444444448 0.11111111111111113 0.88888888888888884 -0.77777777777777768 -0.44444444444444453 0.44444444444444448 0.44444444444444453 -0.88888888888888884 -0.11111111111111117 1.3333333333333333
2 2.4444444444444438 -3.8888888888888893 5.3888888888888884 0.44444444444444448 0.11111111111111113 0.88888888888888884 -0.77777777777777768 -0.44444444444444453 0.44444444444444448 0.44444444444444453 -0.88888888888888884 -0.11111111111111117 2.6666666666666665
1 -0.55555555555555625 -4.8888888888888893 1.3888888888888893 0.17568209223157658 -0.0351364184463153 0.9838197164968292 
Polygon3D 0
PolygonOnTriangulations 0
Surfaces 6
1 2 1 0.5 0.44444444444444448 -0.88888888888888895 -0.11111111111111112 -0.7777777777777779 -0.44444444444444448 0.44444444444444442 -0.44444444444444448 -0.11111111111111108 -0.88888888888888906 
1 -4.2222222222222223 -2.5555555555555558 4.0555555555555554 0.7777777777777779 0.44444444444444448 -0.44444444444444448 0.44444444444444431 -0.88888888888888884 -0.11111111111111109 -0.44444444444444442 -0.11111111111111106 -0.88888888888888895 
1 2 1 0.5 0.44444444444444448 0.11111111111111112 0.88888888888888895 -0.77777777777777779 -0.44444444444444453 0.44444444444444453 0.44444444444444453 -0.88888888888888895 -0.11111111111111116 
1 5.5555555555555554 -6.1111111111111107 -0.38888888888888884 -0.7777777777777779 -0.44444444444444448 0.44444444444444448 -0.44444444444444431 0.88888888888888884 0.11111111111111109 -0.44444444444444442 -0.11111111111111106 -0.88888888888888895 
1 -0.66666666666666696 -9.6666666666666661 3.1666666666666665 -0.44444444444444442 0.88888888888888895 0.11111111111111109 0.7777777777777779 0.44444444444444442 -0.44444444444444442 -0.44444444444444442 -0.1111111111111111 -0.88888888888888906 
3 0.22222222222222165 -4.4444444444444446 0.94444444444444464 0.44444444444444448 0.11111111111111112 0.88888888888888895 -0.77777777777777779 -0.44444444444444453 0.44444444444444453 0.44444444444444453 -0.88888888888888895 -0.11111111111111116 1
0.32175055439664219
Triangulations 0

TShapes 35
Ve
1e-07
2 1 0.5
0 0

0101101
*
Ed
 1e-07 1 1 0
1  1 0 0 4
2  1 1 0 0 4
0

0101000
+35 0 -35 1 *
Ve
1e-07
-4.22222222222222 -2.55555555555556 4.05555555555556
0 0

0101101
*
Ed
 1e-07 1 1 0
1  2 0 0 4
2  2 2 0 0 4
2  3 1 0 0 4
0

0101000
+33 0 -33 1 *
Ed
 1e-07 1 1 0
1  3 0 0 8
2  4 3 0 0 8
2  5 1 0 0 8
2  6 1 2 0 8
0

0101000
+35 0 -33 0 *
Wi

0101100
+34 0 -32 0 -31 0 +31 1 *
Fa
0  1e-07 1 0

0101000
+30 0 *
Ve
1e-07
5.55555555555556 -6.11111111111111 -0.388888888888889
0 0

0101101
*
Ed
 1e-07 1 1 0
1  4 0 0 4
2  7 5 0 0 4
0

0101000
+28 0 -28 1 *
Ed
 1e-07 1 1 0
1  5 0 0 8
2  8 3 0 0 8
0

0101000
+28 0 -35 0 *
Wi

0101100
+27 0 -34 0 -26 0 +26 1 *
Fa
0  1e-07 4 0

0101000
+25 0 *
Ve
1e-07
-0.666666666666667 -9.66666666666667 3.16666666666667
0 0

0101101
*
Ed
 1e-07 1 1 0
1  6 0 0 4
2  9 2 0 0 4
2  10 5 0 0 4
0

0101000
+23 0 -23 1 *
Ed
 1e-07 1 1 0
1  7 0 0 8
2  11 2 0 0 8
2  12 2 2 0 8
2  13 3 0 0 8
0

0101000
+33 0 -23 0 *
Wi

0101100
+32 0 -22 0 -21 0 +21 1 *
Fa
0  1e-07 2 0

0101000
+20 0 *
Ed
 1e-07 1 1 0
1  8 0 0 8
2  14 3 0 0 8
2  15 5 0 0 8
2  16 5 2 0 8
0

0101000
+23 0 -28 0 *
Wi

0101100
+31 0 +26 0 +21 0 +18 0 *
Ve
1.00000000444089e-07
-0.370370370370371 -4.92592592592593 2.42592592592593
0 0

0101101
*
Ed
 1e-07 1 1 0
1  9 0 0 6.28318530717959
2  17 3 0 0 6.28318530717959
2  18 6 0 0 6.28318530717959
0

0101100
+16 0 -16 0 *
Wi

0101100
-15 0 *
Fa
0  1e-07 3 0

0101000
+17 0 +14 0 *
Wi

0101100
+31 1 +26 1 +21 1 +18 1 *
Ve
1.00000001256074e-07
0.370370370370369 -5.07407407407407 6.57407407407407
0 0

0101101
*
Ed
 1e-07 1 1 0
1  10 0 0 6.28318530717959
2  19 3 1 0 6.28318530717959
2  20 6 0 0 6.28318530717959
0

0101100
+11 0 -11 0 *
Wi

0101100
-10 0 *
Fa
0  1e-07 3 1

0101000
+12 0 +9 0 *
Wi

0101100
+22 0 -27 0 -18 0 +18 1 *
Fa
0  1e-07 5 0

0101000
+7 0 *
Ed
 1e-07 1 1 0
1  11 0 1.05409255338946 5.2704627669473
3  21 22CN 6 0 1.05409255338946 5.2704627669473
0

0101000
+16 0 -11 0 *
Wi

0101100
-10 0 +5 0 +15 0 -5 0 *
Fa
0  1e-07 6 0

0101000
+4 0 *
Sh

0101100
-29 0 -24 0 -19 0 -13 0 +8 0 -6 0 -3 0 *
So

0100000
+2 0 *

+1 0 