DBRep_DrawableShape

CASCADE Topology V1, (c) Matra-Datavision
Locations 2
1
              1               0               0 1.77777777777778 
              0               1               0 1.77777777777778 
              0               0               1 3.11111111111111 
2  1 -1 0
Curve2ds 26
1 0 -0 4.865792268418896e-17 -1 
1 7.9999999999999991 -8.8269583686247011e-16 -3.7692757008878772e-17 -1 
1 0 -0 -6.0993734068912921e-17 -1 
1 7.9999999999999991 -4.386066270124075e-16 4.865792268418896e-17 -1 
1 0 0 1 1.0965165675310187e-17 
1 0 -0 1 -4.2490016991826983e-17 
1 -2.7412914188275592e-18 -4 1 -4.2490016991826983e-17 
1 8 -4.0022854714882187e-16 -1.0416907391544678e-16 -1 
1 0 -0 -3.7692757008878772e-17 -1 
1 -1.3432327952254981e-16 8 -1.0965165675310187e-17 -1 
1 0 -0 1 -9.800116822308481e-17 
1 -8.1690484281060899e-16 -4.0000000000000009 1 -9.800116822308481e-17 
1 7.9999999999999991 -4.0022854714882187e-16 -6.0993734068912921e-17 -1 
1 0 -0 -1.0416907391544678e-16 -1 
1 0 -0 1 -6.23643797783267e-17 
1 -4.6601954120068309e-17 -4 1 -6.23643797783267e-17 
1 7.9999999999999991 8.77213254024815e-17 3.8720741290939101e-17 1 
1 8 8 -1 -6.6476316906568014e-17 
1 0 -0 1 -5.0028568393602733e-17 
1 -2.1930331350620375e-16 -4 1 -5.0028568393602733e-17 
2 4 3.9999999999999996 1 1.0965165675310187e-17 -1.0965165675310187e-17 1 2.2360679774997902
1 0 0.729727656226966 1 0 
1 6.2831853071795862 -6.2831853071795862 0 1 
1 0 -6.2831853071795862 0 1 
1 0 0 1 0 
2 0 0 1 0 -0 1 3
Curves 11
1 0.5 1 1.5 0.44444444444444442 0.44444444444444442 0.77777777777777779 
1 1.3888888888888888 -6.1111111111111107 5.0555555555555554 0.44444444444444442 0.44444444444444442 0.77777777777777779 
1 0.5 1 1.5 0.11111111111111112 -0.88888888888888895 0.44444444444444448 
1 7.6111111111111107 0.11111111111111116 -2.0555555555555554 0.44444444444444442 0.44444444444444442 0.77777777777777779 
1 7.6111111111111107 0.11111111111111116 -2.0555555555555554 -0.88888888888888895 0.11111111111111112 0.44444444444444448 
1 8.5 -7 1.5 0.44444444444444442 0.44444444444444442 0.77777777777777779 
1 1.3888888888888888 -6.1111111111111107 5.0555555555555554 0.88888888888888895 -0.11111111111111117 -0.44444444444444448 
1 8.5 -7 1.5 -0.11111111111111116 0.88888888888888884 -0.44444444444444442 
2 6.2777777777777768 -1.2222222222222221 4.6111111111111107 0.44444444444444442 0.44444444444444442 0.7777777777777779 0.11111111111111109 -0.88888888888888895 0.44444444444444442 0.88888888888888895 -0.11111111111111112 -0.44444444444444442 2.2360679774997902
2 5.3888888888888884 -2.1111111111111107 3.0555555555555558 -0.88888888888888895 0.11111111111111129 0.44444444444444425 0.11111111111111087 -0.88888888888888906 0.44444444444444453 0.44444444444444442 0.44444444444444436 0.7777777777777779 3
2 5.3888888888888884 -2.1111111111111107 3.0555555555555558 0.44444444444444442 0.44444444444444442 0.77777777777777779 0.11111111111111109 -0.88888888888888895 0.44444444444444442 0.88888888888888895 -0.11111111111111112 -0.44444444444444442 3
Polygon3D 0
PolygonOnTriangulations 0
Surfaces 7
1 0.5 1 1.5 0.88888888888888895 -0.1111111111111111 -0.44444444444444442 0.1111111111111111 -0.88888888888888895 0.44444444444444448 -0.44444444444444442 -0.44444444444444448 -0.7777777777777779 
1 7.6111111111111107 0.11111111111111116 -2.0555555555555554 0.11111111111111109 -0.88888888888888895 0.44444444444444442 -0.88888888888888884 0.11111111111111109 0.44444444444444436 -0.44444444444444442 -0.44444444444444442 -0.7777777777777779 
1 1.3888888888888888 -6.1111111111111107 5.0555555555555554 -0.11111111111111105 0.88888888888888895 -0.44444444444444448 0.88888888888888884 -0.11111111111111117 -0.44444444444444442 -0.44444444444444453 -0.44444444444444448 -0.77777777777777779 
1 0.5 1 1.5 0.44444444444444442 0.44444444444444442 0.77777777777777779 0.11111111111111109 -0.88888888888888895 0.44444444444444442 0.88888888888888895 -0.11111111111111112 -0.44444444444444442 
1 8.5 -7 1.5 -0.88888888888888895 0.11111111111111106 0.44444444444444448 -0.11111111111111117 0.88888888888888884 -0.44444444444444448 -0.44444444444444442 -0.44444444444444453 -0.77777777777777779 
4 5.3888888888888884 -2.1111111111111107 3.0555555555555558 0.44444444444444442 0.44444444444444442 0.77777777777777779 0.11111111111111109 -0.88888888888888895 0.44444444444444442 0.88888888888888895 -0.11111111111111112 -0.44444444444444442 3
1 5.3888888888888884 -2.1111111111111107 3.0555555555555558 0.44444444444444442 0.44444444444444442 0.77777777777777779 0.11111111111111109 -0.88888888888888895 0.44444444444444442 0.88888888888888895 -0.11111111111111112 -0.44444444444444442 
Triangulations 0

TShapes 36
Ve
1e-07
0.5 1 1.5
0 0

0101101
*
Ed
 1e-07 1 1 0
1  1 0 0 4
2  1 1 0 0 4
2  2 2 0 0 4
0

0101000
+36 0 -36 1 *
Ve
1e-07
1.38888888888889 -6.11111111111111 5.05555555555556
0 0

0101101
*
Ed
 1e-07 1 1 0
1  2 0 0 4
2  3 3 0 0 4
2  4 1 0 0 4
0

0101000
+34 0 -34 1 *
Ed
 1e-07 1 1 0
1  3 0 0 8
2  5 4 0 0 8
2  6 1 0 0 8
2  7 1 2 0 8
0

0101000
+36 0 -34 0 *
Wi

0101100
+35 0 -33 0 -32 0 +32 1 *
Fa
0  1e-07 1 0

0101000
+31 0 *
Ve
1e-07
7.61111111111111 0.111111111111111 -2.05555555555556
0 0

0101101
*
Ed
 1e-07 1 1 0
1  4 0 0 4
2  8 5 0 0 4
2  9 2 0 0 4
0

0101000
+29 0 -29 1 *
Ed
 1e-07 1 1 0
1  5 0 0 8
2  10 4 0 0 8
2  11 2 0 0 8
2  12 2 2 0 8
0

0101000
+29 0 -36 0 *
Wi

0101100
+28 0 -35 0 -27 0 +27 1 *
Fa
0  1e-07 2 0

0101000
+26 0 *
Ve
1e-07
8.5 -7 1.5
0 0

0101101
*
Ed
 1e-07 1 1 0
1  6 0 0 4
2  13 3 0 0 4
2  14 5 0 0 4
0

0101000
+24 0 -24 1 *
Ed
 1e-07 1 1 0
1  7 0 0 8
2  15 3 0 0 8
2  16 3 2 0 8
2  17 4 0 0 8
0

0101000
+34 0 -24 0 *
Wi

0101100
+33 0 -23 0 -22 0 +22 1 *
Fa
0  1e-07 3 0

0101000
+21 0 *
Ed
 1e-07 1 1 0
1  8 0 0 8
2  18 4 0 0 8
2  19 5 0 0 8
2  20 5 2 0 8
0

0101000
+24 0 -29 0 *
Wi

0101100
+32 0 +22 0 +19 0 +27 0 *
Fa
0  1e-07 4 0

0101000
+18 0 *
Wi

0101100
+32 1 +27 1 +22 1 +19 1 *
Ve
1.00000001831027e-07
6.52622977527775 -3.20983820222204 5.60491910111102
0 0

0101101
*
Ed
 1e-07 1 1 0
1  9 0 0 6.28318530717959
2  21 4 1 0 6.28318530717959
2  22 6 0 0 6.28318530717959
0

0101100
+15 0 -15 0 *
Wi

0101100
-14 0 *
Fa
0  1e-07 4 1

0101000
+16 0 +13 0 *
Wi

0101100
+23 0 -28 0 -19 0 +19 1 *
Fa
0  1e-07 5 0

0101000
+11 0 *
Ve
1e-07
5.72222222222222 -4.77777777777778 4.38888888888889
0 0

0101101
*
Ed
 1e-07 1 1 0
1  10 0 6.28318530717959 7.01291296340655
3  23 24CN 6 0 6.28318530717959 7.01291296340655
0

0101000
+9 0 -15 0 *
Ed
 1e-07 1 1 0
1  11 0 0 6.28318530717959
2  25 6 0 0 6.28318530717959
2  26 7 0 0 6.28318530717959
0

0101000
+9 0 -9 0 *
Wi

0101100
-14 0 +8 0 +7 0 -8 0 *
Fa
0  1e-07 6 0

0101000
+6 0 *
Wi

0101100
-7 0 *
Fa
0  1e-07 7 0

0111000
-4 0 *
Sh

0101100
-30 0 -25 0 -20 0 -17 0 +12 0 -10 0 -5 0 +3 0 *
So

0100000
+2 0 *

+1 0 