DBRep_DrawableShape

CASCADE Topology V1, (c) Matra-Datavision
Locations 3
1
              1               0               0               0 
              0               1               0               0 
              0               0               1               4 
1
              1               0               0               0 
              0               1               0               0 
              0               0               1               3 
2  2 -1 0
Curve2ds 14
1 0 0 1 0 
1 0 8 0 -1 
1 11 0 0 1 
1 11 3 -1 0 
1 5 3 0 1 
1 5 5 1 0 
1 11 5 0 1 
1 11 8 -1 0 
1 0 0 1 0 
1 0 -3 1 0 
2 2.5 4 1 0 -0 1 1.5
2 2.5 4 1 0 -0 1 1.5
1 0 0 0 -1 
1 6.2831853071795862 0 0 -1 
Curves 18
1 0 0 0 0 0 1 
1 11 0 0 0 0 1 
1 0 0 0 1 0 0 
1 0 8 0 0 0 1 
1 0 8 0 0 -1 0 
1 11 3 0 0 0 1 
1 11 0 0 0 1 0 
1 11 3 0 -1 0 0 
1 5 3 0 0 1 0 
1 5 5 0 1 0 0 
1 11 5 0 0 1 0 
1 11 8 0 -1 0 0 
2 2.5 4 4 0 0 1 1 0 -0 -0 1 0 1.5
1 11 8 0 0 0 1 
1 5 3 0 0 0 1 
1 5 5 0 0 0 1 
1 11 5 0 0 0 1 
1 4 4 4 0 0 1 
Polygon3D 0
PolygonOnTriangulations 0
Surfaces 11
1 0 0 0 0 1 0 1 0 0 0 0 -1 
1 0 0 0 0 0 1 1 0 -0 -0 1 0 
1 0 8 0 1 0 -0 0 -1 0 0 -0 -1 
1 11 0 0 -1 0 0 0 1 0 0 0 -1 
2 2.5 4 4 -0 -0 -1 1 0 -0 -0 1 0 1.5
1 0 0 4 0 0 1 1 0 -0 -0 1 0 
1 11 8 0 0 -1 0 -1 0 0 -0 -0 -1 
1 11 3 0 0 -1 0 -1 0 0 -0 -0 -1 
1 5 3 0 -1 0 0 0 1 0 0 0 -1 
1 5 5 0 0 1 0 1 0 0 0 0 -1 
1 11 5 0 -1 0 0 0 1 0 0 0 -1 
Triangulations 0

TShapes 54
Ve
1e-07
0 0 0
0 0

0101101
*
Ed
 1e-07 1 1 0
1  1 0 0 4
0

0101000
+54 0 -54 1 *
Ve
1e-07
11 0 0
0 0

0101101
*
Ed
 1e-07 1 1 0
1  2 0 0 4
0

0101000
+52 0 -52 1 *
Ed
 1e-07 1 1 0
1  3 0 0 11
2  1 2 0 0 11
0

0101000
+54 0 -52 0 *
Wi

0101100
+53 0 -51 0 -50 0 +50 1 *
Fa
0  1e-07 1 0

0101000
+49 0 *
Ve
1e-07
0 8 0
0 0

0101101
*
Ed
 1e-07 1 1 0
1  4 0 0 4
0

0101000
+47 0 -47 1 *
Ed
 1e-07 1 1 0
1  5 0 0 8
2  2 2 0 0 8
0

0101000
+47 0 -54 0 *
Wi

0101100
+46 0 -53 0 -45 0 +45 1 *
Fa
0  1e-07 3 0

0101000
+44 0 *
Ve
1e-07
11 3 0
0 0

0101101
*
Ed
 1e-07 1 1 0
1  6 0 0 4
0

0101000
+42 0 -42 1 *
Ed
 1e-07 1 1 0
1  7 0 0 3
2  3 2 0 0 3
0

0101000
+52 0 -42 0 *
Wi

0101100
+51 0 -41 0 -40 0 +40 1 *
Fa
0  1e-07 4 0

0101000
+39 0 *
Ve
1e-07
5 3 0
0 0

0101101
*
Ed
 1e-07 1 1 0
1  8 0 0 6
2  4 2 0 0 6
0

0101000
+42 0 -37 0 *
Ve
1e-07
5 5 0
0 0

0101101
*
Ed
 1e-07 1 1 0
1  9 0 0 2
2  5 2 0 0 2
0

0101000
+37 0 -35 0 *
Ve
1e-07
11 5 0
0 0

0101101
*
Ed
 1e-07 1 1 0
1  10 0 0 6
2  6 2 0 0 6
0

0101000
+35 0 -33 0 *
Ve
1e-07
11 8 0
0 0

0101101
*
Ed
 1e-07 1 1 0
1  11 0 0 3
2  7 2 0 0 3
0

0101000
+33 0 -31 0 *
Ed
 1e-07 1 1 0
1  12 0 0 11
2  8 2 0 0 11
0

0101000
+31 0 -47 0 *
Wi

0101100
+50 0 +40 0 +36 0 +34 0 +32 0 +30 0 +29 0 +45 0 *
Fa
0  1e-07 2 0

0101000
+28 0 *
Wi

0101100
+50 1 +45 1 +40 1 +29 1 +36 1 +30 1 +34 1 +32 1 *
Ve
1e-07
4 4 4
0 0

0101101
*
Ed
 1e-07 1 1 0
1  13 0 0 6.28318530717959
2  9 5 0 0 6.28318530717959
2  10 5 3 0 6.28318530717959
2  11 6 0 0 6.28318530717959
2  12 2 1 0 6.28318530717959
0

0101100
+25 0 -25 0 *
Wi

0101100
-24 0 *
Fa
0  1e-07 2 1

0101000
+26 0 +23 0 *
Ed
 1e-07 1 1 0
1  14 0 0 4
0

0101000
+31 0 -31 1 *
Wi

0101100
+21 0 -46 0 -29 0 +29 1 *
Fa
0  1e-07 7 0

0101000
+20 0 *
Ed
 1e-07 1 1 0
1  15 0 0 4
0

0101000
+37 0 -37 1 *
Wi

0101100
+41 0 -18 0 -36 0 +36 1 *
Fa
0  1e-07 8 0

0101000
+17 0 *
Ed
 1e-07 1 1 0
1  16 0 0 4
0

0101000
+35 0 -35 1 *
Wi

0101100
+18 0 -15 0 -34 0 +34 1 *
Fa
0  1e-07 9 0

0101000
+14 0 *
Ed
 1e-07 1 1 0
1  17 0 0 4
0

0101000
+33 0 -33 1 *
Wi

0101100
+15 0 -12 0 -32 0 +32 1 *
Fa
0  1e-07 10 0

0101000
+11 0 *
Wi

0101100
+12 0 -21 0 -30 0 +30 1 *
Fa
0  1e-07 11 0

0101000
+9 0 *
Ed
 1e-07 1 1 0
1  18 0 0 3
3  13 14CN 5 0 0 3
0

0101000
+25 0 -25 2 *
Wi

0101100
+7 0 -7 0 -24 0 +24 2 *
Fa
0  1e-07 5 0

0101000
+6 0 *
Wi

0101100
+24 0 *
Fa
0  1e-07 6 0

0101000
+4 0 *
Sh

0101100
-48 0 -43 0 -38 0 -27 0 +22 0 -19 0 -16 0 -13 0 -10 0 -8 0 
-5 0 +3 2 *
So

0100000
+2 0 *

+1 0 