DBRep_DrawableShape

CASCADE Topology V1, (c) Matra-Datavision
Locations 1
1
              1               0               0 1.77777777777778 
              0               1               0 1.77777777777778 
              0               0               1 3.11111111111111 
Curve2ds 9
1 0 0 1 1.0965165675310187e-17 
1 -1.3432327952254981e-16 8 -1.0965165675310187e-17 -1 
1 7.9999999999999991 8.77213254024815e-17 3.8720741290939101e-17 1 
1 8 8 -1 -6.6476316906568014e-17 
2 4 3.9999999999999996 1 1.0965165675310187e-17 -1.0965165675310187e-17 1 2.2912878474779204
1 0 0.41151684606748745 1 0 
1 6.2831853071795862 -6.2831853071795862 0 1 
1 0 -6.2831853071795862 0 1 
1 0 1.5707963267948966 1 0 
Curves 10
1 0.5 1 1.5 0.44444444444444442 0.44444444444444442 0.77777777777777779 
1 1.3888888888888888 -6.1111111111111107 5.0555555555555554 0.44444444444444442 0.44444444444444442 0.77777777777777779 
1 0.5 1 1.5 0.11111111111111112 -0.88888888888888895 0.44444444444444448 
1 7.6111111111111107 0.11111111111111116 -2.0555555555555554 0.44444444444444442 0.44444444444444442 0.77777777777777779 
1 7.6111111111111107 0.11111111111111116 -2.0555555555555554 -0.88888888888888895 0.11111111111111112 0.44444444444444448 
1 8.5 -7 1.5 0.44444444444444442 0.44444444444444442 0.77777777777777779 
1 1.3888888888888888 -6.1111111111111107 5.0555555555555554 0.88888888888888895 -0.11111111111111117 -0.44444444444444448 
1 8.5 -7 1.5 -0.11111111111111116 0.88888888888888884 -0.44444444444444442 
2 6.2777777777777768 -1.2222222222222223 4.6111111111111107 0.44444444444444442 0.44444444444444442 0.7777777777777779 0.11111111111111109 -0.88888888888888895 0.44444444444444442 0.88888888888888895 -0.11111111111111112 -0.44444444444444442 2.2912878474779204
2 5.833333333333333 -1.6666666666666663 3.8333333333333339 -0.88888888888888895 0.11111111111111129 0.44444444444444425 0.11111111111111087 -0.88888888888888906 0.44444444444444453 0.44444444444444442 0.44444444444444436 0.7777777777777779 2.5
Polygon3D 0
PolygonOnTriangulations 0
Surfaces 6
1 0.5 1 1.5 0.88888888888888895 -0.1111111111111111 -0.44444444444444442 0.1111111111111111 -0.88888888888888895 0.44444444444444448 -0.44444444444444442 -0.44444444444444448 -0.7777777777777779 
1 0.5 1 1.5 0.44444444444444442 0.44444444444444442 0.77777777777777779 0.11111111111111109 -0.88888888888888895 0.44444444444444442 0.88888888888888895 -0.11111111111111112 -0.44444444444444442 
1 7.6111111111111107 0.11111111111111116 -2.0555555555555554 0.11111111111111109 -0.88888888888888895 0.44444444444444442 -0.88888888888888884 0.11111111111111109 0.44444444444444436 -0.44444444444444442 -0.44444444444444442 -0.7777777777777779 
1 1.3888888888888888 -6.1111111111111107 5.0555555555555554 -0.11111111111111105 0.88888888888888895 -0.44444444444444448 0.88888888888888884 -0.11111111111111117 -0.44444444444444442 -0.44444444444444453 -0.44444444444444448 -0.77777777777777779 
4 5.833333333333333 -1.6666666666666663 3.8333333333333339 0.44444444444444442 0.44444444444444442 0.77777777777777779 0.11111111111111109 -0.88888888888888895 0.44444444444444442 0.88888888888888895 -0.11111111111111112 -0.44444444444444442 2.5
1 8.5 -7 1.5 -0.88888888888888895 0.11111111111111106 0.44444444444444448 -0.11111111111111117 0.88888888888888884 -0.44444444444444448 -0.44444444444444442 -0.44444444444444453 -0.77777777777777779 
Triangulations 0

TShapes 34
Ve
1e-07
0.5 1 1.5
0 0

0101101
*
Ed
 1e-07 1 1 0
1  1 0 0 4
0

0101000
+34 0 -34 1 *
Ve
1e-07
1.38888888888889 -6.11111111111111 5.05555555555556
0 0

0101101
*
Ed
 1e-07 1 1 0
1  2 0 0 4
0

0101000
+32 0 -32 1 *
Ed
 1e-07 1 1 0
1  3 0 0 8
2  1 2 0 0 8
0

0101000
+34 0 -32 0 *
Wi

0101100
+33 0 -31 0 -30 0 +30 1 *
Fa
0  1e-07 1 0

0101000
+29 0 *
Ve
1e-07
7.61111111111111 0.111111111111111 -2.05555555555556
0 0

0101101
*
Ed
 1e-07 1 1 0
1  4 0 0 4
0

0101000
+27 0 -27 1 *
Ed
 1e-07 1 1 0
1  5 0 0 8
2  2 2 0 0 8
0

0101000
+27 0 -34 0 *
Wi

0101100
+26 0 -33 0 -25 0 +25 1 *
Fa
0  1e-07 3 0

0101000
+24 0 *
Ve
1e-07
8.5 -7 1.5
0 0

0101101
*
Ed
 1e-07 1 1 0
1  6 0 0 4
0

0101000
+22 0 -22 1 *
Ed
 1e-07 1 1 0
1  7 0 0 8
2  3 2 0 0 8
0

0101000
+32 0 -22 0 *
Wi

0101100
+31 0 -21 0 -20 0 +20 1 *
Fa
0  1e-07 4 0

0101000
+19 0 *
Ed
 1e-07 1 1 0
1  8 0 0 8
2  4 2 0 0 8
0

0101000
+22 0 -27 0 *
Wi

0101100
+30 0 +20 0 +17 0 +25 0 *
Fa
0  1e-07 2 0

0101000
+16 0 *
Wi

0101100
+30 1 +25 1 +20 1 +17 1 *
Ve
1.00000001332268e-07
6.53236531638643 -3.25892253109149 5.62946126554574
0 0

0101101
*
Ed
 1e-07 1 1 0
1  9 0 0 6.28318530717959
2  5 2 1 0 6.28318530717959
2  6 5 0 0 6.28318530717959
0

0101100
+13 0 -13 0 *
Wi

0101100
-12 0 *
Fa
0  1e-07 2 1

0101000
+14 0 +11 0 *
Wi

0101100
+21 0 -26 0 -17 0 +17 1 *
Fa
0  1e-07 6 0

0101000
+9 0 *
Ve
1e-07
6.94444444444444 -0.555555555555555 5.77777777777778
0 0

0101101
*
Ed
 1e-07 1 1 0
1  10 0 6.69470215324707 7.85398163397448
3  7 8CN 5 0 6.69470215324707 7.85398163397448
0

0101000
+13 0 -7 0 *
Ed
 1e-07 1 1 1
2  9 5 0 0 6.28318530717959
0

0101000
+7 0 -7 0 *
Wi

0101100
+6 0 +12 0 -6 0 -5 0 *
Fa
0  1e-07 5 0

0101000
+4 0 *
Sh

0101100
-28 0 -23 0 -18 0 -15 0 +10 0 -8 0 +3 0 *
So

0100000
+2 0 *

+1 0 