DBRep_DrawableShape

CASCADE Topology V1, (c) Matra-Datavision
Locations 2
1
              1               0               0 2.66666666666667 
              0               1               0 0.666666666666667 
              0               0               1 5.33333333333333 
2  1 -1 0
Curve2ds 32
1 0 -0 1 -2.1245008495913485e-17 
1 1.6447748512965257e-17 -6 1 -2.1245008495913485e-17 
1 0 0 1 -6.27927065625185e-17 
1 12.000000000000002 -2.3026847918151399e-16 1.5077102803551511e-17 -1 
2 8.0000000000000018 -5.9999999999999982 -8.9777293966602169e-17 -1 1 -8.9777293966602169e-17 2
1 0 -0.64350110879328426 1 0 
1 0 -0 1.5077102803551511e-17 -1 
1 12.000000000000002 -8.0593967713529885e-16 9.4488888592712018e-17 1 
1 0 -0 1 1.5077102803551514e-17 
1 5.7567119795378487e-16 -6 1 1.5077102803551514e-17 
1 12.000000000000002 2.9999999999999996 -1 1.7304402081348886e-16 
1 4.0000000000000009 3 -7.5128517947242467e-17 1 
1 0 -0 1 -1.5077102803551511e-17 
1 1.6447748512965281e-16 -6 1 -1.5077102803551511e-17 
1 4.0000000000000009 5.0000000000000009 1 -6.2021718350973243e-17 
1 12.000000000000002 5 -6.8960612254880484e-17 1 
1 0 -0 1 2.1245008495913485e-17 
1 -8.5528292267419472e-16 -6.0000000000000009 1 2.1245008495913485e-17 
1 12.000000000000002 8 -1 6.27927065625185e-17 
1 3.1182189889163348e-16 8 -4.0519713784544674e-17 -1 
1 0 -0 2.8098237042982352e-17 -1 
2 8.0000000000000018 1.4999999999999998 0.89442719099991586 -0.44721359549995798 0.44721359549995798 0.89442719099991586 2.5
1 1.5707963267948968 -6.7468329161803924 0 1 
2 4.0000000000000009 -5.9999999999999991 1.3295263381313603e-16 -1 -1 -1.3295263381313603e-16 1.9999999999999998
1 0 0.64350110879328437 1 0 
2 8.0000000000000018 1.4999999999999998 0.89442719099991586 -0.44721359549995798 0.44721359549995798 0.89442719099991586 2.5
1 4.7123889803846897 3.6052402625905993 0 -1 
1 12.000000000000004 -5.5922344944081961e-16 -1.5077102803551511e-17 -1 
1 8 1.2061682242841211e-16 2.8098237042982352e-17 -1 
1 0 -0 2.1245008495913485e-17 -1 
1 8.0000000000000018 -1.2061682242841211e-16 2.1245008495913485e-17 -1 
1 0 -0 -1.5077102803551511e-17 -1 
Curves 20
1 1 2 0.5 -0.77777777777777768 -0.44444444444444442 0.44444444444444442 
1 -8.3333333333333339 -3.3333333333333339 5.8333333333333339 0.44444444444444448 0.11111111111111112 0.88888888888888895 
2 -2.5555555555555567 -0.88888888888888906 9.3888888888888875 0.44444444444444448 -0.88888888888888895 -0.1111111111111111 0.44444444444444453 0.11111111111111116 0.88888888888888884 -0.77777777777777779 -0.44444444444444442 0.44444444444444459 2
1 1 2 0.5 0.44444444444444448 0.11111111111111112 0.88888888888888895 
1 -8.3333333333333339 -3.3333333333333339 5.8333333333333339 0.44444444444444442 -0.88888888888888884 -0.11111111111111104 
1 -7.0000000000000009 -6 5.5000000000000009 0.7777777777777779 0.44444444444444442 -0.44444444444444453 
1 -0.7777777777777779 -2.4444444444444446 1.9444444444444444 0.44444444444444453 -0.88888888888888884 -0.11111111111111116 
1 0.11111111111111116 -4.2222222222222223 1.7222222222222221 -0.7777777777777779 -0.44444444444444453 0.44444444444444453 
1 -6.1111111111111116 -7.7777777777777786 5.2777777777777786 0.44444444444444442 -0.88888888888888884 -0.11111111111111133 
1 -4.7777777777777786 -10.444444444444445 4.9444444444444446 0.77777777777777768 0.44444444444444442 -0.44444444444444442 
1 4.5555555555555554 -5.1111111111111107 -0.38888888888888884 -0.44444444444444448 0.88888888888888895 0.11111111111111112 
1 -7.0000000000000009 -6 5.5000000000000009 0.44444444444444448 0.11111111111111112 0.88888888888888895 
2 -1.8888888888888897 -2.2222222222222223 9.2222222222222214 0.44444444444444442 0.11111111111111109 0.88888888888888895 -0.89442719099991597 -1.5228805562271258e-18 0.44721359549995793 0.049690399499995319 -0.99380798999990649 0.099380798999990638 2.5
2 -1.2222222222222234 -3.5555555555555558 9.0555555555555554 0.44444444444444448 -0.88888888888888895 -0.1111111111111111 0.44444444444444453 0.11111111111111116 0.88888888888888884 -0.77777777777777779 -0.44444444444444442 0.44444444444444459 1.9999999999999998
2 -1.8888888888888897 -2.2222222222222223 9.2222222222222214 0.44444444444444442 0.11111111111111109 0.88888888888888895 -0.89442719099991597 -1.5228805562271258e-18 0.44721359549995793 0.049690399499995319 -0.99380798999990649 0.099380798999990638 2.5
1 4.5555555555555554 -5.1111111111111107 -0.38888888888888884 0.44444444444444448 0.11111111111111112 0.88888888888888895 
1 -0.7777777777777779 -2.4444444444444446 1.9444444444444444 0.44444444444444448 0.11111111111111112 0.88888888888888895 
1 0.11111111111111116 -4.2222222222222223 1.7222222222222221 0.44444444444444448 0.11111111111111112 0.88888888888888895 
1 -6.1111111111111116 -7.7777777777777786 5.2777777777777786 0.44444444444444448 0.11111111111111112 0.88888888888888895 
1 -4.7777777777777786 -10.444444444444445 4.9444444444444446 0.44444444444444448 0.11111111111111112 0.88888888888888895 
Polygon3D 0
PolygonOnTriangulations 0
Surfaces 10
1 1 2 0.5 0.44444444444444453 -0.88888888888888895 -0.11111111111111112 -0.7777777777777779 -0.44444444444444453 0.44444444444444453 -0.44444444444444448 -0.11111111111111113 -0.88888888888888895 
1 1 2 0.5 0.44444444444444448 0.11111111111111112 0.88888888888888895 -0.77777777777777779 -0.44444444444444453 0.44444444444444453 0.44444444444444453 -0.88888888888888895 -0.11111111111111116 
4 -1.8888888888888902 -2.2222222222222223 9.2222222222222214 0.44444444444444448 -0.88888888888888895 -0.11111111111111112 0.44444444444444448 0.11111111111111112 0.88888888888888884 -0.77777777777777779 -0.44444444444444442 0.44444444444444448 2.5
1 -7.0000000000000009 -6 5.5000000000000009 -0.44444444444444436 0.88888888888888895 0.11111111111111105 0.77777777777777779 0.44444444444444431 -0.44444444444444442 -0.44444444444444448 -0.11111111111111113 -0.88888888888888895 
1 0.11111111111111116 -4.2222222222222223 1.7222222222222221 0.44444444444444448 -0.88888888888888895 -0.1111111111111111 -0.77777777777777779 -0.44444444444444442 0.44444444444444448 -0.44444444444444448 -0.11111111111111113 -0.88888888888888895 
1 -4.7777777777777786 -10.444444444444445 4.9444444444444446 -0.44444444444444453 0.88888888888888895 0.11111111111111112 0.7777777777777779 0.44444444444444453 -0.44444444444444453 -0.44444444444444448 -0.11111111111111113 -0.88888888888888895 
1 -8.3333333333333339 -3.3333333333333339 5.8333333333333339 0.7777777777777779 0.44444444444444448 -0.44444444444444448 0.44444444444444448 -0.88888888888888895 -0.11111111111111105 -0.44444444444444436 -0.11111111111111115 -0.88888888888888884 
1 4.5555555555555554 -5.1111111111111107 -0.38888888888888884 -0.7777777777777779 -0.44444444444444448 0.44444444444444448 -0.44444444444444431 0.88888888888888884 0.11111111111111109 -0.44444444444444442 -0.11111111111111106 -0.88888888888888895 
1 -0.7777777777777779 -2.4444444444444446 1.9444444444444444 0.77777777777777779 0.44444444444444459 -0.44444444444444442 0.44444444444444459 -0.88888888888888895 -0.11111111111111117 -0.44444444444444448 -0.11111111111111112 -0.88888888888888906 
1 -6.1111111111111116 -7.7777777777777786 5.2777777777777786 0.77777777777777779 0.44444444444444453 -0.44444444444444442 0.44444444444444442 -0.88888888888888884 -0.11111111111111133 -0.44444444444444453 -0.11111111111111091 -0.88888888888888884 
Triangulations 0

TShapes 62
Ve
1e-07
1 2 0.5
0 0

0101101
*
Ve
1e-07
-8.33333333333333 -3.33333333333333 5.83333333333333
0 0

0101101
*
Ed
 1e-07 1 1 0
1  1 0 0 12
2  1 1 0 0 12
2  2 1 2 0 12
2  3 2 0 0 12
0

0101000
+62 0 -61 0 *
Ed
 1e-07 1 1 0
1  2 0 0 6
2  4 1 0 0 6
0

0101000
+61 0 -61 1 *
Ve
1.00000007601583e-07
-4.11111111111112 -1.77777777777778 10.2777777777778
0 0

0101101
*
Ed
 1e-07 1 1 0
1  1 0 10 12
2  1 1 0 10 12
2  2 1 2 10 12
2  3 2 0 10 12
0

0101000
+58 2 -61 0 *
Ve
1.00000007227922e-07
-0.999999999999995 2.368475785867e-15 8.5
0 0

0101101
*
Ed
 1e-07 1 1 0
1  3 0 1.5707963267949 4.71238898038469
2  5 1 0 1.5707963267949 4.71238898038469
2  6 3 0 1.5707963267949 4.71238898038469
0

0101000
+58 0 -56 0 *
Ed
 1e-07 1 1 0
1  1 0 0 5.99999999999999
2  1 1 0 0 5.99999999999999
2  2 1 2 0 5.99999999999999
2  3 2 0 0 5.99999999999999
0

0101000
+62 0 -56 2 *
Ed
 1e-07 1 1 0
1  4 0 0 6
2  7 1 0 0 6
0

0101000
+62 0 -62 1 *
Wi

0101100
-60 0 -59 0 +57 1 -55 0 +54 1 +53 0 *
Fa
0  1e-07 1 0

0101000
+52 0 *
Ve
1e-07
-7 -6 5.5
0 0

0101101
*
Ed
 1e-07 1 1 0
1  5 0 0 3
2  8 2 0 0 3
0

0101000
+61 0 -50 0 *
Ve
1e-07
-0.777777777777778 -2.44444444444444 1.94444444444444
0 0

0101101
*
Ed
 1e-07 1 1 0
1  6 0 0 8
2  9 4 0 0 8
2  10 4 2 0 8
2  11 2 0 0 8
0

0101000
+50 0 -48 0 *
Ve
1e-07
0.111111111111111 -4.22222222222222 1.72222222222222
0 0

0101101
*
Ed
 1e-07 1 1 0
1  7 0 0 2
2  12 2 0 0 2
0

0101000
+48 0 -46 0 *
Ve
1e-07
-6.11111111111111 -7.77777777777778 5.27777777777778
0 0

0101101
*
Ed
 1e-07 1 1 0
1  8 0 0 8
2  13 5 0 0 8
2  14 5 2 0 8
2  15 2 0 0 8
0

0101000
+46 0 -44 0 *
Ve
1e-07
-4.77777777777778 -10.4444444444444 4.94444444444444
0 0

0101101
*
Ed
 1e-07 1 1 0
1  9 0 0 3
2  16 2 0 0 3
0

0101000
+44 0 -42 0 *
Ve
1e-07
4.55555555555556 -5.11111111111111 -0.388888888888889
0 0

0101101
*
Ed
 1e-07 1 1 0
1  10 0 0 12
2  17 6 0 0 12
2  18 6 2 0 12
2  19 2 0 0 12
0

0101000
+42 0 -40 0 *
Ed
 1e-07 1 1 0
1  11 0 0 8
2  20 2 0 0 8
0

0101000
+40 0 -62 0 *
Wi

0101100
+60 0 +49 0 +47 0 +45 0 +43 0 +41 0 +39 0 +38 0 *
Fa
0  1e-07 2 0

0101000
+37 0 *
Ed
 1e-07 1 1 0
1  12 0 0 6
2  21 4 0 0 6
0

0101000
+50 0 -50 1 *
Wi

0101100
+59 0 -35 0 -49 0 +49 1 *
Fa
0  1e-07 7 0

0101000
+34 0 *
Ve
1.00000006601861e-07
-2.77777777777778 -4.44444444444445 9.94444444444445
0 0

0101101
*
Ed
 1e-07 1 1 0
1  13 0 6.10333180738711 7.39033402497368
2  22 2 1 6.10333180738711 7.39033402497368
2  23 3 0 6.10333180738711 7.39033402497368
0

0101000
+58 0 -32 0 *
Ed
 1e-07 1 1 0
1  6 0 0 1.99999999999999
2  9 4 0 0 1.99999999999999
2  10 4 2 0 1.99999999999999
2  11 2 0 0 1.99999999999999
0

0101000
+50 0 -32 2 *
Wi

0101100
-31 0 +30 1 +49 1 +57 1 *
Fa
0  1e-07 2 1

0101000
+29 0 *
Ve
1.00000006726018e-07
0.333333333333338 -2.66666666666666 8.16666666666666
0 0

0101101
*
Ed
 1e-07 1 1 0
1  14 0 1.5707963267949 4.71238898038469
2  24 4 0 1.5707963267949 4.71238898038469
2  25 3 0 1.5707963267949 4.71238898038469
0

0101000
+32 0 -27 0 *
Ed
 1e-07 1 1 0
1  15 0 2.96173915379732 4.24874137138388
2  26 2 1 2.96173915379732 4.24874137138388
2  27 3 0 2.96173915379732 4.24874137138388
0

0101000
+27 0 -56 0 *
Wi

0101100
-31 0 -26 0 -25 0 +55 0 *
Fa
0  1e-07 3 0

0101000
+24 0 *
Ed
 1e-07 1 1 0
1  6 0 6.00000000000001 8
2  9 4 0 6.00000000000001 8
2  10 4 2 6.00000000000001 8
2  11 2 0 6.00000000000001 8
0

0101000
+27 2 -48 0 *
Wi

0101100
+38 1 +39 1 +41 1 +43 1 +45 1 +22 1 -25 0 +54 1 *
Fa
0  1e-07 2 1

0101000
+21 0 *
Ed
 1e-07 1 1 0
1  16 0 0 6
2  28 6 0 0 6
0

0101000
+40 0 -40 1 *
Wi

0101100
+19 0 -53 0 -38 0 +38 1 *
Fa
0  1e-07 8 0

0101000
+18 0 *
Ed
 1e-07 1 1 0
1  17 0 0 6
2  29 4 0 0 6
0

0101000
+48 0 -48 1 *
Wi

0101100
-47 0 -16 0 +22 1 +26 0 +30 1 +35 0 *
Fa
0  1e-07 4 0

0101000
+15 0 *
Ed
 1e-07 1 1 0
1  18 0 0 6
2  30 5 0 0 6
0

0101000
+46 0 -46 1 *
Wi

0101100
+16 0 -13 0 -45 0 +45 1 *
Fa
0  1e-07 9 0

0101000
+12 0 *
Ed
 1e-07 1 1 0
1  19 0 0 6
2  31 5 0 0 6
0

0101000
+44 0 -44 1 *
Wi

0101100
+13 0 -10 0 -43 0 +43 1 *
Fa
0  1e-07 5 0

0101000
+9 0 *
Ed
 1e-07 1 1 0
1  20 0 0 6
2  32 6 0 0 6
0

0101000
+42 0 -42 1 *
Wi

0101100
+10 0 -7 0 -41 0 +41 1 *
Fa
0  1e-07 10 0

0101000
+6 0 *
Wi

0101100
+7 0 -19 0 -39 0 +39 1 *
Fa
0  1e-07 6 0

0101000
+4 0 *
Sh

0101100
-51 0 -36 0 -33 0 +28 0 -23 0 +20 0 -17 0 -14 0 -11 0 -8 0 
-5 0 -3 0 *
So

0100000
+2 0 *

+1 0 