DBRep_DrawableShape

CASCADE Topology V1, (c) Matra-Datavision
Locations 2
1
              1               0               0 5.33333333333333 
              0               1               0 2.66666666666667 
              0               0               1 0.666666666666667 
2  1 -1 0
Curve2ds 26
1 0 -0 -3.3066827739607285e-17 -1 
1 7.9999999999999991 -6.3872090058681843e-16 1.1222161745825271e-17 -1 
1 8 -3.3992013593461581e-16 -3.3066827739607285e-17 -1 
1 0 -0 3.118218988916335e-17 -1 
1 0 -0 1 -3.0154205607103015e-17 
1 -2.3849235343799656e-16 -6 1 -3.0154205607103015e-17 
1 0 0 1 -2.7412914188275462e-17 
1 8 -1.9051975360851448e-16 -1.0416907391544676e-16 -1 
1 0 -0 1.1222161745825271e-17 -1 
1 -6.140492778173705e-16 7.9999999999999982 7.0588254034809353e-17 -1 
1 0 -0 1 -6.673331297708308e-17 
1 4.4203324128594195e-16 -5.9999999999999991 1 -6.673331297708308e-17 
1 8.0000000000000018 4.0434048427706313e-17 3.118218988916335e-17 -1 
1 0 -0 -1.0416907391544676e-16 -1 
1 0 -0 1 5.0542560534632884e-18 
1 -5.900629779026295e-16 -6.0000000000000009 1 5.0542560534632884e-18 
1 8 -2.6864655904509962e-16 -2.7412914188275462e-17 1 
1 8.0000000000000018 8 -1 -1.8846378504439381e-16 
1 0 -0 1 -2.381496920106431e-17 
1 4.1119371282413191e-17 -6.0000000000000009 1 -2.381496920106431e-17 
2 4.0000000000000009 4 1 -1.384352166507911e-16 1.384352166507911e-16 1 2.8284271247461903
1 0 0.33983690945412193 1 0 
1 6.2831853071795862 -6.2831853071795862 0 1 
1 0 -6.2831853071795862 0 1 
1 0 0 1 0 
2 0 0 1 0 -0 1 3
Curves 11
1 1 2 0.5 0.88888888888888895 0.44444444444444448 0.11111111111111112 
1 0.11111111111111116 5.5555555555555554 -6.6111111111111107 0.88888888888888895 0.44444444444444448 0.11111111111111112 
1 1 2 0.5 -0.11111111111111112 0.44444444444444448 -0.88888888888888895 
1 -2.5555555555555558 8.2222222222222214 4.0555555555555554 0.88888888888888895 0.44444444444444448 0.11111111111111112 
1 -2.5555555555555558 8.2222222222222214 4.0555555555555554 0.44444444444444453 -0.77777777777777779 -0.44444444444444448 
1 -3.4444444444444446 11.777777777777779 -3.0555555555555549 0.88888888888888895 0.44444444444444448 0.11111111111111112 
1 0.11111111111111116 5.5555555555555554 -6.6111111111111107 -0.44444444444444448 0.7777777777777779 0.44444444444444448 
1 -3.4444444444444446 11.777777777777779 -3.0555555555555549 0.1111111111111111 -0.44444444444444464 0.88888888888888884 
2 -1.2222222222222223 6.8888888888888893 -1.2777777777777775 0.88888888888888895 0.44444444444444448 0.11111111111111112 -0.11111111111111108 0.44444444444444436 -0.88888888888888895 -0.44444444444444448 0.7777777777777779 0.44444444444444436 2.8284271247461903
2 -2.1111111111111112 6.4444444444444446 -1.3888888888888886 0.44444444444444442 -0.77777777777777779 -0.4444444444444442 -0.11111111111111102 0.44444444444444431 -0.88888888888888906 0.88888888888888895 0.44444444444444448 0.11111111111111112 3
2 -2.1111111111111112 6.4444444444444446 -1.3888888888888886 0.88888888888888895 0.44444444444444448 0.11111111111111112 -0.11111111111111108 0.44444444444444436 -0.88888888888888895 -0.44444444444444448 0.7777777777777779 0.44444444444444436 3
Polygon3D 0
PolygonOnTriangulations 0
Surfaces 7
1 1 2 0.5 -0.44444444444444448 0.7777777777777779 0.44444444444444448 -0.11111111111111112 0.44444444444444442 -0.88888888888888906 -0.88888888888888895 -0.44444444444444442 -0.11111111111111106 
1 -2.5555555555555558 8.2222222222222214 4.0555555555555554 -0.11111111111111109 0.44444444444444442 -0.88888888888888884 0.44444444444444448 -0.77777777777777779 -0.44444444444444448 -0.88888888888888884 -0.44444444444444442 -0.11111111111111112 
1 0.11111111111111116 5.5555555555555554 -6.6111111111111107 0.11111111111111108 -0.44444444444444442 0.88888888888888884 -0.44444444444444442 0.77777777777777779 0.44444444444444442 -0.88888888888888895 -0.44444444444444442 -0.11111111111111113 
1 1 2 0.5 0.88888888888888895 0.44444444444444448 0.11111111111111112 -0.11111111111111112 0.44444444444444448 -0.88888888888888906 -0.44444444444444442 0.77777777777777768 0.44444444444444442 
1 -3.4444444444444446 11.777777777777779 -3.0555555555555549 0.44444444444444448 -0.77777777777777779 -0.44444444444444464 0.1111111111111111 -0.44444444444444464 0.88888888888888884 -0.88888888888888906 -0.44444444444444442 -0.11111111111111122 
4 -2.1111111111111112 6.4444444444444446 -1.3888888888888886 0.88888888888888895 0.44444444444444448 0.11111111111111112 -0.11111111111111112 0.44444444444444448 -0.88888888888888906 -0.44444444444444442 0.77777777777777768 0.44444444444444442 3
1 -2.1111111111111112 6.4444444444444446 -1.3888888888888886 0.88888888888888895 0.44444444444444448 0.11111111111111112 -0.11111111111111112 0.44444444444444448 -0.88888888888888906 -0.44444444444444442 0.77777777777777768 0.44444444444444442 
Triangulations 0

TShapes 36
Ve
1e-07
1 2 0.5
0 0

0101101
*
Ed
 1e-07 1 1 0
1  1 0 0 6
2  1 1 0 0 6
2  2 2 0 0 6
0

0101000
+36 0 -36 1 *
Ve
1e-07
0.111111111111111 5.55555555555556 -6.61111111111111
0 0

0101101
*
Ed
 1e-07 1 1 0
1  2 0 0 6
2  3 1 0 0 6
2  4 3 0 0 6
0

0101000
+34 0 -34 1 *
Ed
 1e-07 1 1 0
1  3 0 0 8
2  5 1 0 0 8
2  6 1 2 0 8
2  7 4 0 0 8
0

0101000
+36 0 -34 0 *
Wi

0101100
+35 0 -33 0 -32 0 +32 1 *
Fa
0  1e-07 1 0

0101000
+31 0 *
Ve
1e-07
-2.55555555555556 8.22222222222222 4.05555555555556
0 0

0101101
*
Ed
 1e-07 1 1 0
1  4 0 0 6
2  8 5 0 0 6
2  9 2 0 0 6
0

0101000
+29 0 -29 1 *
Ed
 1e-07 1 1 0
1  5 0 0 8
2  10 4 0 0 8
2  11 2 0 0 8
2  12 2 2 0 8
0

0101000
+29 0 -36 0 *
Wi

0101100
+28 0 -35 0 -27 0 +27 1 *
Fa
0  1e-07 2 0

0101000
+26 0 *
Ve
1e-07
-3.44444444444444 11.7777777777778 -3.05555555555555
0 0

0101101
*
Ed
 1e-07 1 1 0
1  6 0 0 6
2  13 3 0 0 6
2  14 5 0 0 6
0

0101000
+24 0 -24 1 *
Ed
 1e-07 1 1 0
1  7 0 0 8
2  15 3 0 0 8
2  16 3 2 0 8
2  17 4 0 0 8
0

0101000
+34 0 -24 0 *
Wi

0101100
+33 0 -23 0 -22 0 +22 1 *
Fa
0  1e-07 3 0

0101000
+21 0 *
Ed
 1e-07 1 1 0
1  8 0 0 8
2  18 4 0 0 8
2  19 5 0 0 8
2  20 5 2 0 8
0

0101000
+24 0 -29 0 *
Wi

0101100
+32 0 +27 0 +22 0 +19 0 *
Ve
1.00000001110223e-07
-1.53649190274958 8.14596761099831 -3.79193522199661
0 0

0101101
*
Ed
 1e-07 1 1 0
1  9 0 0 6.28318530717959
2  21 4 0 0 6.28318530717959
2  22 6 0 0 6.28318530717959
0

0101100
+17 0 -17 0 *
Wi

0101100
-16 0 *
Fa
0  1e-07 4 0

0101000
+18 0 +15 0 *
Wi

0101100
+32 0 +22 0 +19 0 +27 0 *
Fa
0  1e-07 4 0

0101000
+13 0 *
Wi

0101100
+23 0 -28 0 -19 0 +19 1 *
Fa
0  1e-07 5 0

0101000
+11 0 *
Ve
1e-07
-2.44444444444444 7.77777777777778 -4.05555555555556
0 0

0101101
*
Ed
 1e-07 1 1 0
1  10 0 6.28318530717959 6.62302221663371
3  23 24CN 6 0 6.28318530717959 6.62302221663371
0

0101000
+9 0 -17 0 *
Ed
 1e-07 1 1 0
1  11 0 0 6.28318530717959
2  25 6 0 0 6.28318530717959
2  26 7 0 0 6.28318530717959
0

0101000
+9 0 -9 0 *
Wi

0101100
-16 0 +8 0 +7 0 -8 0 *
Fa
0  1e-07 6 0

0101000
+6 0 *
Wi

0101100
-7 0 *
Fa
0  1e-07 7 0

0111000
-4 0 *
Sh

0101100
-30 0 -25 0 -20 0 -14 0 +12 1 -10 0 +5 0 -3 0 *
So

0100000
+2 0 *

+1 0 