DBRep_DrawableShape

CASCADE Topology V1, (c) Matra-Datavision
Locations 1
1
              1               0               0               0 
              0               1               0               0 
              0               0               1               3 
Curve2ds 9
1 1.5707963267948966 -1 0 -1 
1 0 0 1 0 
2 0 3 -1 0 0 1 3
1 6.2831853071795862 -1 -1 0 
1 4.7123889803846897 -1 0 -1 
2 0 3 -1 0 0 1 3
1 6.2831853071795862 -4 -1 0 
1 8 0 0 1 
1 8 6 -1 0 
Curves 9
1 0 0 0 0 0 1 
1 8 0 0 0 0 1 
1 0 0 0 1 0 0 
2 0 3 0 -0 0 -1 -1 0 0 0 1 -0 3
1 0 6 0 0 0 1 
2 0 3 3 -0 0 -1 -1 0 0 0 1 -0 3
1 8 6 0 0 0 1 
1 8 0 0 0 1 0 
1 8 6 0 -1 0 0 
Polygon3D 0
PolygonOnTriangulations 0
Surfaces 5
1 0 0 0 0 1 0 1 0 0 0 0 -1 
2 0 3 -1 -0 -0 -1 -1 0 0 0 -1 0 3
1 0 0 0 0 0 1 1 0 -0 -0 1 0 
1 8 0 0 -1 0 0 0 1 0 0 0 -1 
1 8 6 0 0 -1 0 -1 0 0 -0 -0 -1 
Triangulations 0

TShapes 27
Ve
1.00000000551091e-07
0 0 0
0 0

0101101
*
Ed
 1.00000000183697e-07 1 1 0
1  1 0 0 3
2  1 2 0 0 3
0

0101000
+27 0 -27 1 *
Ve
1e-07
8 0 0
0 0

0101101
*
Ed
 1e-07 1 1 0
1  2 0 0 3
0

0101000
+25 0 -25 1 *
Ed
 1e-07 1 1 0
1  3 0 0 8
2  2 3 0 0 8
0

0101000
+27 0 -25 0 *
Wi

0101100
+26 0 -24 0 -23 0 +23 1 *
Fa
0  1e-07 1 0

0101000
+22 0 *
Ve
1.00000000551091e-07
0 6 0
0 0

0101101
*
Ed
 1e-07 1 1 0
1  4 0 1.5707963267949 4.71238898038469
2  3 3 0 1.5707963267949 4.71238898038469
2  4 2 0 1.5707963267949 4.71238898038469
0

0101000
+20 0 -27 0 *
Ed
 1.00000000551091e-07 1 1 0
1  5 0 0 3
2  5 2 0 0 3
0

0101000
+20 0 -20 1 *
Ed
 1e-07 1 1 0
1  6 0 1.5707963267949 4.71238898038469
2  6 3 1 1.5707963267949 4.71238898038469
2  7 2 0 1.5707963267949 4.71238898038469
0

0101000
+20 1 -27 1 *
Wi

0101100
+19 0 -18 0 -17 0 +26 0 *
Fa
0  1e-07 2 0

0101000
+16 0 *
Ve
1e-07
8 6 0
0 0

0101101
*
Ed
 1e-07 1 1 0
1  7 0 0 3
0

0101000
+14 0 -14 1 *
Ed
 1e-07 1 1 0
1  8 0 0 6
2  8 3 0 0 6
0

0101000
+25 0 -14 0 *
Wi

0101100
+24 0 -13 0 -12 0 +12 1 *
Fa
0  1e-07 4 0

0101000
+11 0 *
Ed
 1e-07 1 1 0
1  9 0 0 8
2  9 3 0 0 8
0

0101000
+14 0 -20 0 *
Wi

0101100
+19 0 +9 0 +12 0 +23 0 *
Fa
0  1e-07 3 0

0101000
+8 0 *
Wi

0101100
+17 0 +9 1 +12 1 +23 1 *
Fa
0  1e-07 3 1

0101000
+6 0 *
Wi

0101100
+13 0 -18 0 -9 0 +9 1 *
Fa
0  1e-07 5 0

0101000
+4 0 *
Sh

0101100
-21 0 +15 0 -10 0 -7 0 +5 0 -3 0 *
So

0100000
+2 0 *

+1 0 