DBRep_DrawableShape

CASCADE Topology V1, (c) Matra-Datavision
Locations 1
1
              1               0               0               0 
              0               1               0               0 
              0               0               1               3 
Curve2ds 13
1 1.5707963267948966 -1 0 -1 
1 0 0 1 0 
2 0 3 -1 0 0 1 3
1 6.2831853071795862 -1 -1 0 
1 4.7123889803846897 -1 0 -1 
2 0 3 -1 0 0 1 3
1 6.2831853071795862 -4 -1 0 
1 8 0 0 1 
1 8 6 -1 0 
1 8 3.5 0 1 
1 5 3.5 1 0 
1 5 2.5 0 1 
1 8 2.5 -1 0 
Curves 17
1 0 0 0 0 0 1 
1 8 0 0 0 0 1 
1 0 0 0 1 0 0 
2 0 3 0 -0 0 -1 -1 0 0 0 1 -0 3
1 0 6 0 0 0 1 
2 0 3 3 -0 0 -1 -1 0 0 0 1 -0 3
1 8 2.5 0 0 0 1 
1 8 0 0 0 1 0 
1 8 6 0 -1 0 0 
1 8 3.5 0 0 1 0 
1 5 3.5 0 1 0 0 
1 5 2.5 0 0 1 0 
1 8 2.5 0 -1 0 0 
1 8 6 0 0 0 1 
1 5 2.5 0 0 0 1 
1 8 3.5 0 0 0 1 
1 5 3.5 0 0 0 1 
Polygon3D 0
PolygonOnTriangulations 0
Surfaces 9
1 0 0 0 0 1 0 1 0 0 0 0 -1 
2 0 3 -1 -0 -0 -1 -1 0 0 0 -1 0 3
1 0 0 0 0 0 1 1 0 -0 -0 1 0 
1 8 0 0 -1 0 0 0 1 0 0 0 -1 
1 8 6 0 0 -1 0 -1 0 0 -0 -0 -1 
1 8 2.5 0 0 -1 0 -1 0 0 -0 -0 -1 
1 8 3.5 0 -1 0 0 0 1 0 0 0 -1 
1 5 3.5 0 0 1 0 1 0 0 0 0 -1 
1 5 2.5 0 -1 0 0 0 1 0 0 0 -1 
Triangulations 0

TShapes 47
Ve
1.00000000551091e-07
0 0 0
0 0

0101101
*
Ed
 1.00000000183697e-07 1 1 0
1  1 0 0 3
2  1 2 0 0 3
0

0101000
+47 0 -47 1 *
Ve
1e-07
8 0 0
0 0

0101101
*
Ed
 1e-07 1 1 0
1  2 0 0 3
0

0101000
+45 0 -45 1 *
Ed
 1e-07 1 1 0
1  3 0 0 8
2  2 3 0 0 8
0

0101000
+47 0 -45 0 *
Wi

0101100
+46 0 -44 0 -43 0 +43 1 *
Fa
0  1e-07 1 0

0101000
+42 0 *
Ve
1.00000000551091e-07
0 6 0
0 0

0101101
*
Ed
 1e-07 1 1 0
1  4 0 1.5707963267949 4.71238898038469
2  3 3 0 1.5707963267949 4.71238898038469
2  4 2 0 1.5707963267949 4.71238898038469
0

0101000
+40 0 -47 0 *
Ed
 1.00000000551091e-07 1 1 0
1  5 0 0 3
2  5 2 0 0 3
0

0101000
+40 0 -40 1 *
Ed
 1e-07 1 1 0
1  6 0 1.5707963267949 4.71238898038469
2  6 3 1 1.5707963267949 4.71238898038469
2  7 2 0 1.5707963267949 4.71238898038469
0

0101000
+40 1 -47 1 *
Wi

0101100
+39 0 -38 0 -37 0 +46 0 *
Fa
0  1e-07 2 0

0101000
+36 0 *
Ve
1e-07
8 2.5 0
0 0

0101101
*
Ed
 1e-07 1 1 0
1  7 0 0 3
0

0101000
+34 0 -34 1 *
Ed
 1e-07 1 1 0
1  8 0 0 2.5
2  8 3 0 0 2.5
0

0101000
+45 0 -34 0 *
Wi

0101100
+44 0 -33 0 -32 0 +32 1 *
Fa
0  1e-07 4 0

0101000
+31 0 *
Ve
1e-07
8 6 0
0 0

0101101
*
Ed
 1e-07 1 1 0
1  9 0 0 8
2  9 3 0 0 8
0

0101000
+29 0 -40 0 *
Ve
1e-07
8 3.5 0
0 0

0101101
*
Ed
 1e-07 1 1 0
1  10 0 0 2.5
2  10 3 0 0 2.5
0

0101000
+27 0 -29 0 *
Ve
1e-07
5 3.5 0
0 0

0101101
*
Ed
 1e-07 1 1 0
1  11 0 0 3
2  11 3 0 0 3
0

0101000
+25 0 -27 0 *
Ve
1e-07
5 2.5 0
0 0

0101101
*
Ed
 1e-07 1 1 0
1  12 0 0 1
2  12 3 0 0 1
0

0101000
+23 0 -25 0 *
Ed
 1e-07 1 1 0
1  13 0 0 3
2  13 3 0 0 3
0

0101000
+34 0 -23 0 *
Wi

0101100
+39 0 +28 0 +26 0 +24 0 +22 0 +21 0 +32 0 +43 0 *
Fa
0  1e-07 3 0

0101000
+20 0 *
Wi

0101100
+37 0 +28 1 +26 1 +24 1 +22 1 +21 1 +32 1 +43 1 *
Fa
0  1e-07 3 1

0101000
+18 0 *
Ed
 1e-07 1 1 0
1  14 0 0 3
0

0101000
+29 0 -29 1 *
Wi

0101100
+16 0 -38 0 -28 0 +28 1 *
Fa
0  1e-07 5 0

0101000
+15 0 *
Ed
 1e-07 1 1 0
1  15 0 0 3
0

0101000
+23 0 -23 1 *
Wi

0101100
+33 0 -13 0 -21 0 +21 1 *
Fa
0  1e-07 6 0

0101000
+12 0 *
Ed
 1e-07 1 1 0
1  16 0 0 3
0

0101000
+27 0 -27 1 *
Wi

0101100
+10 0 -16 0 -26 0 +26 1 *
Fa
0  1e-07 7 0

0101000
+9 0 *
Ed
 1e-07 1 1 0
1  17 0 0 3
0

0101000
+25 0 -25 1 *
Wi

0101100
+7 0 -10 0 -24 0 +24 1 *
Fa
0  1e-07 8 0

0101000
+6 0 *
Wi

0101100
+13 0 -7 0 -22 0 +22 1 *
Fa
0  1e-07 9 0

0101000
+4 0 *
Sh

0101100
-41 0 +35 0 -30 0 -19 0 +17 0 -14 0 -11 0 -8 0 -5 0 -3 0 
*
So

0100000
+2 0 *

+1 0 