DBRep_DrawableShape

CASCADE Topology V1, (c) Matra-Datavision
Locations 3
1
              1               0               0               0 
              0               1               0               8 
              0               0               1               0 
1
              1               0               0               0 
              0               1               0               4 
              0               0               1               0 
2  2 -1 0
Curve2ds 10
1 0 0 1 0 
1 0 10 0 -1 
1 10 0 0 1 
1 10 10 -1 0 
1 0 0 1 0 
1 0 -4 1 0 
2 6 4 1 0 -0 1 2.5
2 6 4 1 0 -0 1 2.5
1 0 0 0 -1 
1 6.2831853071795862 0 0 -1 
Curves 10
1 0 0 0 0 1 0 
1 0 0 10 0 1 0 
1 0 0 0 0 0 1 
1 10 0 0 0 1 0 
1 10 0 0 -1 0 0 
1 10 0 10 0 1 0 
1 0 0 10 1 0 0 
1 10 0 10 0 0 -1 
2 4 -4 6 0 1 0 0 -0 1 1 0 -0 2.5
1 4 -4 8.5 0 1 0 
Polygon3D 0
PolygonOnTriangulations 0
Surfaces 7
1 0 0 0 1 0 0 0 0 1 0 -1 0 
1 0 0 0 0 1 0 0 -0 1 1 0 -0 
1 10 0 0 0 -0 1 -1 0 0 -0 -1 0 
1 0 0 10 0 0 -1 1 0 0 0 -1 0 
2 4 -4 6 -0 -1 -0 0 -0 1 1 0 -0 2.5
1 0 -4 0 0 1 0 0 -0 1 1 0 -0 
1 10 0 10 -1 0 0 0 0 -1 -0 -1 -0 
Triangulations 0

TShapes 34
Ve
1e-07
0 0 0
0 0

0101101
*
Ed
 1e-07 1 1 0
1  1 0 0 8
0

0101000
+34 0 -34 1 *
Ve
1e-07
0 0 10
0 0

0101101
*
Ed
 1e-07 1 1 0
1  2 0 0 8
0

0101000
+32 0 -32 1 *
Ed
 1e-07 1 1 0
1  3 0 0 10
2  1 2 0 0 10
0

0101000
+34 0 -32 0 *
Wi

0101100
+33 0 -31 0 -30 0 +30 1 *
Fa
0  1e-07 1 0

0101000
+29 0 *
Ve
1e-07
10 0 0
0 0

0101101
*
Ed
 1e-07 1 1 0
1  4 0 0 8
0

0101000
+27 0 -27 1 *
Ed
 1e-07 1 1 0
1  5 0 0 10
2  2 2 0 0 10
0

0101000
+27 0 -34 0 *
Wi

0101100
+26 0 -33 0 -25 0 +25 1 *
Fa
0  1e-07 3 0

0101000
+24 0 *
Ve
1e-07
10 0 10
0 0

0101101
*
Ed
 1e-07 1 1 0
1  6 0 0 8
0

0101000
+22 0 -22 1 *
Ed
 1e-07 1 1 0
1  7 0 0 10
2  3 2 0 0 10
0

0101000
+32 0 -22 0 *
Wi

0101100
+31 0 -21 0 -20 0 +20 1 *
Fa
0  1e-07 4 0

0101000
+19 0 *
Ed
 1e-07 1 1 0
1  8 0 0 10
2  4 2 0 0 10
0

0101000
+22 0 -27 0 *
Wi

0101100
+30 0 +25 0 +20 0 +17 0 *
Ve
1e-07
4 -4 8.5
0 0

0101101
*
Ed
 1e-07 1 1 0
1  9 0 0 6.28318530717959
2  5 5 0 0 6.28318530717959
2  6 5 3 0 6.28318530717959
2  7 6 0 0 6.28318530717959
2  8 2 3 0 6.28318530717959
0

0101100
+15 0 -15 0 *
Wi

0101100
-14 2 *
Fa
0  1e-07 2 0

0101000
+16 0 +13 0 *
Wi

0101100
+30 0 +20 0 +17 0 +25 0 *
Fa
0  1e-07 2 0

0101000
+11 0 *
Wi

0101100
+21 0 -26 0 -17 0 +17 1 *
Fa
0  1e-07 7 0

0101000
+9 0 *
Ed
 1e-07 1 1 0
1  10 0 0 4
3  9 10CN 5 0 0 4
0

0101000
+15 0 -15 2 *
Wi

0101100
+7 0 -7 0 -14 0 +14 2 *
Fa
0  1e-07 5 0

0101000
+6 0 *
Wi

0101100
+14 0 *
Fa
0  1e-07 6 0

0101000
+4 0 *
Sh

0101100
-28 0 -23 0 -18 0 -12 0 +10 1 -8 0 -5 0 -3 0 *
So

0100000
+2 0 *

+1 0 