DBRep_DrawableShape

CASCADE Topology V1, (c) Matra-Datavision
Locations 2
1
              1               0               0 2.66666666666667 
              0               1               0 0.666666666666667 
              0               0               1 5.33333333333333 
2  1 -1 0
Curve2ds 20
1 0 -0 1 -2.1245008495913485e-17 
1 1.6447748512965257e-17 -6 1 -2.1245008495913485e-17 
1 0 0 1 -6.27927065625185e-17 
1 12.000000000000002 -2.3026847918151399e-16 1.5077102803551511e-17 -1 
2 6.0000000000000018 -6 -8.9777293966602169e-17 -1 1 -8.9777293966602169e-17 3.3541019662496847
1 0 -0.72972765622696656 1 0 
1 0 -0 1.5077102803551511e-17 -1 
1 12.000000000000002 -8.0593967713529885e-16 1.0065679428507399e-16 1 
1 0 -0 1 2.7412914188275462e-17 
1 -1.6447748512965281e-16 -5.9999999999999991 1 2.7412914188275462e-17 
1 12.000000000000004 6 -1 7.2815553312606717e-18 
1 2.8166769328453047e-16 6 -4.0519713784544674e-17 -1 
1 0 -0 -2.1245008495913491e-17 -1 
2 6.0000000000000018 3 0.89442719099991586 -0.44721359549995798 0.44721359549995798 0.89442719099991586 4.5
1 1.5707963267948968 -6.7468329161803924 0 1 
2 6.0000000000000009 -5.9999999999999991 8.3609388274240185e-17 -1 -1 -8.3609388274240185e-17 3.3541019662496847
1 0 0.72972765622696656 1 0 
2 6.0000000000000018 3 0.89442719099991586 -0.44721359549995798 0.44721359549995798 0.89442719099991586 4.5
1 4.7123889803846897 3.6052402625905993 0 -1 
1 12.000000000000002 5.26327952414889e-16 -2.1245008495913491e-17 -1 
Curves 12
1 1 2 0.5 -0.77777777777777768 -0.44444444444444442 0.44444444444444442 
1 -8.3333333333333339 -3.3333333333333339 5.8333333333333339 0.44444444444444448 0.11111111111111112 0.88888888888888895 
2 -1.0000000000000013 -1.1102230246251565e-16 8.5 0.44444444444444448 -0.88888888888888895 -0.1111111111111111 0.44444444444444453 0.11111111111111116 0.88888888888888884 -0.77777777777777779 -0.44444444444444442 0.44444444444444459 3.3541019662496847
1 1 2 0.5 0.44444444444444448 0.11111111111111112 0.88888888888888895 
1 -8.3333333333333339 -3.3333333333333339 5.8333333333333339 0.44444444444444436 -0.88888888888888895 -0.11111111111111116 
1 -5.6666666666666679 -8.6666666666666679 5.166666666666667 0.77777777777777768 0.44444444444444448 -0.44444444444444442 
1 3.6666666666666665 -3.333333333333333 -0.16666666666666663 -0.44444444444444448 0.88888888888888895 0.11111111111111112 
1 -5.6666666666666679 -8.6666666666666679 5.166666666666667 0.44444444444444448 0.11111111111111112 0.88888888888888895 
2 0.33333333333333276 -2.666666666666667 8.1666666666666661 0.44444444444444442 0.11111111111111109 0.88888888888888895 -0.89442719099991597 -1.5228805562271258e-18 0.44721359549995793 0.049690399499995319 -0.99380798999990649 0.099380798999990638 4.5
2 1.6666666666666661 -5.3333333333333339 7.833333333333333 0.44444444444444448 -0.88888888888888895 -0.1111111111111111 0.44444444444444453 0.11111111111111116 0.88888888888888884 -0.77777777777777779 -0.44444444444444442 0.44444444444444459 3.3541019662496847
2 0.33333333333333276 -2.666666666666667 8.1666666666666661 0.44444444444444442 0.11111111111111109 0.88888888888888895 -0.89442719099991597 -1.5228805562271258e-18 0.44721359549995793 0.049690399499995319 -0.99380798999990649 0.099380798999990638 4.5
1 3.6666666666666665 -3.333333333333333 -0.16666666666666663 0.44444444444444448 0.11111111111111112 0.88888888888888895 
Polygon3D 0
PolygonOnTriangulations 0
Surfaces 6
1 1 2 0.5 0.44444444444444453 -0.88888888888888895 -0.11111111111111112 -0.7777777777777779 -0.44444444444444453 0.44444444444444453 -0.44444444444444448 -0.11111111111111113 -0.88888888888888895 
1 1 2 0.5 0.44444444444444448 0.11111111111111112 0.88888888888888895 -0.77777777777777779 -0.44444444444444453 0.44444444444444453 0.44444444444444453 -0.88888888888888895 -0.11111111111111116 
4 0.33333333333333237 -2.666666666666667 8.1666666666666661 0.44444444444444448 -0.88888888888888895 -0.11111111111111112 0.44444444444444448 0.11111111111111112 0.88888888888888884 -0.77777777777777779 -0.44444444444444442 0.44444444444444448 4.5
1 -5.6666666666666679 -8.6666666666666679 5.166666666666667 -0.44444444444444453 0.88888888888888895 0.11111111111111115 0.77777777777777779 0.44444444444444453 -0.44444444444444448 -0.44444444444444442 -0.1111111111111111 -0.88888888888888884 
1 -8.3333333333333339 -3.3333333333333339 5.8333333333333339 0.7777777777777779 0.44444444444444448 -0.44444444444444448 0.44444444444444431 -0.88888888888888884 -0.11111111111111113 -0.44444444444444442 -0.11111111111111102 -0.88888888888888895 
1 3.6666666666666665 -3.333333333333333 -0.16666666666666663 -0.7777777777777779 -0.44444444444444448 0.44444444444444448 -0.44444444444444431 0.88888888888888884 0.11111111111111109 -0.44444444444444442 -0.11111111111111106 -0.88888888888888895 
Triangulations 0

TShapes 42
Ve
1e-07
1 2 0.5
0 0

0101101
*
Ve
1e-07
-8.33333333333333 -3.33333333333333 5.83333333333333
0 0

0101101
*
Ed
 1e-07 1 1 0
1  1 0 0 12
2  1 1 0 0 12
2  2 1 2 0 12
2  3 2 0 0 12
0

0101000
+42 0 -41 0 *
Ed
 1e-07 1 1 0
1  2 0 0 6
2  4 1 0 0 6
0

0101000
+41 0 -41 1 *
Ve
1.00000003641802e-07
-3.60874597374976 -1.49071198499986 9.99071198499986
0 0

0101101
*
Ed
 1e-07 1 1 0
1  1 0 9.35410196624969 12
2  1 1 0 9.35410196624969 12
2  2 1 2 9.35410196624969 12
2  3 2 0 9.35410196624969 12
0

0101000
+38 2 -41 0 *
Ve
1.00000001790181e-07
1.60874597374975 1.49071198499986 7.00928801500014
0 0

0101101
*
Ed
 1e-07 1 1 0
1  3 0 1.5707963267949 4.71238898038469
2  5 1 0 1.5707963267949 4.71238898038469
2  6 3 0 1.5707963267949 4.71238898038469
0

0101000
+38 0 -36 0 *
Ed
 1e-07 1 1 0
1  1 0 0 2.64589803375031
2  1 1 0 0 2.64589803375031
2  2 1 2 0 2.64589803375031
2  3 2 0 0 2.64589803375031
0

0101000
+42 0 -36 2 *
Ed
 1e-07 1 1 0
1  4 0 0 6
2  7 1 0 0 6
0

0101000
+42 0 -42 1 *
Wi

0101100
-40 0 -39 0 +37 1 -35 0 +34 1 +33 0 *
Fa
0  1e-07 1 0

0101000
+32 0 *
Ve
1e-07
-5.66666666666667 -8.66666666666667 5.16666666666667
0 0

0101101
*
Ed
 1e-07 1 1 0
1  5 0 0 6
2  8 2 0 0 6
0

0101000
+41 0 -30 0 *
Ve
1e-07
3.66666666666667 -3.33333333333333 -0.166666666666667
0 0

0101101
*
Ed
 1e-07 1 1 0
1  6 0 0 12
2  9 4 0 0 12
2  10 4 2 0 12
2  11 2 0 0 12
0

0101000
+30 0 -28 0 *
Ed
 1e-07 1 1 0
1  7 0 0 6
2  12 2 0 0 6
0

0101000
+28 0 -42 0 *
Wi

0101100
+40 0 +29 0 +27 0 +26 0 *
Fa
0  1e-07 2 0

0101000
+25 0 *
Ed
 1e-07 1 1 0
1  8 0 0 6
2  13 4 0 0 6
0

0101000
+30 0 -30 1 *
Wi

0101100
+39 0 -23 0 -29 0 +29 1 *
Fa
0  1e-07 5 0

0101000
+22 0 *
Ve
1.00000003662053e-07
-0.94207930708309 -6.8240453183332 9.32404531833319
0 0

0101101
*
Ed
 1e-07 1 1 0
1  9 0 6.01710525995343 7.47656057240736
2  14 2 1 6.01710525995343 7.47656057240736
2  15 3 0 6.01710525995343 7.47656057240736
0

0101000
+38 0 -20 0 *
Ed
 1e-07 1 1 0
1  6 0 0 2.64589803375031
2  9 4 0 0 2.64589803375031
2  10 4 2 0 2.64589803375031
2  11 2 0 0 2.64589803375031
0

0101000
+30 0 -20 2 *
Wi

0101100
-19 0 +18 1 +29 1 +37 1 *
Fa
0  1e-07 2 1

0101000
+17 0 *
Ve
1.00000004165926e-07
4.27541264041642 -3.84262134833347 6.34262134833347
0 0

0101101
*
Ed
 1e-07 1 1 0
1  10 0 1.5707963267949 4.71238898038469
2  16 4 0 1.5707963267949 4.71238898038469
2  17 3 0 1.5707963267949 4.71238898038469
0

0101000
+20 0 -15 0 *
Ed
 1e-07 1 1 0
1  11 0 2.87551260636363 4.33496791881757
2  18 2 1 2.87551260636363 4.33496791881757
2  19 3 0 2.87551260636363 4.33496791881757
0

0101000
+15 0 -36 0 *
Wi

0101100
-19 0 -14 0 -13 0 +35 0 *
Fa
0  1e-07 3 0

0101000
+12 0 *
Ed
 1e-07 1 1 0
1  6 0 9.35410196624969 12
2  9 4 0 9.35410196624969 12
2  10 4 2 9.35410196624969 12
2  11 2 0 9.35410196624969 12
0

0101000
+15 2 -28 0 *
Wi

0101100
+26 1 +10 1 -13 0 +34 1 *
Fa
0  1e-07 2 1

0101000
+9 0 *
Ed
 1e-07 1 1 0
1  12 0 0 6
2  20 4 0 0 6
0

0101000
+28 0 -28 1 *
Wi

0101100
+7 0 -33 0 -26 0 +26 1 *
Fa
0  1e-07 6 0

0101000
+6 0 *
Wi

0101100
-27 0 -7 0 +10 1 +14 0 +18 1 +23 0 *
Fa
0  1e-07 4 0

0101000
+4 0 *
Sh

0101100
-31 0 -24 0 -21 0 +16 0 -11 0 +8 0 -5 0 -3 0 *
So

0100000
+2 0 *

+1 0 