DBRep_DrawableShape

CASCADE Topology V1, (c) Matra-Datavision
Locations 3
1
              1               0               0               0 
              0               1               0               0 
              0               0               1               4 
1
              1               0               0               6 
              0               1               0               0 
              0               0               1               0 
2  2 -1 0
Curve2ds 20
1 3.25 -2.875 1 0 
1 3.25 4.625 0 -1 
1 13.25 -2.875 0 1 
1 13.25 4.625 -1 0 
8 -1.375 2.625
1 5.625 0 0 1 
8 -1.375 2.625
1 0 3 1 0 
8 -6.0000005999999999 5.999999999062311e-07
1 5.625 -1.375 -1 0 
8 -6.0000005999999999 5.999999999062311e-07
1 3.1415926535897931 0 0 1 
8 -1.375 2.625
1 11.625 0 0 1 
8 -1.375 2.625
1 0 3 1 0 
8 2.8125 8.8125
1 2.8125 2.625 1 0 
8 2.8125 8.8125
1 2 2.8125 0 -1 
1 0 0 1 0 
1 0 -6 1 0 
2 1.125 3 1 0 -0 1 2.5
1 0 0 1 0 
1 0 -6 1 0 
1 2.625 1 0 1 
1 0.9272952180016123 0 0 -1 
1 4 0 0 -1 
Curves 15
1 3.25 -2.875 -1 0 0 1 
1 13.25 -2.875 -1 0 0 1 
1 3.25 -2.875 -1 1 0 0 
1 3.25 4.625 -1 0 0 1 
1 3.25 4.625 -1 0 -1 0 
1 13.25 4.625 -1 0 0 1 
1 13.25 -2.875 -1 0 1 0 
1 13.25 4.625 -1 -1 0 0 
1 5.625 0 3 0 1 0 
1 5.625 -1.375 3 -1 -0 -0 
1 11.625 0 3 0 1 0 
1 2.8125 2.625 3 1 0 -0 
2 5.625 1.125 3 1 0 0 -0 1 0 0 -0 1 2.5
1 5.625 2.625 1 0 0 1 
1 5.625 2.625 5 1 0 0 
Polygon3D 0
PolygonOnTriangulations 0
Surfaces 8
1 3.25 -2.875 -1 0 1 0 1 0 0 0 0 -1 
1 0 0 -1 0 0 1 1 0 -0 -0 1 0 
1 3.25 4.625 -1 1 0 -0 0 -1 0 0 -0 -1 
1 13.25 -2.875 -1 -1 0 0 0 1 0 0 0 -1 
1 5.625 0 0 1 0 0 -0 1 0 0 -0 1 
2 5.625 1.125 3 -1 -0 -0 -0 1 0 0 -0 1 2.5
1 5.625 2.625 1 0 -1 0 0 0 1 -1 0 0 
1 13.25 4.625 -1 0 -1 0 -1 0 0 -0 -0 -1 
Triangulations 0

TShapes 49
Ve
1e-07
3.25 -2.875 -1
0 0

0101101
*
Ed
 1e-07 1 1 0
1  1 0 0 4
0

0101000
+49 0 -49 1 *
Ve
1e-07
13.25 -2.875 -1
0 0

0101101
*
Ed
 1e-07 1 1 0
1  2 0 0 4
0

0101000
+47 0 -47 1 *
Ed
 1e-07 1 1 0
1  3 0 0 10
2  1 2 0 0 10
0

0101000
+49 0 -47 0 *
Wi

0101100
+48 0 -46 0 -45 0 +45 1 *
Fa
0  1e-07 1 0

0101000
+44 0 *
Ve
1e-07
3.25 4.625 -1
0 0

0101101
*
Ed
 1e-07 1 1 0
1  4 0 0 4
0

0101000
+42 0 -42 1 *
Ed
 1e-07 1 1 0
1  5 0 0 7.5
2  2 2 0 0 7.5
0

0101000
+42 0 -49 0 *
Wi

0101100
+41 0 -48 0 -40 0 +40 1 *
Fa
0  1e-07 3 0

0101000
+39 0 *
Ve
1e-07
13.25 4.625 -1
0 0

0101101
*
Ed
 1e-07 1 1 0
1  6 0 0 4
0

0101000
+37 0 -37 1 *
Ed
 1e-07 1 1 0
1  7 0 0 7.5
2  3 2 0 0 7.5
0

0101000
+47 0 -37 0 *
Wi

0101100
+46 0 -36 0 -35 0 +35 1 *
Fa
0  1e-07 4 0

0101000
+34 0 *
Ed
 1e-07 1 1 0
1  8 0 0 10
2  4 2 0 0 10
0

0101000
+37 0 -42 0 *
Wi

0101100
+45 0 +35 0 +32 0 +40 0 *
Fa
0  1e-07 2 0

0101000
+31 0 *
Wi

0101100
+45 1 +40 1 +35 1 +32 1 *
Ve
1.50000000444089e-07
5.625 -1.375 3
0 0

0101101
*
Ve
1.5e-07
5.625 2.625 3
0 0

0101101
*
Ed
 1.5e-07 1 1 0
1  9 0 -1.375 2.625
2  5 2 1 -1.375 2.625
2  6 5 0 -1.375 2.625
0

0101000
+28 0 -27 0 *
Ve
1.50000000444089e-07
11.625 -1.375 3
0 0

0101101
*
Ed
 1e-07 1 1 0
1  10 0 -6 -0
2  7 2 1 -6 -0
2  8 6 0 -6 -0
0

0101000
+25 0 -28 0 *
Ve
1.5e-07
11.625 2.625 3
0 0

0101101
*
Ed
 1.5e-07 1 1 0
1  11 0 -1.375 2.625
2  9 2 1 -1.375 2.625
2  10 5 2 -1.375 2.625
0

0101000
+25 0 -23 0 *
Ed
 1.5e-07 1 1 0
1  12 0 2.8125 8.8125
2  11 2 1 2.8125 8.8125
2  12 7 0 2.8125 8.8125
0

0101000
+27 0 -23 0 *
Wi

0101100
+26 0 +24 0 -22 0 +21 0 *
Fa
0  1e-07 2 1

0101000
+29 0 +20 0 *
Wi

0101100
+36 0 -41 0 -32 0 +32 1 *
Fa
0  1e-07 8 0

0101000
+18 0 *
Ve
1e-07
5.625 2.625 5
0 0

0101101
*
Ed
 1e-07 1 1 0
1  13 0 0.927295218001612 3.14159265358979
2  13 6 0 0.927295218001612 3.14159265358979
2  14 6 3 0.927295218001612 3.14159265358979
2  15 5 0 0.927295218001612 3.14159265358979
0

0101000
+16 0 -28 0 *
Ed
 1e-07 1 1 0
1  14 0 2 4
2  16 7 0 2 4
2  17 7 3 2 4
2  18 5 0 2 4
0

0101000
+27 0 -16 0 *
Wi

0101100
+26 0 +15 0 +14 0 *
Fa
0  1e-07 5 0

0101000
+13 0 *
Ed
 1e-07 1 1 0
1  13 0 0.927295218001612 3.14159265358979
2  13 6 0 0.927295218001612 3.14159265358979
2  14 6 3 0.927295218001612 3.14159265358979
2  15 5 0 0.927295218001612 3.14159265358979
0

0101000
+16 0 -25 3 *
Ed
 1e-07 1 1 0
1  15 0 0 6
2  19 6 0 0 6
2  20 7 0 0 6
0

0101000
+16 0 -16 2 *
Wi

0101100
-15 0 +24 0 +11 2 +10 0 *
Fa
0  1e-07 6 0

0101000
+9 0 *
Ed
 1e-07 1 1 0
1  14 0 2 4
2  16 7 0 2 4
2  17 7 3 2 4
2  18 5 0 2 4
0

0101000
+23 3 -16 0 *
Wi

0101100
+22 0 +11 2 +7 2 *
Fa
0  1e-07 5 2

0101000
+6 0 *
Wi

0101100
-14 0 -10 0 +7 2 +21 0 *
Fa
0  1e-07 7 0

0101000
+4 0 *
Sh

0101100
-43 0 -38 0 -33 0 -30 0 +19 0 -17 0 -12 0 -8 0 +5 0 -3 0 
*
So

0100000
+2 0 *

+1 0 