DBRep_DrawableShape

CASCADE Topology V1, (c) Matra-Datavision
Locations 4
1
              1               0               0               0 
              0               1               0               0 
              0               0               1               6 
2  1 -1 0
1
              1               0               0               0 
              0               1               0               0 
              0               0               1             2.5 
2  3 -1 0
Curve2ds 42
1 0 0 1 0 
1 0 -6 1 0 
1 0 0 0 -1 
1 6.2831853071795862 0 0 -1 
8 -4.75 -1.75
1 2.6179938779914944 0 0 1 
8 -4.75 -1.75
1 2.401923788646684 2 -0 1 
1 6.2831853071795862 -2 -1 0 
2 4 4 1 0 0 -1 3
8 -4.75 -1.75
1 2.1564818702520476 0 0 1 
8 -4.75 -1.75
1 1.1583123951776999 2 0 1 
1 6.2831853071795862 -4.5 -1 0 
2 4 4 1 0 0 -1 3
8 -4.75 -1.75
1 4.1267034369275386 0 0 1 
8 -4.75 -1.75
1 5.3416876048223001 2 -0 1 
8 -4.75 -1.75
1 3.6651914291880918 0 0 1 
8 -4.75 -1.75
1 2.098076211353316 2 0 1 
1 0 0 1 0 
1 0 -2.5 1 0 
1 -1 5.5 1 0 
1 4.5 0 0 -1 
1 0 0 0 -1 
1 0 -0 1 0 
1 0 -2.5 1 0 
1 3.5 6.5 -1 0 
1 0 0 1 0 
1 0 -2.5 1 0 
1 3.5 5.5 0 1 
1 1 0 0 -1 
1 0 -0 0 -1 
1 0 0 1 0 
1 0 -2.5 1 0 
1 -3 1.5 1 0 
1 6.5 0 0 -1 
1 0 0 0 -1 
1 0 -0 1 0 
1 0 -2.5 1 0 
1 3.5 2.5 -1 0 
1 0 0 1 0 
1 0 -2.5 1 0 
1 3.5 1.5 0 1 
1 1 0 0 -1 
1 0 -0 0 -1 
Curves 18
2 4 4 0 0 0 1 1 0 -0 -0 1 0 3
1 7 4 0 0 0 1 
1 1.401923788646684 5.5 0 -0 -0 -1 
2 4 4 2 0 -0 -1 1 0 -0 0 -1 0 3
1 2.3416876048223001 6.5 0 -0 -0 -1 
2 4 4 4.5 0 -0 -1 1 0 -0 0 -1 0 3
1 2.3416876048223001 1.5 0 -0 -0 -1 
1 1.401923788646684 2.5 0 -0 -0 -1 
1 -1 5.5 2 1 0 0 
1 3.5 5.5 2 0 0 1 
1 3.5 6.5 2 -1 0 0 
1 3.5 5.5 2 0 1 0 
1 3.5 6.5 2 0 0 1 
1 -3 1.5 2 1 0 0 
1 3.5 1.5 2 0 0 1 
1 3.5 2.5 2 -1 0 0 
1 3.5 1.5 2 0 1 0 
1 3.5 2.5 2 0 0 1 
Polygon3D 0
PolygonOnTriangulations 0
Surfaces 9
2 4 4 0 -0 -0 -1 1 0 -0 -0 1 0 3
1 -1 5.5 2 0 1 0 1 0 0 0 0 -1 
1 0 0 2 0 0 1 1 0 -0 -0 1 0 
1 3.5 6.5 2 0 -1 0 -1 0 0 -0 -0 -1 
1 -3 1.5 2 0 1 0 1 0 0 0 0 -1 
1 3.5 2.5 2 0 -1 0 -1 0 0 -0 -0 -1 
1 0 0 0 0 0 1 1 0 -0 -0 1 0 
1 3.5 5.5 2 -1 0 0 0 1 0 0 0 -1 
1 3.5 1.5 2 -1 0 0 0 1 0 0 0 -1 
Triangulations 0

TShapes 65
Ve
1e-07
7 4 0
0 0

0101101
*
Ed
 1e-07 1 1 0
1  1 0 0 6.28318530717959
2  1 1 0 0 6.28318530717959
2  2 1 2 0 6.28318530717959
0

0101100
+65 0 -65 0 *
Ed
 1e-07 1 1 0
1  2 0 0 6
3  3 4CN 1 0 0 6
0

0101000
+65 0 -65 1 *
Wi

0101100
-64 0 -63 0 +64 1 +63 0 *
Ve
1.00000000993014e-07
1.40192378864668 5.5 4.5
0 0

0101101
*
Ve
1.00000000993014e-07
1.40192378864668 5.5 2
0 0

0101101
*
Ed
 1e-07 1 1 0
1  3 0 -4.5 -2
2  5 1 0 -4.5 -2
2  6 2 0 -4.5 -2
0

0101000
+61 0 -60 0 *
Ve
1.00000000888178e-07
2.3416876048223 6.5 2
0 0

0101101
*
Ed
 1e-07 1 1 0
1  4 0 3.66519142918809 4.12670343692754
2  7 1 0 3.66519142918809 4.12670343692754
2  8 3 0 3.66519142918809 4.12670343692754
0

0101000
+60 0 -58 0 *
Ve
1.00000000888178e-07
2.3416876048223 6.5 4.5
0 0

0101101
*
Ed
 1e-07 1 1 0
1  5 0 -4.5 -2
2  9 1 0 -4.5 -2
2  10 4 0 -4.5 -2
0

0101000
+56 0 -58 0 *
Ed
 1e-07 1 1 0
1  6 0 3.66519142918809 4.12670343692754
2  11 1 0 3.66519142918809 4.12670343692754
2  12 3 3 3.66519142918809 4.12670343692754
0

0101000
+61 0 -56 0 *
Wi

0101100
-59 0 -57 0 +55 0 +54 0 *
Ve
1.00000000888178e-07
2.3416876048223 1.5 4.5
0 0

0101101
*
Ve
1.00000000888178e-07
2.3416876048223 1.5 2
0 0

0101101
*
Ed
 1e-07 1 1 0
1  7 0 -4.5 -2
2  13 1 0 -4.5 -2
2  14 5 0 -4.5 -2
0

0101000
+52 0 -51 0 *
Ve
1e-07
1.40192378864668 2.5 2
0 0

0101101
*
Ed
 1e-07 1 1 0
1  4 0 2.15648187025205 2.61799387799149
2  7 1 0 2.15648187025205 2.61799387799149
2  8 3 0 2.15648187025205 2.61799387799149
0

0101000
+51 0 -49 0 *
Ve
1e-07
1.40192378864668 2.5 4.5
0 0

0101101
*
Ed
 1e-07 1 1 0
1  8 0 -4.5 -2
2  15 1 0 -4.5 -2
2  16 6 0 -4.5 -2
0

0101000
+47 0 -49 0 *
Ed
 1e-07 1 1 0
1  6 0 2.15648187025205 2.61799387799149
2  11 1 0 2.15648187025205 2.61799387799149
2  12 3 3 2.15648187025205 2.61799387799149
0

0101000
+52 0 -47 0 *
Wi

0101100
-50 0 -48 0 +46 0 +45 0 *
Fa
0  1e-07 1 0

0101000
+62 0 +53 0 +44 0 *
Wi

0101100
+64 0 *
Fa
0  1e-07 7 0

0101000
+42 0 *
Ve
1e-07
3.5 5.5 2
0 0

0101101
*
Ed
 1e-07 1 1 0
1  9 0 2.40192378864668 4.5
2  17 2 0 2.40192378864668 4.5
2  18 2 4 2.40192378864668 4.5
2  19 3 0 2.40192378864668 4.5
0

0101000
+60 0 -40 0 *
Ed
 1e-07 1 1 0
1  10 0 0 2.5
2  20 2 0 0 2.5
2  21 8 0 0 2.5
0

0101000
+40 0 -40 3 *
Ed
 1e-07 1 1 0
1  9 0 2.40192378864668 4.5
2  17 2 0 2.40192378864668 4.5
2  18 2 4 2.40192378864668 4.5
2  19 3 0 2.40192378864668 4.5
0

0101000
+61 4 -40 0 *
Wi

0101100
-39 0 -38 0 +37 3 -59 0 *
Fa
0  1e-07 2 0

0101000
+36 0 *
Ve
1e-07
3.5 6.5 2
0 0

0101101
*
Ed
 1e-07 1 1 0
1  11 0 0 1.1583123951777
2  22 4 0 0 1.1583123951777
2  23 4 4 0 1.1583123951777
2  24 3 0 0 1.1583123951777
0

0101000
+34 0 -58 0 *
Ed
 1e-07 1 1 0
1  12 0 0 1
2  25 8 0 0 1
2  26 8 4 0 1
2  27 3 0 0 1
0

0101000
+40 0 -34 0 *
Wi

0101100
+33 0 +32 0 +39 0 -57 0 *
Fa
0  1e-07 3 0

0101000
+31 0 *
Ed
 1e-07 1 1 0
1  11 0 0 1.1583123951777
2  22 4 0 0 1.1583123951777
2  23 4 4 0 1.1583123951777
2  24 3 0 0 1.1583123951777
0

0101000
+34 0 -56 4 *
Ed
 1e-07 1 1 0
1  13 0 0 2.5
2  28 8 0 0 2.5
2  29 4 0 0 2.5
0

0101000
+34 0 -34 3 *
Wi

0101100
-33 0 +55 0 +29 3 +28 0 *
Fa
0  1e-07 4 0

0101000
+27 0 *
Wi

0101100
+29 3 +32 3 +37 3 -54 0 *
Fa
0  1e-07 3 3

0101000
+25 0 *
Ve
1e-07
3.5 1.5 2
0 0

0101101
*
Ed
 1e-07 1 1 0
1  14 0 5.3416876048223 6.5
2  30 5 0 5.3416876048223 6.5
2  31 5 4 5.3416876048223 6.5
2  32 3 0 5.3416876048223 6.5
0

0101000
+51 0 -23 0 *
Ed
 1e-07 1 1 0
1  15 0 0 2.5
2  33 5 0 0 2.5
2  34 9 0 0 2.5
0

0101000
+23 0 -23 3 *
Ed
 1e-07 1 1 0
1  14 0 5.3416876048223 6.5
2  30 5 0 5.3416876048223 6.5
2  31 5 4 5.3416876048223 6.5
2  32 3 0 5.3416876048223 6.5
0

0101000
+52 4 -23 0 *
Wi

0101100
-22 0 -21 0 +20 3 -50 0 *
Fa
0  1e-07 5 0

0101000
+19 0 *
Ve
1e-07
3.5 2.5 2
0 0

0101101
*
Ed
 1e-07 1 1 0
1  16 0 0 2.09807621135332
2  35 6 0 0 2.09807621135332
2  36 6 4 0 2.09807621135332
2  37 3 0 0 2.09807621135332
0

0101000
+17 0 -49 0 *
Ed
 1e-07 1 1 0
1  17 0 0 1
2  38 9 0 0 1
2  39 9 4 0 1
2  40 3 0 0 1
0

0101000
+23 0 -17 0 *
Wi

0101100
-48 0 +16 0 +15 0 +22 0 *
Fa
0  1e-07 3 0

0101000
+14 0 *
Ed
 1e-07 1 1 0
1  16 0 0 2.09807621135332
2  35 6 0 0 2.09807621135332
2  36 6 4 0 2.09807621135332
2  37 3 0 0 2.09807621135332
0

0101000
+17 0 -47 4 *
Ed
 1e-07 1 1 0
1  18 0 0 2.5
2  41 9 0 0 2.5
2  42 6 0 0 2.5
0

0101000
+17 0 -17 3 *
Wi

0101100
-16 0 +46 0 +12 3 +11 0 *
Fa
0  1e-07 6 0

0101000
+10 0 *
Wi

0101100
-45 0 +12 3 +15 3 +20 3 *
Fa
0  1e-07 3 3

0101000
+8 0 *
Wi

0101100
+38 0 -28 0 -32 0 +32 3 *
Fa
0  1e-07 8 0

0101000
+6 0 *
Wi

0101100
+21 0 -11 0 -15 0 +15 3 *
Fa
0  1e-07 9 0

0101000
+4 0 *
Sh

0101100
-43 0 -41 0 +41 1 +35 0 +30 0 +26 0 -24 0 +18 0 +13 0 +9 0 
-7 0 +5 0 +3 0 *
So

0100000
+2 0 *

+1 0 