DBRep_DrawableShape

CASCADE Topology V1, (c) Matra-Datavision
Locations 2
1
              1               0               0 3.55555555555556 
              0               1               0 1.77777777777778 
              0               0               1 0.444444444444444 
2  1 -1 0
Curve2ds 13
1 0 -0 3.118218988916335e-17 -1 
1 0 0 1 -2.7412914188275462e-17 
1 -6.140492778173705e-16 7.9999999999999982 7.0588254034809353e-17 -1 
1 8.0000000000000018 4.0434048427706313e-17 3.118218988916335e-17 -1 
1 8 -2.6864655904509962e-16 -2.7412914188275462e-17 1 
1 0 -0 1 5.0542560534632884e-18 
1 1.7098805224936824e-16 -4 1 5.0542560534632884e-18 
1 8.0000000000000018 8 -1 -1.8846378504439381e-16 
2 4.0000000000000009 4 1 -1.384352166507911e-16 1.384352166507911e-16 1 2.0000000000000004
1 0 -0.64350110879328404 1 0 
1 6.2831853071795862 -6.2831853071795862 0 1 
1 0 -6.2831853071795862 0 1 
1 0 -1.5707963267948966 1 0 
Curves 10
1 1 2 0.5 0.88888888888888895 0.44444444444444448 0.11111111111111112 
1 0.11111111111111116 5.5555555555555554 -6.6111111111111107 0.88888888888888895 0.44444444444444448 0.11111111111111112 
1 1 2 0.5 -0.11111111111111112 0.44444444444444448 -0.88888888888888895 
1 -2.5555555555555558 8.2222222222222214 4.0555555555555554 0.88888888888888895 0.44444444444444448 0.11111111111111112 
1 -2.5555555555555558 8.2222222222222214 4.0555555555555554 0.44444444444444453 -0.77777777777777779 -0.44444444444444448 
1 -3.4444444444444446 11.777777777777779 -3.0555555555555549 0.88888888888888895 0.44444444444444448 0.11111111111111112 
1 0.11111111111111116 5.5555555555555554 -6.6111111111111107 -0.44444444444444448 0.7777777777777779 0.44444444444444448 
1 -3.4444444444444446 11.777777777777779 -3.0555555555555549 0.1111111111111111 -0.44444444444444464 0.88888888888888884 
2 2.3333333333333335 8.6666666666666679 -0.83333333333333304 0.88888888888888895 0.44444444444444448 0.11111111111111112 -0.11111111111111108 0.44444444444444436 -0.88888888888888895 -0.44444444444444448 0.7777777777777779 0.44444444444444436 2.0000000000000004
2 3.6666666666666661 9.3333333333333339 -0.66666666666666641 0.44444444444444442 -0.77777777777777779 -0.4444444444444442 -0.11111111111111102 0.44444444444444431 -0.88888888888888906 0.88888888888888895 0.44444444444444448 0.11111111111111112 2.5
Polygon3D 0
PolygonOnTriangulations 0
Surfaces 6
1 1 2 0.5 -0.44444444444444448 0.7777777777777779 0.44444444444444448 -0.11111111111111112 0.44444444444444442 -0.88888888888888906 -0.88888888888888895 -0.44444444444444442 -0.11111111111111106 
1 0.11111111111111116 5.5555555555555554 -6.6111111111111107 0.11111111111111108 -0.44444444444444442 0.88888888888888884 -0.44444444444444442 0.77777777777777779 0.44444444444444442 -0.88888888888888895 -0.44444444444444442 -0.11111111111111113 
1 1 2 0.5 0.88888888888888895 0.44444444444444448 0.11111111111111112 -0.11111111111111112 0.44444444444444448 -0.88888888888888906 -0.44444444444444442 0.77777777777777768 0.44444444444444442 
1 -2.5555555555555558 8.2222222222222214 4.0555555555555554 -0.11111111111111109 0.44444444444444442 -0.88888888888888884 0.44444444444444448 -0.77777777777777779 -0.44444444444444448 -0.88888888888888884 -0.44444444444444442 -0.11111111111111112 
4 3.6666666666666661 9.3333333333333339 -0.66666666666666641 0.88888888888888895 0.44444444444444448 0.11111111111111112 -0.11111111111111112 0.44444444444444448 -0.88888888888888906 -0.44444444444444442 0.77777777777777768 0.44444444444444442 2.5
1 -3.4444444444444446 11.777777777777779 -3.0555555555555549 0.44444444444444448 -0.77777777777777779 -0.44444444444444464 0.1111111111111111 -0.44444444444444464 0.88888888888888884 -0.88888888888888906 -0.44444444444444442 -0.11111111111111122 
Triangulations 0

TShapes 34
Ve
1e-07
1 2 0.5
0 0

0101101
*
Ed
 1e-07 1 1 0
1  1 0 0 4
0

0101000
+34 0 -34 1 *
Ve
1e-07
0.111111111111111 5.55555555555556 -6.61111111111111
0 0

0101101
*
Ed
 1e-07 1 1 0
1  2 0 0 4
2  1 2 0 0 4
0

0101000
+32 0 -32 1 *
Ed
 1e-07 1 1 0
1  3 0 0 8
2  2 3 0 0 8
0

0101000
+34 0 -32 0 *
Wi

0101100
+33 0 -31 0 -30 0 +30 1 *
Fa
0  1e-07 1 0

0101000
+29 0 *
Ve
1e-07
-2.55555555555556 8.22222222222222 4.05555555555556
0 0

0101101
*
Ed
 1e-07 1 1 0
1  4 0 0 4
0

0101000
+27 0 -27 1 *
Ed
 1e-07 1 1 0
1  5 0 0 8
2  3 3 0 0 8
0

0101000
+27 0 -34 0 *
Wi

0101100
+26 0 -33 0 -25 0 +25 1 *
Fa
0  1e-07 4 0

0101000
+24 0 *
Ve
1e-07
-3.44444444444444 11.7777777777778 -3.05555555555555
0 0

0101101
*
Ed
 1e-07 1 1 0
1  6 0 0 4
2  4 2 0 0 4
0

0101000
+22 0 -22 1 *
Ed
 1e-07 1 1 0
1  7 0 0 8
2  5 3 0 0 8
2  6 2 0 0 8
2  7 2 2 0 8
0

0101000
+32 0 -22 0 *
Wi

0101100
+31 0 -21 0 -20 0 +20 1 *
Fa
0  1e-07 2 0

0101000
+19 0 *
Ed
 1e-07 1 1 0
1  8 0 0 8
2  8 3 0 0 8
0

0101000
+22 0 -27 0 *
Wi

0101100
+30 0 +20 0 +17 0 +25 0 *
Fa
0  1e-07 3 0

0101000
+16 0 *
Wi

0101100
+30 1 +25 1 +20 1 +17 1 *
Ve
1.00000002391494e-07
2.11111111111111 9.55555555555556 -2.61111111111111
0 0

0101101
*
Ed
 1e-07 1 1 0
1  9 0 0 6.28318530717959
2  9 3 1 0 6.28318530717959
2  10 5 0 0 6.28318530717959
0

0101100
+13 0 -13 0 *
Wi

0101100
-12 0 *
Fa
0  1e-07 3 1

0101000
+14 0 +11 0 *
Wi

0101100
+21 0 -26 0 -17 0 +17 1 *
Fa
0  1e-07 6 0

0101000
+9 0 *
Ve
1e-07
1.44444444444444 8.22222222222222 -0.944444444444444
0 0

0101101
*
Ed
 1e-07 1 1 0
1  10 0 4.71238898038469 5.6396841983863
3  11 12CN 5 0 4.71238898038469 5.6396841983863
0

0101000
+7 0 -13 0 *
Ed
 1e-07 1 1 1
2  13 5 0 0 6.28318530717959
0

0101000
+7 0 -7 0 *
Wi

0101100
-12 0 +6 0 +5 0 -6 0 *
Fa
0  1e-07 5 0

0101000
+4 0 *
Sh

0101100
-28 0 -23 0 -18 0 -15 0 +10 0 -8 0 -3 0 *
So

0100000
+2 0 *

+1 0 