DBRep_DrawableShape

CASCADE Topology V1, (c) Matra-Datavision
Locations 0
Curve2ds 6
1 4.7123889803846897 -7.3903340249736766 0 1 
2 5.9999999999999991 -6.0000000000000009 -0.44721359549995793 0.89442719099991597 -0.89442719099991597 -0.44721359549995793 4
1 0 -1.5707963267948966 1 0 
1 1.5707963267948966 4.2487413713838835 0 -1 
2 5.9999999999999991 -6.0000000000000009 -0.44721359549995793 0.89442719099991597 -0.89442719099991597 -0.44721359549995793 4
1 0 1.5707963267948966 1 0 
Curves 2
2 5 5 5 0.11111111111111104 -0.88888888888888895 0.44444444444444442 2.3320605014991139e-18 -0.44721359549995793 -0.89442719099991597 0.99380798999990649 0.099380798999990583 -0.049690399499995284 4
2 5 5 5 0.11111111111111104 -0.88888888888888895 0.44444444444444442 2.3320605014991139e-18 -0.44721359549995793 -0.89442719099991597 0.99380798999990649 0.099380798999990583 -0.049690399499995284 4
Polygon3D 0
PolygonOnTriangulations 0
Surfaces 2
4 5 5 5 0.44444444444444442 0.44444444444444442 0.77777777777777779 -0.11111111111111109 0.88888888888888895 -0.44444444444444442 -0.88888888888888895 0.11111111111111112 0.44444444444444442 4
1 7.6666666666666661 1.6666666666666665 -2.3333333333333335 0.11111111111111105 -0.88888888888888895 0.44444444444444448 -0.88888888888888884 0.11111111111111115 0.44444444444444436 -0.44444444444444442 -0.44444444444444442 -0.77777777777777779 
Triangulations 0

TShapes 12
Ve
1.00000001404333e-07
3.22222222222222 3.22222222222222 1.88888888888889
0 0

0101101
*
Ve
1.00000002512148e-07
6.77777777777778 6.77777777777778 8.11111111111111
0 0

0101101
*
Ed
 1e-07 1 1 0
1  1 0 5.81953769817878 8.96113035176857
2  1 1 0 5.81953769817878 8.96113035176857
2  2 2 0 5.81953769817878 8.96113035176857
0

0101000
+12 0 -11 0 *
Ed
 1e-07 1 1 1
2  3 1 0 1.5707963267949 4.71238898038469
0

0101000
+12 0 -12 0 *
Ed
 1e-07 1 1 0
1  2 0 2.67794504458899 5.81953769817878
2  4 1 0 2.67794504458899 5.81953769817878
2  5 2 0 2.67794504458899 5.81953769817878
0

0101000
+11 0 -12 0 *
Ed
 1e-07 1 1 1
2  6 1 0 1.5707963267949 4.71238898038469
0

0101000
+11 0 -11 0 *
Wi

0101100
+10 0 +9 0 +8 0 -7 0 *
Fa
0  1e-07 1 0

0101000
+6 0 *
Wi

0101100
+10 0 +8 0 *
Fa
0  1e-07 2 0

0101000
+4 0 *
Sh

0101100
+5 0 -3 0 *
So

0100000
+2 0 *

+1 0 