DBRep_DrawableShape

CASCADE Topology V1, (c) Matra-Datavision
Locations 2
1
              1               0               0               0 
              0               1               0               0 
              0               0               1               5 
2  1 -1 0
Curve2ds 8
1 0 0 0 -1 
1 6.2831853071795862 0 0 -1 
1 3.1415926535897931 0 0 -1 
1 3.1415926535897931 0 0 -1 
1 0 0 1 0 
1 0 -5 1 0 
1 0 0 1 0 
1 0 -5 1 0 
Curves 4
1 7.223076211353316 5.149519052838329 0 0 0 1 
1 2.8929491924311228 2.649519052838329 0 0 0 1 
2 5.0580127018922196 3.899519052838329 0 0 0 1 0.86602540378443871 0.50000000000000011 -0 -0.50000000000000011 0.86602540378443871 0 2.5
2 5.0580127018922196 3.899519052838329 0 0 0 1 0.86602540378443871 0.50000000000000011 -0 -0.50000000000000011 0.86602540378443871 0 2.5
Polygon3D 0
PolygonOnTriangulations 0
Surfaces 3
2 5.0580127018922196 3.899519052838329 0 -0 -0 -1 0.86602540378443871 0.50000000000000011 -0 -0.50000000000000011 0.86602540378443871 0 2.5
2 5.0580127018922196 3.899519052838329 0 -0 -0 -1 0.86602540378443871 0.50000000000000011 -0 -0.50000000000000011 0.86602540378443871 0 2.5
1 5 3 0 0 0 1 0.86602540378443871 0.50000000000000011 -0 -0.50000000000000011 0.86602540378443871 0 
Triangulations 0

TShapes 14
Ve
1e-07
7.22307621135332 5.14951905283833 0
0 0

0101101
*
Ed
 1e-07 1 1 0
1  1 0 0 5
2  1 1 0 0 5
2  2 2 0 0 5
4 C2 1 0 2 0
0

0101000
+14 0 -14 1 *
Ve
1e-07
2.89294919243112 2.64951905283833 0
0 0

0101101
*
Ed
 1e-07 1 1 0
1  2 0 0 5
2  3 1 0 0 5
2  4 2 0 0 5
4 C2 1 0 2 0
0

0101000
+12 0 -12 1 *
Ed
 1e-07 1 1 0
1  3 0 0 3.14159265358979
2  5 1 0 0 3.14159265358979
2  6 1 2 0 3.14159265358979
0

0101000
+14 0 -12 0 *
Wi

0101100
+13 0 -11 0 -10 0 +10 1 *
Fa
0  1e-07 1 0

0101000
+9 0 *
Ed
 1e-07 1 1 0
1  4 0 3.14159265358979 6.28318530717959
2  7 2 0 3.14159265358979 6.28318530717959
2  8 2 2 3.14159265358979 6.28318530717959
0

0101000
+12 0 -14 0 *
Wi

0101100
+11 0 -13 0 -7 0 +7 1 *
Fa
0  1e-07 2 0

0101000
+6 0 *
Wi

0101100
+10 0 +7 0 *
Fa
0  1e-07 3 0

0101000
+4 0 *
Sh

0101100
+8 0 +5 0 +3 0 -3 1 *
So

1100000
-2 0 *

+1 0 