DBRep_DrawableShape

CASCADE Topology V1, (c) Matra-Datavision
Locations 0
Curve2ds 13
1 1.9655874464946581 0 0 1 
2 0 0 1 0 -0 1 5
1 0 0 1 0 
2 0 0 1 0 -0 1 5
1 0.39479111969976088 3.1415926535897931 0 -1 
2 0 0 -1 -0 0 -1 5
1 0 1.5707963267948966 1 0 
1 0 0 0 1 
1 0 0 0 -1 
1 0 0 1 0 
1 0 0 -0.38461538461538464 0.92307692307692313 
1 0 0 1 0 
1 0 0 0.92307692307692313 0.38461538461538464 
Curves 6
2 5 5 4 0.92307692307692313 0.38461538461538464 -0 -0.38461538461538464 0.92307692307692313 0 0 0 1 5
2 5 5 4 0 0 1 1 0 -0 -0 1 0 5
2 5 5 4 -0.38461538461538464 0.92307692307692313 0 -0.92307692307692313 -0.38461538461538464 0 0 0 1 5
1 5 5 4 0 0 1 
1 5 5 4 -0.38461538461538464 0.92307692307692313 0 
1 5 5 4 0.92307692307692313 0.38461538461538464 -0 
Polygon3D 0
PolygonOnTriangulations 0
Surfaces 4
4 5 5 4 0 0 1 1 0 -0 -0 1 0 5
1 5 5 4 0.92307692307692313 0.38461538461538464 -0 -0.38461538461538464 0.92307692307692313 0 0 0 1 
1 5 5 4 0 0 1 1 0 -0 -0 1 0 
1 5 5 4 -0.38461538461538464 0.92307692307692313 0 0.92307692307692313 0.38461538461538464 0 0 0 -1 
Triangulations 0

TShapes 21
Ve
1.00000001831027e-07
3.07692307692308 9.61538461538461 4
0 0

0101101
*
Ve
1.00000001776357e-07
5 5 9
0 0

0101101
*
Ed
 1e-07 1 1 0
1  1 0 2.62774680384653e-18 1.5707963267949
2  1 1 0 2.62774680384653e-18 1.5707963267949
2  2 2 0 2.62774680384653e-18 1.5707963267949
0

0101000
+21 0 -20 0 *
Ve
1.00000001986027e-07
9.61538461538461 6.92307692307692 4
0 0

0101101
*
Ed
 1e-07 1 1 0
1  2 0 0.394791119699762 1.96558744649466
2  3 1 0 0.394791119699762 1.96558744649466
2  4 3 0 0.394791119699762 1.96558744649466
0

0101000
+18 0 -21 0 *
Ed
 1e-07 1 1 0
1  3 0 1.5707963267949 3.14159265358979
2  5 1 0 1.5707963267949 3.14159265358979
2  6 4 0 1.5707963267949 3.14159265358979
0

0101000
+20 0 -18 0 *
Ed
 1e-07 1 1 1
2  7 1 0 0.394791119699761 1.96558744649466
0

0101000
+20 0 -20 0 *
Wi

0101100
+19 0 +17 0 +16 0 -15 0 *
Fa
0  1e-07 1 0

0101000
+14 0 *
Ve
1e-07
5 5 4
0 0

0101101
*
Ed
 1e-07 1 1 0
1  4 0 0 5
2  8 2 0 0 5
2  9 4 0 0 5
0

0101000
+12 0 -20 0 *
Ed
 1e-07 1 1 0
1  5 0 0 5
2  10 2 0 0 5
2  11 3 0 0 5
0

0101000
+12 0 -21 0 *
Wi

0101100
-11 0 +19 0 +10 0 *
Fa
0  1e-07 2 0

0101000
+9 0 *
Ed
 1e-07 1 1 0
1  6 0 0 5
2  12 4 0 0 5
2  13 3 0 0 5
0

0101000
+12 0 -18 0 *
Wi

0101100
-10 0 +17 0 +7 0 *
Fa
0  1e-07 3 0

0101000
+6 0 *
Wi

0101100
-7 0 +16 0 +11 0 *
Fa
0  1e-07 4 0

0101000
+4 0 *
Sh

0101100
+13 0 -8 0 -5 0 -3 0 *
So

0100000
+2 0 *

+1 0 