DBRep_DrawableShape

CASCADE Topology V1, (c) Matra-Datavision
Locations 0
Curve2ds 7
1 6.2831853071795862 -6.2831853071795862 0 1 
1 0 -6.2831853071795862 0 1 
2 8 8 1 0 -0 1 5
8 0 3.1415926535897927
1 0 0 1 0 
2 8 8 1 0 -0 1 5
8 3.1415926535897927 6.2831853071795862
1 0 0 1 0 
1 0 1.5707963267948966 1 0 
Curves 3
2 5 5 4 -2.4492935982947064e-16 -1 0 1 -2.4492935982947064e-16 0 0 0 1 5
8 0 3.1415926535897927
2 5 5 4 0 0 1 1 0 -0 -0 1 0 5
8 3.1415926535897927 6.2831853071795862
2 5 5 4 0 0 1 1 0 -0 -0 1 0 5
Polygon3D 0
PolygonOnTriangulations 0
Surfaces 2
4 5 5 4 0 0 1 1 0 -0 -0 1 0 5
1 -3 -3 4 0 0 1 1 0 -0 -0 1 0 
Triangulations 0

TShapes 13
Ve
1.00000001601186e-07
10 5 4
0 0

0101101
*
Ve
1e-07
5 5 9
0 0

0101101
*
Ed
 1e-07 0 0 0
1  1 0 6.28318530717959 7.85398163397448
3  1 2CN 1 0 6.28318530717959 7.85398163397448
0

0101000
+13 0 -12 0 *
Ve
1e-07
0 5 4
0 0

0101101
*
Ed
 1e-07 1 1 0
1  2 0 0 3.14159265358979
2  3 2 0 0 3.14159265358979
2  4 1 0 0 3.14159265358979
0

0101000
+13 0 -10 0 *
Ed
 1e-07 1 1 0
1  3 0 3.14159265358979 6.28318530717959
2  5 2 0 3.14159265358979 6.28318530717959
2  6 1 0 3.14159265358979 6.28318530717959
0

0101000
+10 0 -13 0 *
Ed
 1e-07 1 1 1
2  7 1 0 0 6.28318530717959
0

0101000
+12 0 -12 0 *
Wi

0101100
+11 0 +9 0 +8 0 -11 0 -7 0 *
Fa
0  1e-07 1 0

0101000
+6 0 *
Wi

0101100
+9 0 +8 0 *
Fa
0  1e-07 2 0

0101000
+4 0 *
Sh

0101100
+5 0 -3 0 *
So

1100000
+2 0 *

+1 0 