DBRep_DrawableShape

CASCADE Topology V1, (c) Matra-Datavision
Locations 0
Curve2ds 10
1 3.1415926535897931 -4.7123889803846897 -0 1 
2 0 8 1 0 -0 1 5
1 0 0 1 0 
2 8 0 1 0 -0 1 5
1 6.2831853071795862 -6.2831853071795862 0 1 
1 0 -6.2831853071795862 0 1 
2 0 8 0 1 1 -0 5
1 0 1.5707963267948966 1 0 
1 0 0 0 1 
1 0 0 1 0 
Curves 4
2 5 5 4 -0 1 0 0 0 1 1 0 -0 5
2 5 5 4 0 0 1 1 0 -0 -0 1 0 5
2 5 5 4 -2.4492935982947064e-16 -1 0 1 -2.4492935982947064e-16 0 0 0 1 5
1 -3 5 4 1 0 -0 
Polygon3D 0
PolygonOnTriangulations 0
Surfaces 3
4 5 5 4 0 0 1 1 0 -0 -0 1 0 5
1 -3 5 4 -0 1 0 0 0 1 1 0 -0 
1 -3 5 4 0 0 1 1 0 -0 -0 1 0 
Triangulations 0

TShapes 16
Ve
1.00000000888178e-07
0 5 4
0 0

0101101
*
Ve
1.00000002664535e-07
5 5 9
0 0

0101101
*
Ed
 1e-07 1 1 0
1  1 0 4.71238898038469 6.28318530717959
2  1 1 0 4.71238898038469 6.28318530717959
2  2 2 0 4.71238898038469 6.28318530717959
0

0101000
+16 0 -15 0 *
Ve
1.00000078159701e-07
10 5 3.99999999999992
0 0

0101101
*
Ed
 1e-07 1 1 0
1  2 0 0 3.14159265358979
2  3 1 0 0 3.14159265358979
2  4 3 0 0 3.14159265358979
0

0101000
+13 0 -16 0 *
Ed
 1.00000000888178e-07 1 1 0
1  3 0 6.28318530717957 7.85398163397448
3  5 6CN 1 0 6.28318530717957 7.85398163397448
2  7 2 0 6.28318530717957 7.85398163397448
0

0101000
+13 0 -15 0 *
Ed
 1e-07 1 1 1
2  8 1 0 0 3.14159265358979
0

0101000
+15 0 -15 0 *
Wi

0101100
+14 0 +12 0 -11 0 -10 0 *
Fa
0  1e-07 1 0

0101000
+9 0 *
Ed
 1e-07 1 1 0
1  4 0 3 13
2  9 2 0 3 13
2  10 3 0 3 13
0

0101000
+16 0 -13 0 *
Wi

0101100
-11 0 +14 0 -7 0 *
Fa
0  1e-07 2 0

0101000
+6 0 *
Wi

0101100
+12 0 +7 0 *
Fa
0  1e-07 3 0

0101000
+4 0 *
Sh

0101100
+8 0 -5 0 -3 0 *
So

0100000
+2 0 *

+1 0 