DBRep_DrawableShape

CASCADE Topology V1, (c) Matra-Datavision
Locations 2
1
              1               0               0 2.66666666666667 
              0               1               0 1.33333333333333 
              0               0               1 0.333333333333333 
2  1 -1 0
Curve2ds 26
1 4.7123889803846897 0 0 -1 
1 0 -0 -2.0731016354883321e-17 -1 
1 4.7123889803846897 0 0 -1 
1 5.9999999999999991 1.8914910789910075e-16 -2.0731016354883321e-17 -1 
1 0 -0 1 6.8532285470688672e-18 
1 -2.2410057348915198e-16 -3.0000000000000009 1 6.8532285470688672e-18 
1 1.7955458793320434e-16 -2.5 1 -8.2924065419533283e-17 
1 1.5707963267948966 0 0 -1 
1 6 -1.6447748512965207e-17 -7.4871521876727365e-17 -1 
1 0 0 1 0 
1 0 -2.9999999999999996 1 0 
2 0 0 1 -1.384352166507911e-16 1.384352166507911e-16 1 2.5
1 7.8539816339744828 0 0 -1 
1 0 -0 -7.4871521876727365e-17 -1 
1 0 0 1 0 
1 0 -2.9999999999999996 1 0 
2 6.0000000000000009 -3.1250722174634037e-16 1 -1.384352166507911e-16 1.384352166507911e-16 1 2.5
1 0 -0 1 -1.4563110662521337e-17 
1 -1.398058623602049e-16 -3.0000000000000004 1 -1.4563110662521337e-17 
1 6 2.4999999999999991 -1 -1.32952633813136e-16 
2 3 2.631639762074445e-16 1 -1.384352166507911e-16 1.384352166507911e-16 1 1.5
1 0 2.2360679774997894 1 0 
1 6.2831853071795862 -0 0 1 
1 0 -0 0 1 
1 0 0 1 0 
2 0 0 1 0 -0 1 0.5
Curves 11
1 3.2777777777777777 0.7222222222222221 3.8055555555555549 0.88888888888888895 0.44444444444444448 0.11111111111111112 
1 2.6111111111111112 3.3888888888888884 -1.5277777777777781 0.88888888888888895 0.44444444444444448 0.11111111111111112 
1 3.2777777777777777 0.7222222222222221 3.8055555555555549 -0.1111111111111111 0.44444444444444442 -0.88888888888888895 
1 1.0555555555555554 4.6111111111111107 6.0277777777777768 0.88888888888888895 0.44444444444444448 0.11111111111111112 
2 2.1666666666666665 2.6666666666666665 4.9166666666666661 0.88888888888888895 0.44444444444444448 0.11111111111111112 -0.11111111111111108 0.44444444444444436 -0.88888888888888895 -0.44444444444444448 0.7777777777777779 0.44444444444444436 2.5
1 0.38888888888888884 7.2777777777777777 0.6944444444444442 0.88888888888888895 0.44444444444444448 0.11111111111111112 
2 1.5 5.333333333333333 -0.41666666666666696 0.88888888888888895 0.44444444444444448 0.11111111111111112 -0.11111111111111108 0.44444444444444436 -0.88888888888888895 -0.44444444444444448 0.7777777777777779 0.44444444444444436 2.5
1 0.38888888888888884 7.2777777777777777 0.6944444444444442 0.1111111111111111 -0.44444444444444459 0.88888888888888884 
2 4.4999999999999991 5.333333333333333 2.583333333333333 0.88888888888888895 0.44444444444444448 0.11111111111111112 -0.11111111111111108 0.44444444444444436 -0.88888888888888895 -0.44444444444444448 0.7777777777777779 0.44444444444444436 1.5
1 2.666666666666667 4.6666666666666661 1.9166666666666663 0.7453559924999299 0.59628479399994394 -0.29814239699997208 
2 2.7222222222222219 4.4444444444444446 2.3611111111111107 0.88888888888888895 0.44444444444444448 0.11111111111111112 -0.11111111111111108 0.44444444444444436 -0.88888888888888895 -0.44444444444444448 0.7777777777777779 0.44444444444444436 0.5
Polygon3D 0
PolygonOnTriangulations 0
Surfaces 7
1 3.2777777777777777 0.7222222222222221 3.8055555555555549 -0.44444444444444448 0.7777777777777779 0.44444444444444442 -0.11111111111111108 0.44444444444444436 -0.88888888888888895 -0.88888888888888906 -0.44444444444444448 -0.1111111111111111 
2 2.1666666666666665 2.6666666666666665 4.9166666666666661 -0.88888888888888895 -0.44444444444444448 -0.11111111111111112 -0.11111111111111108 0.44444444444444436 -0.88888888888888895 -0.44444444444444448 0.7777777777777779 0.44444444444444436 2.5
2 1.5 5.333333333333333 -0.41666666666666696 -0.88888888888888895 -0.44444444444444448 -0.11111111111111112 -0.11111111111111108 0.44444444444444436 -0.88888888888888895 -0.44444444444444448 0.7777777777777779 0.44444444444444436 2.5
1 2.1666666666666665 2.6666666666666665 4.9166666666666661 0.88888888888888895 0.44444444444444448 0.11111111111111112 -0.11111111111111112 0.44444444444444448 -0.88888888888888906 -0.44444444444444442 0.77777777777777768 0.44444444444444442 
1 0.38888888888888884 7.2777777777777777 0.6944444444444442 0.44444444444444442 -0.77777777777777779 -0.44444444444444459 0.11111111111111112 -0.44444444444444464 0.88888888888888895 -0.88888888888888906 -0.44444444444444442 -0.11111111111111117 
3 2.7222222222222219 4.4444444444444446 2.3611111111111107 0.88888888888888895 0.44444444444444448 0.11111111111111112 -0.11111111111111112 0.44444444444444448 -0.88888888888888906 -0.44444444444444442 0.77777777777777768 0.44444444444444442 0.5
0.46364760900080615
1 2.7222222222222219 4.4444444444444446 2.3611111111111107 0.88888888888888895 0.44444444444444448 0.11111111111111112 -0.11111111111111112 0.44444444444444448 -0.88888888888888906 -0.44444444444444442 0.77777777777777768 0.44444444444444442 
Triangulations 0

TShapes 36
Ve
1e-07
3.27777777777778 0.722222222222222 3.80555555555555
0 0

0101101
*
Ed
 1e-07 1 1 0
1  1 0 0 3
2  1 2 0 0 3
4 G1 1 0 2 0
2  2 1 0 0 3
0

0101000
+36 0 -36 1 *
Ve
1e-07
2.61111111111111 3.38888888888889 -1.52777777777778
0 0

0101101
*
Ed
 1e-07 1 1 0
1  2 0 0 3
2  3 3 0 0 3
4 G1 1 0 3 0
2  4 1 0 0 3
0

0101000
+34 0 -34 1 *
Ed
 1e-07 1 1 0
1  3 0 0 6
2  5 1 0 0 6
2  6 1 2 0 6
2  7 4 0 0 6
0

0101000
+36 0 -34 0 *
Wi

0101100
+35 0 -33 0 -32 0 +32 1 *
Fa
0  1e-07 1 0

0101000
+31 0 *
Ve
1e-07
1.05555555555556 4.61111111111111 6.02777777777778
0 0

0101101
*
Ed
 1e-07 1 1 0
1  4 0 0 3
2  8 2 0 0 3
4 G1 5 0 2 0
2  9 5 0 0 3
0

0101000
+29 0 -29 1 *
Ed
 1e-07 1 1 0
1  5 0 1.5707963267949 4.71238898038469
2  10 2 0 1.5707963267949 4.71238898038469
2  11 2 2 1.5707963267949 4.71238898038469
2  12 4 0 1.5707963267949 4.71238898038469
0

0101000
+29 0 -36 0 *
Wi

0101100
+28 0 -35 0 -27 0 +27 1 *
Fa
0  1e-07 2 0

0101000
+26 0 *
Ve
1e-07
0.388888888888889 7.27777777777778 0.694444444444444
0 0

0101101
*
Ed
 1e-07 1 1 0
1  6 0 0 3
2  13 3 0 0 3
4 G1 3 0 5 0
2  14 5 0 0 3
0

0101000
+24 0 -24 1 *
Ed
 1e-07 1 1 0
1  7 0 4.71238898038469 7.85398163397448
2  15 3 0 4.71238898038469 7.85398163397448
2  16 3 2 4.71238898038469 7.85398163397448
2  17 4 0 4.71238898038469 7.85398163397448
0

0101000
+34 0 -24 0 *
Wi

0101100
+33 0 -23 0 -22 0 +22 1 *
Fa
0  1e-07 3 0

0101000
+21 0 *
Ed
 1e-07 1 1 0
1  8 0 0 6
2  18 5 0 0 6
2  19 5 2 0 6
2  20 4 0 0 6
0

0101000
+24 0 -29 0 *
Wi

0101100
+32 0 +22 0 +19 0 +27 0 *
Fa
0  1e-07 4 0

0101000
+18 0 *
Wi

0101100
+32 1 +27 1 +22 1 +19 1 *
Ve
1.00000001256074e-07
4.33333333333333 6 1.25
0 0

0101101
*
Ed
 1e-07 1 1 0
1  9 0 0 6.28318530717959
2  21 4 1 0 6.28318530717959
2  22 6 0 0 6.28318530717959
0

0101100
+15 0 -15 0 *
Wi

0101100
-14 0 *
Fa
0  1e-07 4 1

0101000
+16 0 +13 0 *
Wi

0101100
+23 0 -28 0 -19 0 +19 1 *
Fa
0  1e-07 5 0

0101000
+11 0 *
Ve
1e-07
2.66666666666667 4.66666666666667 1.91666666666667
0 0

0101101
*
Ed
 1e-07 1 1 0
1  10 0 0 2.23606797749979
3  23 24CN 6 0 0 2.23606797749979
0

0101000
+9 0 -15 0 *
Ed
 1e-07 1 1 0
1  11 0 0 6.28318530717959
2  25 6 0 0 6.28318530717959
2  26 7 0 0 6.28318530717959
0

0101000
+9 0 -9 0 *
Wi

0101100
-14 0 +8 0 +7 0 -8 0 *
Fa
0  1e-07 6 0

0101000
+6 0 *
Wi

0101100
-7 0 *
Fa
0  1e-07 7 0

0111000
-4 0 *
Sh

0101100
-30 0 -25 0 -20 0 -17 0 +12 0 -10 0 -5 0 +3 0 *
So

0100000
+2 0 *

+1 0 