DBRep_DrawableShape

CASCADE Topology V1, (c) Matra-Datavision
Locations 2
1
              1               0               0               0 
              0               1               0               0 
              0               0               1               6 
2  1 -1 0
Curve2ds 30
1 4.7123889803846897 0 0 -1 
1 0 0 0 -1 
1 0 0 1 0 
1 0 -6 1 0 
1 4.7123889803846897 0 0 -1 
1 5 0 0 -1 
2 2.5 -3 0 -1 -1 -0 1.5
1 6.2831853071795862 -1 -1 0 
1 3.1415926535897931 0 0 -1 
1 0 0 1 0 
1 0 -6 1 0 
1 0 0 1 0 
1 0 -6 1 0 
1 0 0 1 0 
1 0 -6 1 0 
1 0 -0 1 0 
1 0 -6 1 0 
1 0 0 1 0 
1 0 -6 1 0 
1 6.2831853071795862 0 0 -1 
1 0 0 0 -1 
1 6.2831853071795862 0 0 -1 
2 2.5 -3 0 -1 1 0 1.5
1 6.2831853071795862 -10 -1 0 
1 3.1415926535897931 0 0 -1 
1 0 0 0 -1 
1 1.5707963267948966 0 0 -1 
1 0 -0 0 -1 
1 1.5707963267948966 0 0 -1 
1 5 0 0 -1 
Curves 19
1 3 2 0.5 0 0 1 
1 3 2 0.5 1 0 0 
1 8 2 0.5 0 0 1 
2 5.5 2 3.5 -0 -1 0 0 -0 1 -1 0 0 1.5
1 1 4 0.5 0 0 1 
2 3 4 0.5 0 0 1 1 0 -0 -0 1 0 2
2 8 4 0.5 0 0 1 1 0 -0 -0 1 0 2
1 10 4 0.5 0 1 0 
2 8 9 0.5 0 0 1 1 0 -0 -0 1 0 2
1 8 11 0.5 -1 0 0 
2 3 9 0.5 0 0 1 1 0 -0 -0 1 0 2
1 1 9 0.5 0 -1 0 
1 10 4 0.5 0 0 1 
1 5.5 1 5 0 1 0 
2 5.5 11 3.5 -0 -1 0 0 -0 1 -1 0 0 1.5
1 1 9 0.5 0 0 1 
1 10 9 0.5 0 0 1 
1 8 11 0.5 0 0 1 
1 3 11 0.5 0 0 1 
Polygon3D 0
PolygonOnTriangulations 0
Surfaces 10
1 3 2 0.5 0 1 0 1 0 0 0 0 -1 
2 3 4 0.5 -0 -0 -1 1 0 -0 -0 1 0 2
2 8 4 0.5 -0 -0 -1 1 0 -0 -0 1 0 2
2 5.5 1 3.5 -0 -1 -0 0 -0 1 1 0 -0 1.5
1 1 9 0.5 1 0 -0 0 -1 0 0 -0 -1 
1 1 2 0.5 0 0 1 1 0 -0 -0 1 0 
2 8 9 0.5 -0 -0 -1 1 0 -0 -0 1 0 2
1 8 11 0.5 0 -1 0 -1 0 0 -0 -0 -1 
2 3 9 0.5 -0 -0 -1 1 0 -0 -0 1 0 2
1 10 4 0.5 -1 0 0 0 1 0 0 0 -1 
Triangulations 0

TShapes 53
Ve
1e-07
3 2 0.5
0 0

0101101
*
Ed
 1e-07 1 1 0
1  1 0 0 6
2  1 2 0 0 6
4 G1 1 0 2 0
2  2 1 0 0 6
0

0101000
+53 0 -53 1 *
Ve
1e-07
8 2 0.5
0 0

0101101
*
Ed
 1e-07 1 1 0
1  2 0 0 5
2  3 1 0 0 5
2  4 1 2 0 5
0

0101000
+53 0 -51 0 *
Ed
 1e-07 1 1 0
1  3 0 0 6
2  5 3 0 0 6
4 G1 1 0 3 0
2  6 1 0 0 6
0

0101000
+51 0 -51 1 *
Wi

0101100
+52 0 -50 0 +50 1 -49 0 *
Ve
1e-07
5.5 2 5
0 0

0101101
*
Ed
 1e-07 1 1 0
1  4 0 0 6.28318530717959
2  7 1 0 0 6.28318530717959
2  8 4 0 0 6.28318530717959
0

0101100
+47 0 -47 0 *
Wi

0101100
+46 0 *
Fa
0  1e-07 1 0

0101000
+48 0 +45 0 *
Ve
1e-07
1 4 0.5
0 0

0101101
*
Ed
 1e-07 1 1 0
1  5 0 0 6
2  9 2 0 0 6
4 G1 5 0 2 0
0

0101000
+43 0 -43 1 *
Ed
 1e-07 1 1 0
1  6 0 3.14159265358979 4.71238898038469
2  10 2 0 3.14159265358979 4.71238898038469
2  11 2 2 3.14159265358979 4.71238898038469
0

0101000
+43 0 -53 0 *
Wi

0101100
+42 0 -52 0 -41 0 +41 1 *
Fa
0  1e-07 2 0

0101000
+40 0 *
Ve
1e-07
10 4 0.5
0 0

0101101
*
Ed
 1e-07 1 1 0
1  7 0 4.71238898038469 6.28318530717959
2  12 3 0 4.71238898038469 6.28318530717959
2  13 3 2 4.71238898038469 6.28318530717959
0

0101000
+51 0 -38 0 *
Ve
1e-07
10 9 0.5
0 0

0101101
*
Ed
 1e-07 1 1 0
1  8 0 0 5
0

0101000
+38 0 -36 0 *
Ve
1e-07
8 11 0.5
0 0

0101101
*
Ed
 1e-07 1 1 0
1  9 0 0 1.5707963267949
2  14 7 0 0 1.5707963267949
2  15 7 2 0 1.5707963267949
0

0101000
+36 0 -34 0 *
Ve
1e-07
3 11 0.5
0 0

0101101
*
Ed
 1e-07 1 1 0
1  10 0 0 5
2  16 8 0 0 5
2  17 8 2 0 5
0

0101000
+34 0 -32 0 *
Ve
1e-07
1 9 0.5
0 0

0101101
*
Ed
 1e-07 1 1 0
1  11 0 1.5707963267949 3.14159265358979
2  18 9 0 1.5707963267949 3.14159265358979
2  19 9 2 1.5707963267949 3.14159265358979
0

0101000
+32 0 -30 0 *
Ed
 1e-07 1 1 0
1  12 0 0 5
0

0101000
+30 0 -43 0 *
Wi

0101100
+50 0 +37 0 +35 0 +33 0 +31 0 +29 0 +28 0 +41 0 *
Fa
0  1e-07 6 0

0101000
+27 0 *
Ed
 1e-07 1 1 0
1  13 0 0 6
2  20 3 0 0 6
4 G1 3 0 10 0
0

0101000
+38 0 -38 1 *
Wi

0101100
+49 0 -25 0 -37 0 +37 1 *
Fa
0  1e-07 3 0

0101000
+24 0 *
Ve
1e-07
5.5 11 5
0 0

0101101
*
Ed
 1e-07 1 1 0
1  14 0 1 10
3  21 22CN 4 0 1 10
0

0101000
+47 0 -22 0 *
Ed
 1e-07 1 1 0
1  15 0 0 6.28318530717959
2  23 8 0 0 6.28318530717959
2  24 4 0 0 6.28318530717959
0

0101100
+22 0 -22 0 *
Wi

0101100
+46 0 -21 0 -20 0 +21 0 *
Fa
0  1e-07 4 0

0101000
+19 0 *
Ed
 1e-07 1 1 0
1  16 0 0 6
2  25 9 0 0 6
4 G1 9 0 5 0
0

0101000
+30 0 -30 1 *
Wi

0101100
+17 0 -42 0 -28 0 +28 1 *
Fa
0  1e-07 5 0

0101000
+16 0 *
Ed
 1e-07 1 1 0
1  17 0 0 6
2  26 7 0 0 6
4 G1 10 0 7 0
0

0101000
+36 0 -36 1 *
Wi

0101100
+25 0 -14 0 -35 0 +35 1 *
Fa
0  1e-07 10 0

0101000
+13 0 *
Ed
 1e-07 1 1 0
1  18 0 0 6
2  27 7 0 0 6
4 G1 7 0 8 0
2  28 8 0 0 6
0

0101000
+34 0 -34 1 *
Wi

0101100
+14 0 -11 0 -33 0 +33 1 *
Fa
0  1e-07 7 0

0101000
+10 0 *
Ed
 1e-07 1 1 0
1  19 0 0 6
2  29 9 0 0 6
4 G1 8 0 9 0
2  30 8 0 0 6
0

0101000
+32 0 -32 1 *
Wi

0101100
+11 0 -31 0 +31 1 -8 0 *
Wi

0101100
-20 0 *
Fa
0  1e-07 8 0

0101000
+7 0 +6 0 *
Wi

0101100
+8 0 -17 0 -29 0 +29 1 *
Fa
0  1e-07 9 0

0101000
+4 0 *
Sh

0101100
-44 0 -39 0 -26 0 +26 1 -23 0 +18 0 -15 0 -12 0 -9 0 -5 0 
-3 0 *
So

0100000
+2 0 *

+1 0 