DBRep_DrawableShape

CASCADE Topology V1, (c) Matra-Datavision
Locations 4
1
              1               0               0               0 
              0               1               0               0 
              0               0               1               2 
2  1 -1 0
1
              1               0               0               0 
              0               1               0               5 
              0               0               1               0 
2  3 -1 0
Curve2ds 49
1 2 0 1 0 
1 0 0 1 0 
2 2.5 -1 0 -1 -1 -0 1.5
1 6.2831853071795862 -1 -1 0 
1 0 -2 1 0 
1 4.7123889803846897 0 0 -1 
1 0 0 0 -1 
1 0 0 1 0 
1 0 -2 1 0 
2 2 2 1 0 -0 1 2
1 0 7 0 -1 
1 0 0 1 0 
1 0 -2 1 0 
2 2 7 1 0 -0 1 2
1 7 9 -1 0 
1 0 0 1 0 
1 0 -2 1 0 
2 7 7 1 0 -0 1 2
1 9 2 0 1 
1 0 0 1 0 
1 0 -2 1 0 
2 7 2 1 0 -0 1 2
1 0 0 1 0 
8 -5.0000005999999999 -0.099999999999999978
1 5.6180339887498949 -1 0 -1 
8 -5.0000005999999999 -0.099999999999999978
1 2.3005239830218631 0 0 1 
8 -6 -3
1 0 4 -1 0 
8 -6 -3
1 0 0 0 -1 
8 -5.0000005999999999 -0.099999999999999978
1 3.3819660112501051 -1 0 -1 
8 -5.0000005999999999 -0.099999999999999978
1 3.9826613241577231 0 0 1 
1 0 0 1 0 
1 0 -5 1 0 
2 1 4.5 1 0 -0 1 1.5
8 -5.0000005999999999 -0.099999999999999978
1 3.3819660112501051 -1 0 -1 
8 -5.0000005999999999 -0.099999999999999978
1 5.4421166366116562 0 0 1 
1 0 -2 1 0 
8 -5.0000005999999999 -0.099999999999999978
1 5.6180339887498949 -1 0 -1 
8 -5.0000005999999999 -0.099999999999999978
1 0.84106867056793033 0 0 1 
8 -6 -3
1 0 4 -1 0 
8 -6 -3
1 2 0 0 -1 
1 3.1415926535897931 0 0 -1 
1 3.1415926535897931 0 0 -1 
1 1.5707963267948966 0 0 -1 
1 1.5707963267948966 0 0 -1 
1 0 0 0 -1 
1 6.2831853071795862 0 0 -1 
1 4.7123889803846897 0 0 -1 
1 5 0 0 -1 
2 2.5 -1 0 -1 -1 -0 1.5
1 6.2831853071795862 -1 -1 0 
Curves 25
1 2 0 0 1 0 0 
2 4.5 0 1 -0 -1 0 0 -0 1 -1 0 0 1.5
1 2 0 0 0 0 1 
2 2 2 0 0 0 1 1 0 -0 -0 1 0 2
1 0 7 0 0 -1 0 
2 2 7 0 0 0 1 1 0 -0 -0 1 0 2
1 7 9 0 -1 0 0 
2 7 7 0 0 0 1 1 0 -0 -0 1 0 2
1 9 2 0 0 1 0 
2 7 2 0 0 0 1 1 0 -0 -0 1 0 2
1 5.6180339887498949 -1 0 -0 -1 -0 
1 0 4 0 -1 0 0 
1 3.3819660112501051 -1 0 -0 -1 -0 
2 4.5 -1 1 0 1 0 0 -0 1 1 0 -0 1.5
1 3.3819660112501051 -1 2 -0 -1 -0 
1 5.6180339887498949 -1 2 -0 -1 -0 
1 0 4 2 -1 0 0 
1 0 2 0 0 0 1 
1 0 7 0 0 0 1 
1 2 9 0 0 0 1 
1 7 9 0 0 0 1 
1 9 7 0 0 0 1 
1 9 2 0 0 0 1 
1 7 0 0 0 0 1 
2 4.5 0 1 -0 -1 0 0 -0 1 -1 0 0 1.5
Polygon3D 0
PolygonOnTriangulations 0
Surfaces 11
1 2 0 0 0 1 0 1 0 0 0 0 -1 
1 0 0 0 0 0 1 1 0 -0 -0 1 0 
2 4.5 -1 1 -0 -1 -0 0 -0 1 1 0 -0 1.5
2 2 2 0 -0 -0 -1 1 0 -0 -0 1 0 2
2 2 7 0 -0 -0 -1 1 0 -0 -0 1 0 2
2 7 7 0 -0 -0 -1 1 0 -0 -0 1 0 2
2 7 2 0 -0 -0 -1 1 0 -0 -0 1 0 2
1 0 -1 0 0 1 0 0 -0 1 1 0 -0 
1 0 7 0 1 0 -0 0 -1 0 0 -0 -1 
1 7 9 0 0 -1 0 -1 0 0 -0 -0 -1 
1 9 2 0 -1 0 0 0 1 0 0 0 -1 
Triangulations 0

TShapes 75
Ve
1e-07
2 0 0
0 0

0101101
*
Ve
1e-07
3.38196601125011 0 0
0 0

0101101
*
Ed
 1e-07 1 1 0
1  1 0 0 1.38196601125011
2  1 2 0 0 1.38196601125011
2  2 1 0 0 1.38196601125011
0

0101000
+75 0 -74 0 *
Ve
1e-07
3.38196601125011 0 2
0 0

0101101
*
Ed
 1e-07 1 1 0
1  2 0 0.84106867056793 2.30052398302186
2  3 1 0 0.84106867056793 2.30052398302186
2  4 3 0 0.84106867056793 2.30052398302186
0

0101000
+72 0 -74 0 *
Ed
 1e-07 1 1 0
1  1 0 0 1.38196601125011
2  1 2 0 0 1.38196601125011
2  5 1 2 0 1.38196601125011
0

0101000
+75 0 -72 2 *
Ed
 1e-07 1 1 0
1  3 0 0 2
2  6 4 0 0 2
4 G1 1 0 4 0
2  7 1 0 0 2
0

0101000
+75 0 -75 1 *
Wi

0101100
-73 0 +71 0 +70 1 +69 0 *
Fa
0  1e-07 1 0

0101000
+68 0 *
Ve
1e-07
0 2 0
0 0

0101101
*
Ed
 1e-07 1 1 0
1  4 0 3.14159265358979 4.71238898038469
2  8 4 0 3.14159265358979 4.71238898038469
2  9 4 2 3.14159265358979 4.71238898038469
2  10 2 0 3.14159265358979 4.71238898038469
0

0101000
+66 0 -75 0 *
Ve
1e-07
0 7 0
0 0

0101101
*
Ed
 1e-07 1 1 0
1  5 0 0 5
2  11 2 0 0 5
0

0101000
+64 0 -66 0 *
Ve
1e-07
2 9 0
0 0

0101101
*
Ed
 1e-07 1 1 0
1  6 0 1.5707963267949 3.14159265358979
2  12 5 0 1.5707963267949 3.14159265358979
2  13 5 2 1.5707963267949 3.14159265358979
2  14 2 0 1.5707963267949 3.14159265358979
0

0101000
+62 0 -64 0 *
Ve
1e-07
7 9 0
0 0

0101101
*
Ed
 1e-07 1 1 0
1  7 0 0 5
2  15 2 0 0 5
0

0101000
+60 0 -62 0 *
Ve
1e-07
9 7 0
0 0

0101101
*
Ed
 1e-07 1 1 0
1  8 0 0 1.5707963267949
2  16 6 0 0 1.5707963267949
2  17 6 2 0 1.5707963267949
2  18 2 0 0 1.5707963267949
0

0101000
+58 0 -60 0 *
Ve
1e-07
9 2 0
0 0

0101101
*
Ed
 1e-07 1 1 0
1  9 0 0 5
2  19 2 0 0 5
0

0101000
+56 0 -58 0 *
Ve
1e-07
7 0 0
0 0

0101101
*
Ed
 1e-07 1 1 0
1  10 0 4.71238898038469 6.28318530717959
2  20 7 0 4.71238898038469 6.28318530717959
2  21 7 2 4.71238898038469 6.28318530717959
2  22 2 0 4.71238898038469 6.28318530717959
0

0101000
+54 0 -56 0 *
Ve
1.00000002220446e-07
5.61803398874989 0 0
0 0

0101101
*
Ed
 1e-07 1 1 0
1  1 0 3.61803398874989 5
2  1 2 0 3.61803398874989 5
2  23 1 0 3.61803398874989 5
0

0101000
+52 0 -54 0 *
Ve
1.5e-07
5.61803398874989 4 0
0 0

0101101
*
Ed
 1e-07 1 1 0
1  11 0 -5 -1
2  24 2 0 -5 -1
2  25 3 0 -5 -1
0

0101000
+50 0 -52 0 *
Ve
1.50000000444089e-07
3.38196601125011 4 -4.44089209850063e-16
0 0

0101101
*
Ed
 1.5e-07 1 1 0
1  12 0 -5.61803398874989 -3.38196601125011
2  26 2 0 -5.61803398874989 -3.38196601125011
2  27 8 3 -5.61803398874989 -3.38196601125011
0

0101000
+50 0 -48 0 *
Ed
 1e-07 1 1 0
1  13 0 -5 -1
2  28 2 0 -5 -1
2  29 3 0 -5 -1
0

0101000
+48 0 -74 0 *
Wi

0101100
+65 0 +63 0 +61 0 +59 0 +57 0 +55 0 +53 0 +51 0 +49 0 -47 0 
-46 0 +73 0 *
Fa
0  1e-07 2 0

0101000
+45 0 *
Ve
1.5e-07
3.38196601125011 4 2
0 0

0101101
*
Ed
 1e-07 1 1 0
1  14 0 3.98266132415772 5.44211663661166
2  30 3 0 3.98266132415772 5.44211663661166
2  31 3 4 3.98266132415772 5.44211663661166
2  32 8 0 3.98266132415772 5.44211663661166
0

0101000
+48 4 -43 4 *
Ed
 1e-07 1 1 0
1  15 0 -5 -1
2  33 2 1 -5 -1
2  34 3 0 -5 -1
0

0101000
+43 0 -72 0 *
Wi

0101100
+42 3 -46 0 +71 0 +41 0 *
Fa
0  1e-07 3 0

0101000
+40 0 *
Ve
1.00000001256074e-07
5.61803398874989 0 2
0 0

0101101
*
Ed
 1e-07 1 1 0
1  1 0 3.61803398874989 5
2  1 2 0 3.61803398874989 5
2  35 1 2 3.61803398874989 5
0

0101000
+38 2 -54 0 *
Ve
1.5e-07
5.61803398874989 4 2
0 0

0101101
*
Ed
 1e-07 1 1 0
1  16 0 -5 -1
2  36 2 1 -5 -1
2  37 3 0 -5 -1
0

0101000
+36 0 -38 0 *
Ed
 1.5e-07 1 1 0
1  17 0 -5.61803398874989 -3.38196601125011
2  38 2 1 -5.61803398874989 -3.38196601125011
2  39 8 3 -5.61803398874989 -3.38196601125011
0

0101000
+36 0 -43 0 *
Wi

0101100
+65 1 +63 1 +61 1 +59 1 +57 1 +55 1 +53 1 +37 1 +35 0 -34 0 
-41 0 +70 1 *
Fa
0  1e-07 2 1

0101000
+33 0 *
Ed
 1e-07 1 1 0
1  18 0 0 2
2  40 4 0 0 2
4 G1 9 0 4 0
0

0101000
+66 0 -66 1 *
Wi

0101100
+31 0 -69 0 -65 0 +65 1 *
Fa
0  1e-07 4 0

0101000
+30 0 *
Ed
 1e-07 1 1 0
1  19 0 0 2
2  41 5 0 0 2
4 G1 5 0 9 0
0

0101000
+64 0 -64 1 *
Wi

0101100
+28 0 -31 0 -63 0 +63 1 *
Fa
0  1e-07 9 0

0101000
+27 0 *
Ed
 1e-07 1 1 0
1  20 0 0 2
2  42 5 0 0 2
4 G1 10 0 5 0
0

0101000
+62 0 -62 1 *
Wi

0101100
+25 0 -28 0 -61 0 +61 1 *
Fa
0  1e-07 5 0

0101000
+24 0 *
Ed
 1e-07 1 1 0
1  21 0 0 2
2  43 6 0 0 2
4 G1 6 0 10 0
0

0101000
+60 0 -60 1 *
Wi

0101100
+22 0 -25 0 -59 0 +59 1 *
Fa
0  1e-07 10 0

0101000
+21 0 *
Ed
 1e-07 1 1 0
1  22 0 0 2
2  44 6 0 0 2
4 G1 11 0 6 0
0

0101000
+58 0 -58 1 *
Wi

0101100
+19 0 -22 0 -57 0 +57 1 *
Fa
0  1e-07 6 0

0101000
+18 0 *
Ed
 1e-07 1 1 0
1  23 0 0 2
2  45 7 0 0 2
4 G1 7 0 11 0
0

0101000
+56 0 -56 1 *
Wi

0101100
+16 0 -19 0 -55 0 +55 1 *
Fa
0  1e-07 11 0

0101000
+15 0 *
Ed
 1e-07 1 1 0
1  24 0 0 2
2  46 7 0 0 2
4 G1 1 0 7 0
2  47 1 0 0 2
0

0101000
+54 0 -54 1 *
Wi

0101100
+13 0 -16 0 -53 0 +53 1 *
Fa
0  1e-07 7 0

0101000
+12 0 *
Ed
 1e-07 1 1 0
1  25 0 3.98266132415772 5.44211663661166
2  48 1 0 3.98266132415772 5.44211663661166
2  49 3 0 3.98266132415772 5.44211663661166
0

0101000
+52 0 -38 0 *
Wi

0101100
-51 0 -13 0 +37 1 +10 0 *
Fa
0  1e-07 1 0

0101000
+9 0 *
Ed
 1e-07 1 1 0
1  14 0 0.84106867056793 2.30052398302186
2  30 3 0 0.84106867056793 2.30052398302186
2  31 3 4 0.84106867056793 2.30052398302186
2  32 8 0 0.84106867056793 2.30052398302186
0

0101000
+36 4 -50 4 *
Wi

0101100
-35 0 +10 0 +49 0 +7 3 *
Fa
0  1e-07 3 0

0101000
+6 0 *
Wi

0101100
-34 0 +42 3 +47 0 +7 3 *
Fa
0  1e-07 8 3

0101000
+4 0 *
Sh

0101100
-67 0 -44 0 +39 0 +32 0 -29 0 -26 0 -23 0 -20 0 -17 0 -14 0 
-11 0 -8 0 +5 0 -3 0 *
So

0100000
+2 0 *

+1 0 