DBRep_DrawableShape

CASCADE Topology V1, (c) Matra-Datavision
Locations 2
1
              1               0               0               0 
              0               1               0               0 
              0               0               1               3 
2  1 -1 0
Curve2ds 29
1 4.7123889803846897 0 0 -1 
1 4.7123889803846897 0 0 -1 
1 2 0 1 0 
1 3.1415926535897931 0 0 -1 
1 0 0 1 0 
1 0 -3 1 0 
2 2 2 1 0 -0 1 2
1 6.2831853071795862 0 0 -1 
1 0 0 1 0 
1 0 -3 1 0 
2 7 2 1 0 -0 1 2
1 9 2 0 1 
1 0 0 1 0 
1 0 -3 1 0 
2 7 7 1 0 -0 1 2
1 7 9 -1 0 
1 0 0 1 0 
1 0 -3 1 0 
2 2 7 1 0 -0 1 2
1 0 7 0 -1 
2 4.5 4.5 1 0 -0 1 2
1 0 -0.64350110879328437 1 0 
1 3.1415926535897931 0 0 -1 
1 0 0 0 -1 
1 1.5707963267948966 0 0 -1 
1 1.5707963267948966 0 0 -1 
1 6.2831853071795862 -6.2831853071795862 0 1 
1 0 -6.2831853071795862 0 1 
1 0 -1.5707963267948966 1 0 
Curves 18
1 2 0 0 0 0 1 
1 7 0 0 0 0 1 
1 2 0 0 1 0 0 
1 0 2 0 0 0 1 
2 2 2 0 0 0 1 1 0 -0 -0 1 0 2
1 9 2 0 0 0 1 
2 7 2 0 0 0 1 1 0 -0 -0 1 0 2
1 9 2 0 0 1 0 
2 7 7 0 0 0 1 1 0 -0 -0 1 0 2
1 7 9 0 -1 0 0 
2 2 7 0 0 0 1 1 0 -0 -0 1 0 2
1 0 7 0 0 -1 0 
2 4.5 4.5 3 0 0 1 1 0 -0 -0 1 0 2
1 0 7 0 0 0 1 
1 9 7 0 0 0 1 
1 7 9 0 0 0 1 
1 2 9 0 0 0 1 
2 4.5 4.5 4.5 -2.4492935982947064e-16 -1 0 1 -2.4492935982947064e-16 0 0 0 1 2.5
Polygon3D 0
PolygonOnTriangulations 0
Surfaces 10
1 2 0 0 0 1 0 1 0 0 0 0 -1 
2 2 2 0 -0 -0 -1 1 0 -0 -0 1 0 2
2 7 2 0 -0 -0 -1 1 0 -0 -0 1 0 2
1 0 0 0 0 0 1 1 0 -0 -0 1 0 
1 0 7 0 1 0 -0 0 -1 0 0 -0 -1 
1 9 2 0 -1 0 0 0 1 0 0 0 -1 
2 7 7 0 -0 -0 -1 1 0 -0 -0 1 0 2
2 2 7 0 -0 -0 -1 1 0 -0 -0 1 0 2
4 4.5 4.5 4.5 0 0 1 1 0 -0 -0 1 0 2.5
1 7 9 0 0 -1 0 -1 0 0 -0 -0 -1 
Triangulations 0

TShapes 54
Ve
1e-07
2 0 0
0 0

0101101
*
Ed
 1e-07 1 1 0
1  1 0 0 3
2  1 2 0 0 3
4 G1 1 0 2 0
0

0101000
+54 0 -54 1 *
Ve
1e-07
7 0 0
0 0

0101101
*
Ed
 1e-07 1 1 0
1  2 0 0 3
2  2 3 0 0 3
4 G1 1 0 3 0
0

0101000
+52 0 -52 1 *
Ed
 1e-07 1 1 0
1  3 0 0 5
2  3 4 0 0 5
0

0101000
+54 0 -52 0 *
Wi

0101100
+53 0 -51 0 -50 0 +50 1 *
Fa
0  1e-07 1 0

0101000
+49 0 *
Ve
1e-07
0 2 0
0 0

0101101
*
Ed
 1e-07 1 1 0
1  4 0 0 3
2  4 2 0 0 3
4 G1 5 0 2 0
0

0101000
+47 0 -47 1 *
Ed
 1e-07 1 1 0
1  5 0 3.14159265358979 4.71238898038469
2  5 2 0 3.14159265358979 4.71238898038469
2  6 2 2 3.14159265358979 4.71238898038469
2  7 4 0 3.14159265358979 4.71238898038469
0

0101000
+47 0 -54 0 *
Wi

0101100
+46 0 -53 0 -45 0 +45 1 *
Fa
0  1e-07 2 0

0101000
+44 0 *
Ve
1e-07
9 2 0
0 0

0101101
*
Ed
 1e-07 1 1 0
1  6 0 0 3
2  8 3 0 0 3
4 G1 3 0 6 0
0

0101000
+42 0 -42 1 *
Ed
 1e-07 1 1 0
1  7 0 4.71238898038469 6.28318530717959
2  9 3 0 4.71238898038469 6.28318530717959
2  10 3 2 4.71238898038469 6.28318530717959
2  11 4 0 4.71238898038469 6.28318530717959
0

0101000
+52 0 -42 0 *
Wi

0101100
+51 0 -41 0 -40 0 +40 1 *
Fa
0  1e-07 3 0

0101000
+39 0 *
Ve
1e-07
9 7 0
0 0

0101101
*
Ed
 1e-07 1 1 0
1  8 0 0 5
2  12 4 0 0 5
0

0101000
+42 0 -37 0 *
Ve
1e-07
7 9 0
0 0

0101101
*
Ed
 1e-07 1 1 0
1  9 0 0 1.5707963267949
2  13 7 0 0 1.5707963267949
2  14 7 2 0 1.5707963267949
2  15 4 0 0 1.5707963267949
0

0101000
+37 0 -35 0 *
Ve
1e-07
2 9 0
0 0

0101101
*
Ed
 1e-07 1 1 0
1  10 0 0 5
2  16 4 0 0 5
0

0101000
+35 0 -33 0 *
Ve
1e-07
0 7 0
0 0

0101101
*
Ed
 1e-07 1 1 0
1  11 0 1.5707963267949 3.14159265358979
2  17 8 0 1.5707963267949 3.14159265358979
2  18 8 2 1.5707963267949 3.14159265358979
2  19 4 0 1.5707963267949 3.14159265358979
0

0101000
+33 0 -31 0 *
Ed
 1e-07 1 1 0
1  12 0 0 5
2  20 4 0 0 5
0

0101000
+31 0 -47 0 *
Wi

0101100
+50 0 +40 0 +36 0 +34 0 +32 0 +30 0 +29 0 +45 0 *
Fa
0  1e-07 4 0

0101000
+28 0 *
Wi

0101100
+50 1 +45 1 +40 1 +29 1 +36 1 +30 1 +34 1 +32 1 *
Ve
1.00000000888178e-07
6.5 4.5 3
0 0

0101101
*
Ed
 1e-07 1 1 0
1  13 0 0 6.28318530717959
2  21 4 1 0 6.28318530717959
2  22 9 0 0 6.28318530717959
0

0101100
+25 0 -25 0 *
Wi

0101100
-24 0 *
Fa
0  1e-07 4 1

0101000
+26 0 +23 0 *
Ed
 1e-07 1 1 0
1  14 0 0 3
2  23 8 0 0 3
4 G1 8 0 5 0
0

0101000
+31 0 -31 1 *
Wi

0101100
+21 0 -46 0 -29 0 +29 1 *
Fa
0  1e-07 5 0

0101000
+20 0 *
Ed
 1e-07 1 1 0
1  15 0 0 3
2  24 7 0 0 3
4 G1 6 0 7 0
0

0101000
+37 0 -37 1 *
Wi

0101100
+41 0 -18 0 -36 0 +36 1 *
Fa
0  1e-07 6 0

0101000
+17 0 *
Ed
 1e-07 1 1 0
1  16 0 0 3
2  25 7 0 0 3
4 G1 7 0 10 0
0

0101000
+35 0 -35 1 *
Wi

0101100
+18 0 -15 0 -34 0 +34 1 *
Fa
0  1e-07 7 0

0101000
+14 0 *
Ed
 1e-07 1 1 0
1  17 0 0 3
2  26 8 0 0 3
4 G1 10 0 8 0
0

0101000
+33 0 -33 1 *
Wi

0101100
+15 0 -12 0 -32 0 +32 1 *
Fa
0  1e-07 10 0

0101000
+11 0 *
Wi

0101100
+12 0 -21 0 -30 0 +30 1 *
Fa
0  1e-07 8 0

0101000
+9 0 *
Ve
1e-07
4.5 4.5 2
0 0

0101101
*
Ed
 1e-07 1 1 0
1  18 0 4.71238898038469 5.6396841983863
3  27 28CN 9 0 4.71238898038469 5.6396841983863
0

0101000
+7 0 -25 0 *
Ed
 1e-07 1 1 1
2  29 9 0 0 6.28318530717959
0

0101000
+7 0 -7 0 *
Wi

0101100
-24 0 +6 0 +5 0 -6 0 *
Fa
0  1e-07 9 0

0101000
+4 0 *
Sh

0101100
-48 0 -43 0 -38 0 -27 0 +22 0 -19 0 -16 0 -13 0 -10 0 -8 0 
-3 0 *
So

0100000
+2 0 *

+1 0 