DBRep_DrawableShape

CASCADE Topology V1, (c) Matra-Datavision
Locations 4
1
              1               0               0               0 
              0               1               0               0 
              0               0               1               3 
2  1 -1 0
1
              1               0               0               0 
              0               1               0               0 
              0               0               1               4 
2  3 -1 0
Curve2ds 43
1 4.7123889803846897 0 0 -1 
1 0 0 0 -1 
1 4.7123889803846897 1 0 -1 
1 4.7123889803846897 0 0 -1 
1 5 0 0 -1 
1 0 0 1 0 
1 0 -3 1 0 
1 2 0 1 0 
1 0 0 1 0 
1 0 -3 1 0 
2 2 2 1 0 -0 1 2
1 0 -2 1 0 
1 0 0 1 0 
1 0 -4 1 0 
2 2 2 1 0 -0 1 2
1 0 -1 1 0 
1 3.1415926535897931 0 0 -1 
1 5 0 0 -1 
1 3.1415926535897931 1 0 -1 
1 6.2831853071795862 0 0 -1 
1 0 0 1 0 
1 0 -3 1 0 
2 7 2 1 0 -0 1 2
1 9 2 0 1 
1 0 0 1 0 
1 0 -3 1 0 
2 7 7 1 0 -0 1 2
1 7 9 -1 0 
1 0 0 1 0 
1 0 -3 1 0 
2 2 7 1 0 -0 1 2
1 0 0 1 0 
1 0 -3 1 0 
1 0 7 0 -1 
2 2 2 1 0 0 -1 2
1 6.2831853071795862 -2 -1 0 
1 3.1415926535897931 0 0 -1 
1 0 0 0 -1 
1 0 0 0 -1 
1 6.2831853071795862 0 0 -1 
1 0 0 0 -1 
1 1.5707963267948966 0 0 -1 
1 1.5707963267948966 0 0 -1 
Curves 19
1 2 0 0 0 0 1 
1 7 0 0 0 0 1 
1 2 0 0 1 0 0 
2 2 2 0 0 0 1 1 0 -0 -0 1 0 2
2 2 2 1 0 0 1 1 0 -0 -0 1 0 2
1 0 2 0 0 0 1 
1 9 2 0 0 0 1 
2 7 2 0 0 0 1 1 0 -0 -0 1 0 2
1 9 2 0 0 1 0 
2 7 7 0 0 0 1 1 0 -0 -0 1 0 2
1 7 9 0 -1 0 0 
2 2 7 0 0 0 1 1 0 -0 -0 1 0 2
1 0 7 0 0 -1 0 
2 2 2 3 0 -0 -1 1 0 -0 0 -1 0 2
1 0 7 0 0 0 1 
1 4 2 1 0 0 1 
1 9 7 0 0 0 1 
1 7 9 0 0 0 1 
1 2 9 0 0 0 1 
Polygon3D 0
PolygonOnTriangulations 0
Surfaces 11
1 2 0 0 0 1 0 1 0 0 0 0 -1 
2 2 2 0 -0 -0 -1 1 0 -0 -0 1 0 2
2 2 2 1 -0 -0 -1 1 0 -0 -0 1 0 2
2 7 2 0 -0 -0 -1 1 0 -0 -0 1 0 2
1 0 0 0 0 0 1 1 0 -0 -0 1 0 
1 0 0 1 0 0 1 1 0 -0 -0 1 0 
1 0 7 0 1 0 -0 0 -1 0 0 -0 -1 
1 9 2 0 -1 0 0 0 1 0 0 0 -1 
2 7 7 0 -0 -0 -1 1 0 -0 -0 1 0 2
2 2 7 0 -0 -0 -1 1 0 -0 -0 1 0 2
1 7 9 0 0 -1 0 -1 0 0 -0 -0 -1 
Triangulations 0

TShapes 63
Ve
1.0000000223427e-07
2 0 0
0 0

0101101
*
Ve
1.00000042854609e-07
1.99999999999996 0 1
0 0

0101101
*
Ed
 1e-07 1 1 0
1  1 0 0 1
2  1 2 0 0 1
4 G1 1 0 2 0
2  2 1 0 0 1
0

0101000
+63 0 -62 0 *
Ed
 1.00000000444089e-07 1 1 0
1  1 0 1 3
2  1 2 0 1 3
4 G1 1 0 2 0
2  2 1 0 1 3
2  3 3 0 1 3
0

0101000
+62 0 -63 1 *
Ve
1e-07
7 0 0
0 0

0101101
*
Ed
 1e-07 1 1 0
1  2 0 0 3
2  4 4 0 0 3
4 G1 1 0 4 0
2  5 1 0 0 3
0

0101000
+59 0 -59 1 *
Ed
 1e-07 1 1 0
1  3 0 0 5
2  6 1 0 0 5
2  7 1 2 0 5
2  8 5 0 0 5
0

0101000
+63 0 -59 0 *
Wi

0101100
+61 0 +60 0 -58 0 -57 0 +57 1 *
Fa
0  1e-07 1 0

0101000
+56 0 *
Ve
1.0000000223427e-07
0 2 0
0 0

0101101
*
Ed
 1.00000001790181e-07 1 1 0
1  4 0 3.14159265358979 4.71238898038469
2  9 2 0 3.14159265358979 4.71238898038469
2  10 2 2 3.14159265358979 4.71238898038469
2  11 5 0 3.14159265358979 4.71238898038469
2  12 3 2 3.14159265358979 4.71238898038469
0

0101000
+54 0 -63 0 *
Ve
1.00000080824236e-07
0 2.00000000000008 1
0 0

0101101
*
Ed
 1.000000019101e-07 1 1 0
1  5 0 3.14159265358979 4.71238898038467
2  13 3 0 3.14159265358979 4.71238898038467
2  14 3 4 3.14159265358979 4.71238898038467
2  15 6 0 3.14159265358979 4.71238898038467
2  16 2 0 3.14159265358979 4.71238898038467
0

0101000
+52 0 -62 0 *
Ed
 1e-07 1 1 0
1  6 0 0 1
2  17 2 0 0 1
4 G1 7 0 2 0
2  18 7 0 0 1
0

0101000
+54 0 -52 0 *
Wi

0101100
-53 0 -61 0 +51 0 +50 0 *
Fa
0  1e-07 2 0

0101000
+49 0 *
Ed
 1.00000000444089e-07 1 1 0
1  6 0 1 3
2  17 2 0 1 3
4 G1 7 0 2 0
2  18 7 0 1 3
2  19 3 0 1 3
0

0101000
+52 0 -54 1 *
Wi

0101100
-51 0 -60 0 +53 1 +47 0 *
Fa
0  1e-07 2 0

0101000
+46 0 *
Ve
1e-07
9 2 0
0 0

0101101
*
Ed
 1e-07 1 1 0
1  7 0 0 3
2  20 4 0 0 3
4 G1 4 0 8 0
0

0101000
+44 0 -44 1 *
Ed
 1e-07 1 1 0
1  8 0 4.71238898038469 6.28318530717959
2  21 4 0 4.71238898038469 6.28318530717959
2  22 4 2 4.71238898038469 6.28318530717959
2  23 5 0 4.71238898038469 6.28318530717959
0

0101000
+59 0 -44 0 *
Wi

0101100
+58 0 -43 0 -42 0 +42 1 *
Fa
0  1e-07 4 0

0101000
+41 0 *
Ve
1e-07
9 7 0
0 0

0101101
*
Ed
 1e-07 1 1 0
1  9 0 0 5
2  24 5 0 0 5
0

0101000
+44 0 -39 0 *
Ve
1e-07
7 9 0
0 0

0101101
*
Ed
 1e-07 1 1 0
1  10 0 0 1.5707963267949
2  25 9 0 0 1.5707963267949
2  26 9 2 0 1.5707963267949
2  27 5 0 0 1.5707963267949
0

0101000
+39 0 -37 0 *
Ve
1e-07
2 9 0
0 0

0101101
*
Ed
 1e-07 1 1 0
1  11 0 0 5
2  28 5 0 0 5
0

0101000
+37 0 -35 0 *
Ve
1e-07
0 7 0
0 0

0101101
*
Ed
 1e-07 1 1 0
1  12 0 1.5707963267949 3.14159265358979
2  29 10 0 1.5707963267949 3.14159265358979
2  30 10 2 1.5707963267949 3.14159265358979
2  31 5 0 1.5707963267949 3.14159265358979
0

0101000
+35 0 -33 0 *
Ed
 1e-07 1 1 0
1  13 0 0 5
2  32 7 0 0 5
2  33 7 2 0 5
2  34 5 0 0 5
0

0101000
+33 0 -54 0 *
Wi

0101100
+57 0 +42 0 +38 0 +36 0 +34 0 +32 0 +31 0 +53 0 *
Fa
0  1e-07 5 0

0101000
+30 0 *
Ve
1.00000000444089e-07
4 2 3
0 0

0101101
*
Ed
 1e-07 1 1 0
1  14 0 0 1.5707963267949
2  35 5 1 0 1.5707963267949
2  36 3 0 0 1.5707963267949
0

0101000
+28 0 -63 1 *
Ed
 1e-07 1 1 0
1  14 0 3.14159265358979 6.28318530717959
2  35 5 1 3.14159265358979 6.28318530717959
2  36 3 0 3.14159265358979 6.28318530717959
0

0101000
+54 1 -28 0 *
Wi

0101100
+27 0 +26 0 +31 1 +32 1 +34 1 +36 1 +38 1 +42 1 +57 1 *
Fa
0  1e-07 5 1

0101000
+25 0 *
Ed
 1e-07 1 1 0
1  15 0 0 3
2  37 10 0 0 3
4 G1 10 0 7 0
2  38 7 0 0 3
0

0101000
+33 0 -33 1 *
Wi

0101100
+23 0 -50 0 -47 0 -31 0 +31 1 *
Fa
0  1e-07 7 0

0101000
+22 0 *
Ve
1e-07
4 2 1
0 0

0101101
*
Ed
 1e-07 1 1 0
1  16 0 2 4
3  39 40CN 3 0 2 4
0

0101000
+28 0 -20 3 *
Ed
 1e-07 1 1 0
1  5 0 0 6.28318530717959
2  13 3 0 0 6.28318530717959
2  14 3 4 0 6.28318530717959
2  15 6 0 0 6.28318530717959
0

0101100
+20 0 -20 0 *
Wi

0101100
+26 0 -53 1 +27 0 -19 0 +18 3 +19 0 *
Fa
0  1e-07 3 0

0101000
+17 0 *
Ed
 1e-07 1 1 0
1  17 0 0 3
2  41 9 0 0 3
4 G1 8 0 9 0
0

0101000
+39 0 -39 1 *
Wi

0101100
+43 0 -15 0 -38 0 +38 1 *
Fa
0  1e-07 8 0

0101000
+14 0 *
Ed
 1e-07 1 1 0
1  18 0 0 3
2  42 9 0 0 3
4 G1 9 0 11 0
0

0101000
+37 0 -37 1 *
Wi

0101100
+15 0 -12 0 -36 0 +36 1 *
Fa
0  1e-07 9 0

0101000
+11 0 *
Ed
 1e-07 1 1 0
1  19 0 0 3
2  43 10 0 0 3
4 G1 11 0 10 0
0

0101000
+35 0 -35 1 *
Wi

0101100
+12 0 -9 0 -34 0 +34 1 *
Fa
0  1e-07 11 0

0101000
+8 0 *
Wi

0101100
+9 0 -23 0 -32 0 +32 1 *
Fa
0  1e-07 10 0

0101000
+6 0 *
Wi

0101100
+18 0 *
Fa
0  1e-07 6 0

0101000
+4 0 *
Sh

0101100
-55 0 -48 0 -45 0 -40 0 -29 0 +24 0 -21 0 -16 0 -13 0 -10 0 
-7 0 -5 0 +3 3 *
So

0100000
+2 0 *

+1 0 