DBRep_DrawableShape

CASCADE Topology V1, (c) Matra-Datavision
Locations 4
1
              1               0               0 0.888888888888889 
              0               1               0 0.888888888888889 
              0               0               1 1.55555555555556 
2  1 -1 0
1
              1               0               0 1.77777777777778 
              0               1               0 1.77777777777778 
              0               0               1 3.11111111111111 
2  3 -1 0
Curve2ds 23
1 4.7123889803846897 0 0 -1 
1 4.7123889803846897 0 0 -1 
1 -1.1993149957370517e-16 -2.5 1 3.8720741290939101e-17 
1 1.5707963267948966 0 0 -1 
1 6 -4.1119371282413205e-16 -1.0416907391544678e-16 -1 
1 0 0 1 0 
1 0 -2 1 0 
2 0 0 1 7.8812128291291957e-18 -7.8812128291291957e-18 1 2.5
1 7.8539816339744828 0 0 -1 
1 0 -0 -1.0416907391544678e-16 -1 
1 0 0 1 0 
1 0 -2 1 0 
2 6 2.631639762074445e-16 1 7.8812128291291957e-18 -7.8812128291291957e-18 1 2.5
1 5.9999999999999991 2.5000000000000004 -1 -6.6476316906568014e-17 
1 0 -0 1 -5.0028568393602733e-17 
1 -1.0965165675310187e-16 -2 1 -5.0028568393602733e-17 
2 3.0000000000000004 3.5362659302875356e-16 1 7.8812128291291957e-18 7.8812128291291957e-18 -1 1.25
1 6.2831853071795862 -1.0000000000000002 -1 0 
1 0 0 0 -1 
1 6.2831853071795862 0 0 -1 
1 0 0 1 0 
1 0 -4 1 0 
2 3.0000000000000004 -4.1119371282413191e-17 1 7.8812128291291957e-18 -7.8812128291291957e-18 1 1.2500000000000002
Curves 11
1 0.77777777777777768 4.7777777777777777 6.1111111111111107 0.44444444444444442 0.44444444444444442 0.77777777777777779 
1 1.4444444444444442 -0.55555555555555525 8.7777777777777768 0.44444444444444442 0.44444444444444442 0.77777777777777779 
1 0.77777777777777768 4.7777777777777777 6.1111111111111107 0.1111111111111111 -0.88888888888888895 0.44444444444444442 
1 5.2222222222222223 4.2222222222222223 3.8888888888888888 0.44444444444444442 0.44444444444444442 0.77777777777777779 
2 3 4.5 5 0.44444444444444442 0.44444444444444442 0.77777777777777779 0.11111111111111109 -0.88888888888888895 0.44444444444444442 0.88888888888888895 -0.11111111111111112 -0.44444444444444442 2.5
1 5.8888888888888893 -1.1111111111111107 6.5555555555555554 0.44444444444444442 0.44444444444444442 0.77777777777777779 
2 3.6666666666666665 -0.83333333333333304 7.6666666666666661 0.44444444444444442 0.44444444444444442 0.77777777777777779 0.11111111111111109 -0.88888888888888895 0.44444444444444442 0.88888888888888895 -0.11111111111111112 -0.44444444444444442 2.5
1 5.8888888888888893 -1.1111111111111107 6.5555555555555554 -0.11111111111111116 0.88888888888888884 -0.44444444444444442 
2 4.2222222222222223 2.7222222222222223 7.8888888888888884 -0.44444444444444431 -0.44444444444444431 -0.77777777777777779 0.11111111111111106 -0.88888888888888895 0.44444444444444436 -0.88888888888888906 0.11111111111111109 0.44444444444444442 1.25
1 3.9166666666666665 1.1666666666666665 7.6666666666666661 0.44444444444444442 0.44444444444444442 0.77777777777777779 
2 3.7777777777777777 2.2777777777777777 7.1111111111111107 0.44444444444444442 0.44444444444444442 0.77777777777777779 0.11111111111111109 -0.88888888888888895 0.44444444444444442 0.88888888888888895 -0.11111111111111112 -0.44444444444444442 1.25
Polygon3D 0
PolygonOnTriangulations 0
Surfaces 7
1 0.77777777777777768 4.7777777777777777 6.1111111111111107 0.88888888888888895 -0.11111111111111109 -0.44444444444444442 0.1111111111111111 -0.88888888888888906 0.44444444444444442 -0.44444444444444436 -0.44444444444444431 -0.77777777777777779 
2 3 4.5 5 -0.44444444444444442 -0.44444444444444442 -0.7777777777777779 0.11111111111111109 -0.88888888888888895 0.44444444444444442 0.88888888888888895 -0.11111111111111112 -0.44444444444444442 2.5
2 3.6666666666666665 -0.83333333333333304 7.6666666666666661 -0.44444444444444442 -0.44444444444444442 -0.7777777777777779 0.11111111111111109 -0.88888888888888895 0.44444444444444442 0.88888888888888895 -0.11111111111111112 -0.44444444444444442 2.5
1 3 4.5 5 0.44444444444444442 0.44444444444444442 0.77777777777777779 0.11111111111111109 -0.88888888888888895 0.44444444444444442 0.88888888888888895 -0.11111111111111112 -0.44444444444444442 
1 5.8888888888888893 -1.1111111111111107 6.5555555555555554 -0.88888888888888895 0.11111111111111106 0.44444444444444448 -0.11111111111111117 0.88888888888888884 -0.44444444444444448 -0.44444444444444442 -0.44444444444444453 -0.77777777777777779 
2 3.7777777777777777 2.2777777777777777 7.1111111111111107 -0.44444444444444442 -0.44444444444444442 -0.7777777777777779 0.11111111111111109 -0.88888888888888895 0.44444444444444442 0.88888888888888895 -0.11111111111111112 -0.44444444444444442 1.25
1 3.4444444444444446 4.9444444444444446 5.7777777777777777 0.44444444444444442 0.44444444444444442 0.77777777777777779 0.11111111111111109 -0.88888888888888895 0.44444444444444442 0.88888888888888895 -0.11111111111111112 -0.44444444444444442 
Triangulations 0

TShapes 36
Ve
1e-07
0.777777777777778 4.77777777777778 6.11111111111111
0 0

0101101
*
Ed
 1e-07 1 1 0
1  1 0 0 2
2  1 2 0 0 2
4 G1 1 0 2 0
0

0101000
+36 0 -36 1 *
Ve
1e-07
1.44444444444444 -0.555555555555555 8.77777777777778
0 0

0101101
*
Ed
 1e-07 1 1 0
1  2 0 0 2
2  2 3 0 0 2
4 G1 1 0 3 0
0

0101000
+34 0 -34 1 *
Ed
 1e-07 1 1 0
1  3 0 0 6
2  3 4 0 0 6
0

0101000
+36 0 -34 0 *
Wi

0101100
+35 0 -33 0 -32 0 +32 1 *
Fa
0  1e-07 1 0

0101000
+31 0 *
Ve
1e-07
5.22222222222222 4.22222222222222 3.88888888888889
0 0

0101101
*
Ed
 1e-07 1 1 0
1  4 0 0 2
2  4 2 0 0 2
4 G1 5 0 2 0
2  5 5 0 0 2
0

0101000
+29 0 -29 1 *
Ed
 1e-07 1 1 0
1  5 0 1.5707963267949 4.71238898038469
2  6 2 0 1.5707963267949 4.71238898038469
2  7 2 2 1.5707963267949 4.71238898038469
2  8 4 0 1.5707963267949 4.71238898038469
0

0101000
+29 0 -36 0 *
Wi

0101100
+28 0 -35 0 -27 0 +27 1 *
Fa
0  1e-07 2 0

0101000
+26 0 *
Ve
1e-07
5.88888888888889 -1.11111111111111 6.55555555555556
0 0

0101101
*
Ed
 1e-07 1 1 0
1  6 0 0 2
2  9 3 0 0 2
4 G1 3 0 5 0
2  10 5 0 0 2
0

0101000
+24 0 -24 1 *
Ed
 1e-07 1 1 0
1  7 0 4.71238898038469 7.85398163397448
2  11 3 0 4.71238898038469 7.85398163397448
2  12 3 2 4.71238898038469 7.85398163397448
2  13 4 0 4.71238898038469 7.85398163397448
0

0101000
+34 0 -24 0 *
Wi

0101100
+33 0 -23 0 -22 0 +22 1 *
Fa
0  1e-07 3 0

0101000
+21 0 *
Ed
 1e-07 1 1 0
1  8 0 0 6
2  14 4 0 0 6
2  15 5 0 0 6
2  16 5 2 0 6
0

0101000
+24 0 -29 0 *
Wi

0101100
+32 0 +22 0 +19 0 +27 0 *
Fa
0  1e-07 4 0

0101000
+18 0 *
Wi

0101100
+32 1 +27 1 +22 1 +19 1 *
Ve
1.00000001776357e-07
4.36111111111111 1.61111111111111 8.44444444444444
0 0

0101101
*
Ed
 1e-07 1 1 0
1  9 0 0 6.28318530717959
2  17 4 1 0 6.28318530717959
2  18 6 0 0 6.28318530717959
0

0101100
+15 0 -15 0 *
Wi

0101100
+14 0 *
Fa
0  1e-07 4 1

0101000
+16 0 +13 0 *
Wi

0101100
+23 0 -28 0 -19 0 +19 1 *
Fa
0  1e-07 5 0

0101000
+11 0 *
Ve
1e-07
3.91666666666667 1.16666666666667 7.66666666666667
0 0

0101101
*
Ed
 1e-07 1 1 0
1  10 0 1 4
3  19 20CN 6 0 1 4
0

0101000
+15 0 -9 3 *
Ed
 1e-07 1 1 0
1  11 0 0 6.28318530717959
2  21 6 0 0 6.28318530717959
2  22 6 4 0 6.28318530717959
2  23 7 0 0 6.28318530717959
0

0101100
+9 0 -9 0 *
Wi

0101100
+14 0 -8 0 +7 3 +8 0 *
Fa
0  1e-07 6 0

0101000
+6 0 *
Wi

0101100
+7 0 *
Fa
0  1e-07 7 0

0101000
+4 0 *
Sh

0101100
-30 0 -25 0 -20 0 -17 0 +12 0 -10 0 -5 0 +3 3 *
So

0100000
+2 0 *

+1 0 