DBRep_DrawableShape

CASCADE Topology V1, (c) Matra-Datavision
Locations 2
1
              1               0               0 1.33333333333333 
              0               1               0 1.33333333333333 
              0               0               1 2.33333333333333 
2  1 -1 0
Curve2ds 29
1 4.7123889803846897 0 0 -1 
1 4.7123889803846897 0 0 -1 
1 2 1.3295263381313603e-16 1 -1.6790409940318726e-17 
1 3.1415926535897931 0 0 -1 
1 0 0 1 0 
1 0 -3 1 0 
2 2 2 1 7.8812128291291957e-18 -7.8812128291291957e-18 1 2
1 6.2831853071795862 0 0 -1 
1 0 0 1 0 
1 0 -3 1 0 
2 6.9999999999999991 2.0000000000000004 1 7.8812128291291957e-18 -7.8812128291291957e-18 1 2
1 8.9999999999999982 2 2.8543696898541829e-16 1 
1 0 0 1 0 
1 0 -3 1 0 
2 6.9999999999999991 6.9999999999999991 1 7.8812128291291957e-18 -7.8812128291291957e-18 1 1.9999999999999998
1 7 9.0000000000000018 -1 -3.1010859175486618e-16 
1 0 0 1 0 
1 0 -3 1 0 
2 1.9999999999999998 7 1 7.8812128291291957e-18 -7.8812128291291957e-18 1 1.9999999999999998
1 -4.6601954120068309e-17 7 1.3706457094137731e-17 -1 
2 4.4999999999999991 4.5 1 1.0965165675310187e-17 -1.0965165675310187e-17 1 1.9364916731037085
1 0 0.25268025514207865 1 0 
1 3.1415926535897931 0 0 -1 
1 0 0 0 -1 
1 1.5707963267948966 0 0 -1 
1 1.5707963267948966 0 0 -1 
1 6.2831853071795862 -6.2831853071795862 0 1 
1 0 -6.2831853071795862 0 1 
1 0 1.5707963267948966 1 0 
Curves 18
1 1.2222222222222223 -2.7777777777777777 1.3888888888888888 0.44444444444444442 0.44444444444444442 0.77777777777777779 
1 1.7777777777777777 -7.2222222222222214 3.6111111111111107 0.44444444444444442 0.44444444444444442 0.77777777777777779 
1 1.2222222222222223 -2.7777777777777777 1.3888888888888888 0.11111111111111109 -0.88888888888888895 0.44444444444444448 
1 2.7777777777777777 -1.2222222222222223 -0.38888888888888884 0.44444444444444442 0.44444444444444442 0.77777777777777779 
2 3 -3 0.5 0.44444444444444442 0.44444444444444442 0.77777777777777779 0.11111111111111109 -0.88888888888888895 0.44444444444444442 0.88888888888888895 -0.11111111111111112 -0.44444444444444442 2
1 3.7777777777777777 -9.2222222222222214 3.6111111111111112 0.44444444444444442 0.44444444444444442 0.77777777777777779 
2 3.5555555555555554 -7.4444444444444438 2.7222222222222219 0.44444444444444442 0.44444444444444442 0.77777777777777779 0.11111111111111109 -0.88888888888888895 0.44444444444444442 0.88888888888888895 -0.11111111111111112 -0.44444444444444442 2
1 3.7777777777777777 -9.2222222222222214 3.6111111111111112 0.88888888888888895 -0.11111111111111145 -0.44444444444444448 
2 7.9999999999999991 -7.9999999999999991 0.5 0.44444444444444442 0.44444444444444442 0.77777777777777779 0.11111111111111109 -0.88888888888888895 0.44444444444444442 0.88888888888888895 -0.11111111111111112 -0.44444444444444442 2
1 9.7777777777777786 -8.2222222222222214 -0.38888888888888928 -0.11111111111111145 0.88888888888888895 -0.44444444444444448 
2 7.4444444444444438 -3.5555555555555554 -1.7222222222222219 0.44444444444444442 0.44444444444444442 0.77777777777777779 0.11111111111111109 -0.88888888888888895 0.44444444444444442 0.88888888888888895 -0.11111111111111112 -0.44444444444444442 2
1 7.2222222222222214 -1.7777777777777777 -2.6111111111111107 -0.88888888888888895 0.11111111111111109 0.44444444444444448 
2 6.833333333333333 -4.1666666666666661 2.8333333333333335 0.44444444444444442 0.44444444444444442 0.7777777777777779 0.11111111111111109 -0.88888888888888895 0.44444444444444442 0.88888888888888895 -0.11111111111111112 -0.44444444444444442 1.9364916731037085
1 7.2222222222222214 -1.7777777777777777 -2.6111111111111107 0.44444444444444442 0.44444444444444442 0.77777777777777779 
1 8.2222222222222214 -9.7777777777777786 1.3888888888888893 0.44444444444444442 0.44444444444444442 0.77777777777777779 
1 9.7777777777777786 -8.2222222222222214 -0.38888888888888928 0.44444444444444442 0.44444444444444442 0.77777777777777779 
1 9.2222222222222214 -3.7777777777777777 -2.6111111111111112 0.44444444444444442 0.44444444444444442 0.77777777777777779 
2 6.6111111111111107 -4.3888888888888884 2.4444444444444446 -0.88888888888888895 0.11111111111111129 0.44444444444444425 0.11111111111111087 -0.88888888888888906 0.44444444444444453 0.44444444444444442 0.44444444444444436 0.7777777777777779 2
Polygon3D 0
PolygonOnTriangulations 0
Surfaces 10
1 1.2222222222222223 -2.7777777777777777 1.3888888888888888 0.88888888888888895 -0.11111111111111113 -0.44444444444444442 0.11111111111111108 -0.88888888888888895 0.44444444444444453 -0.44444444444444442 -0.44444444444444453 -0.7777777777777779 
2 3 -3 0.5 -0.44444444444444442 -0.44444444444444442 -0.7777777777777779 0.11111111111111109 -0.88888888888888895 0.44444444444444442 0.88888888888888895 -0.11111111111111112 -0.44444444444444442 2
2 3.5555555555555554 -7.4444444444444438 2.7222222222222219 -0.44444444444444442 -0.44444444444444442 -0.7777777777777779 0.11111111111111109 -0.88888888888888895 0.44444444444444442 0.88888888888888895 -0.11111111111111112 -0.44444444444444442 2
1 1 -1 0.5 0.44444444444444442 0.44444444444444442 0.77777777777777779 0.11111111111111109 -0.88888888888888895 0.44444444444444442 0.88888888888888895 -0.11111111111111112 -0.44444444444444442 
1 7.2222222222222214 -1.7777777777777777 -2.6111111111111107 0.11111111111111112 -0.88888888888888895 0.44444444444444442 -0.88888888888888884 0.11111111111111106 0.44444444444444436 -0.44444444444444442 -0.44444444444444448 -0.7777777777777779 
1 3.7777777777777777 -9.2222222222222214 3.6111111111111112 -0.11111111111111083 0.88888888888888895 -0.44444444444444459 0.88888888888888895 -0.11111111111111145 -0.44444444444444442 -0.44444444444444459 -0.44444444444444448 -0.77777777777777779 
2 7.9999999999999991 -7.9999999999999991 0.5 -0.44444444444444442 -0.44444444444444442 -0.7777777777777779 0.11111111111111109 -0.88888888888888895 0.44444444444444442 0.88888888888888895 -0.11111111111111112 -0.44444444444444442 2
2 7.4444444444444438 -3.5555555555555554 -1.7222222222222219 -0.44444444444444442 -0.44444444444444442 -0.7777777777777779 0.11111111111111109 -0.88888888888888895 0.44444444444444442 0.88888888888888895 -0.11111111111111112 -0.44444444444444442 2
4 6.6111111111111107 -4.3888888888888884 2.4444444444444446 0.44444444444444442 0.44444444444444442 0.77777777777777779 0.11111111111111109 -0.88888888888888895 0.44444444444444442 0.88888888888888895 -0.11111111111111112 -0.44444444444444442 2
1 9.7777777777777786 -8.2222222222222214 -0.38888888888888928 -0.88888888888888895 0.11111111111111084 0.44444444444444459 -0.11111111111111145 0.88888888888888884 -0.44444444444444442 -0.44444444444444442 -0.44444444444444459 -0.77777777777777779 
Triangulations 0

TShapes 54
Ve
1e-07
1.22222222222222 -2.77777777777778 1.38888888888889
0 0

0101101
*
Ed
 1e-07 1 1 0
1  1 0 0 3
2  1 2 0 0 3
4 G1 1 0 2 0
0

0101000
+54 0 -54 1 *
Ve
1e-07
1.77777777777778 -7.22222222222222 3.61111111111111
0 0

0101101
*
Ed
 1e-07 1 1 0
1  2 0 0 3
2  2 3 0 0 3
4 G1 1 0 3 0
0

0101000
+52 0 -52 1 *
Ed
 1e-07 1 1 0
1  3 0 0 5
2  3 4 0 0 5
0

0101000
+54 0 -52 0 *
Wi

0101100
+53 0 -51 0 -50 0 +50 1 *
Fa
0  1e-07 1 0

0101000
+49 0 *
Ve
1e-07
2.77777777777778 -1.22222222222222 -0.388888888888889
0 0

0101101
*
Ed
 1e-07 1 1 0
1  4 0 0 3
2  4 2 0 0 3
4 G1 5 0 2 0
0

0101000
+47 0 -47 1 *
Ed
 1e-07 1 1 0
1  5 0 3.14159265358979 4.71238898038469
2  5 2 0 3.14159265358979 4.71238898038469
2  6 2 2 3.14159265358979 4.71238898038469
2  7 4 0 3.14159265358979 4.71238898038469
0

0101000
+47 0 -54 0 *
Wi

0101100
+46 0 -53 0 -45 0 +45 1 *
Fa
0  1e-07 2 0

0101000
+44 0 *
Ve
1e-07
3.77777777777778 -9.22222222222222 3.61111111111111
0 0

0101101
*
Ed
 1e-07 1 1 0
1  6 0 0 3
2  8 3 0 0 3
4 G1 3 0 6 0
0

0101000
+42 0 -42 1 *
Ed
 1e-07 1 1 0
1  7 0 4.71238898038469 6.28318530717959
2  9 3 0 4.71238898038469 6.28318530717959
2  10 3 2 4.71238898038469 6.28318530717959
2  11 4 0 4.71238898038469 6.28318530717959
0

0101000
+52 0 -42 0 *
Wi

0101100
+51 0 -41 0 -40 0 +40 1 *
Fa
0  1e-07 3 0

0101000
+39 0 *
Ve
1e-07
8.22222222222222 -9.77777777777778 1.38888888888889
0 0

0101101
*
Ed
 1e-07 1 1 0
1  8 0 0 5
2  12 4 0 0 5
0

0101000
+42 0 -37 0 *
Ve
1e-07
9.77777777777778 -8.22222222222222 -0.388888888888889
0 0

0101101
*
Ed
 1e-07 1 1 0
1  9 0 0 1.5707963267949
2  13 7 0 0 1.5707963267949
2  14 7 2 0 1.5707963267949
2  15 4 0 0 1.5707963267949
0

0101000
+37 0 -35 0 *
Ve
1e-07
9.22222222222222 -3.77777777777778 -2.61111111111111
0 0

0101101
*
Ed
 1e-07 1 1 0
1  10 0 0 5
2  16 4 0 0 5
0

0101000
+35 0 -33 0 *
Ve
1e-07
7.22222222222222 -1.77777777777778 -2.61111111111111
0 0

0101101
*
Ed
 1e-07 1 1 0
1  11 0 1.5707963267949 3.14159265358979
2  17 8 0 1.5707963267949 3.14159265358979
2  18 8 2 1.5707963267949 3.14159265358979
2  19 4 0 1.5707963267949 3.14159265358979
0

0101000
+33 0 -31 0 *
Ed
 1e-07 1 1 0
1  12 0 0 5
2  20 4 0 0 5
0

0101000
+31 0 -47 0 *
Wi

0101100
+50 0 +40 0 +36 0 +34 0 +32 0 +30 0 +29 0 +45 0 *
Fa
0  1e-07 4 0

0101000
+28 0 *
Wi

0101100
+50 1 +45 1 +40 1 +29 1 +36 1 +30 1 +34 1 +32 1 *
Ve
1.00000001332268e-07
7.0484990747893 -5.88799259831441 3.6939962991572
0 0

0101101
*
Ed
 1e-07 1 1 0
1  13 0 0 6.28318530717959
2  21 4 1 0 6.28318530717959
2  22 9 0 0 6.28318530717959
0

0101100
+25 0 -25 0 *
Wi

0101100
-24 0 *
Fa
0  1e-07 4 1

0101000
+26 0 +23 0 *
Ed
 1e-07 1 1 0
1  14 0 0 3
2  23 8 0 0 3
4 G1 8 0 5 0
0

0101000
+31 0 -31 1 *
Wi

0101100
+21 0 -46 0 -29 0 +29 1 *
Fa
0  1e-07 5 0

0101000
+20 0 *
Ed
 1e-07 1 1 0
1  15 0 0 3
2  24 7 0 0 3
4 G1 6 0 7 0
0

0101000
+37 0 -37 1 *
Wi

0101100
+41 0 -18 0 -36 0 +36 1 *
Fa
0  1e-07 6 0

0101000
+17 0 *
Ed
 1e-07 1 1 0
1  16 0 0 3
2  25 7 0 0 3
4 G1 7 0 10 0
0

0101000
+35 0 -35 1 *
Wi

0101100
+18 0 -15 0 -34 0 +34 1 *
Fa
0  1e-07 7 0

0101000
+14 0 *
Ed
 1e-07 1 1 0
1  17 0 0 3
2  26 8 0 0 3
4 G1 10 0 8 0
0

0101000
+33 0 -33 1 *
Wi

0101100
+15 0 -12 0 -32 0 +32 1 *
Fa
0  1e-07 10 0

0101000
+11 0 *
Wi

0101100
+12 0 -21 0 -30 0 +30 1 *
Fa
0  1e-07 8 0

0101000
+9 0 *
Ve
1e-07
7.5 -3.5 4
0 0

0101101
*
Ed
 1e-07 1 1 0
1  18 0 6.53586556232167 7.85398163397448
3  27 28CN 9 0 6.53586556232167 7.85398163397448
0

0101000
+25 0 -7 0 *
Ed
 1e-07 1 1 1
2  29 9 0 0 6.28318530717959
0

0101000
+7 0 -7 0 *
Wi

0101100
+6 0 +24 0 -6 0 -5 0 *
Fa
0  1e-07 9 0

0101000
+4 0 *
Sh

0101100
-48 0 -43 0 -38 0 -27 0 +22 0 -19 0 -16 0 -13 0 -10 0 -8 0 
+3 0 *
So

0100000
+2 0 *

+1 0 