DBRep_DrawableShape

CASCADE Topology V1, (c) Matra-Datavision
Locations 2
1
              1               0               0               0 
              0               1               0               0 
              0               0               1               4 
2  1 -1 0
Curve2ds 8
1 5.3558900891779739 0 0 -1 
1 4.0688878715914054 0 0 -1 
1 7.2104805251811985 0 0 -1 
1 2.2142974355881808 0 0 -1 
1 0 0 1 0 
1 0 -4 1 0 
1 0 0 1 0 
1 0 -4 1 0 
Curves 4
1 7 -0.46410161513775439 0.5 0 0 1 
1 3 6.4641016151377544 0.5 0 0 1 
2 2.401923788646684 1.5 0.5 0 0 1 0.86602540378443871 0.50000000000000011 -0 -0.50000000000000011 0.86602540378443871 0 5
2 7.598076211353316 4.5 0.5 0 0 1 0.86602540378443871 0.50000000000000011 -0 -0.50000000000000011 0.86602540378443871 0 5
Polygon3D 0
PolygonOnTriangulations 0
Surfaces 3
2 2.401923788646684 1.5 0.5 -0 -0 -1 0.86602540378443871 0.50000000000000011 -0 -0.50000000000000011 0.86602540378443871 0 5
2 7.598076211353316 4.5 0.5 -0 -0 -1 0.86602540378443871 0.50000000000000011 -0 -0.50000000000000011 0.86602540378443871 0 5
1 5 3 0.5 0 0 1 0.86602540378443871 0.50000000000000011 -0 -0.50000000000000011 0.86602540378443871 0 
Triangulations 0

TShapes 14
Ve
1e-07
7 -0.464101615137754 0.5
0 0

0101101
*
Ed
 1e-07 1 1 0
1  1 0 0 4
2  1 1 0 0 4
2  2 2 0 0 4
0

0101000
+14 0 -14 1 *
Ve
1e-07
3 6.46410161513775 0.5
0 0

0101101
*
Ed
 1e-07 1 1 0
1  2 0 0 4
2  3 1 0 0 4
2  4 2 0 0 4
0

0101000
+12 0 -12 1 *
Ed
 1e-07 1 1 0
1  3 0 5.35589008917797 7.2104805251812
2  5 1 0 5.35589008917797 7.2104805251812
2  6 1 2 5.35589008917797 7.2104805251812
0

0101000
+14 0 -12 0 *
Wi

0101100
+13 0 -11 0 -10 0 +10 1 *
Fa
0  1e-07 1 0

0101000
+9 0 *
Ed
 1e-07 1 1 0
1  4 0 2.21429743558818 4.06888787159141
2  7 2 0 2.21429743558818 4.06888787159141
2  8 2 2 2.21429743558818 4.06888787159141
0

0101000
+12 0 -14 0 *
Wi

0101100
+11 0 -13 0 -7 0 +7 1 *
Fa
0  1e-07 2 0

0101000
+6 0 *
Wi

0101100
+10 0 +7 0 *
Fa
0  1e-07 3 0

0101000
+4 0 *
Sh

0101100
+8 0 +5 0 +3 0 -3 1 *
So

1100000
-2 0 *

+1 0 