DBRep_DrawableShape

CASCADE Topology V1, (c) Matra-Datavision
Locations 0
Curve2ds 9
1 1.5707963267948966 -5.8195376981787801 0 1 
2 6 -5.0000000000000009 -0.89442719099991597 -0.44721359549995793 0.44721359549995793 -0.89442719099991597 4
1 0 -1.5707963267948966 1 0 
1 6.2831853071795862 -6.2831853071795862 0 1 
1 0 -6.2831853071795862 0 1 
2 -2.6864655904509962e-16 -5.0000000000000009 1 -5.3283851953460454e-17 -5.3283851953460454e-17 -1 3.9999999999999996
1 0 1.5707963267948966 1 0 
1 0 -0 -9.1661931817046104e-17 -1 
1 6.0000000000000009 -4.6670486405538993e-16 -1.6533413869803641e-16 -1 
Curves 3
2 5 5 5 -0.11111111111111106 0.44444444444444436 -0.88888888888888895 4.4870083204531315e-18 0.89442719099991586 0.44721359549995782 0.9938079899999066 0.049690399499995291 -0.099380798999990624 4
2 5 5 5 0.44444444444444442 -0.77777777777777779 -0.4444444444444442 -0.11111111111111102 0.44444444444444431 -0.88888888888888906 0.88888888888888895 0.44444444444444448 0.11111111111111112 4
1 0.55555555555555536 2.7777777777777777 4.4444444444444446 0.88888888888888895 0.44444444444444448 0.11111111111111112 
Polygon3D 0
PolygonOnTriangulations 0
Surfaces 3
4 5 5 5 0.88888888888888895 0.44444444444444448 0.11111111111111112 -0.11111111111111112 0.44444444444444448 -0.88888888888888906 -0.44444444444444442 0.77777777777777768 0.44444444444444442 4
1 -2.1111111111111116 7.4444444444444455 7.1111111111111116 -0.11111111111111108 0.44444444444444442 -0.88888888888888906 0.44444444444444431 -0.7777777777777779 -0.44444444444444431 -0.88888888888888906 -0.44444444444444436 -0.11111111111111106 
1 0.55555555555555536 2.7777777777777777 4.4444444444444446 -0.44444444444444448 0.7777777777777779 0.44444444444444448 -0.11111111111111115 0.44444444444444431 -0.88888888888888884 -0.88888888888888895 -0.44444444444444442 -0.11111111111111102 
Triangulations 0

TShapes 15
Ve
1.00000002509571e-07
1.44444444444444 3.22222222222222 4.55555555555556
0 0

0101101
*
Ve
1.00000003597363e-07
8.55555555555556 6.77777777777778 5.44444444444444
0 0

0101101
*
Ed
 1e-07 1 1 0
1  1 0 4.24874137138388 7.39033402497368
2  1 1 0 4.24874137138388 7.39033402497368
2  2 2 0 4.24874137138388 7.39033402497368
0

0101000
+15 0 -14 0 *
Ed
 1e-07 1 1 1
2  3 1 0 0 1.5707963267949
0

0101000
+15 0 -15 0 *
Ed
 1.00000001421779e-07 1 1 0
1  2 0 4.71238898038469 7.85398163397448
3  4 5CN 1 0 4.71238898038469 7.85398163397448
2  6 3 0 4.71238898038469 7.85398163397448
0

0101000
-14 0 +15 0 *
Ed
 1e-07 1 1 1
2  7 1 0 0 1.5707963267949
0

0101000
+14 0 -14 0 *
Wi

0101100
+13 0 +12 0 -11 0 -10 0 *
Fa
0  1e-07 1 0

0101000
+9 0 *
Ed
 1e-07 1 1 0
1  3 0 1 9
2  8 3 0 1 9
2  9 2 0 1 9
0

0101000
+15 0 -14 0 *
Wi

0101100
-7 0 +13 0 *
Fa
0  1e-07 2 0

0101000
+6 0 *
Wi

0101100
-11 0 +7 0 *
Fa
0  1e-07 3 0

0101000
+4 0 *
Sh

0101100
+8 0 -5 0 -3 0 *
So

0100000
+2 0 *

+1 0 