DBRep_DrawableShape

CASCADE Topology V1, (c) Matra-Datavision
Locations 2
1
              1               0               0               0 
              0               1               0               0 
              0               0               1               4 
2  1 -1 0
Curve2ds 4
1 5.3558900891779739 0 0 -1 
1 7.2104805251811985 0 0 -1 
1 0 0 1 0 
1 0 -4 1 0 
Curves 8
1 4.25 -3.3391016151377544 -0.5 0 0 1 
1 11.178203230275509 0.66089838486224561 -0.5 0 0 1 
1 4.25 -3.3391016151377544 -0.5 0.86602540378443871 0.50000000000000011 0 
1 7.1782032302755088 7.5891016151377544 -0.5 0 0 1 
2 6.5801270189221928 2.625 -0.5 0 0 1 0.86602540378443871 0.50000000000000011 -0 -0.50000000000000011 0.86602540378443871 0 5
1 0.25 3.5891016151377544 -0.5 0 0 1 
1 7.1782032302755088 7.5891016151377544 -0.5 -0.86602540378443871 -0.50000000000000011 0 
1 0.25 3.5891016151377544 -0.5 0.50000000000000011 -0.86602540378443871 0 
Polygon3D 0
PolygonOnTriangulations 0
Surfaces 5
1 4.25 -3.3391016151377544 -0.5 -0.50000000000000011 0.86602540378443871 0 0.86602540378443871 0.50000000000000011 0 0 0 -1 
2 6.5801270189221928 2.625 -0.5 -0 -0 -1 0.86602540378443871 0.50000000000000011 -0 -0.50000000000000011 0.86602540378443871 0 5
1 7.1782032302755088 7.5891016151377544 -0.5 0.50000000000000011 -0.86602540378443871 0 -0.86602540378443871 -0.50000000000000011 0 0 -0 -1 
1 0.25 3.5891016151377544 -0.5 0.86602540378443871 0.50000000000000011 -0 0.50000000000000011 -0.86602540378443871 0 0 -0 -1 
1 2.25 0.125 -0.5 0 0 1 0.86602540378443871 0.50000000000000011 -0 -0.50000000000000011 0.86602540378443871 0 
Triangulations 0

TShapes 24
Ve
1e-07
4.25 -3.33910161513775 -0.5
0 0

0101101
*
Ed
 1e-07 1 1 0
1  1 0 0 4
0

0101000
+24 0 -24 1 *
Ve
1e-07
11.1782032302755 0.660898384862246 -0.5
0 0

0101101
*
Ed
 1e-07 1 1 0
1  2 0 0 4
2  1 2 0 0 4
0

0101000
+22 0 -22 1 *
Ed
 1e-07 1 1 0
1  3 0 0 8
0

0101000
+24 0 -22 0 *
Wi

0101100
+23 0 -21 0 -20 0 +20 1 *
Fa
0  1e-07 1 0

0101000
+19 0 *
Ve
1e-07
7.17820323027551 7.58910161513775 -0.5
0 0

0101101
*
Ed
 1e-07 1 1 0
1  4 0 0 4
2  2 2 0 0 4
0

0101000
+17 0 -17 1 *
Ed
 1e-07 1 1 0
1  5 0 5.35589008917797 7.2104805251812
2  3 2 0 5.35589008917797 7.2104805251812
2  4 2 2 5.35589008917797 7.2104805251812
0

0101000
+22 0 -17 0 *
Wi

0101100
+21 0 -16 0 -15 0 +15 1 *
Fa
0  1e-07 2 0

0101000
+14 0 *
Ve
1e-07
0.25 3.58910161513775 -0.5
0 0

0101101
*
Ed
 1e-07 1 1 0
1  6 0 0 4
0

0101000
+12 0 -12 1 *
Ed
 1e-07 1 1 0
1  7 0 0 8
0

0101000
+17 0 -12 0 *
Wi

0101100
+16 0 -11 0 -10 0 +10 1 *
Fa
0  1e-07 3 0

0101000
+9 0 *
Ed
 1e-07 1 1 0
1  8 0 0 8
0

0101000
+12 0 -24 0 *
Wi

0101100
+11 0 -23 0 -7 0 +7 1 *
Fa
0  1e-07 4 0

0101000
+6 0 *
Wi

0101100
+20 0 +15 0 +10 0 +7 0 *
Fa
0  1e-07 5 0

0101000
+4 0 *
Sh

0101100
+18 0 +13 0 +8 0 +5 0 +3 0 -3 1 *
So

1100000
-2 0 *

+1 0 