DBRep_DrawableShape

CASCADE Topology V1, (c) Matra-Datavision
Locations 0
Curve2ds 42
1 0 0 1 0 
1 0 0 1 0 
1 4 0 0 -1 
1 0 0 0 1 
1 0 -10 1 0 
1 0 0 1 0 
1 0 0 0 -1 
1 0 0 0 1 
1 0 0 0 1 
1 0 0 1 0 
1 0 0 1 0 
1 0 10 1 0 
1 4 0 0 1 
1 0 0 1 0 
1 4 0 0 1 
1 0 10 1 0 
8 5.6922095885517088 8.0963726445859709
1 3.774999999999999 4.2750000000000004 0.70710678118654757 0.70710678118654757 
8 5.6922095885517088 8.0963726445859709
1 5.6922095885517088 -1.6970562748477143 -1 -8.8017920405776565e-18 
8 0.53665631459995489 3.3317412864746849
1 10.240000000000002 7.0200000000000014 -0.44721359549995798 0.89442719099991597 
8 0.53665631459995489 3.3317412864746849
1 -2.5738686835190352 -0.93338095116624253 0.316227766016838 0.94868329805051388 
1 4 0 0 -1 
1 10 0 0 1 
1 0 -10 1 0 
1 0 10 1 0 
8 -0.089442719099990478 1.0285912696499024
1 3.9200000000000008 9.5400000000000009 -0.89442719099991597 0.44721359549995798 
8 -0.089442719099990478 1.0285912696499024
1 -2.4324473272817246 -1.6122034611053289 -0.316227766016838 0.94868329805051377 
1 0 0 0 1 
1 0 10 1 0 
1 0 0 0 -1 
1 10 0 0 1 
8 0.40249223594996253 4.4274145954495818
1 2.0200000000000009 -3.5399999999999996 0.44721359549995798 -0.89442719099991597 
8 0.40249223594996253 4.4274145954495818
1 -1.0040916292848987 -4.6244783489600216 -0.316227766016838 0.94868329805051377 
8 -4.7022600948905415 0.95459415460183838
1 3.3250000000000002 -6.0750000000000002 0.70710678118654757 0.70710678118654757 
8 -4.7022600948905415 0.95459415460183838
1 -1.9445436482630059 -1.9091883092036788 -1 -7.2144240696783301e-18 
8 -4.3156111965745856 -0.96150923032491076
1 -0.86000000000000143 -8.0700000000000038 -0.89442719099991597 0.44721359549995798 
8 -4.3156111965745856 -0.96150923032491076
1 -1.393000358937502 3.4577521600022183 0.316227766016838 0.94868329805051388 
1 0 0 -0.70710678118654757 -0.70710678118654746 
1 0 0 -0.70710678118654757 0.70710678118654746 
1 0 0 -0.70710678118654757 0.70710678118654746 
1 0 0 0.70710678118654757 -0.70710678118654757 
1 0 0 -0.70710678118654757 -0.70710678118654757 
1 0 0 -0.70710678118654757 -0.70710678118654757 
Curves 21
1 0 0 0 0 0 1 
1 0 0 4 -0 1 0 
1 0 10 0 0 0 1 
1 0 0 0 -0 1 0 
1 0 0 0 1 0 -0 
1 10 0 0 0 0 1 
1 0 0 4 1 0 -0 
1 0 10 4 1 0 -0 
1 3.774999999999999 4.2750000000000004 4 0.70710678118654757 0.70710678118654757 -0 
1 10.240000000000002 7.0200000000000014 4 -0.44721359549995793 0.89442719099991586 0 
1 10 0 4 -0 1 0 
1 10 10 0 0 0 1 
1 9.5400000000000009 10 3.9200000000000008 0.44721359549995793 0 -0.89442719099991586 
1 0 10 0 1 0 -0 
1 10 0 0 -0 1 0 
1 10 3.5399999999999996 2.0200000000000009 0 0.89442719099991586 0.44721359549995793 
1 10 6.0750000000000002 3.3250000000000002 0 -0.70710678118654746 0.70710678118654746 
1 10 8.0700000000000038 -0.86000000000000143 0 -0.44721359549995793 -0.89442719099991586 
1 8.1999999999999993 7.9000000000000004 2.3999999999999999 0.33333333333333331 0.66666666666666663 0.66666666666666663 
1 8.1999999999999993 7.9000000000000004 2.3999999999999999 0.66666666666666674 0.33333333333333337 -0.66666666666666674 
1 8.1999999999999993 7.9000000000000004 2.3999999999999999 0.66666666666666674 -0.66666666666666674 0.33333333333333337 
Polygon3D 0
PolygonOnTriangulations 0
Surfaces 9
1 0 0 0 1 0 -0 0 0 1 0 -1 0 
1 0 0 0 -0 1 0 0 0 1 1 0 -0 
1 0 0 4 0 0 1 1 0 -0 -0 1 0 
1 0 10 0 -0 1 0 0 0 1 1 0 -0 
1 0 0 0 0 0 1 1 0 -0 -0 1 0 
1 10 0 0 1 0 -0 0 0 1 0 -1 0 
1 8.1999999999999993 7.9000000000000004 2.3999999999999999 0.66666666666666674 -0.66666666666666674 0.33333333333333337 -0.70710678118654768 -0.70710678118654757 8.1936132246100874e-18 0.23570226039551584 -0.23570226039551587 -0.94280904158206336 
1 8.1999999999999993 7.9000000000000004 2.3999999999999999 0.66666666666666674 0.33333333333333337 -0.66666666666666674 -0.70710678118654757 -8.1936132246100874e-18 -0.70710678118654768 -0.23570226039551587 0.94280904158206336 0.23570226039551584 
1 8.1999999999999993 7.9000000000000004 2.3999999999999999 0.33333333333333331 0.66666666666666663 0.66666666666666663 -9.7809811955094169e-18 0.70710678118654746 -0.70710678118654746 -0.94280904158206336 0.23570226039551584 0.23570226039551584 
Triangulations 0

TShapes 55
Ve
1e-07
0 0 4
0 0

0101101
*
Ve
1e-07
0 0 0
0 0

0101101
*
Ed
 1e-07 1 1 0
1  1 0 0 4
2  1 1 0 0 4
2  2 2 0 0 4
0

0101000
-55 0 +54 0 *
Ve
1e-07
0 10 4
0 0

0101101
*
Ed
 1e-07 1 1 0
1  2 0 0 10
2  3 1 0 0 10
2  4 3 0 0 10
0

0101000
-52 0 +55 0 *
Ve
1e-07
0 10 0
0 0

0101101
*
Ed
 1e-07 1 1 0
1  3 0 0 4
2  5 1 0 0 4
2  6 4 0 0 4
0

0101000
-52 0 +50 0 *
Ed
 1e-07 1 1 0
1  4 0 0 10
2  7 1 0 0 10
2  8 5 0 0 10
0

0101000
-50 0 +54 0 *
Wi

0101100
-53 0 -51 0 +49 0 +48 0 *
Fa
0  1e-07 1 0

0111000
+47 0 *
Ve
1e-07
10 0 0
0 0

0101101
*
Ed
 1e-07 1 1 0
1  5 0 0 10
2  9 2 0 0 10
2  10 5 0 0 10
0

0101000
-45 0 +54 0 *
Ve
1e-07
10 0 4
0 0

0101101
*
Ed
 1e-07 1 1 0
1  6 0 0 4
2  11 6 0 0 4
2  12 2 0 0 4
0

0101000
-43 0 +45 0 *
Ed
 1e-07 1 1 0
1  7 0 0 10
2  13 2 0 0 10
2  14 3 0 0 10
0

0101000
-43 0 +55 0 *
Wi

0101100
-44 0 -42 0 +41 0 +53 0 *
Fa
0  1e-07 2 0

0111000
+40 0 *
Ve
1.50000003552714e-07
9.5 10 4
0 0

0101101
*
Ed
 1e-07 1 1 0
1  8 0 0 9.5
2  15 4 0 0 9.5
2  16 3 0 0 9.5
0

0101000
+52 0 -38 0 *
Ve
1.50000002512148e-07
9 9.5 4
0 0

0101101
*
Ed
 1.5e-07 1 1 0
1  9 0 7.38926586339942 8.09637264458597
2  17 3 0 7.38926586339942 8.09637264458597
2  18 7 0 7.38926586339942 8.09637264458597
0

0101000
+36 0 -38 0 *
Ve
1.50000007105427e-07
10 7.5 4
0 0

0101101
*
Ed
 1.5e-07 1 1 0
1  10 0 0.536656314599955 2.77272429209974
2  19 3 0 0.536656314599955 2.77272429209974
2  20 8 0 0.536656314599955 2.77272429209974
0

0101000
+34 0 -36 0 *
Ed
 1e-07 1 1 0
1  11 0 0 7.5
2  21 6 0 0 7.5
2  22 3 0 0 7.5
0

0101000
+43 0 -34 0 *
Wi

0101100
-37 0 +35 0 +33 0 +32 0 +41 0 -51 0 *
Fa
0  1e-07 3 0

0101000
+31 0 *
Ve
1e-07
10 10 0
0 0

0101101
*
Ve
1.50000008437695e-07
10 10 3
0 0

0101101
*
Ed
 1e-07 1 1 0
1  12 0 0 3
2  23 6 0 0 3
2  24 4 0 0 3
0

0101000
+29 0 -28 0 *
Ed
 1.5e-07 1 1 0
1  13 0 -0.0894427190999905 1.0285912696499
2  25 4 0 -0.0894427190999905 1.0285912696499
2  26 7 0 -0.0894427190999905 1.0285912696499
0

0101000
+38 0 -28 0 *
Ed
 1e-07 1 1 0
1  14 0 0 10
2  27 4 0 0 10
2  28 5 0 0 10
0

0101000
-29 0 +50 0 *
Wi

0101100
-27 0 +26 0 +37 0 +49 0 -25 0 *
Fa
0  1e-07 4 0

0101000
+24 0 *
Ed
 1e-07 1 1 0
1  15 0 0 10
2  29 6 0 0 10
2  30 5 0 0 10
0

0101000
-29 0 +45 0 *
Wi

0101100
-48 0 -25 0 +22 0 +44 0 *
Fa
0  1e-07 5 0

0111000
+21 0 *
Ve
1.50000000444089e-07
10 6.1 3.3
0 0

0101101
*
Ed
 1.5e-07 1 1 0
1  16 0 2.86216701119973 4.42741459544958
2  31 6 0 2.86216701119973 4.42741459544958
2  32 8 0 2.86216701119973 4.42741459544958
0

0101000
+19 0 -34 0 *
Ve
1.50000002155663e-07
10 8.8 0.599999999999998
0 0

0101101
*
Ed
 1.5e-07 1 1 0
1  17 0 -3.85373195746669 -0.035355339059326
2  33 6 0 -3.85373195746669 -0.035355339059326
2  34 9 0 -3.85373195746669 -0.035355339059326
0

0101000
+17 0 -19 0 *
Ed
 1.5e-07 1 1 0
1  18 0 -4.31561119657459 -1.63232962357485
2  35 6 0 -4.31561119657459 -1.63232962357485
2  36 7 0 -4.31561119657459 -1.63232962357485
0

0101000
+28 0 -17 0 *
Wi

0101100
-32 0 +18 0 +16 0 +15 0 +27 0 +22 0 -42 0 *
Fa
0  1e-07 6 0

0101000
+14 0 *
Ve
1e-07
8.2 7.9 2.4
0 0

0101101
*
Ed
 1e-07 1 1 0
1  19 0 0 2.4
2  37 7 0 0 2.4
2  38 8 0 0 2.4
0

0101000
+12 0 -36 0 *
Ed
 1e-07 1 1 0
1  20 0 0 2.7
2  39 7 0 0 2.7
2  40 9 0 0 2.7
0

0101000
+12 0 -17 0 *
Wi

0101100
-11 0 -35 0 -26 0 -15 0 +10 0 *
Fa
0  1e-07 7 0

0101000
+9 0 *
Ed
 1e-07 1 1 0
1  21 0 0 2.7
2  41 8 0 0 2.7
2  42 9 0 0 2.7
0

0101000
+12 0 -19 0 *
Wi

0101100
-7 0 -18 0 -33 0 +11 0 *
Fa
0  1e-07 8 0

0101000
+6 0 *
Wi

0101100
-10 0 -16 0 +7 0 *
Fa
0  1e-07 9 0

0101000
+4 0 *
Sh

0101100
-46 0 -39 0 +30 0 +23 0 -20 0 +13 0 +8 0 +5 0 +3 0 *
So

0100000
+2 0 *

+1 0 