DBRep_DrawableShape

CASCADE Topology V1, (c) Matra-Datavision
Locations 1
1
              1               0               0 7.11111111111111 
              0               1               0 3.55555555555556 
              0               0               1 0.888888888888889 
Curve2ds 5
1 0 0.41151684606748823 1 0 
2 -9.8686491077791699e-17 -3.9474596431116675e-16 1 -1.384352166507911e-16 1.384352166507911e-16 1 4.5825756949558398
1 6.2831853071795862 -6.2831853071795862 0 1 
1 0 -6.2831853071795862 0 1 
1 0 -1.5707963267948966 1 0 
Curves 2
2 6.7777777777777786 5.8888888888888893 4.2222222222222223 0.88888888888888895 0.44444444444444448 0.11111111111111112 -0.11111111111111108 0.44444444444444436 -0.88888888888888895 -0.44444444444444448 0.7777777777777779 0.44444444444444436 4.5825756949558398
2 5 5 4 0.44444444444444442 -0.77777777777777779 -0.4444444444444442 -0.11111111111111102 0.44444444444444431 -0.88888888888888906 0.88888888888888895 0.44444444444444448 0.11111111111111112 5
Polygon3D 0
PolygonOnTriangulations 0
Surfaces 2
4 5 5 4 0.88888888888888895 0.44444444444444448 0.11111111111111112 -0.11111111111111112 0.44444444444444448 -0.88888888888888906 -0.44444444444444442 0.77777777777777768 0.44444444444444442 5
1 -0.33333333333333304 2.3333333333333335 3.3333333333333335 0.88888888888888895 0.44444444444444448 0.11111111111111112 -0.11111111111111112 0.44444444444444448 -0.88888888888888906 -0.44444444444444442 0.77777777777777768 0.44444444444444442 
Triangulations 0

TShapes 11
Ve
1.00000003468448e-07
6.26860270056046 7.92558919775815 0.148821604483696
0 0

0101101
*
Ed
 1e-07 1 1 0
1  1 0 0 6.28318530717959
2  1 1 0 0 6.28318530717959
2  2 2 1 0 6.28318530717959
0

0101100
+11 0 -11 0 *
Ve
1e-07
0.555555555555555 2.77777777777778 3.44444444444444
0 0

0101101
*
Ed
 1e-07 1 1 0
1  2 0 4.71238898038469 6.69470215324707
3  3 4CN 1 0 4.71238898038469 6.69470215324707
0

0101000
+9 0 -11 0 *
Ed
 1e-07 1 1 1
2  5 1 0 0 6.28318530717959
0

0101000
+9 0 -9 0 *
Wi

0101100
-10 0 +8 0 +7 0 -8 0 *
Fa
0  1e-07 1 0

0101000
+6 0 *
Wi

0101100
+10 0 *
Fa
0  1e-07 2 1

0101000
+4 0 *
Sh

0101100
+5 0 +3 0 *
So

0100000
+2 0 *

+1 0 