DBRep_DrawableShape

CASCADE Topology V1, (c) Matra-Datavision
Locations 0
Curve2ds 24
1 2.8284271247461903 -1.6329931618554521 -0.50000000000000011 0.86602540378443871 
8 0 5.6568542494923806
1 -2.8284271247461907 -1.6329931618554521 0.50000000000000011 0.86602540378443871 
1 -1.7233822700366477e-16 3.2659863237109046 -0.49999999999999989 -0.8660254037844386 
8 0 5.6568542494923806
1 4.4408920985006262e-16 3.2659863237109041 0.49999999999999989 -0.8660254037844386 
1 -2.8284271247461898 -1.6329931618554525 1 7.6321548562252158e-17 
8 0 5.6568542494923806
1 -2.8284271247461903 1.632993161855453 1 -7.6321548562252158e-17 
1 5.0540513439121173e-16 3.2659863237109046 -0.50000000000000011 -0.86602540378443871 
8 0 5.6568542494923806
1 -4.4408920985006262e-16 3.265986323710905 0.50000000000000011 -0.86602540378443871 
1 -2.8284271247461898 -1.6329931618554521 1 -7.6321548562252158e-17 
8 0 5.6568542494923806
1 -2.8284271247461903 1.6329931618554521 1 7.6321548562252158e-17 
1 -2.8284271247461898 1.6329931618554521 0.50000000000000011 -0.86602540378443871 
8 0 5.6568542494923806
1 2.8284271247461907 1.6329931618554521 -0.50000000000000011 -0.86602540378443871 
1 5.0540513439121173e-16 -3.2659863237109041 0.49999999999999989 0.8660254037844386 
8 0 5.6568542494923806
1 0 -3.2659863237109041 -0.49999999999999989 0.8660254037844386 
1 -1.7233822700366477e-16 -3.2659863237109041 0.50000000000000011 0.86602540378443871 
8 0 5.6568542494923806
1 0 -3.2659863237109041 -0.50000000000000011 0.86602540378443871 
1 -2.8284271247461907 -1.6329931618554518 1 -7.6321548562252158e-17 
8 0 5.6568542494923806
1 -2.8284271247461907 1.6329931618554521 1 7.6321548562252158e-17 
1 2.8284271247461894 -1.6329931618554521 -0.49999999999999989 0.8660254037844386 
8 0 5.6568542494923806
1 -2.8284271247461898 -1.6329931618554521 0.49999999999999989 0.8660254037844386 
1 -2.8284271247461898 -1.6329931618554521 1 7.6321548562252158e-17 
8 0 5.6568542494923806
1 -2.8284271247461898 1.6329931618554527 1 -7.6321548562252158e-17 
1 -2.8284271247461898 1.6329931618554523 0.49999999999999989 -0.8660254037844386 
8 0 5.6568542494923806
1 2.8284271247461898 1.6329931618554525 -0.49999999999999989 -0.8660254037844386 
Curves 12
1 9 5 4 -0.70710678118654746 0.70710678118654746 0 
1 5 9 4 0 -0.70710678118654746 0.70710678118654746 
1 5 5 8 0.70710678118654746 0 -0.70710678118654746 
1 5 9 4 -0.70710678118654746 -0.70710678118654746 0 
1 1 5 4 0.70710678118654746 0 0.70710678118654746 
1 1 5 4 0.70710678118654746 -0.70710678118654746 0 
1 5 1 4 0 0.70710678118654746 0.70710678118654746 
1 5 1 4 0.70710678118654746 0.70710678118654746 0 
1 9 5 4 -0.70710678118654746 0 -0.70710678118654746 
1 5 5 0 0 0.70710678118654746 0.70710678118654746 
1 5 5 0 -0.70710678118654746 0 0.70710678118654746 
1 5 5 0 0 -0.70710678118654746 0.70710678118654746 
Polygon3D 0
PolygonOnTriangulations 0
Surfaces 8
1 6.333333333333333 6.333333333333333 5.333333333333333 0.57735026918962573 0.57735026918962573 0.57735026918962584 0.70710678118654757 2.5095586005726383e-18 -0.70710678118654746 -0.40824829046386302 0.81649658092772615 -0.40824829046386307 
1 6.333333333333333 6.333333333333333 2.6666666666666665 0.57735026918962573 0.57735026918962573 -0.57735026918962584 -0.70710678118654757 -2.5095586005726383e-18 -0.70710678118654746 -0.40824829046386302 0.81649658092772615 0.40824829046386307 
1 3.6666666666666665 6.333333333333333 5.333333333333333 -0.57735026918962573 0.57735026918962573 0.57735026918962584 0.70710678118654757 -2.5095586005726383e-18 0.70710678118654746 0.40824829046386302 0.81649658092772615 -0.40824829046386307 
1 6.333333333333333 3.6666666666666665 5.333333333333333 0.57735026918962573 -0.57735026918962573 0.57735026918962584 0.70710678118654757 -2.5095586005726383e-18 -0.70710678118654746 0.40824829046386302 0.81649658092772615 0.40824829046386307 
1 3.6666666666666665 6.333333333333333 2.6666666666666665 -0.57735026918962573 0.57735026918962573 -0.57735026918962584 -0.70710678118654757 2.5095586005726383e-18 0.70710678118654746 0.40824829046386302 0.81649658092772615 0.40824829046386307 
1 3.6666666666666665 3.6666666666666665 5.333333333333333 -0.57735026918962573 -0.57735026918962573 0.57735026918962584 0.70710678118654757 2.5095586005726383e-18 0.70710678118654746 -0.40824829046386302 0.81649658092772615 0.40824829046386307 
1 3.6666666666666665 3.6666666666666665 2.6666666666666665 -0.57735026918962573 -0.57735026918962573 -0.57735026918962584 -0.70710678118654757 -2.5095586005726383e-18 0.70710678118654746 -0.40824829046386302 0.81649658092772615 -0.40824829046386307 
1 6.333333333333333 3.6666666666666665 2.6666666666666665 0.57735026918962573 -0.57735026918962573 -0.57735026918962584 -0.70710678118654757 2.5095586005726383e-18 -0.70710678118654746 0.40824829046386302 0.81649658092772615 -0.40824829046386307 
Triangulations 0

TShapes 36
Ve
1e-07
9 5 4
0 0

0101101
*
Ve
1e-07
5 9 4
0 0

0101101
*
Ed
 1e-07 1 1 0
1  1 0 0 5.65685424949238
2  1 1 0 0 5.65685424949238
2  2 2 0 0 5.65685424949238
4 C0 1 0 2 0
0

0101000
+36 0 -35 0 *
Ve
1e-07
5 5 8
0 0

0101101
*
Ed
 1e-07 1 1 0
1  2 0 0 5.65685424949238
2  3 1 0 0 5.65685424949238
2  4 3 0 0 5.65685424949238
4 C0 1 0 3 0
0

0101000
+35 0 -33 0 *
Ed
 1e-07 1 1 0
1  3 0 0 5.65685424949238
2  5 1 0 0 5.65685424949238
2  6 4 0 0 5.65685424949238
4 C0 1 0 4 0
0

0101000
+33 0 -36 0 *
Wi

0101100
+34 0 +32 0 +31 0 *
Fa
0  1e-07 1 0

0101000
+30 0 *
Ve
1e-07
1 5 4
0 0

0101101
*
Ed
 1e-07 1 1 0
1  4 0 0 5.65685424949238
2  7 3 0 0 5.65685424949238
2  8 5 0 0 5.65685424949238
4 C0 3 0 5 0
0

0101000
+35 0 -28 0 *
Ed
 1e-07 1 1 0
1  5 0 0 5.65685424949238
2  9 3 0 0 5.65685424949238
2  10 6 0 0 5.65685424949238
4 C0 3 0 6 0
0

0101000
+28 0 -33 0 *
Wi

0101100
+27 0 +26 0 -32 0 *
Fa
0  1e-07 3 0

0101000
+25 0 *
Ve
1e-07
5 1 4
0 0

0101101
*
Ed
 1e-07 1 1 0
1  6 0 0 5.65685424949238
2  11 6 0 0 5.65685424949238
2  12 7 0 0 5.65685424949238
4 C0 6 0 7 0
0

0101000
+28 0 -23 0 *
Ed
 1e-07 1 1 0
1  7 0 0 5.65685424949238
2  13 6 0 0 5.65685424949238
2  14 4 0 0 5.65685424949238
4 C0 6 0 4 0
0

0101000
+23 0 -33 0 *
Wi

0101100
+22 0 +21 0 -26 0 *
Fa
0  1e-07 6 0

0101000
+20 0 *
Ed
 1e-07 1 1 0
1  8 0 0 5.65685424949238
2  15 4 0 0 5.65685424949238
2  16 8 0 0 5.65685424949238
4 C0 4 0 8 0
0

0101000
+23 0 -36 0 *
Wi

0101100
+18 0 -31 0 -21 0 *
Fa
0  1e-07 4 0

0101000
+17 0 *
Ve
1e-07
5 5 0
0 0

0101101
*
Ed
 1e-07 1 1 0
1  9 0 0 5.65685424949238
2  17 2 0 0 5.65685424949238
2  18 8 0 0 5.65685424949238
4 C0 2 0 8 0
0

0101000
+36 0 -15 0 *
Ed
 1e-07 1 1 0
1  10 0 0 5.65685424949238
2  19 2 0 0 5.65685424949238
2  20 5 0 0 5.65685424949238
4 C0 2 0 5 0
0

0101000
+15 0 -35 0 *
Wi

0101100
-34 0 +14 0 +13 0 *
Fa
0  1e-07 2 0

0101000
+12 0 *
Ed
 1e-07 1 1 0
1  11 0 0 5.65685424949238
2  21 5 0 0 5.65685424949238
2  22 7 0 0 5.65685424949238
4 C0 5 0 7 0
0

0101000
+15 0 -28 0 *
Wi

0101100
-27 0 -13 0 +10 0 *
Fa
0  1e-07 5 0

0101000
+9 0 *
Ed
 1e-07 1 1 0
1  12 0 0 5.65685424949238
2  23 7 0 0 5.65685424949238
2  24 8 0 0 5.65685424949238
4 C0 7 0 8 0
0

0101000
+15 0 -23 0 *
Wi

0101100
-22 0 -10 0 +7 0 *
Fa
0  1e-07 7 0

0101000
+6 0 *
Wi

0101100
-18 0 -7 0 -14 0 *
Fa
0  1e-07 8 0

0101000
+4 0 *
Sh

0101100
+29 0 +24 0 +19 0 +16 0 +11 0 +8 0 +5 0 +3 0 *
So

1100000
+2 0 *

+1 0 