DBRep_DrawableShape

CASCADE Topology V1, (c) Matra-Datavision
Locations 2
1
              1               0               0 7.11111111111111 
              0               1               0 3.55555555555556 
              0               0               1 0.888888888888889 
2  1 -1 0
Curve2ds 16
1 1.5707963267948968 -5.8195376981787801 0 1 
2 7.9999999999999991 -7.3740739166461017e-16 -0.89442719099991586 -0.44721359549995782 0.44721359549995787 -0.89442719099991597 5
1 0 0 1 0 
2 0 0 1 -1.384352166507911e-16 1.384352166507911e-16 1 5
1 6.2831853071795862 -6.2831853071795862 0 1 
1 0 -6.2831853071795862 0 1 
2 0 -0 1 -4.5573969838007974e-17 -4.5573969838007974e-17 -1 5
1 0 1.5707963267948966 1 0 
1 0 -0 1 -6.673331297708308e-17 
1 -2.7412914188275592e-18 -8 1 -6.673331297708308e-17 
1 -6.140492778173705e-16 7.9999999999999982 7.0588254034809353e-17 -1 
1 0 -0 -2.3814969201064316e-17 -1 
1 7.9999999999999991 -6.3872090058681843e-16 1.1222161745825271e-17 -1 
1 0 -0 1 3.7692757008878766e-17 
1 -5.7292990653495731e-16 -8 1 3.7692757008878766e-17 
1 0 0 1 -2.7412914188275462e-17 
Curves 6
2 5 5 4.0000000000000009 -0.11111111111111109 0.44444444444444442 -0.88888888888888884 -3.2228737949993448e-18 0.89442719099991597 0.44721359549995798 0.9938079899999066 0.049690399499995326 -0.099380798999990652 5
2 5 5 4 0.88888888888888895 0.44444444444444448 0.11111111111111112 -0.11111111111111108 0.44444444444444436 -0.88888888888888895 -0.44444444444444448 0.7777777777777779 0.44444444444444436 5
2 5 5 4 0.44444444444444442 -0.77777777777777779 -0.4444444444444442 -0.11111111111111102 0.44444444444444431 -0.88888888888888906 0.88888888888888895 0.44444444444444448 0.11111111111111112 5
1 1.4444444444444442 11.222222222222221 7.5555555555555554 0.44444444444444453 -0.77777777777777779 -0.44444444444444448 
1 5 5 4 0.88888888888888895 0.44444444444444448 0.11111111111111112 
1 5 5 4 -0.11111111111111117 0.44444444444444448 -0.88888888888888895 
Polygon3D 0
PolygonOnTriangulations 0
Surfaces 4
4 5 5 4 0.88888888888888895 0.44444444444444448 0.11111111111111112 -0.11111111111111112 0.44444444444444448 -0.88888888888888906 -0.44444444444444442 0.77777777777777768 0.44444444444444442 5
1 1.4444444444444442 11.222222222222221 7.5555555555555554 -0.11111111111111109 0.44444444444444442 -0.88888888888888884 0.44444444444444448 -0.77777777777777779 -0.44444444444444448 -0.88888888888888884 -0.44444444444444442 -0.11111111111111112 
1 5 5 4 0.88888888888888895 0.44444444444444448 0.11111111111111112 -0.11111111111111112 0.44444444444444448 -0.88888888888888906 -0.44444444444444442 0.77777777777777768 0.44444444444444442 
1 5 5 4 -0.44444444444444448 0.7777777777777779 0.44444444444444453 -0.11111111111111115 0.44444444444444442 -0.88888888888888884 -0.88888888888888895 -0.44444444444444448 -0.11111111111111108 
Triangulations 0

TShapes 21
Ve
1.00000001256074e-07
2.77777777777778 8.88888888888889 6.22222222222222
0 0

0101101
*
Ve
1.00000003303977e-07
9.44444444444444 7.22222222222222 4.55555555555556
0 0

0101101
*
Ed
 1e-07 1 1 0
1  1 0 5.81953769817878 7.39033402497368
2  1 1 0 5.81953769817878 7.39033402497368
2  2 2 0 5.81953769817878 7.39033402497368
0

0101000
+21 0 -20 0 *
Ve
1.00000090400263e-07
4.44444444444452 7.22222222222226 -0.444444444444435
0 0

0101101
*
Ed
 1e-07 1 1 0
1  2 0 0 1.5707963267949
2  3 1 0 0 1.5707963267949
2  4 3 0 0 1.5707963267949
0

0101000
+18 0 -21 0 *
Ed
 1.00000002047903e-07 1 1 0
1  3 0 6.2831853071796 7.85398163397448
3  5 6CN 1 0 6.2831853071796 7.85398163397448
2  7 4 0 6.2831853071796 7.85398163397448
0

0101000
+18 0 -20 0 *
Ed
 1e-07 1 1 1
2  8 1 0 0 1.5707963267949
0

0101000
+20 0 -20 0 *
Wi

0101100
+19 0 +17 0 -16 0 -15 0 *
Fa
0  1e-07 1 0

0101000
+14 0 *
Ve
1e-07
5 5 4
0 0

0101101
*
Ed
 1e-07 1 1 0
1  4 0 3 8
2  9 2 0 3 8
2  10 2 2 3 8
2  11 3 0 3 8
0

0101000
+21 0 -12 0 *
Ed
 1e-07 1 1 0
1  5 0 0 5
2  12 4 0 0 5
2  13 2 0 0 5
0

0101000
+12 0 -20 0 *
Wi

0101100
-11 0 -10 0 +19 0 *
Fa
0  1e-07 2 0

0101000
+9 0 *
Ed
 1e-07 1 1 0
1  6 0 0 5
2  14 4 0 0 5
2  15 4 2 0 5
2  16 3 0 0 5
0

0101000
+12 0 -18 0 *
Wi

0101100
+11 0 +17 0 +7 0 *
Fa
0  1e-07 3 0

0101000
+6 0 *
Wi

0101100
-7 0 -16 0 +10 0 *
Fa
0  1e-07 4 0

0101000
+4 0 *
Sh

0101100
+13 0 -8 0 -5 0 -3 0 *
So

0100000
+2 0 *

+1 0 