DBRep_DrawableShape

CASCADE Topology V1, (c) Matra-Datavision
Locations 4
1
              1               0               0               0 
              0               1               0               0 
              0               0               1               3 
2  1 -1 0
1
              1               0               0               0 
              0               1               0               0 
              0               0               1               1 
2  3 -1 0
Curve2ds 43
1 0 0 0 -1 
1 8 0 0 -1 
1 0 0 1 0 
1 0 -3 1 0 
1 8 0 0 -1 
1 0 -0 0 -1 
8 -3.75 3
1 5 -1 1 0 
8 -3.75 3
1 2 5 0 -1 
8 -1.5 -0.5
1 1.25 -0.5 0 1 
8 -1.5 -0.5
1 7.25 0.5 0 1 
8 -3.75 3
1 5 -2 1 0 
8 -3.75 3
1 2 5 0 -1 
1 0 -0 1 0 
1 0 -3 1 0 
1 0 0 1 0 
1 0 -3 1 0 
8 1 8.25
1 -1 -2 1 0 
8 1 8.25
1 1 2 1 0 
8 0.5 1.5
1 7.25 -0.5 0 -1 
8 0.5 1.5
1 1.25 0.5 0 -1 
8 1 8.25
1 -1 -1 1 0 
8 1 8.25
1 1 2 1 0 
1 9.25 8.75 -1 0 
1 0 0 1 0 
1 0 -1 1 0 
1 9.25 0.75 0 1 
1 0 0 1 0 
1 0 -1 1 0 
1 0 0 1 0 
1 0 -1 1 0 
2 4.5 6 1 0 -0 1 1.5
1 6.2831853071795862 -1 -1 0 
2 6 6 -1 0 0 1 2
1 0 0 0 -1 
1 8 0 0 -1 
1 6.2831853071795862 -2 -1 0 
2 6 6 -1 0 0 1 2
1 0 0 0 -1 
1 6.2831853071795862 0 0 -1 
8 -2.0000005999999999 -0.99999939999999998
1 5.4421166366116562 0 0 1 
8 -2.0000005999999999 -0.99999939999999998
1 1.4594553124539325 1 0 1 
8 -2.0000005999999999 -0.99999939999999998
1 0.84106867056793033 0 0 1 
8 -2.0000005999999999 -0.99999939999999998
1 4.823729994725654 1 0 1 
Curves 24
1 0 0 0 0 0 1 
1 8 0 0 0 0 1 
1 0 0 0 1 0 0 
1 0 8 0 0 0 1 
1 0 8 0 0 -1 0 
1 8 0 0 0 1 0 
1 8 8 0 0 0 1 
1 8 5 1 0 1 -0 
1 8 1.25 0.5 0 0 -1 
1 8 5 2 0 1 -0 
1 8 8 0 -1 0 0 
2 4 4 0 0 0 1 1 0 -0 -0 1 0 2
1 9 8 2 -1 0 0 
1 0.75 8 0.5 0 0 1 
1 9 8 1 -1 0 0 
1 0.75 1.25 1 1 0 0 
1 0.75 9.25 1 0 -1 0 
2 5.5 4 1 0 0 1 -1 0 0 0 -1 0 1.5
2 4 4 1 0 -0 -1 1 0 -0 0 -1 0 2
1 0.75 1.25 1 0 0 1 
2 4 4 2 0 -0 -1 1 0 -0 0 -1 0 2
1 6 4 0 0 0 1 
1 5.333333333333333 2.5092880150001404 0 -0 -0 -1 
1 5.333333333333333 5.4907119849998596 0 -0 -0 -1 
Polygon3D 0
PolygonOnTriangulations 0
Surfaces 10
1 0 0 0 0 1 0 1 0 0 0 0 -1 
1 8 0 0 -1 0 0 0 1 0 0 0 -1 
1 0 8 0 1 0 -0 0 -1 0 0 -0 -1 
1 8 8 0 0 -1 0 -1 0 0 -0 -0 -1 
1 10 10 1 0 0 1 -1 0 0 0 -1 0 
1 0.75 1.25 1 0 1 0 1 0 0 0 0 -1 
1 0 0 0 0 0 1 1 0 -0 -0 1 0 
2 4 4 0 -0 -0 -1 1 0 -0 -0 1 0 2
1 0.75 9.25 1 1 0 -0 0 -1 0 0 -0 -1 
2 5.5 4 1 -0 -0 -1 -1 0 0 0 -1 0 1.5
Triangulations 0

TShapes 72
Ve
1e-07
0 0 0
0 0

0101101
*
Ed
 1e-07 1 1 0
1  1 0 0 3
0

0101000
+72 0 -72 1 *
Ve
1e-07
8 0 0
0 0

0101101
*
Ed
 1e-07 1 1 0
1  2 0 0 3
2  1 2 0 0 3
0

0101000
+70 0 -70 1 *
Ed
 1e-07 1 1 0
1  3 0 0 8
0

0101000
+72 0 -70 0 *
Wi

0101100
+71 0 -69 0 -68 0 +68 1 *
Fa
0  1e-07 1 0

0101000
+67 0 *
Ve
1e-07
0 8 0
0 0

0101101
*
Ed
 1e-07 1 1 0
1  4 0 0 3
2  2 4 0 0 3
0

0101000
+65 0 -65 1 *
Ed
 1e-07 1 1 0
1  5 0 0 8
0

0101000
+65 0 -72 0 *
Wi

0101100
+64 0 -71 0 -63 0 +63 1 *
Fa
0  1e-07 3 0

0101000
+62 0 *
Ve
1e-07
8 8 0
0 0

0101101
*
Ed
 1e-07 1 1 0
1  6 0 0 8
2  3 2 0 0 8
2  4 2 2 0 8
0

0101000
+70 0 -60 0 *
Ve
1.5e-07
8 8 1
0 0

0101101
*
Ed
 1e-07 1 1 0
1  7 0 0 1
2  5 2 0 0 1
2  6 4 0 0 1
0

0101000
+60 0 -58 0 *
Ve
1.5e-07
8 1.25 1
0 0

0101101
*
Ed
 1.5e-07 1 1 0
1  8 0 -3.75 3
2  7 2 0 -3.75 3
2  8 5 0 -3.75 3
0

0101000
+56 0 -58 0 *
Ve
1.5e-07
8 1.25 2
0 0

0101101
*
Ed
 1.5e-07 1 1 0
1  9 0 -1.5 -0.5
2  9 2 0 -1.5 -0.5
2  10 6 0 -1.5 -0.5
0

0101000
+54 0 -56 0 *
Ve
1.5e-07
8 8 2
0 0

0101101
*
Ed
 1.5e-07 1 1 0
1  10 0 -3.75 3
2  11 2 0 -3.75 3
2  12 5 3 -3.75 3
0

0101000
+54 0 -52 0 *
Ed
 1e-07 1 1 0
1  7 0 2 3
2  5 2 0 2 3
2  6 4 0 2 3
0

0101000
+52 0 -60 1 *
Wi

0101100
-59 0 -57 0 +55 0 +53 0 -51 0 -50 0 +59 1 +69 0 *
Fa
0  1e-07 2 0

0101000
+49 0 *
Ed
 1e-07 1 1 0
1  11 0 0 8
2  13 4 0 0 8
2  14 4 2 0 8
0

0101000
+60 0 -65 0 *
Wi

0101100
+68 0 +59 0 +47 0 +63 0 *
Ve
1e-07
6 4 0
0 0

0101101
*
Ed
 1e-07 1 1 0
1  12 0 0 6.28318530717959
2  15 8 0 0 6.28318530717959
2  16 8 2 0 6.28318530717959
0

0101100
+45 0 -45 0 *
Wi

0101100
+44 0 *
Fa
0  1e-07 7 0

0101000
+46 0 -43 0 *
Ve
1.5e-07
0.75 8 2
0 0

0101101
*
Ed
 1.5e-07 1 1 0
1  13 0 1 8.25
2  17 4 0 1 8.25
2  18 5 3 1 8.25
0

0101000
+52 0 -41 0 *
Ve
1.5e-07
0.75 8 1
0 0

0101101
*
Ed
 1.5e-07 1 1 0
1  14 0 0.5 1.5
2  19 4 0 0.5 1.5
2  20 9 0 0.5 1.5
0

0101000
+39 0 -41 0 *
Ed
 1.5e-07 1 1 0
1  15 0 1 8.25
2  21 4 0 1 8.25
2  22 5 0 1 8.25
0

0101000
+58 0 -39 0 *
Wi

0101100
-47 0 -64 0 +47 1 +50 0 -40 0 +38 0 +37 0 +57 0 *
Fa
0  1e-07 4 0

0101000
+36 0 *
Ve
1e-07
0.75 1.25 1
0 0

0101101
*
Ed
 1e-07 1 1 0
1  16 0 0 7.25
2  23 5 0 0 7.25
2  24 6 0 0 7.25
2  25 6 4 0 7.25
0

0101000
+34 0 -56 0 *
Ed
 1e-07 1 1 0
1  17 0 1.25 8
2  26 5 0 1.25 8
2  27 9 0 1.25 8
2  28 9 4 1.25 8
0

0101000
+39 0 -34 0 *
Wi

0101100
+37 0 +55 0 +33 0 +32 0 *
Ve
1.00000000444089e-07
5.33333333333333 2.50928801500014 1
0 0

0101101
*
Ve
1.00000001256074e-07
5.33333333333333 5.49071198499986 1
0 0

0101101
*
Ed
 1e-07 1 1 0
1  18 0 1.45945531245393 4.82372999472565
2  29 10 0 1.45945531245393 4.82372999472565
2  30 10 4 1.45945531245393 4.82372999472565
2  31 5 0 1.45945531245393 4.82372999472565
0

0101000
+30 0 -29 0 *
Ed
 1e-07 1 1 0
1  19 0 0.84106867056793 5.44211663661166
2  32 8 0 0.84106867056793 5.44211663661166
2  33 5 0 0.84106867056793 5.44211663661166
0

0101000
+30 0 -29 0 *
Wi

0101100
-28 0 +27 0 *
Fa
0  1e-07 5 0

0101000
+31 0 +26 0 *
Ed
 1e-07 1 1 0
1  16 0 0 7.25
2  23 5 0 0 7.25
2  24 6 0 0 7.25
2  25 6 4 0 7.25
0

0101000
+34 0 -54 4 *
Ed
 1e-07 1 1 0
1  20 0 0 1
2  34 6 0 0 1
2  35 9 0 0 1
0

0101000
+34 0 -34 3 *
Wi

0101100
-33 0 +53 0 +24 3 +23 0 *
Fa
0  1e-07 6 0

0101000
+22 0 *
Ed
 1e-07 1 1 0
1  17 0 1.25 8
2  26 5 0 1.25 8
2  27 9 0 1.25 8
2  28 9 4 1.25 8
0

0101000
+41 4 -34 0 *
Wi

0101100
+40 0 +51 0 +24 3 +20 3 *
Ve
1.00000000444089e-07
5.33333333333333 2.50928801500014 2
0 0

0101101
*
Ve
1.00000001256074e-07
5.33333333333333 5.49071198499986 2
0 0

0101101
*
Ed
 1e-07 1 1 0
1  18 0 1.45945531245393 4.82372999472565
2  29 10 0 1.45945531245393 4.82372999472565
2  30 10 4 1.45945531245393 4.82372999472565
2  31 5 0 1.45945531245393 4.82372999472565
0

0101000
+18 4 -17 4 *
Ed
 1e-07 1 1 0
1  21 0 0.84106867056793 5.44211663661166
2  36 8 0 0.84106867056793 5.44211663661166
2  37 5 3 0.84106867056793 5.44211663661166
0

0101000
+18 0 -17 0 *
Wi

0101100
-16 3 +15 0 *
Fa
0  1e-07 5 3

0101000
+19 0 +14 0 *
Ed
 1e-07 1 1 0
1  22 0 0 3
3  38 39CN 8 0 0 3
0

0101000
+45 0 -45 1 *
Wi

0101100
-44 0 -12 0 +44 1 +12 0 *
Ed
 1e-07 1 1 0
1  23 0 -2 -1
2  40 8 0 -2 -1
2  41 10 0 -2 -1
0

0101000
+18 0 -30 0 *
Ed
 1e-07 1 1 0
1  24 0 -2 -1
2  42 8 0 -2 -1
2  43 10 0 -2 -1
0

0101000
+17 0 -29 0 *
Wi

0101100
+15 0 -10 0 -27 0 +9 0 *
Fa
0  1e-07 8 0

0101000
+11 0 +8 0 *
Wi

0101100
-32 0 -23 0 +20 3 +38 0 *
Fa
0  1e-07 9 0

0101000
+6 0 *
Wi

0101100
-28 0 +9 0 +16 3 -10 0 *
Fa
0  1e-07 10 0

0101000
+4 0 *
Sh

0101100
-66 0 -61 0 -48 0 -42 0 +42 1 -35 0 +25 0 +21 0 -13 0 +7 0 
+5 0 -3 0 *
So

0100000
+2 0 *

+1 0 