DBRep_DrawableShape

CASCADE Topology V1, (c) Matra-Datavision
Locations 0
Curve2ds 11
1 0 0 1 0 
2 0 0 1 0 -0 1 3
1 6.2831853071795862 -6.2831853071795862 0 1 
1 0 -6.2831853071795862 0 1 
1 0 -1.5707963267948966 1 0 
2 0.75000000000000067 -0.5 1 -1.384352166507911e-16 1.384352166507911e-16 1 1.107142857142857
1 0 1.0101525445522115 1 0 
1 6.2831853071795862 -0 0 1 
1 0 -0 0 1 
1 0 3.5355339059327378 1 0 
2 0 0 1 0 -0 1 0.75
Curves 5
2 6.833333333333333 0.58333333333333381 10.833333333333334 0.88888888888888895 0.44444444444444448 0.11111111111111112 -0.11111111111111108 0.44444444444444436 -0.88888888888888895 -0.44444444444444448 0.7777777777777779 0.44444444444444436 3
2 6.833333333333333 0.58333333333333381 10.833333333333334 0.44444444444444442 -0.77777777777777779 -0.4444444444444442 -0.11111111111111102 0.44444444444444431 -0.88888888888888906 0.88888888888888895 0.44444444444444448 0.11111111111111112 3
2 6.9722222222222223 0.52777777777777868 9.9444444444444446 0.88888888888888895 0.44444444444444448 0.11111111111111112 -0.11111111111111108 0.44444444444444436 -0.88888888888888895 -0.44444444444444448 0.7777777777777779 0.44444444444444436 1.107142857142857
1 5.9444444444444438 0.63888888888888928 8.7222222222222232 0.89566858950296013 0.37712361663282534 0.23570226039551584 
2 9.1944444444444446 1.6388888888888897 10.222222222222223 0.88888888888888895 0.44444444444444448 0.11111111111111112 -0.11111111111111108 0.44444444444444436 -0.88888888888888895 -0.44444444444444448 0.7777777777777779 0.44444444444444436 0.75
Polygon3D 0
PolygonOnTriangulations 0
Surfaces 4
4 6.833333333333333 0.58333333333333381 10.833333333333334 0.88888888888888895 0.44444444444444448 0.11111111111111112 -0.11111111111111112 0.44444444444444448 -0.88888888888888906 -0.44444444444444442 0.77777777777777768 0.44444444444444442 3
1 6.833333333333333 0.58333333333333381 10.833333333333334 0.88888888888888895 0.44444444444444448 0.11111111111111112 -0.11111111111111112 0.44444444444444448 -0.88888888888888906 -0.44444444444444442 0.77777777777777768 0.44444444444444442 
3 6.083333333333333 0.083333333333333953 9.8333333333333339 0.88888888888888895 0.44444444444444448 0.11111111111111112 -0.11111111111111112 0.44444444444444448 -0.88888888888888906 -0.44444444444444442 0.77777777777777768 0.44444444444444442 1.25
-0.14189705460416391
1 9.1944444444444446 1.6388888888888897 10.222222222222223 0.88888888888888895 0.44444444444444448 0.11111111111111112 -0.11111111111111112 0.44444444444444448 -0.88888888888888906 -0.44444444444444442 0.77777777777777768 0.44444444444444442 
Triangulations 0

TShapes 21
Ve
1e-07
6.5 1.91666666666667 8.16666666666667
0 0

0101101
*
Ed
 1e-07 1 1 0
1  1 0 0 6.28318530717959
2  1 1 0 0 6.28318530717959
2  2 2 0 0 6.28318530717959
0

0101000
+21 0 -21 0 *
Ve
1e-07
4.16666666666667 -0.749999999999999 10.5
0 0

0101101
*
Ed
 1e-07 1 1 0
1  2 0 4.71238898038469 6.28318530717959
3  3 4CN 1 0 4.71238898038469 6.28318530717959
0

0101000
-21 0 +19 0 *
Ed
 1e-07 1 1 1
2  5 1 0 0 6.28318530717959
0

0101000
+19 0 -19 0 *
Wi

0101100
-20 0 +18 0 +17 0 -18 0 *
Fa
0  1e-07 1 0

0111000
+16 0 *
Wi

0101100
+20 0 *
Ve
1.00000001790181e-07
6.84920634920635 1.01984126984127 8.96031746031746
0 0

0101101
*
Ed
 1e-07 1 1 0
1  3 0 0 6.28318530717959
2  6 2 0 0 6.28318530717959
2  7 3 0 0 6.28318530717959
0

0101100
+13 0 -13 0 *
Wi

0101100
-12 0 *
Fa
0  1e-07 2 0

0101000
+14 0 +11 0 *
Ve
1e-07
9.11111111111111 1.97222222222222 9.55555555555556
0 0

0101101
*
Ed
 1e-07 1 1 0
1  4 0 1.01015254455221 3.53553390593274
3  8 9CN 3 0 1.01015254455221 3.53553390593274
0

0101000
+13 0 -9 0 *
Ed
 1e-07 1 1 0
1  5 0 0 6.28318530717959
2  10 3 0 0 6.28318530717959
2  11 4 0 0 6.28318530717959
0

0101000
+9 0 -9 0 *
Wi

0101100
+8 0 +12 0 -8 0 -7 0 *
Fa
0  1e-07 3 0

0101000
+6 0 *
Wi

0101100
+7 0 *
Fa
0  1e-07 4 0

0111000
+4 0 *
Sh

0101100
+15 0 +10 0 +5 0 +3 0 *
So

0100000
+2 0 *

+1 0 