DBRep_DrawableShape

CASCADE Topology V1, (c) Matra-Datavision
Locations 4
1
              1               0               0 0.888888888888889 
              0               1               0 0.888888888888889 
              0               0               1 1.55555555555556 
2  1 -1 0
1
              1               0               0 0.444444444444444 
              0               1               0 0.444444444444444 
              0               0               1 0.777777777777778 
2  3 -1 0
Curve2ds 48
1 4.7123889803846897 0 0 -1 
1 0 -0 1.3500860237725672e-16 -1 
1 4.7123889803846897 0 0 -1 
1 6.0000000000000009 -8.2238742564826381e-17 1.3500860237725672e-16 -1 
1 0 -0 1 1.3021134239430854e-17 
1 8.9914358537543547e-16 -2.0000000000000004 1 1.3021134239430854e-17 
1 -1.1993149957370517e-16 -2.5 1 -1.3706457094137734e-17 
1 1.5707963267948966 0 0 -1 
1 0 0 1 0 
1 0 -2 1 0 
2 0 0 1 7.8812128291291957e-18 -7.8812128291291957e-18 1 2.5000000000000004
1 7.8539816339744828 0 0 -1 
1 0 0 1 0 
1 0 -2 1 0 
2 6 -5.7567119795378487e-16 1 7.8812128291291957e-18 -7.8812128291291957e-18 1 2.5
1 5.9999999999999991 2.5000000000000004 -1 -6.6476316906568014e-17 
1 0 -0 1 5.0028568393602733e-17 
1 -5.6196474085964717e-17 -1 1 5.0028568393602733e-17 
1 1.0000000000000004 -1.5000000000000004 1 1.4974304375345475e-16 
1 1.0000000000000004 -1.5000000000000004 1 1.4974304375345475e-16 
1 0 -0 1 1.1041251314752897e-16 
1 -2.258549781205516e-17 -1.0000000000000007 1 1.1041251314752897e-16 
1 3.9999999999999996 -1.4999999999999996 0.70710678118654757 0.70710678118654757 
1 4 -1.4999999999999996 0.70710678118654757 0.70710678118654757 
1 0 -0 1 -3.7356721277318521e-17 
1 -1.0204987362249e-15 -1.0000000000000007 1 -3.7356721277318521e-17 
1 5.5 1.3432327952254981e-16 -0.70710678118654757 0.70710678118654757 
1 5.5000000000000009 -7.0451189463867956e-16 -0.70710678118654757 0.70710678118654757 
1 4 1.5000000000000002 -1 4.1462032709766648e-17 
1 4 1.5000000000000002 -1 4.1462032709766648e-17 
1 0 -0 1 3.8625750591743781e-17 
1 -2.4448724158760033e-16 -0.99999999999999989 1 3.8625750591743781e-17 
1 0.99999999999999978 1.5000000000000002 -0.70710678118654757 -0.70710678118654757 
1 0.99999999999999978 1.5000000000000002 -0.70710678118654757 -0.70710678118654757 
1 0 -0 1 -1.5856373134838242e-18 
1 -1.5454692943219614e-16 -1.0000000000000002 1 -1.5856373134838242e-18 
1 -0.50000000000000022 1.8263854077938532e-16 0.70710678118654757 -0.70710678118654746 
1 -0.50000000000000022 1.8263854077938532e-16 0.70710678118654757 -0.70710678118654746 
1 0 -0 1.5968022514670461e-16 -1 
1 2.1213203435596428 -9.0462616821309059e-17 1.372795625454474e-16 -1 
1 2.9999999999999996 1.5625361087317018e-16 1.5968022514670461e-16 -1 
1 0 -0 -1.306128998665919e-17 -1 
1 2.1213203435596428 5.8595104077438782e-17 -1.306128998665919e-17 -1 
1 0 -0 -3.0998092193158282e-16 -1 
1 2.1213203435596433 -5.7567119795378546e-17 -3.0998092193158282e-16 -1 
1 0 -0 2.3544306743292859e-17 -1 
1 2.1213203435596428 1.1102230246251565e-16 2.3544306743292859e-17 -1 
1 0 -0 1.372795625454474e-16 -1 
Curves 20
1 1.2222222222222221 5.2222222222222223 6.8888888888888884 0.44444444444444442 0.44444444444444442 0.77777777777777779 
1 1.8888888888888886 -0.11111111111111083 9.5555555555555554 0.44444444444444442 0.44444444444444442 0.77777777777777779 
1 1.2222222222222221 5.2222222222222223 6.8888888888888884 0.11111111111111109 -0.88888888888888884 0.44444444444444448 
1 5.666666666666667 4.666666666666667 4.666666666666667 0.44444444444444442 0.44444444444444442 0.77777777777777779 
2 3.4444444444444446 4.9444444444444446 5.7777777777777777 0.44444444444444442 0.44444444444444442 0.77777777777777779 0.11111111111111109 -0.88888888888888895 0.44444444444444442 0.88888888888888895 -0.11111111111111112 -0.44444444444444442 2.5
1 6.3333333333333339 -0.6666666666666663 7.333333333333333 0.44444444444444442 0.44444444444444442 0.77777777777777779 
2 4.1111111111111107 -0.38888888888888862 8.4444444444444446 0.44444444444444442 0.44444444444444442 0.77777777777777779 0.11111111111111109 -0.88888888888888895 0.44444444444444442 0.88888888888888895 -0.11111111111111112 -0.44444444444444442 2.5
1 6.3333333333333339 -0.6666666666666663 7.333333333333333 -0.11111111111111116 0.88888888888888884 -0.44444444444444436 
1 1.7777777777777779 3.7777777777777777 6.1111111111111116 0.11111111111111126 -0.88888888888888884 0.44444444444444442 
1 2.1111111111111116 1.1111111111111114 7.4444444444444446 0.70710678118654757 -0.70710678118654768 0 
1 3.6111111111111112 -0.3888888888888884 7.4444444444444446 0.54997194092287016 0.54997194092287016 -0.62853936105470909 
1 4.7777777777777777 0.77777777777777801 6.1111111111111107 -0.11111111111111104 0.88888888888888895 -0.44444444444444442 
1 4.4444444444444446 3.4444444444444446 4.7777777777777777 -0.70710678118654757 0.70710678118654757 0 
1 2.9444444444444446 4.9444444444444446 4.7777777777777777 -0.54997194092287016 -0.54997194092287027 0.62853936105470898 
1 1.7777777777777779 3.7777777777777777 6.1111111111111116 0.44444444444444442 0.44444444444444442 0.77777777777777779 
1 2.1111111111111116 1.1111111111111114 7.4444444444444446 0.44444444444444442 0.44444444444444442 0.77777777777777779 
1 3.6111111111111112 -0.3888888888888884 7.4444444444444446 0.44444444444444442 0.44444444444444442 0.77777777777777779 
1 4.7777777777777777 0.77777777777777801 6.1111111111111107 0.44444444444444442 0.44444444444444442 0.77777777777777779 
1 4.4444444444444446 3.4444444444444446 4.7777777777777777 0.44444444444444442 0.44444444444444442 0.77777777777777779 
1 2.9444444444444446 4.9444444444444446 4.7777777777777777 0.44444444444444442 0.44444444444444442 0.77777777777777779 
Polygon3D 0
PolygonOnTriangulations 0
Surfaces 12
1 1.2222222222222221 5.2222222222222223 6.8888888888888884 0.88888888888888895 -0.11111111111111115 -0.44444444444444442 0.1111111111111111 -0.88888888888888895 0.44444444444444459 -0.44444444444444436 -0.44444444444444448 -0.77777777777777768 
2 3.4444444444444446 4.9444444444444446 5.7777777777777777 -0.44444444444444442 -0.44444444444444442 -0.7777777777777779 0.11111111111111109 -0.88888888888888895 0.44444444444444442 0.88888888888888895 -0.11111111111111112 -0.44444444444444442 2.5
2 4.1111111111111107 -0.38888888888888862 8.4444444444444446 -0.44444444444444442 -0.44444444444444442 -0.7777777777777779 0.11111111111111109 -0.88888888888888895 0.44444444444444442 0.88888888888888895 -0.11111111111111112 -0.44444444444444442 2.5
1 3.4444444444444446 4.9444444444444446 5.7777777777777777 0.44444444444444442 0.44444444444444442 0.77777777777777779 0.11111111111111109 -0.88888888888888895 0.44444444444444442 0.88888888888888895 -0.11111111111111112 -0.44444444444444442 
1 6.3333333333333339 -0.6666666666666663 7.333333333333333 -0.88888888888888895 0.11111111111111104 0.44444444444444448 -0.11111111111111115 0.88888888888888884 -0.44444444444444436 -0.44444444444444442 -0.44444444444444448 -0.7777777777777779 
1 1.7777777777777779 3.7777777777777777 6.1111111111111116 0.88888888888888895 -0.11111111111111098 -0.44444444444444453 0.1111111111111113 -0.88888888888888884 0.44444444444444448 -0.44444444444444442 -0.44444444444444459 -0.77777777777777779 
1 3 4.5 5 0.44444444444444442 0.44444444444444442 0.77777777777777779 0.11111111111111109 -0.88888888888888895 0.44444444444444442 0.88888888888888895 -0.11111111111111112 -0.44444444444444442 
1 2.1111111111111116 1.1111111111111114 7.4444444444444446 0.54997194092287038 0.54997194092287038 -0.62853936105470898 0.70710678118654768 -0.70710678118654768 -4.194418162844316e-17 -0.44444444444444436 -0.44444444444444436 -0.77777777777777779 
1 3.6111111111111112 -0.3888888888888884 7.4444444444444446 -0.70710678118654757 0.70710678118654746 1.3568700260230151e-17 0.54997194092287016 0.54997194092287027 -0.6285393610547092 -0.44444444444444464 -0.4444444444444447 -0.77777777777777768 
1 4.4444444444444446 3.4444444444444446 4.7777777777777777 -0.54997194092287038 -0.54997194092287038 0.62853936105470887 -0.70710678118654757 0.70710678118654768 -8.0189696630367758e-18 -0.44444444444444442 -0.44444444444444436 -0.77777777777777779 
1 2.9444444444444446 4.9444444444444446 4.7777777777777777 0.70710678118654757 -0.70710678118654746 -4.1324275875859062e-17 -0.54997194092287016 -0.54997194092287027 0.62853936105470898 -0.44444444444444453 -0.44444444444444459 -0.77777777777777779 
1 4.7777777777777777 0.77777777777777801 6.1111111111111107 -0.88888888888888895 0.11111111111111115 0.44444444444444436 -0.11111111111111104 0.88888888888888906 -0.44444444444444448 -0.44444444444444431 -0.44444444444444431 -0.77777777777777779 
Triangulations 0

TShapes 59
Ve
1e-07
1.22222222222222 5.22222222222222 6.88888888888889
0 0

0101101
*
Ed
 1e-07 1 1 0
1  1 0 0 2
2  1 2 0 0 2
4 G1 1 0 2 0
2  2 1 0 0 2
0

0101000
+59 0 -59 1 *
Ve
1e-07
1.88888888888889 -0.111111111111111 9.55555555555556
0 0

0101101
*
Ed
 1e-07 1 1 0
1  2 0 0 2
2  3 3 0 0 2
4 G1 1 0 3 0
2  4 1 0 0 2
0

0101000
+57 0 -57 1 *
Ed
 1e-07 1 1 0
1  3 0 0 6
2  5 1 0 0 6
2  6 1 2 0 6
2  7 4 0 0 6
0

0101000
+59 0 -57 0 *
Wi

0101100
+58 0 -56 0 -55 0 +55 1 *
Fa
0  1e-07 1 0

0101000
+54 0 *
Ve
1e-07
5.66666666666667 4.66666666666667 4.66666666666667
0 0

0101101
*
Ed
 1e-07 1 1 0
1  4 0 0 2
2  8 2 0 0 2
4 G1 5 0 2 0
0

0101000
+52 0 -52 1 *
Ed
 1e-07 1 1 0
1  5 0 1.5707963267949 4.71238898038469
2  9 2 0 1.5707963267949 4.71238898038469
2  10 2 2 1.5707963267949 4.71238898038469
2  11 4 0 1.5707963267949 4.71238898038469
0

0101000
+52 0 -59 0 *
Wi

0101100
+51 0 -58 0 -50 0 +50 1 *
Fa
0  1e-07 2 0

0101000
+49 0 *
Ve
1e-07
6.33333333333333 -0.666666666666666 7.33333333333333
0 0

0101101
*
Ed
 1e-07 1 1 0
1  6 0 0 2
2  12 3 0 0 2
4 G1 3 0 5 0
0

0101000
+47 0 -47 1 *
Ed
 1e-07 1 1 0
1  7 0 4.71238898038469 7.85398163397448
2  13 3 0 4.71238898038469 7.85398163397448
2  14 3 2 4.71238898038469 7.85398163397448
2  15 4 0 4.71238898038469 7.85398163397448
0

0101000
+57 0 -47 0 *
Wi

0101100
+56 0 -46 0 -45 0 +45 1 *
Fa
0  1e-07 3 0

0101000
+44 0 *
Ed
 1e-07 1 1 0
1  8 0 0 6
2  16 4 0 0 6
0

0101000
+47 0 -52 0 *
Wi

0101100
+55 0 +50 0 +45 0 +42 0 *
Ve
1.00000001087792e-07
1.77777777777778 3.77777777777778 6.11111111111111
0 0

0101101
*
Ve
1.00000001948433e-07
2.11111111111111 1.11111111111111 7.44444444444444
0 0

0101101
*
Ed
 1.00000001087792e-07 1 1 0
1  9 0 0 3
2  17 6 0 0 3
2  18 6 4 0 3
2  19 7 0 0 3
2  20 4 4 0 3
0

0101000
+40 0 -39 0 *
Ve
1.00000002077779e-07
3.61111111111111 -0.388888888888888 7.44444444444444
0 0

0101101
*
Ed
 1.00000001948433e-07 1 1 0
1  10 0 0 2.12132034355964
2  21 8 0 0 2.12132034355964
2  22 8 4 0 2.12132034355964
2  23 7 0 0 2.12132034355964
2  24 4 4 0 2.12132034355964
0

0101000
+39 0 -37 0 *
Ve
1.00000002077779e-07
4.77777777777778 0.777777777777778 6.11111111111111
0 0

0101101
*
Ed
 1.00000002077779e-07 1 1 0
1  11 0 0 2.12132034355964
2  25 9 0 0 2.12132034355964
2  26 9 4 0 2.12132034355964
2  27 7 0 0 2.12132034355964
2  28 4 4 0 2.12132034355964
0

0101000
+37 0 -35 0 *
Ve
1.00000000993014e-07
4.44444444444444 3.44444444444444 4.77777777777778
0 0

0101101
*
Ed
 1.00000000993014e-07 1 1 0
1  12 0 0 3
2  29 7 0 0 3
2  30 4 4 0 3
0

0101000
+35 0 -33 0 *
Ve
1.00000000993014e-07
2.94444444444444 4.94444444444444 4.77777777777778
0 0

0101101
*
Ed
 1e-07 1 1 0
1  13 0 0 2.12132034355964
2  31 10 0 0 2.12132034355964
2  32 10 4 0 2.12132034355964
2  33 7 0 0 2.12132034355964
2  34 4 4 0 2.12132034355964
0

0101000
+33 0 -31 0 *
Ed
 1.00000000993014e-07 1 1 0
1  14 0 0 2.12132034355964
2  35 11 0 0 2.12132034355964
2  36 11 4 0 2.12132034355964
2  37 7 0 0 2.12132034355964
2  38 4 4 0 2.12132034355964
0

0101000
+31 0 -40 0 *
Wi

0101100
-38 3 -36 3 -34 3 -32 3 -30 3 -29 3 *
Fa
0  1e-07 4 0

0101000
+41 0 +28 0 *
Wi

0101100
+55 0 +45 0 +42 0 +50 0 *
Fa
0  1e-07 4 0

0101000
+26 0 *
Wi

0101100
+46 0 -51 0 -42 0 +42 1 *
Fa
0  1e-07 5 0

0101000
+24 0 *
Ed
 1e-07 1 1 0
1  15 0 0 1
2  39 6 0 0 1
2  40 11 0 0 1
0

0101000
+40 0 -40 3 *
Ed
 1e-07 1 1 0
1  16 0 0 1
2  41 6 0 0 1
2  42 8 0 0 1
0

0101000
+39 0 -39 3 *
Wi

0101100
+22 0 -21 0 -38 0 +38 3 *
Fa
0  1e-07 6 0

0101000
+20 0 *
Ed
 1e-07 1 1 0
1  17 0 0 1
2  43 8 0 0 1
2  44 9 0 0 1
0

0101000
+37 0 -37 3 *
Wi

0101100
+21 0 -18 0 -36 0 +36 3 *
Fa
0  1e-07 8 0

0101000
+17 0 *
Ed
 1e-07 1 1 0
1  18 0 0 1
2  45 9 0 0 1
0

0101000
+35 0 -35 3 *
Wi

0101100
+18 0 -15 0 -34 0 +34 3 *
Fa
0  1e-07 9 0

0101000
+14 0 *
Ed
 1e-07 1 1 0
1  19 0 0 1
2  46 10 0 0 1
0

0101000
+33 0 -33 3 *
Wi

0101100
+15 0 -12 0 -32 0 +32 3 *
Fa
0  1e-07 12 0

0101000
+11 0 *
Ed
 1e-07 1 1 0
1  20 0 0 1
2  47 10 0 0 1
2  48 11 0 0 1
0

0101000
+31 0 -31 3 *
Wi

0101100
+12 0 -9 0 -30 0 +30 3 *
Fa
0  1e-07 10 0

0101000
+8 0 *
Wi

0101100
+9 0 -22 0 -29 0 +29 3 *
Fa
0  1e-07 11 0

0101000
+6 0 *
Wi

0101100
+38 0 +36 0 +34 0 +32 0 +30 0 +29 0 *
Fa
0  1e-07 7 0

0101000
+4 0 *
Sh

0101100
-53 0 -48 0 -43 0 -27 0 +25 1 -23 0 -19 0 -16 0 -13 0 -10 0 
-7 0 -5 0 -3 0 *
So

0100000
+2 0 *

+1 0 