DBRep_DrawableShape

CASCADE Topology V1, (c) Matra-Datavision
Locations 4
1
              1               0               0 0.888888888888889 
              0               1               0 0.222222222222222 
              0               0               1 1.77777777777778 
2  1 -1 0
1
              1               0               0 1.11111111111111 
              0               1               0 0.277777777777778 
              0               0               1 2.22222222222222 
2  3 -1 0
Curve2ds 48
1 0 -0 -8.3609388274240161e-17 -1 
1 7 -1.0965165675310237e-17 1.0399774320177005e-16 -1 
1 9 -8.8817841970012523e-16 -8.3609388274240161e-17 -1 
1 0 -0 -1.0399774320177005e-16 -1 
1 0 -0 1 -7.6756159727171312e-17 
1 -9.3203908240136618e-17 -2.0000000000000013 1 -7.6756159727171312e-17 
1 0 0 1 -1.1213595210141434e-16 
1 9 8.8817841970012523e-16 8.3609388274240161e-17 -1 
1 0 -0 1.0399774320177005e-16 -1 
1 1.1787553100958445e-16 7 2.115934313907513e-17 -1 
1 0 -0 1 -6.8532285470688749e-18 
1 2.5425477909625508e-16 -2.0000000000000009 1 -6.8532285470688749e-18 
1 7 1.0965165675310237e-17 -1.0399774320177005e-16 -1 
1 0 -0 8.3609388274240161e-17 -1 
1 0 -0 1 6.8532285470688749e-18 
1 -4.4854380840565747e-16 -2.0000000000000009 1 6.8532285470688749e-18 
1 9 -5.5511151231257827e-16 -2.115934313907513e-17 1 
1 0 -0 1 7.6756159727171312e-17 
1 -7.9497451145998861e-16 -2.0000000000000009 1 7.6756159727171312e-17 
1 9 6.9999999999999991 -1 1.1213595210141434e-16 
2 6.5000000000000018 3.4999999999999991 1 9.6801853227347752e-17 9.6801853227347752e-17 -1 1.5
1 12.566370614359172 -0.49999999999999822 -1 0 
8 -0.74999999999999956 3.2500000000000018
1 3.2500000000000013 5 1 -1.6764710333267217e-16 
8 -0.74999999999999956 3.2500000000000018
1 3.2500000000000004 -0.49999999999999911 -1 2.4397493627565168e-16 
2 2.5000000000000018 3.5000000000000004 1 9.6801853227347752e-17 9.6801853227347752e-17 -1 1.5
1 6.2831853071795862 -0.50000000000000022 -1 0 
8 -5.2500000000000009 -1.2500000000000002
1 1.2500000000000009 1.9999999999999996 -1 -4.2061690207635158e-17 
8 -5.2500000000000009 -1.2500000000000002
1 -1.2500000000000002 -0.50000000000000067 -1 -8.9777293966602144e-17 
1 7.8539816339744828 0 0 -1 
1 0 -0 -2.6796123619039268e-16 -1 
1 0 0 1 0 
1 0 -2.5 1 0 
2 4.0000000000000009 -7.4151932879285151e-16 1 9.7572841438892973e-17 -9.7572841438892973e-17 1 1.4999999999999996
1 4.7123889803846897 0 0 -1 
1 4.0000000000000009 -2.5768139336978938e-16 1.199314995737052e-16 -1 
1 1.5707963267948963 0 0 -1 
1 4 3.5636788444758072e-17 -2.6796123619039268e-16 -1 
1 4 1.4999999999999989 -1 1.6687611512112688e-16 
1 0 -0 1 2.7412914188275338e-18 
1 -1.2897776125583612e-15 -2.5000000000000009 1 2.7412914188275338e-18 
1 4.7123889803846897 0 0 -1 
1 0 -0 1.199314995737052e-16 -1 
1 0 0 1 0 
1 0 -2.5 1 0 
2 0 0 1 9.7572841438892973e-17 -9.7572841438892973e-17 1 1.4999999999999996
1 0 -0 1 -6.4420348342447333e-17 
1 1.1417478759416736e-15 -2.5000000000000004 1 -6.4420348342447333e-17 
1 -5.4997159090227667e-16 -1.5 1 -5.585381265861126e-17 
Curves 20
1 3.4444444444444446 1.9444444444444446 8.7777777777777786 0.44444444444444448 0.11111111111111112 0.88888888888888895 
1 -3.5555555555555554 -2.0555555555555554 12.777777777777779 0.44444444444444448 0.11111111111111112 0.88888888888888895 
1 3.4444444444444446 1.9444444444444446 8.7777777777777786 -0.77777777777777779 -0.44444444444444442 0.44444444444444442 
1 6.5555555555555554 -4.2777777777777768 8 0.44444444444444448 0.11111111111111112 0.88888888888888895 
1 6.5555555555555554 -4.2777777777777768 8 -0.44444444444444442 0.88888888888888884 0.11111111111111124 
1 -0.44444444444444464 -8.2777777777777768 12 0.44444444444444448 0.11111111111111112 0.88888888888888895 
1 -3.5555555555555554 -2.0555555555555554 12.777777777777779 0.44444444444444442 -0.88888888888888884 -0.11111111111111124 
1 -0.44444444444444464 -8.2777777777777768 12 0.77777777777777779 0.44444444444444442 -0.44444444444444442 
2 0.83333333333333226 -3.8333333333333335 13.055555555555557 -0.44444444444444448 -0.11111111111111113 -0.88888888888888884 -0.77777777777777768 -0.44444444444444459 0.44444444444444448 -0.44444444444444459 0.88888888888888884 0.11111111111111119 1.5
1 4.0277777777777777 -3.7222222222222223 11.444444444444446 -0.77777777777777779 -0.44444444444444431 0.44444444444444442 
2 3.9444444444444442 -2.0555555555555558 11.27777777777778 -0.44444444444444448 -0.11111111111111113 -0.88888888888888884 -0.77777777777777768 -0.44444444444444459 0.44444444444444448 -0.44444444444444459 0.88888888888888884 0.11111111111111119 1.5
1 4.25 -0.16666666666666616 10.888888888888891 0.77777777777777779 0.44444444444444459 -0.44444444444444453 
1 1.2777777777777775 -5.2222222222222214 12.444444444444448 0.44444444444444448 0.11111111111111112 0.88888888888888895 
2 0.61111111111111083 -3.8888888888888888 12.611111111111114 0.44444444444444448 0.11111111111111112 0.88888888888888895 -0.77777777777777768 -0.44444444444444453 0.44444444444444448 0.44444444444444453 -0.88888888888888884 -0.11111111111111117 1.5
1 -0.055555555555555802 -2.5555555555555558 12.77777777777778 0.44444444444444448 0.11111111111111112 0.88888888888888895 
1 4.3888888888888884 -3.4444444444444442 10.66666666666667 0.44444444444444448 0.11111111111111112 0.88888888888888895 
1 1.2777777777777775 -5.2222222222222214 12.444444444444448 0.77777777777777779 0.44444444444444436 -0.4444444444444447 
1 3.0555555555555554 -0.77777777777777779 11.000000000000002 0.44444444444444448 0.11111111111111112 0.88888888888888895 
2 3.7222222222222219 -2.1111111111111112 10.833333333333336 0.44444444444444448 0.11111111111111112 0.88888888888888895 -0.77777777777777768 -0.44444444444444453 0.44444444444444448 0.44444444444444453 -0.88888888888888884 -0.11111111111111117 1.5
1 3.0555555555555554 -0.77777777777777779 11.000000000000002 -0.77777777777777779 -0.44444444444444453 0.44444444444444464 
Polygon3D 0
PolygonOnTriangulations 0
Surfaces 10
1 3.4444444444444446 1.9444444444444446 8.7777777777777786 0.44444444444444442 -0.88888888888888895 -0.11111111111111109 -0.7777777777777779 -0.44444444444444442 0.44444444444444442 -0.44444444444444442 -0.1111111111111111 -0.88888888888888906 
1 6.5555555555555554 -4.2777777777777768 8 -0.77777777777777779 -0.44444444444444448 0.44444444444444442 -0.44444444444444442 0.88888888888888895 0.11111111111111123 -0.44444444444444448 -0.11111111111111099 -0.88888888888888895 
1 -3.5555555555555554 -2.0555555555555554 12.777777777777779 0.77777777777777779 0.44444444444444448 -0.44444444444444442 0.44444444444444442 -0.88888888888888895 -0.11111111111111123 -0.44444444444444448 -0.11111111111111099 -0.88888888888888895 
1 3.4444444444444446 1.9444444444444446 8.7777777777777786 0.44444444444444448 0.11111111111111112 0.88888888888888895 -0.77777777777777779 -0.44444444444444453 0.44444444444444453 0.44444444444444453 -0.88888888888888895 -0.11111111111111116 
1 -0.44444444444444464 -8.2777777777777768 12 -0.44444444444444442 0.88888888888888895 0.11111111111111109 0.7777777777777779 0.44444444444444442 -0.44444444444444442 -0.44444444444444442 -0.1111111111111111 -0.88888888888888906 
2 0.61111111111111083 -3.8888888888888888 12.611111111111114 -0.44444444444444448 -0.11111111111111113 -0.88888888888888884 -0.77777777777777768 -0.44444444444444453 0.44444444444444448 0.44444444444444453 -0.88888888888888884 -0.11111111111111117 1.5
1 1.2777777777777775 -5.2222222222222214 12.444444444444448 -0.44444444444444442 0.88888888888888906 0.11111111111111109 0.77777777777777779 0.44444444444444436 -0.44444444444444475 -0.44444444444444464 -0.11111111111111123 -0.88888888888888884 
2 3.7222222222222219 -2.1111111111111112 10.833333333333336 -0.44444444444444448 -0.11111111111111113 -0.88888888888888884 -0.77777777777777768 -0.44444444444444453 0.44444444444444448 0.44444444444444453 -0.88888888888888884 -0.11111111111111117 1.5
1 3.0555555555555554 -0.77777777777777779 11.000000000000002 0.44444444444444448 -0.88888888888888884 -0.11111111111111112 -0.77777777777777779 -0.44444444444444448 0.44444444444444459 -0.44444444444444453 -0.11111111111111117 -0.88888888888888884 
1 3.7222222222222219 -2.1111111111111112 10.833333333333336 0.44444444444444448 0.11111111111111112 0.88888888888888895 -0.77777777777777779 -0.44444444444444453 0.44444444444444453 0.44444444444444453 -0.88888888888888895 -0.11111111111111116 
Triangulations 0

TShapes 57
Ve
1e-07
3.44444444444444 1.94444444444444 8.77777777777778
0 0

0101101
*
Ed
 1e-07 1 1 0
1  1 0 0 2
2  1 1 0 0 2
2  2 2 0 0 2
0

0101000
+57 0 -57 1 *
Ve
1e-07
-3.55555555555556 -2.05555555555556 12.7777777777778
0 0

0101101
*
Ed
 1e-07 1 1 0
1  2 0 0 2
2  3 1 0 0 2
2  4 3 0 0 2
0

0101000
+55 0 -55 1 *
Ed
 1e-07 1 1 0
1  3 0 0 9
2  5 1 0 0 9
2  6 1 2 0 9
2  7 4 0 0 9
0

0101000
+57 0 -55 0 *
Wi

0101100
+56 0 -54 0 -53 0 +53 1 *
Fa
0  1e-07 1 0

0101000
+52 0 *
Ve
1e-07
6.55555555555556 -4.27777777777778 8
0 0

0101101
*
Ed
 1e-07 1 1 0
1  4 0 0 2
2  8 5 0 0 2
2  9 2 0 0 2
0

0101000
+50 0 -50 1 *
Ed
 1e-07 1 1 0
1  5 0 0 7
2  10 4 0 0 7
2  11 2 0 0 7
2  12 2 2 0 7
0

0101000
+50 0 -57 0 *
Wi

0101100
+49 0 -56 0 -48 0 +48 1 *
Fa
0  1e-07 2 0

0101000
+47 0 *
Ve
1e-07
-0.444444444444445 -8.27777777777778 12
0 0

0101101
*
Ed
 1e-07 1 1 0
1  6 0 0 2
2  13 3 0 0 2
2  14 5 0 0 2
0

0101000
+45 0 -45 1 *
Ed
 1e-07 1 1 0
1  7 0 0 7
2  15 3 0 0 7
2  16 3 2 0 7
2  17 4 0 0 7
0

0101000
+55 0 -45 0 *
Wi

0101100
+54 0 -44 0 -43 0 +43 1 *
Fa
0  1e-07 3 0

0101000
+42 0 *
Ed
 1e-07 1 1 0
1  8 0 0 9
2  18 5 0 0 9
2  19 5 2 0 9
2  20 4 0 0 9
0

0101000
+45 0 -50 0 *
Wi

0101100
+53 0 +43 0 +40 0 +48 0 *
Fa
0  1e-07 4 0

0101000
+39 0 *
Wi

0101100
+53 1 +48 1 +43 1 +40 1 *
Ve
1.50000000993014e-07
1.5 -5.16666666666667 12.8888888888889
0 0

0101101
*
Ve
1.50000000194289e-07
0.166666666666666 -2.5 13.2222222222222
0 0

0101101
*
Ed
 1e-07 1 1 0
1  9 0 4.71238898038469 7.85398163397448
2  21 4 1 4.71238898038469 7.85398163397448
2  22 6 0 4.71238898038469 7.85398163397448
0

0101000
+36 0 -35 0 *
Ve
1.50000000993014e-07
4.61111111111111 -3.38888888888889 11.1111111111111
0 0

0101101
*
Ed
 1.5e-07 1 1 0
1  10 0 -0.75 3.25
2  23 4 1 -0.75 3.25
2  24 7 0 -0.75 3.25
0

0101000
+33 0 -36 0 *
Ve
1.50000000555112e-07
3.27777777777778 -0.722222222222222 11.4444444444444
0 0

0101101
*
Ed
 1e-07 1 1 0
1  11 0 1.5707963267949 4.71238898038469
2  25 4 1 1.5707963267949 4.71238898038469
2  26 8 0 1.5707963267949 4.71238898038469
0

0101000
+31 0 -33 0 *
Ed
 1.5e-07 1 1 0
1  12 0 -5.25 -1.25
2  27 4 1 -5.25 -1.25
2  28 9 0 -5.25 -1.25
0

0101000
+35 0 -31 0 *
Wi

0101100
+34 0 +32 0 +30 0 +29 0 *
Fa
0  1e-07 4 1

0101000
+37 0 +28 0 *
Wi

0101100
+44 0 -49 0 -40 0 +40 1 *
Fa
0  1e-07 5 0

0101000
+26 0 *
Ve
1e-07
1.27777777777778 -5.22222222222222 12.4444444444444
0 0

0101101
*
Ed
 1e-07 1 1 0
1  13 0 0.499999999999998 2.5
2  29 6 0 0.499999999999998 2.5
4 G1 6 0 7 0
2  30 7 0 0.499999999999998 2.5
0

0101000
+36 0 -24 3 *
Ve
1e-07
-0.0555555555555558 -2.55555555555556 12.7777777777778
0 0

0101101
*
Ed
 1e-07 1 1 0
1  14 0 4.71238898038469 7.85398163397448
2  31 6 0 4.71238898038469 7.85398163397448
2  32 6 4 4.71238898038469 7.85398163397448
2  33 10 0 4.71238898038469 7.85398163397448
0

0101000
+22 0 -24 0 *
Ed
 1e-07 1 1 0
1  15 0 0.5 2.5
2  34 6 0 0.5 2.5
4 G1 9 0 6 0
2  35 9 0 0.5 2.5
0

0101000
+35 0 -22 3 *
Wi

0101100
+34 0 -23 0 +21 3 +20 0 *
Fa
0  1e-07 6 0

0101000
+19 0 *
Ve
1e-07
4.38888888888889 -3.44444444444444 10.6666666666667
0 0

0101101
*
Ed
 1e-07 1 1 0
1  16 0 0.499999999999998 2.5
2  36 8 0 0.499999999999998 2.5
4 G1 7 0 8 0
2  37 7 0 0.499999999999998 2.5
0

0101000
+33 0 -17 3 *
Ed
 1e-07 1 1 0
1  17 0 0 4
2  38 10 0 0 4
2  39 7 0 0 4
2  40 7 4 0 4
0

0101000
+24 0 -17 0 *
Wi

0101100
+32 0 -16 0 +15 3 +23 0 *
Fa
0  1e-07 7 0

0101000
+14 0 *
Ve
1e-07
3.05555555555556 -0.777777777777778 11
0 0

0101101
*
Ed
 1e-07 1 1 0
1  18 0 0.5 2.5
2  41 8 0 0.5 2.5
4 G1 9 0 8 0
2  42 9 0 0.5 2.5
0

0101000
+31 0 -12 3 *
Ed
 1e-07 1 1 0
1  19 0 1.5707963267949 4.71238898038469
2  43 8 0 1.5707963267949 4.71238898038469
2  44 8 4 1.5707963267949 4.71238898038469
2  45 10 0 1.5707963267949 4.71238898038469
0

0101000
+17 0 -12 0 *
Wi

0101100
+30 0 -11 0 +10 3 +16 0 *
Fa
0  1e-07 8 0

0101000
+9 0 *
Ed
 1e-07 1 1 0
1  20 0 0 4
2  46 9 0 0 4
2  47 9 4 0 4
2  48 10 0 0 4
0

0101000
+12 0 -22 0 *
Wi

0101100
+29 0 -20 0 +7 3 +11 0 *
Fa
0  1e-07 9 0

0101000
+6 0 *
Wi

0101100
+7 0 +21 0 +15 0 +10 0 *
Fa
0  1e-07 10 0

0101000
+4 0 *
Sh

0101100
-51 0 -46 0 -41 0 -38 0 +27 0 -25 0 -18 0 -13 0 -8 0 -5 0 
+3 3 *
So

0100000
+2 0 *

+1 0 