DBRep_DrawableShape

CASCADE Topology V1, (c) Matra-Datavision
Locations 0
Curve2ds 24
1 -11.332840491828556 -11.186623154910579 1 0 
1 8.6021677817264219 -11.332840491828559 0 1 
1 11.332840491828554 -11.186623154910579 0 1 
1 -8.5790487327902643 11.186623154910576 0 -1 
1 11.332840491828554 11.186623154910581 -1 0 
1 -8.6021677817264273 11.33284049182855 0 -1 
1 -11.332840491828556 11.186623154910581 0 -1 
1 8.5790487327902678 -11.186623154910585 -0 1 
1 8.6021677817264219 11.33284049182855 -0.92111881314128985 -0.38928155887118732 
8 0 25.155208020370324
1 -8.579048732790266 11.186623154910579 0.92111881314128985 -0.38928155887118737 
1 -1.5403818999297882 -1.3941645630118136 1 0 
8 0 3.0807637998595769
1 -14.568767574319343 -1.5403818999297787 0 1 
1 -14.568767574319343 -1.5403818999297787 0.92111881314128952 -0.38928155887118826 
8 0 25.155208020370335
1 -14.591886623255514 1.3941645630118202 0.92111881314128996 0.38928155887118721 
1 1.5403818999297887 -1.3941645630118136 0 1 
8 0 2.7883291260236271
1 14.591886623255501 1.3941645630118231 -0 -1 
1 1.5403818999297887 1.3941645630118136 -1 0 
8 0 3.0807637998595769
1 14.568767574319349 1.5403818999297987 -0 -1 
1 -1.5403818999297882 1.3941645630118136 0 -1 
8 0 2.7883291260236271
1 -14.591886623255508 -1.3941645630118045 -0 1 
1 -8.5790487327902643 -11.186623154910585 0.92111881314128952 0.38928155887118826 
8 0 25.155208020370331
1 -8.602167781726429 11.33284049182855 0.92111881314128996 -0.38928155887118715 
1 -8.6021677817264273 -11.332840491828559 0.92111881314128952 0.38928155887118809 
8 0 25.155208020370345
1 8.5790487327902696 -11.186623154910587 -0.92111881314128952 0.38928155887118809 
Curves 12
1 -12.7239959266648 -9.7622779322511608 0 1 0 0 
1 9.9416850569923092 -9.7622779322511608 0 0 1 0 
1 9.9416850569923092 12.61096837757 0 -1 0 0 
1 -12.7239959266648 12.61096837757 0 0 -1 0 
1 9.9416850569923092 -9.7622779322511608 0 -0.38928155887118726 0.38928155887118732 0.83481718708088215 
1 -2.9315373347660199 0.0301806596475927 21 1 0 0 
1 -2.9315373347660199 0.0301806596475927 21 -0.3892815588711882 -0.38928155887118715 -0.83481718708088182 
1 0.149226465093557 0.0301806596475927 21 0 1 0 
1 0.149226465093557 2.8185097856712198 21 -1 0 0 
1 -2.9315373347660199 2.8185097856712198 21 0 -1 0 
1 9.9416850569923092 12.61096837757 0 -0.38928155887118715 -0.38928155887118826 0.83481718708088193 
1 -12.7239959266648 12.61096837757 0 0.38928155887118804 -0.38928155887118804 0.83481718708088148 
Polygon3D 0
PolygonOnTriangulations 0
Surfaces 6
1 -1.3911554348362452 1.4243452226594193 0 0 0 1 1 0 -0 -0 1 0 
1 -1.3911554348362412 -6.126845416958135 7.7962119629806299 -0 -0.90630782388854558 0.42261818271154522 0 -0.42261818271154522 -0.90630782388854558 1 0 0 
1 6.3160230721467023 1.4243452226594158 7.775258988048928 0.90630782388854558 0 0.42261818271154522 -0.42261818271154522 0 0.90630782388854558 0 -1 0 
1 -1.3911554348362416 8.9755358622769634 7.7962119629806317 0 0.90630782388854514 0.42261818271154616 0 -0.42261818271154616 0.90630782388854514 1 0 -0 
1 -9.0983339418191829 1.4243452226594153 7.7752589880489289 -0.90630782388854514 -0 0.42261818271154616 -0.42261818271154616 0 -0.90630782388854514 0 -1 -0 
1 -1.3911554348362316 1.4243452226594062 21.000000000000004 0 0 1 1 0 -0 -0 1 0 
Triangulations 0

TShapes 34
Ve
1e-07
-12.7239959266648 -9.76227793225116 0
0 0

0101101
*
Ve
1e-07
9.94168505699231 -9.76227793225116 0
0 0

0101101
*
Ed
 1e-07 1 1 0
1  1 0 0 22.6656809836571
2  1 1 0 0 22.6656809836571
2  2 2 0 0 22.6656809836571
4 C0 1 0 2 0
0

0101000
+34 0 -33 0 *
Ve
1e-07
9.94168505699231 12.61096837757 0
0 0

0101101
*
Ed
 1e-07 1 1 0
1  2 0 0 22.3732463098212
2  3 1 0 0 22.3732463098212
2  4 3 0 0 22.3732463098212
4 C0 1 0 3 0
0

0101000
+33 0 -31 0 *
Ve
1e-07
-12.7239959266648 12.61096837757 0
0 0

0101101
*
Ed
 1e-07 1 1 0
1  3 0 0 22.6656809836571
2  5 1 0 0 22.6656809836571
2  6 4 0 0 22.6656809836571
4 C0 1 0 4 0
0

0101000
+31 0 -29 0 *
Ed
 1e-07 1 1 0
1  4 0 0 22.3732463098212
2  7 1 0 0 22.3732463098212
2  8 5 0 0 22.3732463098212
4 C0 1 0 5 0
0

0101000
+29 0 -34 0 *
Wi

0101100
+32 0 +30 0 +28 0 +27 0 *
Fa
0  1e-07 1 0

0101000
+26 0 *
Ve
1e-07
0.149226465093557 0.0301806596475927 21
0 0

0101101
*
Ed
 1e-07 1 1 0
1  5 0 0 25.1552080203703
2  9 2 0 0 25.1552080203703
2  10 3 0 0 25.1552080203703
4 C0 2 0 3 0
0

0101000
+33 0 -24 0 *
Ve
1e-07
-2.93153733476602 0.0301806596475927 21
0 0

0101101
*
Ed
 1e-07 1 1 0
1  6 0 0 3.08076379985958
2  11 6 0 0 3.08076379985958
2  12 2 0 0 3.08076379985958
4 C0 2 0 6 0
0

0101000
+22 0 -24 0 *
Ed
 1e-07 1 1 0
1  7 0 0 25.1552080203703
2  13 2 0 0 25.1552080203703
2  14 5 0 0 25.1552080203703
4 C0 2 0 5 0
0

0101000
+22 0 -34 0 *
Wi

0101100
+32 0 +23 0 -21 0 +20 0 *
Fa
0  1e-07 2 0

0101000
+19 0 *
Ve
1e-07
0.149226465093557 2.81850978567122 21
0 0

0101101
*
Ed
 1e-07 1 1 0
1  8 0 0 2.78832912602363
2  15 6 0 0 2.78832912602363
2  16 3 0 0 2.78832912602363
4 C0 6 0 3 0
0

0101000
+24 0 -17 0 *
Ve
1e-07
-2.93153733476602 2.81850978567122 21
0 0

0101101
*
Ed
 1e-07 1 1 0
1  9 0 0 3.08076379985958
2  17 6 0 0 3.08076379985958
2  18 4 0 0 3.08076379985958
4 C0 6 0 4 0
0

0101000
+17 0 -15 0 *
Ed
 1e-07 1 1 0
1  10 0 0 2.78832912602363
2  19 6 0 0 2.78832912602363
2  20 5 0 0 2.78832912602363
4 C0 6 0 5 0
0

0101000
+15 0 -22 0 *
Wi

0101100
+21 0 +16 0 +14 0 +13 0 *
Fa
0  1e-07 6 0

0101000
+12 0 *
Ed
 1e-07 1 1 0
1  11 0 0 25.1552080203703
2  21 3 0 0 25.1552080203703
2  22 4 0 0 25.1552080203703
4 C0 3 0 4 0
0

0101000
+31 0 -17 0 *
Wi

0101100
+30 0 +10 0 -16 0 -23 0 *
Fa
0  1e-07 3 0

0101000
+9 0 *
Ed
 1e-07 1 1 0
1  12 0 0 25.1552080203703
2  23 4 0 0 25.1552080203703
2  24 5 0 0 25.1552080203703
4 C0 4 0 5 0
0

0101000
+29 0 -15 0 *
Wi

0101100
+28 0 +7 0 -14 0 -10 0 *
Fa
0  1e-07 4 0

0101000
+6 0 *
Wi

0101100
+27 0 -20 0 -13 0 -7 0 *
Fa
0  1e-07 5 0

0101000
+4 0 *
Sh

0101100
+25 0 -18 0 -11 0 -8 0 -5 0 -3 0 *
So

1100000
+2 0 *

-1 0 