DBRep_DrawableShape

CASCADE Topology V1, (c) Matra-Datavision
Locations 2
1
              1               0               0               0 
              0               1               0               0 
              0               0               1               3 
2  1 -1 0
Curve2ds 4
1 0 0 0 -1 
1 6.2831853071795862 0 0 -1 
1 0 0 1 0 
1 0 -3 1 0 
Curves 10
1 -6 -6 0 0 0 1 
1 6 -6 0 0 0 1 
1 -6 -6 0 1 0 0 
1 6 6 0 0 0 1 
1 6 -6 0 0 1 0 
1 -6 6 0 0 0 1 
1 6 6 0 -1 0 0 
1 -6 6 0 0 -1 0 
1 2 0 0 0 0 1 
2 0 0 0 0 0 1 1 0 -0 -0 1 0 2
Polygon3D 0
PolygonOnTriangulations 0
Surfaces 6
1 -6 -6 0 0 1 0 1 0 0 0 0 -1 
1 6 -6 0 -1 0 0 0 1 0 0 0 -1 
1 6 6 0 0 -1 0 -1 0 0 -0 -0 -1 
1 -6 6 0 1 0 -0 0 -1 0 0 -0 -1 
2 0 0 0 -0 -0 -1 1 0 -0 -0 1 0 2
1 0 0 0 0 0 1 1 0 -0 -0 1 0 
Triangulations 0

TShapes 30
Ve
1e-07
-6 -6 0
0 0

0101101
*
Ed
 1e-07 1 1 0
1  1 0 0 3
0

0101000
+30 0 -30 1 *
Ve
1e-07
6 -6 0
0 0

0101101
*
Ed
 1e-07 1 1 0
1  2 0 0 3
0

0101000
+28 0 -28 1 *
Ed
 1e-07 1 1 0
1  3 0 0 12
0

0101000
+30 0 -28 0 *
Wi

0101100
+29 0 -27 0 -26 0 +26 1 *
Fa
0  1e-07 1 0

0101000
+25 0 *
Ve
1e-07
6 6 0
0 0

0101101
*
Ed
 1e-07 1 1 0
1  4 0 0 3
0

0101000
+23 0 -23 1 *
Ed
 1e-07 1 1 0
1  5 0 0 12
0

0101000
+28 0 -23 0 *
Wi

0101100
+27 0 -22 0 -21 0 +21 1 *
Fa
0  1e-07 2 0

0101000
+20 0 *
Ve
1e-07
-6 6 0
0 0

0101101
*
Ed
 1e-07 1 1 0
1  6 0 0 3
0

0101000
+18 0 -18 1 *
Ed
 1e-07 1 1 0
1  7 0 0 12
0

0101000
+23 0 -18 0 *
Wi

0101100
+22 0 -17 0 -16 0 +16 1 *
Fa
0  1e-07 3 0

0101000
+15 0 *
Ed
 1e-07 1 1 0
1  8 0 0 12
0

0101000
+18 0 -30 0 *
Wi

0101100
+17 0 -29 0 -13 0 +13 1 *
Fa
0  1e-07 4 0

0101000
+12 0 *
Ve
1e-07
2 0 0
0 0

0101101
*
Ed
 1e-07 1 1 0
1  9 0 0 3
3  1 2CN 5 0 0 3
0

0101000
+10 0 -10 1 *
Ed
 1e-07 1 1 0
1  10 0 0 6.28318530717959
2  3 5 0 0 6.28318530717959
2  4 5 2 0 6.28318530717959
0

0101100
+10 0 -10 0 *
Wi

0101100
+9 0 -9 0 -8 0 +8 1 *
Fa
0  1e-07 5 0

0101000
+7 0 *
Wi

0101100
+26 0 +21 0 +16 0 +13 0 *
Wi

0101100
+8 0 *
Fa
0  1e-07 6 0

0101000
+5 0 -4 0 *
Sh

0101100
+24 0 +19 0 +14 0 +11 0 -6 0 +3 0 -3 1 *
So

1100000
-2 0 *

+1 0 