DBRep_DrawableShape

CASCADE Topology V1, (c) Matra-Datavision
Locations 0
Curve2ds 48
1 0 0 0 1 
1 0 0 0 -1 
1 0 6 1 0 
1 0 0 -0.50000000000000011 0.86602540378443871 
1 8.0000000000000036 0 0 1 
1 0 0 0 -1 
1 0 0 1 0 
1 0 0 -0.50000000000000011 0.86602540378443871 
1 0 0 1 0 
1 0 0 0.86602540378443871 0.50000000000000011 
1 0 0 0 1 
1 10.000000000000002 0 0 -1 
1 0 -6 1 0 
1 0 0 0.86602540378443871 0.50000000000000011 
1 0 -6 1 0 
1 -4.0000000000000009 6.9282032302755105 0.86602540378443871 0.50000000000000011 
1 0 6 1 0 
1 8.6602540378443873 5.0000000000000009 -0.50000000000000011 0.86602540378443871 
1 0 0 1 0 
1 -4.0000000000000009 6.9282032302755105 0.86602540378443871 0.50000000000000011 
1 8.0000000000000018 0 0 1 
1 10.000000000000002 0 0 -1 
1 0 0 1 0 
1 8.6602540378443873 5.0000000000000009 -0.50000000000000011 0.86602540378443871 
1 0 0 0.80000000000000004 -0.59999999999999998 
1 0 0 1 0 
1 1.5999999999999996 -1.2000000000000002 -0.59999999999999998 -0.80000000000000004 
1 0 0 1 0 
1 -1.5 -2 0.80000000000000004 -0.59999999999999998 
1 0 0 1 0 
1 0 0 -0.59999999999999998 -0.80000000000000004 
1 0 0 1 0 
1 0 0 0 1 
1 0 0 0 -1 
1 0 0 0.80000000000000004 -0.59999999999999998 
1 0 3 1 0 
1 2 0 0 1 
1 0 0 0 -1 
1 2 0 0 1 
1 2.4999999999999991 0 0 -1 
1 1.5999999999999996 -1.2000000000000002 -0.59999999999999998 -0.80000000000000004 
1 0 -3 1 0 
1 0 0 0 1 
1 2.4999999999999991 0 0 -1 
1 -1.5 -2 0.80000000000000004 -0.59999999999999998 
1 0 3 1 0 
1 0 0 -0.59999999999999998 -0.80000000000000004 
1 0 -3 1 0 
Curves 24
1 1 2 0 0 0 1 
1 1 2 6 -0.50000000000000011 0.86602540378443871 0 
1 -3.0000000000000009 8.9282032302755105 0 0 0 1 
1 1 2 0 -0.50000000000000011 0.86602540378443871 0 
1 1 2 0 0.86602540378443871 0.50000000000000011 -0 
1 9.6602540378443873 7.0000000000000009 0 0 0 1 
1 1 2 6 0.86602540378443871 0.50000000000000011 -0 
1 -3.0000000000000009 8.9282032302755105 6 0.86602540378443871 0.50000000000000011 -0 
1 9.6602540378443873 7.0000000000000009 6 -0.50000000000000011 0.86602540378443871 0 
1 -3.0000000000000009 8.9282032302755105 0 0.86602540378443871 0.50000000000000011 -0 
1 5.6602540378443864 13.928203230275511 0 0 0 1 
1 9.6602540378443873 7.0000000000000009 0 -0.50000000000000011 0.86602540378443871 0 
1 1.75 6.375 3 0 0.59999999999999998 0.80000000000000004 
1 1.75 7.5750000000000002 4.5999999999999996 -0 0.80000000000000004 -0.59999999999999998 
1 1.75 8.375 1.5 0 0.59999999999999998 0.80000000000000004 
1 1.75 6.375 3 -0 0.80000000000000004 -0.59999999999999998 
1 1.75 6.375 3 1 0 -0 
1 4.75 6.375 3 0 0.59999999999999998 0.80000000000000004 
1 1.75 7.5750000000000002 4.5999999999999996 1 0 -0 
1 1.75 9.5749999999999993 3.1000000000000001 1 0 -0 
1 4.75 7.5750000000000002 4.5999999999999996 -0 0.80000000000000004 -0.59999999999999998 
1 1.75 8.375 1.5 1 0 -0 
1 4.75 8.375 1.5 0 0.59999999999999998 0.80000000000000004 
1 4.75 6.375 3 -0 0.80000000000000004 -0.59999999999999998 
Polygon3D 0
PolygonOnTriangulations 0
Surfaces 12
1 1 2 0 0.86602540378443871 0.50000000000000011 -0 -0.50000000000000011 0.86602540378443871 0 0 0 1 
1 1 2 0 -0.50000000000000011 0.86602540378443871 0 0.86602540378443871 0.50000000000000011 0 0 0 -1 
1 1 2 6 0 0 1 1 0 -0 -0 1 0 
1 -3.0000000000000009 8.9282032302755105 0 -0.50000000000000011 0.86602540378443871 0 0.86602540378443871 0.50000000000000011 0 0 0 -1 
1 1 2 0 0 0 1 1 0 -0 -0 1 0 
1 9.6602540378443873 7.0000000000000009 0 0.86602540378443871 0.50000000000000011 -0 -0.50000000000000011 0.86602540378443871 0 0 0 1 
1 1.75 6.375 3 1 0 -0 0 0 1 0 -1 0 
1 1.75 6.375 3 -0 0.80000000000000004 -0.59999999999999998 0 0.59999999999999998 0.80000000000000004 1 0 -0 
1 1.75 7.5750000000000002 4.5999999999999996 0 0.59999999999999998 0.80000000000000004 0 0.80000000000000004 -0.59999999999999998 -1 0 0 
1 1.75 8.375 1.5 -0 0.80000000000000004 -0.59999999999999998 0 0.59999999999999998 0.80000000000000004 1 0 -0 
1 1.75 6.375 3 0 0.59999999999999998 0.80000000000000004 0 0.80000000000000004 -0.59999999999999998 -1 0 0 
1 4.75 6.375 3 1 0 -0 0 0 1 0 -1 0 
Triangulations 0

TShapes 67
Ve
1e-07
1 2 6
0 0

0101101
*
Ve
1e-07
1 2 0
0 0

0101101
*
Ed
 1e-07 1 1 0
1  1 0 0 6
2  1 1 0 0 6
2  2 2 0 0 6
0

0101000
-67 0 +66 0 *
Ve
1e-07
-3 8.92820323027551 6
0 0

0101101
*
Ed
 1e-07 1 1 0
1  2 0 0 8
2  3 1 0 0 8
2  4 3 0 0 8
0

0101000
-64 0 +67 0 *
Ve
1e-07
-3 8.92820323027551 0
0 0

0101101
*
Ed
 1e-07 1 1 0
1  3 0 0 6
2  5 1 0 0 6
2  6 4 0 0 6
0

0101000
-64 0 +62 0 *
Ed
 1e-07 1 1 0
1  4 0 0 8
2  7 1 0 0 8
2  8 5 0 0 8
0

0101000
-62 0 +66 0 *
Wi

0101100
-65 0 -63 0 +61 0 +60 0 *
Fa
0  1e-07 1 0

0111000
+59 0 *
Ve
1e-07
9.66025403784439 7 0
0 0

0101101
*
Ed
 1e-07 1 1 0
1  5 0 0 10
2  9 2 0 0 10
2  10 5 0 0 10
0

0101000
-57 0 +66 0 *
Ve
1e-07
9.66025403784439 7 6
0 0

0101101
*
Ed
 1e-07 1 1 0
1  6 0 0 6
2  11 6 0 0 6
2  12 2 0 0 6
0

0101000
-55 0 +57 0 *
Ed
 1e-07 1 1 0
1  7 0 0 10
2  13 2 0 0 10
2  14 3 0 0 10
0

0101000
-55 0 +67 0 *
Wi

0101100
-56 0 -54 0 +53 0 +65 0 *
Fa
0  1e-07 2 0

0111000
+52 0 *
Ve
1e-07
5.66025403784439 13.9282032302755 6
0 0

0101101
*
Ed
 1e-07 1 1 0
1  8 0 0 10
2  15 4 0 0 10
2  16 3 0 0 10
0

0101000
-50 0 +64 0 *
Ed
 1e-07 1 1 0
1  9 0 0 8
2  17 6 0 0 8
2  18 3 0 0 8
0

0101000
-50 0 +55 0 *
Wi

0101100
-63 0 -49 0 +48 0 +53 0 *
Fa
0  1e-07 3 0

0111000
+47 0 *
Ve
1e-07
5.66025403784439 13.9282032302755 0
0 0

0101101
*
Ed
 1e-07 1 1 0
1  10 0 0 10
2  19 4 0 0 10
2  20 5 0 0 10
0

0101000
-45 0 +62 0 *
Ed
 1e-07 1 1 0
1  11 0 0 6
2  21 6 0 0 6
2  22 4 0 0 6
0

0101000
-50 0 +45 0 *
Wi

0101100
-44 0 -43 0 +49 0 +61 0 *
Fa
0  1e-07 4 0

0111000
+42 0 *
Ed
 1e-07 1 1 0
1  12 0 0 8
2  23 6 0 0 8
2  24 5 0 0 8
0

0101000
-45 0 +57 0 *
Wi

0101100
-60 0 -44 0 +40 0 +56 0 *
Fa
0  1e-07 5 0

0111000
+39 0 *
Wi

0101100
-54 0 -48 0 +43 0 +40 0 *
Fa
0  1e-07 6 0

0111000
+37 0 *
Sh

0101100
-58 0 -51 0 +46 0 +41 0 -38 0 +36 0 *
Ve
1e-07
1.75 7.575 4.6
0 0

0101101
*
Ve
1e-07
1.75 6.375 3
0 0

0101101
*
Ed
 1e-07 1 1 0
1  13 0 0 2
2  25 7 0 0 2
2  26 8 0 0 2
0

0101000
-34 0 +33 0 *
Ve
1e-07
1.75 9.575 3.1
0 0

0101101
*
Ed
 1e-07 1 1 0
1  14 0 0 2.5
2  27 7 0 0 2.5
2  28 9 0 0 2.5
0

0101000
-31 0 +34 0 *
Ve
1e-07
1.75 8.375 1.5
0 0

0101101
*
Ed
 1e-07 1 1 0
1  15 0 0 2
2  29 7 0 0 2
2  30 10 0 0 2
0

0101000
-31 0 +29 0 *
Ed
 1e-07 1 1 0
1  16 0 0 2.5
2  31 7 0 0 2.5
2  32 11 0 0 2.5
0

0101000
-29 0 +33 0 *
Wi

0101100
-32 0 -30 0 +28 0 +27 0 *
Fa
0  1e-07 7 0

0111000
+26 0 *
Ve
1e-07
4.75 6.375 3
0 0

0101101
*
Ed
 1e-07 1 1 0
1  17 0 0 3
2  33 8 0 0 3
2  34 11 0 0 3
0

0101000
-24 0 +33 0 *
Ve
1e-07
4.75 7.575 4.6
0 0

0101101
*
Ed
 1e-07 1 1 0
1  18 0 0 2
2  35 12 0 0 2
2  36 8 0 0 2
0

0101000
-22 0 +24 0 *
Ed
 1e-07 1 1 0
1  19 0 0 3
2  37 8 0 0 3
2  38 9 0 0 3
0

0101000
-22 0 +34 0 *
Wi

0101100
-23 0 -21 0 +20 0 +32 0 *
Fa
0  1e-07 8 0

0111000
+19 0 *
Ve
1e-07
4.75 9.575 3.1
0 0

0101101
*
Ed
 1e-07 1 1 0
1  20 0 0 3
2  39 10 0 0 3
2  40 9 0 0 3
0

0101000
-17 0 +31 0 *
Ed
 1e-07 1 1 0
1  21 0 0 2.5
2  41 12 0 0 2.5
2  42 9 0 0 2.5
0

0101000
-17 0 +22 0 *
Wi

0101100
-30 0 -16 0 +15 0 +20 0 *
Fa
0  1e-07 9 0

0111000
+14 0 *
Ve
1e-07
4.75 8.375 1.5
0 0

0101101
*
Ed
 1e-07 1 1 0
1  22 0 0 3
2  43 10 0 0 3
2  44 11 0 0 3
0

0101000
-12 0 +29 0 *
Ed
 1e-07 1 1 0
1  23 0 0 2
2  45 12 0 0 2
2  46 10 0 0 2
0

0101000
-17 0 +12 0 *
Wi

0101100
-11 0 -10 0 +16 0 +28 0 *
Fa
0  1e-07 10 0

0111000
+9 0 *
Ed
 1e-07 1 1 0
1  24 0 0 2.5
2  47 12 0 0 2.5
2  48 11 0 0 2.5
0

0101000
-12 0 +24 0 *
Wi

0101100
-27 0 -11 0 +7 0 +23 0 *
Fa
0  1e-07 11 0

0111000
+6 0 *
Wi

0101100
-21 0 -15 0 +10 0 +7 0 *
Fa
0  1e-07 12 0

0111000
+4 0 *
Sh

0101100
+25 0 +18 0 -13 0 -8 0 +5 0 -3 0 *
So

0100000
+35 0 +2 0 *

+1 0 