DBRep_DrawableShape

CASCADE Topology V1, (c) Matra-Datavision
Locations 0
Curve2ds 16
1 0 0 0.52941176470588225 0.84836500599152687 
1 0 0 1 0 
1 4.2352941176470598 6.7869200479322167 0.48507125007266605 -0.87447463219520627 
1 0 0 -0.87447463219520627 0.48507125007266599 
1 0 0 0.99867610309078292 -0.051439684246776751 
1 0 0 0.87447463219520638 -0.48507125007266594 
1 0 0 0.52941176470588225 0.84836500599152687 
1 0 8 1 0 
1 4.2352941176470589 6.7869200479322167 0.48507125007266605 -0.87447463219520627 
1 0 8 -0.87447463219520627 -0.48507125007266599 
1 0 0 0.99867610309078292 -0.051439684246776751 
1 0 -8 0.87447463219520638 0.48507125007266594 
1 0 0 0 1 
1 0 0 0 -1 
1 8.0000000000000018 0 0 1 
1 0 0 0 1 
Curves 8
1 1 1 0 0 0.59999999999999998 0.80000000000000004 
1 1 5.7999999999999998 6.4000000000000004 0.48507125007266594 0.29104275004359964 -0.82462112512353203 
1 1 1 0 0.48507125007266594 0.87312825013079887 -0.048507125007266533 
1 9 1 0 0 0.59999999999999998 0.80000000000000004 
1 9 5.7999999999999998 6.4000000000000004 -0.48507125007266594 0.29104275004359964 -0.82462112512353203 
1 9 1 0 -0.48507125007266594 0.87312825013079887 -0.048507125007266533 
1 1 1 0 1 0 -0 
1 1 5.7999999999999998 6.4000000000000004 1 0 -0 
Polygon3D 0
PolygonOnTriangulations 0
Surfaces 5
1 1 1 0 0.83205029433784372 -0.44376015698018334 0.33282011773513748 0.4705882352941177 0.88235294117647067 -2.6455063296958656e-17 -0.29366480976629783 0.15662123187535884 0.94299033358288964 
1 1 1 0 -0 0.80000000000000004 -0.59999999999999998 0 0.59999999999999998 0.80000000000000004 1 0 -0 
1 1 5.7999999999999998 6.4000000000000004 0 0.94299033358288953 0.33282011773513759 0 -0.33282011773513759 0.94299033358288953 1 0 -0 
1 1 1 0 0 0.055470019622522834 0.99846035320541249 0 0.99846035320541249 -0.055470019622522834 -1 0 0 
1 9 1 0 0.83205029433784372 0.44376015698018334 -0.33282011773513748 -0.4705882352941177 0.88235294117647067 -2.6455063296958656e-17 0.29366480976629783 0.15662123187535884 0.94299033358288964 
Triangulations 0

TShapes 25
Ve
1e-07
1 5.8 6.4
0 0

0101101
*
Ve
1e-07
1 1 0
0 0

0101101
*
Ed
 1e-07 1 1 0
1  1 0 0 8
2  1 1 0 0 8
2  2 2 0 0 8
0

0101000
-25 0 +24 0 *
Ve
1e-07
5 8.2 -0.399999999999999
0 0

0101101
*
Ed
 1e-07 1 1 0
1  2 0 0 8.24621125123532
2  3 1 0 0 8.24621125123532
2  4 3 0 0 8.24621125123532
0

0101000
-22 0 +25 0 *
Ed
 1e-07 1 1 0
1  3 0 0 8.24621125123532
2  5 1 0 0 8.24621125123532
2  6 4 0 0 8.24621125123532
0

0101000
-22 0 +24 0 *
Wi

0101100
-23 0 -21 0 +20 0 *
Fa
0  1e-07 1 0

0111000
+19 0 *
Ve
1e-07
9 5.8 6.4
0 0

0101101
*
Ve
1e-07
9 1 0
0 0

0101101
*
Ed
 1e-07 1 1 0
1  4 0 0 8
2  7 5 0 0 8
2  8 2 0 0 8
0

0101000
-17 0 +16 0 *
Ed
 1e-07 1 1 0
1  5 0 0 8.24621125123532
2  9 5 0 0 8.24621125123532
2  10 3 0 0 8.24621125123532
0

0101000
-22 0 +17 0 *
Ed
 1e-07 1 1 0
1  6 0 0 8.24621125123532
2  11 5 0 0 8.24621125123532
2  12 4 0 0 8.24621125123532
0

0101000
-22 0 +16 0 *
Wi

0101100
-15 0 -14 0 +13 0 *
Fa
0  1e-07 5 0

0111000
+12 0 *
Ed
 1e-07 1 1 0
1  7 0 0 8
2  13 2 0 0 8
2  14 4 0 0 8
0

0101000
-16 0 +24 0 *
Ed
 1e-07 1 1 0
1  8 0 0 8
2  15 2 0 0 8
2  16 3 0 0 8
0

0101000
-17 0 +25 0 *
Wi

0101100
-10 0 -15 0 +9 0 +23 0 *
Fa
0  1e-07 2 0

0111000
+8 0 *
Wi

0101100
-20 0 +13 0 +10 0 *
Fa
0  1e-07 4 0

0111000
+6 0 *
Wi

0101100
-21 0 +14 0 +9 0 *
Fa
0  1e-07 3 0

0111000
+4 0 *
Sh

0101100
-18 0 +11 0 -7 0 -5 0 +3 0 *
So

1100000
+2 0 *

+1 0 