DBRep_DrawableShape

CASCADE Topology V1, (c) Matra-Datavision
Locations 2
1
              1               0               0               0 
              0               1               0               0 
              0               0               1               4 
2  1 -1 0
Curve2ds 16
1 5.639684198386302 0 0 -1 
1 5.3558900891779739 0 0 -1 
1 6.9266864159728705 0 0 -1 
1 0.9272952180016123 0 0 -1 
1 0 0 1 0 
1 0 -4 1 0 
1 2.2142974355881813 0 0 -1 
1 2.4980915447965089 0 0 -1 
1 0 0 1 0 
1 0 -4 1 0 
1 3.7850937623830778 0 0 -1 
1 4.0688878715914054 0 0 -1 
1 0 0 1 0 
1 0 -4 1 0 
1 0 0 1 0 
1 0 -4 1 0 
Curves 8
1 8.9230769230769234 3.384615384615385 0 0 0 1 
1 6.615384615384615 8.9230769230769234 0 0 0 1 
2 4.0769230769230766 4.615384615384615 0 0 0 1 0.92307692307692313 0.38461538461538464 -0 -0.38461538461538464 0.92307692307692313 0 5
1 1.0769230769230769 6.615384615384615 0 0 0 1 
2 5.384615384615385 4.0769230769230766 0 0 0 1 0.92307692307692313 0.38461538461538464 -0 -0.38461538461538464 0.92307692307692313 0 5
1 3.384615384615385 1.0769230769230766 0 0 0 1 
2 5.9230769230769234 5.384615384615385 0 0 0 1 0.92307692307692313 0.38461538461538464 -0 -0.38461538461538464 0.92307692307692313 0 5
2 4.615384615384615 5.9230769230769234 0 0 0 1 0.92307692307692313 0.38461538461538464 -0 -0.38461538461538464 0.92307692307692313 0 5
Polygon3D 0
PolygonOnTriangulations 0
Surfaces 5
2 4.0769230769230766 4.615384615384615 0 -0 -0 -1 0.92307692307692313 0.38461538461538464 -0 -0.38461538461538464 0.92307692307692313 0 5
2 4.615384615384615 5.9230769230769234 0 -0 -0 -1 0.92307692307692313 0.38461538461538464 -0 -0.38461538461538464 0.92307692307692313 0 5
2 5.384615384615385 4.0769230769230766 0 -0 -0 -1 0.92307692307692313 0.38461538461538464 -0 -0.38461538461538464 0.92307692307692313 0 5
2 5.9230769230769234 5.384615384615385 0 -0 -0 -1 0.92307692307692313 0.38461538461538464 -0 -0.38461538461538464 0.92307692307692313 0 5
1 5 5 0 0 0 1 0.92307692307692313 0.38461538461538464 -0 -0.38461538461538464 0.92307692307692313 0 
Triangulations 0

TShapes 24
Ve
1e-07
8.92307692307692 3.38461538461539 0
0 0

0101101
*
Ed
 1e-07 1 1 0
1  1 0 0 4
2  1 1 0 0 4
2  2 2 0 0 4
0

0101000
+24 0 -24 1 *
Ve
1e-07
6.61538461538461 8.92307692307692 0
0 0

0101101
*
Ed
 1e-07 1 1 0
1  2 0 0 4
2  3 1 0 0 4
2  4 3 0 0 4
0

0101000
+22 0 -22 1 *
Ed
 1e-07 1 1 0
1  3 0 5.6396841983863 6.92668641597287
2  5 1 0 5.6396841983863 6.92668641597287
2  6 1 2 5.6396841983863 6.92668641597287
0

0101000
+24 0 -22 0 *
Wi

0101100
+23 0 -21 0 -20 0 +20 1 *
Fa
0  1e-07 1 0

0101000
+19 0 *
Ve
1e-07
1.07692307692308 6.61538461538461 0
0 0

0101101
*
Ed
 1e-07 1 1 0
1  4 0 0 4
2  7 3 0 0 4
2  8 4 0 0 4
0

0101000
+17 0 -17 1 *
Ed
 1e-07 1 1 0
1  5 0 0.927295218001612 2.21429743558818
2  9 3 0 0.927295218001612 2.21429743558818
2  10 3 2 0.927295218001612 2.21429743558818
0

0101000
+22 0 -17 0 *
Wi

0101100
+21 0 -16 0 -15 0 +15 1 *
Fa
0  1e-07 3 0

0101000
+14 0 *
Ve
1e-07
3.38461538461539 1.07692307692308 0
0 0

0101101
*
Ed
 1e-07 1 1 0
1  6 0 0 4
2  11 4 0 0 4
2  12 2 0 0 4
0

0101000
+12 0 -12 1 *
Ed
 1e-07 1 1 0
1  7 0 2.49809154479651 3.78509376238308
2  13 4 0 2.49809154479651 3.78509376238308
2  14 4 2 2.49809154479651 3.78509376238308
0

0101000
+17 0 -12 0 *
Wi

0101100
+16 0 -11 0 -10 0 +10 1 *
Fa
0  1e-07 4 0

0101000
+9 0 *
Ed
 1e-07 1 1 0
1  8 0 4.06888787159141 5.35589008917797
2  15 2 0 4.06888787159141 5.35589008917797
2  16 2 2 4.06888787159141 5.35589008917797
0

0101000
+12 0 -24 0 *
Wi

0101100
+11 0 -23 0 -7 0 +7 1 *
Fa
0  1e-07 2 0

0101000
+6 0 *
Wi

0101100
+20 0 +15 0 +10 0 +7 0 *
Fa
0  1e-07 5 0

0101000
+4 0 *
Sh

0101100
+18 0 +13 0 +8 0 +5 0 +3 0 -3 1 *
So

1100000
-2 0 *

+1 0 