DBRep_DrawableShape

CASCADE Topology V1, (c) Matra-Datavision
Locations 2
1
              1               0               0               0 
              0               1               0               0 
              0               0               1               3 
2  1 -1 0
Curve2ds 16
1 4.7123889803846897 0 0 -1 
1 4.7123889803846879 0 0 -1 
1 6.2831853071795862 0 0 -1 
1 0 0 1 0 
1 0 -3 1 0 
1 0 0 0 -1 
1 1.5707963267948968 0 0 -1 
1 0 0 1 0 
1 0 -3 1 0 
1 1.5707963267948966 0 0 -1 
1 3.1415926535897931 0 0 -1 
1 0 0 1 0 
1 0 -3 1 0 
1 3.1415926535897931 0 0 -1 
1 0 0 1 0 
1 0 -3 1 0 
Curves 16
1 3.1923076923076925 1.5384615384615379 0 0 0 1 
1 8.7307692307692299 3.8461538461538463 0 0 0 1 
1 3.1923076923076925 1.5384615384615379 0 0.92307692307692302 0.3846153846153848 0 
1 9.2692307692307701 5.1538461538461533 0 0 0 1 
2 8.3461538461538467 4.7692307692307701 0 0 0 1 0.92307692307692313 0.38461538461538464 -0 -0.38461538461538464 0.92307692307692313 0 1
1 8.1153846153846168 7.9230769230769234 0 0 0 1 
1 9.2692307692307701 5.1538461538461533 0 -0.38461538461538436 0.92307692307692324 0 
1 6.8076923076923075 8.4615384615384617 0 0 0 1 
2 7.1923076923076925 7.5384615384615383 0 0 0 1 0.92307692307692313 0.38461538461538464 -0 -0.38461538461538464 0.92307692307692313 0 1
1 1.2692307692307692 6.1538461538461533 0 0 0 1 
1 6.8076923076923075 8.4615384615384617 0 -0.92307692307692302 -0.38461538461538475 0 
1 0.7307692307692305 4.8461538461538467 0 0 0 1 
2 1.6538461538461537 5.2307692307692299 0 0 0 1 0.92307692307692313 0.38461538461538464 -0 -0.38461538461538464 0.92307692307692313 0 1
1 1.8846153846153846 2.0769230769230771 0 0 0 1 
1 0.7307692307692305 4.8461538461538467 0 0.38461538461538469 -0.92307692307692302 0 
2 2.8076923076923079 2.4615384615384612 0 0 0 1 0.92307692307692313 0.38461538461538464 -0 -0.38461538461538464 0.92307692307692313 0 1
Polygon3D 0
PolygonOnTriangulations 0
Surfaces 9
1 3.1923076923076925 1.5384615384615379 0 -0.3846153846153848 0.92307692307692302 0 0.92307692307692302 0.3846153846153848 0 0 0 -1 
2 2.8076923076923079 2.4615384615384612 0 -0 -0 -1 0.92307692307692313 0.38461538461538464 -0 -0.38461538461538464 0.92307692307692313 0 1
2 8.3461538461538467 4.7692307692307701 0 -0 -0 -1 0.92307692307692313 0.38461538461538464 -0 -0.38461538461538464 0.92307692307692313 0 1
1 9.2692307692307701 5.1538461538461533 0 -0.92307692307692324 -0.38461538461538436 0 -0.38461538461538436 0.92307692307692324 0 -0 0 -1 
2 7.1923076923076925 7.5384615384615383 0 -0 -0 -1 0.92307692307692313 0.38461538461538464 -0 -0.38461538461538464 0.92307692307692313 0 1
1 6.8076923076923075 8.4615384615384617 0 0.38461538461538475 -0.92307692307692302 0 -0.92307692307692302 -0.38461538461538475 0 0 -0 -1 
2 1.6538461538461537 5.2307692307692299 0 -0 -0 -1 0.92307692307692313 0.38461538461538464 -0 -0.38461538461538464 0.92307692307692313 0 1
1 0.7307692307692305 4.8461538461538467 0 0.92307692307692302 0.38461538461538469 -0 0.38461538461538469 -0.92307692307692302 0 0 -0 -1 
1 5 5 0 0 0 1 0.92307692307692313 0.38461538461538464 -0 -0.38461538461538464 0.92307692307692313 0 
Triangulations 0

TShapes 44
Ve
1e-07
3.19230769230769 1.53846153846154 0
0 0

0101101
*
Ed
 1e-07 1 1 0
1  1 0 0 3
2  1 2 0 0 3
4 C1 1 0 2 0
0

0101000
+44 0 -44 1 *
Ve
1e-07
8.73076923076923 3.84615384615385 0
0 0

0101101
*
Ed
 1e-07 1 1 0
1  2 0 0 3
2  2 3 0 0 3
4 C1 1 0 3 0
0

0101000
+42 0 -42 1 *
Ed
 1e-07 1 1 0
1  3 0 0 6
0

0101000
+44 0 -42 0 *
Wi

0101100
+43 0 -41 0 -40 0 +40 1 *
Fa
0  1e-07 1 0

0101000
+39 0 *
Ve
1e-07
9.26923076923077 5.15384615384615 0
0 0

0101101
*
Ed
 1e-07 1 1 0
1  4 0 0 3
2  3 3 0 0 3
4 C1 3 0 4 0
0

0101000
+37 0 -37 1 *
Ed
 1e-07 1 1 0
1  5 0 4.71238898038469 6.28318530717959
2  4 3 0 4.71238898038469 6.28318530717959
2  5 3 2 4.71238898038469 6.28318530717959
0

0101000
+42 0 -37 0 *
Wi

0101100
+41 0 -36 0 -35 0 +35 1 *
Fa
0  1e-07 3 0

0101000
+34 0 *
Ve
1e-07
8.11538461538462 7.92307692307692 0
0 0

0101101
*
Ed
 1e-07 1 1 0
1  6 0 0 3
2  6 5 0 0 3
4 C1 4 0 5 0
0

0101000
+32 0 -32 1 *
Ed
 1e-07 1 1 0
1  7 0 0 3
0

0101000
+37 0 -32 0 *
Wi

0101100
+36 0 -31 0 -30 0 +30 1 *
Fa
0  1e-07 4 0

0101000
+29 0 *
Ve
1e-07
6.80769230769231 8.46153846153846 0
0 0

0101101
*
Ed
 1e-07 1 1 0
1  8 0 0 3
2  7 5 0 0 3
4 C1 5 0 6 0
0

0101000
+27 0 -27 1 *
Ed
 1e-07 1 1 0
1  9 0 0 1.5707963267949
2  8 5 0 0 1.5707963267949
2  9 5 2 0 1.5707963267949
0

0101000
+32 0 -27 0 *
Wi

0101100
+31 0 -26 0 -25 0 +25 1 *
Fa
0  1e-07 5 0

0101000
+24 0 *
Ve
1e-07
1.26923076923077 6.15384615384615 0
0 0

0101101
*
Ed
 1e-07 1 1 0
1  10 0 0 3
2  10 7 0 0 3
4 C1 6 0 7 0
0

0101000
+22 0 -22 1 *
Ed
 1e-07 1 1 0
1  11 0 0 6
0

0101000
+27 0 -22 0 *
Wi

0101100
+26 0 -21 0 -20 0 +20 1 *
Fa
0  1e-07 6 0

0101000
+19 0 *
Ve
1e-07
0.730769230769231 4.84615384615385 0
0 0

0101101
*
Ed
 1e-07 1 1 0
1  12 0 0 3
2  11 7 0 0 3
4 C1 7 0 8 0
0

0101000
+17 0 -17 1 *
Ed
 1e-07 1 1 0
1  13 0 1.5707963267949 3.14159265358979
2  12 7 0 1.5707963267949 3.14159265358979
2  13 7 2 1.5707963267949 3.14159265358979
0

0101000
+22 0 -17 0 *
Wi

0101100
+21 0 -16 0 -15 0 +15 1 *
Fa
0  1e-07 7 0

0101000
+14 0 *
Ve
1e-07
1.88461538461538 2.07692307692308 0
0 0

0101101
*
Ed
 1e-07 1 1 0
1  14 0 0 3
2  14 2 0 0 3
4 C1 8 0 2 0
0

0101000
+12 0 -12 1 *
Ed
 1e-07 1 1 0
1  15 0 0 3
0

0101000
+17 0 -12 0 *
Wi

0101100
+16 0 -11 0 -10 0 +10 1 *
Fa
0  1e-07 8 0

0101000
+9 0 *
Ed
 1e-07 1 1 0
1  16 0 3.14159265358979 4.71238898038469
2  15 2 0 3.14159265358979 4.71238898038469
2  16 2 2 3.14159265358979 4.71238898038469
0

0101000
+12 0 -44 0 *
Wi

0101100
+11 0 -43 0 -7 0 +7 1 *
Fa
0  1e-07 2 0

0101000
+6 0 *
Wi

0101100
+40 0 +35 0 +30 0 +25 0 +20 0 +15 0 +10 0 +7 0 *
Fa
0  1e-07 9 0

0101000
+4 0 *
Sh

0101100
+38 0 +33 0 +28 0 +23 0 +18 0 +13 0 +8 0 +5 0 +3 0 -3 1 
*
So

1100000
-2 0 *

+1 0 