DBRep_DrawableShape

CASCADE Topology V1, (c) Matra-Datavision
Locations 2
1
              1               0               0               0 
              0               1               0               3 
              0               0               1               4 
2  1 -1 0
Curve2ds 8
1 4.7123889803846897 0 0 -1 
1 4.7123889803846897 0 0 -1 
1 7.8539816339744828 0 0 -1 
1 0 0 1 0 
1 0 -5 1 0 
1 1.5707963267948966 0 0 -1 
1 0 0 1 0 
1 0 -5 1 0 
Curves 8
1 2 1.3999999999999999 1.2 0 0.59999999999999998 0.80000000000000004 
1 8 1.3999999999999999 1.2 0 0.59999999999999998 0.80000000000000004 
1 2 1.3999999999999999 1.2 1 0 0 
1 8 4.5999999999999996 -1.2 0 0.59999999999999998 0.80000000000000004 
2 8 3 0 0 0.59999999999999998 0.80000000000000004 1 -0 0 0 0.80000000000000004 -0.59999999999999998 2
1 2 4.5999999999999996 -1.2 0 0.59999999999999998 0.80000000000000004 
1 8 4.5999999999999996 -1.2 -1 0 0 
2 2 3 0 0 0.59999999999999998 0.80000000000000004 1 -0 0 0 0.80000000000000004 -0.59999999999999998 2
Polygon3D 0
PolygonOnTriangulations 0
Surfaces 5
1 2 1.3999999999999999 1.2 0 0.80000000000000004 -0.59999999999999998 1 0 0 0 -0.59999999999999998 -0.80000000000000004 
2 2 3 0 -0 -0.59999999999999998 -0.80000000000000004 1 -0 0 0 0.80000000000000004 -0.59999999999999998 2
2 8 3 0 -0 -0.59999999999999998 -0.80000000000000004 1 -0 0 0 0.80000000000000004 -0.59999999999999998 2
1 8 4.5999999999999996 -1.2 0 -0.80000000000000004 0.59999999999999998 -1 0 0 -0 -0.59999999999999998 -0.80000000000000004 
1 5 3 0 0 0.59999999999999998 0.80000000000000004 1 -0 0 0 0.80000000000000004 -0.59999999999999998 
Triangulations 0

TShapes 24
Ve
1e-07
2 1.4 1.2
0 0

0101101
*
Ed
 1e-07 1 1 0
1  1 0 0 5
2  1 2 0 0 5
4 G1 1 0 2 0
0

0101000
+24 0 -24 1 *
Ve
1e-07
8 1.4 1.2
0 0

0101101
*
Ed
 1e-07 1 1 0
1  2 0 0 5
2  2 3 0 0 5
4 G1 1 0 3 0
0

0101000
+22 0 -22 1 *
Ed
 1e-07 1 1 0
1  3 0 0 6
0

0101000
+24 0 -22 0 *
Wi

0101100
+23 0 -21 0 -20 0 +20 1 *
Fa
0  1e-07 1 0

0101000
+19 0 *
Ve
1e-07
8 4.6 -1.2
0 0

0101101
*
Ed
 1e-07 1 1 0
1  4 0 0 5
2  3 3 0 0 5
4 G1 3 0 4 0
0

0101000
+17 0 -17 1 *
Ed
 1e-07 1 1 0
1  5 0 4.71238898038469 7.85398163397448
2  4 3 0 4.71238898038469 7.85398163397448
2  5 3 2 4.71238898038469 7.85398163397448
0

0101000
+22 0 -17 0 *
Wi

0101100
+21 0 -16 0 -15 0 +15 1 *
Fa
0  1e-07 3 0

0101000
+14 0 *
Ve
1e-07
2 4.6 -1.2
0 0

0101101
*
Ed
 1e-07 1 1 0
1  6 0 0 5
2  6 2 0 0 5
4 G1 4 0 2 0
0

0101000
+12 0 -12 1 *
Ed
 1e-07 1 1 0
1  7 0 0 6
0

0101000
+17 0 -12 0 *
Wi

0101100
+16 0 -11 0 -10 0 +10 1 *
Fa
0  1e-07 4 0

0101000
+9 0 *
Ed
 1e-07 1 1 0
1  8 0 1.5707963267949 4.71238898038469
2  7 2 0 1.5707963267949 4.71238898038469
2  8 2 2 1.5707963267949 4.71238898038469
0

0101000
+12 0 -24 0 *
Wi

0101100
+11 0 -23 0 -7 0 +7 1 *
Fa
0  1e-07 2 0

0101000
+6 0 *
Wi

0101100
+20 0 +15 0 +10 0 +7 0 *
Fa
0  1e-07 5 0

0101000
+4 0 *
Sh

0101100
+18 0 +13 0 +8 0 +5 0 +3 0 -3 1 *
So

1100000
-2 0 *

+1 0 