DBRep_DrawableShape

CASCADE Topology V1, (c) Matra-Datavision
Locations 0
Curve2ds 7
1 6.2831853071795862 -6.2831853071795862 0 1 
1 0 -6.2831853071795862 0 1 
2 0 0 1 4.1290701996089925e-17 -4.1290701996089925e-17 1 4.7696960070847281
8 0 3.1415926535897927
1 4.3561149826370817e-17 0.30469265401539747 1 0 
2 0 0 1 4.1290701996089925e-17 -4.1290701996089925e-17 1 4.7696960070847281
8 3.1415926535897927 6.2831853071795862
1 4.3561149826370817e-17 0.30469265401539747 1 0 
1 0 1.5707963267948966 1 0 
Curves 3
2 5 5 4 -0.44444444444444425 0.88888888888888895 0.11111111111111104 -0.7777777777777779 -0.44444444444444431 0.44444444444444453 0.44444444444444453 0.11111111111111113 0.88888888888888895 5
8 0 3.1415926535897927
2 5.666666666666667 5.166666666666667 5.333333333333333 0.44444444444444448 0.11111111111111113 0.88888888888888884 -0.77777777777777768 -0.44444444444444453 0.44444444444444448 0.44444444444444453 -0.88888888888888884 -0.11111111111111117 4.7696960070847281
8 3.1415926535897927 6.2831853071795862
2 5.666666666666667 5.166666666666667 5.333333333333333 0.44444444444444448 0.11111111111111113 0.88888888888888884 -0.77777777777777768 -0.44444444444444453 0.44444444444444448 0.44444444444444453 -0.88888888888888884 -0.11111111111111117 4.7696960070847281
Polygon3D 0
PolygonOnTriangulations 0
Surfaces 2
4 5 5 4 0.44444444444444448 0.11111111111111112 0.88888888888888895 -0.77777777777777779 -0.44444444444444453 0.44444444444444453 0.44444444444444453 -0.88888888888888895 -0.11111111111111116 5
1 5.666666666666667 5.166666666666667 5.333333333333333 0.44444444444444448 0.11111111111111112 0.88888888888888895 -0.77777777777777779 -0.44444444444444453 0.44444444444444453 0.44444444444444453 -0.88888888888888895 -0.11111111111111116 
Triangulations 0

TShapes 13
Ve
1.00000001404333e-07
1.95690310560077 3.04680177462901 7.45319822537099
0 0

0101101
*
Ve
1e-07
7.22222222222222 5.55555555555556 8.44444444444444
0 0

0101101
*
Ed
 1e-07 0 0 0
1  1 0 0.304692654015398 1.5707963267949
3  1 2CN 1 0 6.58787796119498 7.85398163397448
0

0101000
+13 0 -12 0 *
Ve
1e-07
9.37643022773257 7.28653155870432 3.21346844129568
0 0

0101101
*
Ed
 1e-07 1 1 0
1  2 0 0 3.14159265358979
2  3 2 0 0 3.14159265358979
2  4 1 0 0 3.14159265358979
0

0101000
+13 0 -10 0 *
Ed
 1e-07 1 1 0
1  3 0 3.14159265358979 6.28318530717959
2  5 2 0 3.14159265358979 6.28318530717959
2  6 1 0 3.14159265358979 6.28318530717959
0

0101000
+10 0 -13 0 *
Ed
 1e-07 1 1 1
2  7 1 0 0 6.28318530717959
0

0101000
+12 0 -12 0 *
Wi

0101100
+11 0 +9 0 +8 0 -11 0 -7 0 *
Fa
0  1e-07 1 0

0101000
+6 0 *
Wi

0101100
+9 0 +8 0 *
Fa
0  1e-07 2 0

0101000
+4 0 *
Sh

0101100
+5 0 -3 0 *
So

1100000
+2 0 *

+1 0 