DBRep_DrawableShape

CASCADE Topology V1, (c) Matra-Datavision
Locations 2
1
              1               0               0 3.55555555555556 
              0               1               0 3.55555555555556 
              0               0               1 6.22222222222222 
2  1 -1 0
Curve2ds 16
1 1.5707963267948966 -1.1071487177940906 0 1 
2 7.9999999999999991 4.0022854714882187e-16 -0.44721359549995798 0.89442719099991597 -0.89442719099991597 -0.44721359549995798 5
1 0 0 1 0 
2 0 0 1 1.0965165675310187e-17 -1.0965165675310187e-17 1 5
1 6.2831853071795862 -6.2831853071795862 0 1 
1 0 -6.2831853071795862 0 1 
2 0 -0 1 1.4871505947139442e-16 1.4871505947139442e-16 -1 5.0000000000000009
1 0 1.5707963267948966 1 0 
1 0 -0 1 6.23643797783267e-17 
1 4.8794987255130337e-16 -8 1 6.23643797783267e-17 
1 5.0713891248309618e-16 8 -3.8720741290939101e-17 -1 
1 0 -0 1.0416907391544678e-16 -1 
1 7.9999999999999991 4.0022854714882187e-16 6.0993734068912921e-17 -1 
1 0 -0 1 5.0028568393602733e-17 
1 4.386066270124075e-16 -7.9999999999999991 1 5.0028568393602733e-17 
1 0 0 1 6.6476316906568014e-17 
Curves 6
2 5 5 4 0.11111111111111104 -0.88888888888888895 0.44444444444444442 2.3320605014991139e-18 -0.44721359549995793 -0.89442719099991597 0.99380798999990649 0.099380798999990583 -0.049690399499995284 5
2 5 5 4 0.44444444444444442 0.44444444444444442 0.7777777777777779 0.11111111111111109 -0.88888888888888895 0.44444444444444442 0.88888888888888895 -0.11111111111111112 -0.44444444444444442 5
2 5 5 4 -0.88888888888888895 0.11111111111111129 0.44444444444444425 0.11111111111111087 -0.88888888888888906 0.44444444444444453 0.44444444444444442 0.44444444444444436 0.7777777777777779 5
1 12.111111111111111 4.1111111111111107 0.44444444444444464 -0.88888888888888895 0.11111111111111117 0.44444444444444448 
1 5 5 4 0.44444444444444442 0.44444444444444442 0.77777777777777779 
1 5 5 4 0.11111111111111116 -0.88888888888888884 0.44444444444444442 
Polygon3D 0
PolygonOnTriangulations 0
Surfaces 4
4 5 5 4 0.44444444444444442 0.44444444444444442 0.77777777777777779 0.11111111111111109 -0.88888888888888895 0.44444444444444442 0.88888888888888895 -0.11111111111111112 -0.44444444444444442 5
1 12.111111111111111 4.1111111111111107 0.44444444444444464 0.11111111111111105 -0.88888888888888895 0.44444444444444448 -0.88888888888888884 0.11111111111111117 0.44444444444444442 -0.44444444444444453 -0.44444444444444448 -0.77777777777777779 
1 5 5 4 0.44444444444444442 0.44444444444444442 0.77777777777777779 0.11111111111111109 -0.88888888888888895 0.44444444444444442 0.88888888888888895 -0.11111111111111112 -0.44444444444444442 
1 5 5 4 0.88888888888888895 -0.11111111111111106 -0.44444444444444448 0.11111111111111117 -0.88888888888888884 0.44444444444444448 -0.44444444444444442 -0.44444444444444453 -0.77777777777777779 
Triangulations 0

TShapes 21
Ve
1.00000002186886e-07
9.44444444444444 4.44444444444444 1.77777777777778
0 0

0101101
*
Ve
1.00000003984429e-07
7.22222222222222 7.22222222222222 7.88888888888889
0 0

0101101
*
Ed
 1e-07 1 1 0
1  1 0 1.10714871779409 2.67794504458899
2  1 1 0 1.10714871779409 2.67794504458899
2  2 2 0 1.10714871779409 2.67794504458899
0

0101000
+21 0 -20 0 *
Ve
1.00000008094736e-07
5.55555555555555 0.555555555555552 6.22222222222222
0 0

0101101
*
Ed
 1e-07 1 1 0
1  2 0 0 1.5707963267949
2  3 1 0 0 1.5707963267949
2  4 3 0 0 1.5707963267949
0

0101000
+18 0 -21 0 *
Ed
 1.00000001998401e-07 1 1 0
1  3 0 6.28318530717958 7.85398163397448
3  5 6CN 1 0 6.28318530717958 7.85398163397448
2  7 4 0 6.28318530717958 7.85398163397448
0

0101000
+18 0 -20 0 *
Ed
 1e-07 1 1 1
2  8 1 0 0 1.5707963267949
0

0101000
+20 0 -20 0 *
Wi

0101100
+19 0 +17 0 -16 0 -15 0 *
Fa
0  1e-07 1 0

0101000
+14 0 *
Ve
1e-07
5 5 4
0 0

0101101
*
Ed
 1e-07 1 1 0
1  4 0 3 8
2  9 2 0 3 8
2  10 2 2 3 8
2  11 3 0 3 8
0

0101000
+21 0 -12 0 *
Ed
 1e-07 1 1 0
1  5 0 0 5
2  12 4 0 0 5
2  13 2 0 0 5
0

0101000
+12 0 -20 0 *
Wi

0101100
-11 0 -10 0 +19 0 *
Fa
0  1e-07 2 0

0101000
+9 0 *
Ed
 1e-07 1 1 0
1  6 0 0 5
2  14 4 0 0 5
2  15 4 2 0 5
2  16 3 0 0 5
0

0101000
+12 0 -18 0 *
Wi

0101100
+11 0 +17 0 +7 0 *
Fa
0  1e-07 3 0

0101000
+6 0 *
Wi

0101100
-7 0 -16 0 +10 0 *
Fa
0  1e-07 4 0

0101000
+4 0 *
Sh

0101100
+13 0 -8 0 -5 0 -3 0 *
So

0100000
+2 0 *

+1 0 