DBRep_DrawableShape

CASCADE Topology V1, (c) Matra-Datavision
Locations 2
1
              1               0               0 3.55555555555556 
              0               1               0 0.888888888888889 
              0               0               1 7.11111111111111 
2  1 -1 0
Curve2ds 16
1 1.5707963267948966 -6.1588303126328245 0 1 
2 7.9999999999999982 2.2889783347210021e-16 -0.99227787671366763 -0.1240347345892085 0.1240347345892085 -0.99227787671366763 5
1 4.3561149826370817e-17 0 1 0 
2 0 0 1 4.1290701996089925e-17 -4.1290701996089925e-17 1 5
1 6.2831853071795862 -6.2831853071795862 0 1 
1 0 -6.2831853071795862 0 1 
2 0 -0 1 -7.0588254034809329e-17 -7.0588254034809329e-17 -1 5
1 0 1.5707963267948966 1 0 
1 0 -0 1 1.9360370645469554e-17 
1 3.0154205607103018e-16 -8 1 1.9360370645469554e-17 
1 3.1182189889163348e-16 8 -4.0519713784544674e-17 -1 
1 0 -0 -8.3609388274240161e-17 -1 
1 7.9999999999999982 1.6721877654848037e-16 3.6150780585788277e-17 -1 
1 0 -0 1 -2.1245008495913485e-17 
1 -6.1953186065502562e-16 -8.0000000000000018 1 -2.1245008495913485e-17 
1 0 0 1 -5.6624800870156517e-17 
Curves 6
2 5.0000000000000009 5 3.9999999999999996 -0.7777777777777779 -0.44444444444444448 0.44444444444444442 0.49613893835683381 -0.86824314212445919 2.1033322592913972e-17 0.38588584094420408 0.22050619482525952 0.89580641647761672 5
2 5 5 4 0.44444444444444448 0.11111111111111113 0.88888888888888884 -0.77777777777777768 -0.44444444444444453 0.44444444444444448 0.44444444444444453 -0.88888888888888884 -0.11111111111111117 5
2 5 5 4 -0.44444444444444425 0.88888888888888895 0.11111111111111104 -0.7777777777777779 -0.44444444444444431 0.44444444444444453 0.44444444444444453 0.11111111111111113 0.88888888888888895 5
1 8.5555555555555554 -2.1111111111111107 3.1111111111111112 -0.44444444444444448 0.88888888888888895 0.11111111111111112 
1 5 5 4 0.44444444444444448 0.11111111111111112 0.88888888888888895 
1 5 5 4 -0.77777777777777779 -0.44444444444444448 0.44444444444444442 
Polygon3D 0
PolygonOnTriangulations 0
Surfaces 4
4 5 5 4 0.44444444444444448 0.11111111111111112 0.88888888888888895 -0.77777777777777779 -0.44444444444444453 0.44444444444444453 0.44444444444444453 -0.88888888888888895 -0.11111111111111116 5
1 8.5555555555555554 -2.1111111111111107 3.1111111111111112 -0.7777777777777779 -0.44444444444444448 0.44444444444444448 -0.44444444444444431 0.88888888888888884 0.11111111111111109 -0.44444444444444442 -0.11111111111111106 -0.88888888888888895 
1 5 5 4 0.44444444444444448 0.11111111111111112 0.88888888888888895 -0.77777777777777779 -0.44444444444444453 0.44444444444444453 0.44444444444444453 -0.88888888888888895 -0.11111111111111116 
1 5 5 4 0.44444444444444448 -0.88888888888888895 -0.11111111111111112 -0.7777777777777779 -0.44444444444444448 0.44444444444444442 -0.44444444444444448 -0.11111111111111108 -0.88888888888888906 
Triangulations 0

TShapes 21
Ve
1.00000005121487e-07
7.22222222222222 0.555555555555558 3.44444444444444
0 0

0101101
*
Ve
1.00000003202373e-07
7.22222222222222 5.55555555555556 8.44444444444444
0 0

0101101
*
Ed
 1e-07 1 1 0
1  1 0 6.15883031263282 7.72962663942772
2  1 1 0 6.15883031263282 7.72962663942772
2  2 2 0 6.15883031263282 7.72962663942772
0

0101000
+21 0 -20 0 *
Ve
1.00000033268181e-07
1.11111111111113 2.77777777777778 6.22222222222225
0 0

0101101
*
Ed
 1e-07 1 1 0
1  2 0 0 1.5707963267949
2  3 1 0 0 1.5707963267949
2  4 3 0 0 1.5707963267949
0

0101000
+18 0 -21 0 *
Ed
 1.00000000993014e-07 1 1 0
1  3 0 6.28318530717959 7.85398163397448
3  5 6CN 1 0 6.28318530717959 7.85398163397448
2  7 4 0 6.28318530717959 7.85398163397448
0

0101000
+18 0 -20 0 *
Ed
 1e-07 1 1 1
2  8 1 0 0 1.5707963267949
0

0101000
+20 0 -20 0 *
Wi

0101100
+19 0 +17 0 -16 0 -15 0 *
Fa
0  1e-07 1 0

0101000
+14 0 *
Ve
1e-07
5 5 4
0 0

0101101
*
Ed
 1e-07 1 1 0
1  4 0 3 8
2  9 2 0 3 8
2  10 2 2 3 8
2  11 3 0 3 8
0

0101000
+21 0 -12 0 *
Ed
 1e-07 1 1 0
1  5 0 0 5
2  12 4 0 0 5
2  13 2 0 0 5
0

0101000
+12 0 -20 0 *
Wi

0101100
-11 0 -10 0 +19 0 *
Fa
0  1e-07 2 0

0101000
+9 0 *
Ed
 1e-07 1 1 0
1  6 0 0 5
2  14 4 0 0 5
2  15 4 2 0 5
2  16 3 0 0 5
0

0101000
+12 0 -18 0 *
Wi

0101100
+11 0 +17 0 +7 0 *
Fa
0  1e-07 3 0

0101000
+6 0 *
Wi

0101100
-7 0 -16 0 +10 0 *
Fa
0  1e-07 4 0

0101000
+4 0 *
Sh

0101100
+13 0 -8 0 -5 0 -3 0 *
So

0100000
+2 0 *

+1 0 