DBRep_DrawableShape

CASCADE Topology V1, (c) Matra-Datavision
Locations 2
1
              1               0               0 6.22222222222222 
              0               1               0 3.11111111111111 
              0               0               1 0.777777777777778 
2  1 -1 0
Curve2ds 16
1 1.5707963267948968 -5.8195376981787801 0 1 
2 7.9999999999999982 1.0000000000000004 -0.89442719099991586 -0.44721359549995809 0.44721359549995809 -0.89442719099991586 5
1 0 0.20135792079033105 1 0 
2 -8.8817841970012543e-16 0 1 -1.384352166507911e-16 1.384352166507911e-16 1 4.8989794855663558
1 6.2831853071795862 -6.2831853071795862 0 1 
1 0 -6.2831853071795862 0 1 
2 -3.3854949022520208e-16 1.0000000000000004 1 -1.6276417799288565e-17 -1.6276417799288565e-17 -1 5
1 0 1.5707963267948966 1 0 
1 0 -0 1 2.0388354927529882e-17 
1 3.0291270178044401e-16 -6.9999999999999991 1 2.0388354927529882e-17 
1 -6.140492778173705e-16 7.9999999999999982 7.0588254034809353e-17 -1 
1 0 -0 -4.8486591970512225e-17 -1 
1 7.9999999999999991 5.8252442650085362e-17 1.2764138168915767e-16 -1 
1 0 -0 1 -2.3986299914741062e-18 
1 -3.3169626167813318e-16 -7 1 -2.3986299914741062e-18 
1 0 0 1 -2.7412914188275462e-17 
Curves 6
2 5 5 4 -0.11111111111111109 0.44444444444444448 -0.88888888888888895 2.2938687677723729e-18 0.89442719099991597 0.44721359549995798 0.99380798999990649 0.049690399499995312 -0.099380798999990624 5
2 5.8888888888888902 5.4444444444444446 4.1111111111111116 0.88888888888888895 0.44444444444444448 0.11111111111111112 -0.11111111111111108 0.44444444444444436 -0.88888888888888895 -0.44444444444444448 0.7777777777777779 0.44444444444444436 4.8989794855663558
2 5 5 4 0.44444444444444442 -0.77777777777777779 -0.4444444444444442 -0.11111111111111102 0.44444444444444431 -0.88888888888888906 0.88888888888888895 0.44444444444444448 0.11111111111111112 5
1 2.333333333333333 11.666666666666666 7.6666666666666661 0.44444444444444459 -0.77777777777777779 -0.44444444444444448 
1 5.8888888888888893 5.4444444444444446 4.1111111111111107 0.88888888888888884 0.44444444444444442 0.1111111111111111 
1 5.8888888888888893 5.4444444444444446 4.1111111111111107 -0.11111111111111117 0.44444444444444448 -0.88888888888888895 
Polygon3D 0
PolygonOnTriangulations 0
Surfaces 4
4 5 5 4 0.88888888888888895 0.44444444444444448 0.11111111111111112 -0.11111111111111112 0.44444444444444448 -0.88888888888888906 -0.44444444444444442 0.77777777777777768 0.44444444444444442 5
1 2.333333333333333 11.666666666666666 7.6666666666666661 -0.1111111111111111 0.44444444444444448 -0.88888888888888895 0.44444444444444453 -0.77777777777777768 -0.44444444444444436 -0.88888888888888884 -0.44444444444444453 -0.11111111111111117 
1 5.8888888888888893 5.4444444444444446 4.1111111111111107 0.88888888888888895 0.44444444444444448 0.11111111111111112 -0.11111111111111112 0.44444444444444448 -0.88888888888888906 -0.44444444444444442 0.77777777777777768 0.44444444444444442 
1 5.8888888888888893 5.4444444444444446 4.1111111111111107 -0.44444444444444442 0.77777777777777779 0.44444444444444448 -0.11111111111111117 0.44444444444444448 -0.88888888888888895 -0.88888888888888895 -0.44444444444444448 -0.11111111111111106 
Triangulations 0

TShapes 21
Ve
1.00000001776357e-07
3.71156467308162 9.25476182210717 6.28843532691838
0 0

0101101
*
Ve
1.00000003350839e-07
9.44444444444444 7.22222222222222 4.55555555555556
0 0

0101101
*
Ed
 1e-07 1 1 0
1  1 0 6.02089561896911 7.39033402497368
2  1 1 0 6.02089561896911 7.39033402497368
2  2 2 0 6.02089561896911 7.39033402497368
0

0101000
+21 0 -20 0 *
Ve
1.00000025798356e-07
5.3445578349371 7.62176866025172 -0.243537320503416
0 0

0101101
*
Ed
 1e-07 1 1 0
1  2 0 0 1.5707963267949
2  3 1 0 0 1.5707963267949
2  4 3 0 0 1.5707963267949
0

0101000
+18 0 -21 0 *
Ed
 1.00000002094765e-07 1 1 0
1  3 0 6.48454322796992 7.85398163397448
3  5 6CN 1 0 6.48454322796992 7.85398163397448
2  7 4 0 6.48454322796992 7.85398163397448
0

0101000
+18 0 -20 0 *
Ed
 1e-07 1 1 1
2  8 1 0 0 1.5707963267949
0

0101000
+20 0 -20 0 *
Wi

0101100
+19 0 +17 0 -16 0 -15 0 *
Fa
0  1e-07 1 0

0101000
+14 0 *
Ve
1e-07
5.88888888888889 5.44444444444444 4.11111111111111
0 0

0101101
*
Ed
 1e-07 1 1 0
1  4 0 3.10102051443364 8
2  9 2 0 3.10102051443364 8
2  10 2 2 3.10102051443364 8
2  11 3 0 3.10102051443364 8
0

0101000
+21 0 -12 0 *
Ed
 1e-07 1 1 0
1  5 0 0 4
2  12 4 0 0 4
2  13 2 0 0 4
0

0101000
+12 0 -20 0 *
Wi

0101100
-11 0 -10 0 +19 0 *
Fa
0  1e-07 2 0

0101000
+9 0 *
Ed
 1e-07 1 1 0
1  6 0 0 4.89897948556635
2  14 4 0 0 4.89897948556635
2  15 4 2 0 4.89897948556635
2  16 3 0 0 4.89897948556635
0

0101000
+12 0 -18 0 *
Wi

0101100
+11 0 +17 0 +7 0 *
Fa
0  1e-07 3 0

0101000
+6 0 *
Wi

0101100
-7 0 -16 0 +10 0 *
Fa
0  1e-07 4 0

0101000
+4 0 *
Sh

0101100
+13 0 -8 0 -5 0 -3 0 *
So

0100000
+2 0 *

+1 0 