DBRep_DrawableShape

CASCADE Topology V1, (c) Matra-Datavision
Locations 0
Curve2ds 5
1 0 5.3851648071345037 1 0 
1 6.2831853071795862 -0 0 1 
1 0 -0 0 1 
1 0 0 1 0 
2 0 0 1 0 -0 1 2
Curves 2
1 2 -4.8985871965894128e-16 0 -0.37139067635410372 9.0964480606044742e-17 0.9284766908852593 
2 0 0 0 0 0 1 1 0 -0 -0 1 0 2
Polygon3D 0
PolygonOnTriangulations 0
Surfaces 2
3 0 0 0 0 0 1 1 0 -0 -0 1 0 2
-0.3805063771123649
1 0 0 0 0 0 1 1 0 -0 -0 1 0 
Triangulations 0

TShapes 11
Ve
1e-07
-1.64624678528216e-16 4.03214171240484e-32 5
0 0

0101101
*
Ed
 1e-07 1 1 1
2  1 1 0 0 6.28318530717959
0

0101000
+11 0 -11 0 *
Ve
1e-07
2 -4.89858719658941e-16 0
0 0

0101101
*
Ed
 1e-07 1 1 0
1  1 0 0 5.3851648071345
3  2 3CN 1 0 0 5.3851648071345
0

0101000
-11 0 +9 0 *
Ed
 1e-07 1 1 0
1  2 0 0 6.28318530717959
2  4 1 0 0 6.28318530717959
2  5 2 0 0 6.28318530717959
0

0101000
+9 0 -9 0 *
Wi

0101100
-10 0 +8 0 +7 0 -8 0 *
Fa
0  1e-07 1 0

0111000
+6 0 *
Wi

0101100
-7 0 *
Fa
0  1e-07 2 0

0111000
-4 0 *
Sh

0101100
+5 0 -3 0 *
So

1100000
+2 0 *

+1 0 