DBRep_DrawableShape

CASCADE Topology V1, (c) Matra-Datavision
Locations 0
Curve2ds 24
1 -8 -4 1 0 
1 1.0539613995091492 -8.0000000000000142 0 1 
1 8 -4 0 1 
1 -0.99971712517494082 4 0 -1 
1 8 4 -1 0 
1 -1.0539613995091541 7.9999999999999858 0 -1 
1 -8 4 0 -1 
1 0.99971712517491929 -3.9999999999999929 -0 1 
1 1.0539613995091492 7.9999999999999858 -0.9128709291752769 -0.40824829046386296 
8 0 2.4494897427831779
1 -0.99971712517494082 4 0.9128709291752769 -0.40824829046386302 
1 -7 -3 1 0 
8 0 14
1 -1.1821065779906406 -7.0000000000000142 0 1 
1 -1.1821065779906406 -7.0000000000000142 0.9128709291752769 -0.40824829046386296 
8 0 2.4494897427831779
1 -1.2363508523248705 3.0000000000000071 0.9128709291752769 0.40824829046386302 
1 7 -3 0 1 
8 0 6
1 1.236350852324849 3 -0 -1 
1 7 3 -1 0 
8 0 14
1 1.1821065779906359 6.9999999999999858 -0 -1 
1 -7 3 0 -1 
8 0 6
1 -1.2363508523248705 -2.9999999999999929 -0 1 
1 -0.99971712517494082 -4 0.9128709291752769 0.40824829046386302 
8 0 2.4494897427831779
1 -1.0539613995091539 7.9999999999999858 0.9128709291752769 -0.40824829046386296 
1 -1.0539613995091541 -8.0000000000000142 0.9128709291752769 0.40824829046386296 
8 0 2.4494897427831779
1 0.99971712517491929 -3.9999999999999929 -0.9128709291752769 0.40824829046386302 
Curves 12
1 100 -40 6 1 0 0 
1 116 -40 6 0 1 0 
1 116 -32 6 -1 0 0 
1 100 -32 6 0 -1 0 
1 116 -40 6 -0.40824829046386307 0.40824829046386307 0.81649658092772615 
1 101 -39 8 1 0 0 
1 101 -39 8 -0.40824829046386307 -0.40824829046386307 -0.81649658092772615 
1 115 -39 8 0 1 0 
1 115 -33 8 -1 0 0 
1 101 -33 8 0 -1 0 
1 116 -32 6 -0.40824829046386307 -0.40824829046386307 0.81649658092772615 
1 100 -32 6 0.40824829046386307 -0.40824829046386307 0.81649658092772615 
Polygon3D 0
PolygonOnTriangulations 0
Surfaces 6
1 108 -36 6 0 0 1 1 0 -0 -0 1 0 
1 108.00000000000001 -39.528654133007358 6.9426917339853125 -0 -0.89442719099991597 0.44721359549995798 0 -0.44721359549995798 -0.89442719099991597 1 0 0 
1 115.55291290996762 -36 6.8941741800647245 0.89442719099991597 0 0.44721359549995782 -0.44721359549995782 0 0.89442719099991597 0 -1 0 
1 108.00000000000001 -32.471345866992657 6.9426917339853125 0 0.89442719099991597 0.44721359549995798 0 -0.44721359549995798 0.89442719099991597 1 0 -0 
1 100.44708709003234 -35.999999999999993 6.8941741800647245 -0.89442719099991597 -0 0.44721359549995782 -0.44721359549995782 0 -0.89442719099991597 0 -1 -0 
1 108 -36 8 0 0 1 1 0 -0 -0 1 0 
Triangulations 0

TShapes 34
Ve
1e-07
100 -40 6
0 0

0101101
*
Ve
1e-07
116 -40 6
0 0

0101101
*
Ed
 1e-07 1 1 0
1  1 0 0 16
2  1 1 0 0 16
2  2 2 0 0 16
4 C0 1 0 2 0
0

0101000
+34 0 -33 0 *
Ve
1e-07
116 -32 6
0 0

0101101
*
Ed
 1e-07 1 1 0
1  2 0 0 8
2  3 1 0 0 8
2  4 3 0 0 8
4 C0 1 0 3 0
0

0101000
+33 0 -31 0 *
Ve
1e-07
100 -32 6
0 0

0101101
*
Ed
 1e-07 1 1 0
1  3 0 0 16
2  5 1 0 0 16
2  6 4 0 0 16
4 C0 1 0 4 0
0

0101000
+31 0 -29 0 *
Ed
 1e-07 1 1 0
1  4 0 0 8
2  7 1 0 0 8
2  8 5 0 0 8
4 C0 1 0 5 0
0

0101000
+29 0 -34 0 *
Wi

0101100
+32 0 +30 0 +28 0 +27 0 *
Fa
0  1e-07 1 0

0101000
+26 0 *
Ve
1e-07
115 -39 8
0 0

0101101
*
Ed
 1e-07 1 1 0
1  5 0 0 2.44948974278318
2  9 2 0 0 2.44948974278318
2  10 3 0 0 2.44948974278318
4 C0 2 0 3 0
0

0101000
+33 0 -24 0 *
Ve
1e-07
101 -39 8
0 0

0101101
*
Ed
 1e-07 1 1 0
1  6 0 0 14
2  11 6 0 0 14
2  12 2 0 0 14
4 C0 2 0 6 0
0

0101000
+22 0 -24 0 *
Ed
 1e-07 1 1 0
1  7 0 0 2.44948974278318
2  13 2 0 0 2.44948974278318
2  14 5 0 0 2.44948974278318
4 C0 2 0 5 0
0

0101000
+22 0 -34 0 *
Wi

0101100
+32 0 +23 0 -21 0 +20 0 *
Fa
0  1e-07 2 0

0101000
+19 0 *
Ve
1e-07
115 -33 8
0 0

0101101
*
Ed
 1e-07 1 1 0
1  8 0 0 6
2  15 6 0 0 6
2  16 3 0 0 6
4 C0 6 0 3 0
0

0101000
+24 0 -17 0 *
Ve
1e-07
101 -33 8
0 0

0101101
*
Ed
 1e-07 1 1 0
1  9 0 0 14
2  17 6 0 0 14
2  18 4 0 0 14
4 C0 6 0 4 0
0

0101000
+17 0 -15 0 *
Ed
 1e-07 1 1 0
1  10 0 0 6
2  19 6 0 0 6
2  20 5 0 0 6
4 C0 6 0 5 0
0

0101000
+15 0 -22 0 *
Wi

0101100
+21 0 +16 0 +14 0 +13 0 *
Fa
0  1e-07 6 0

0101000
+12 0 *
Ed
 1e-07 1 1 0
1  11 0 0 2.44948974278318
2  21 3 0 0 2.44948974278318
2  22 4 0 0 2.44948974278318
4 C0 3 0 4 0
0

0101000
+31 0 -17 0 *
Wi

0101100
+30 0 +10 0 -16 0 -23 0 *
Fa
0  1e-07 3 0

0101000
+9 0 *
Ed
 1e-07 1 1 0
1  12 0 0 2.44948974278318
2  23 4 0 0 2.44948974278318
2  24 5 0 0 2.44948974278318
4 C0 4 0 5 0
0

0101000
+29 0 -15 0 *
Wi

0101100
+28 0 +7 0 -14 0 -10 0 *
Fa
0  1e-07 4 0

0101000
+6 0 *
Wi

0101100
+27 0 -20 0 -13 0 -7 0 *
Fa
0  1e-07 5 0

0101000
+4 0 *
Sh

0101100
+25 0 -18 0 -11 0 -8 0 -5 0 -3 0 *
So

1100000
+2 0 *

-1 0 