DBRep_DrawableShape

CASCADE Topology V1, (c) Matra-Datavision
Locations 0
Curve2ds 12
1 1.8394127460022318 -3.7837609518405335 0.24284649810496839 0.97006472895274032 
8 0 7.2801098892805189
1 1.8439358533869341 3.5935921238690378 0.09042369158927141 -0.99590338688015745 
1 3.6073619384333551 3.2784168746505378 -0.94323016315928288 -0.33213981891142264 
8 0 9.2195444572928889
1 -2.6526665803398592 -4.2584941491468697 0.1339712312965391 0.99098522147653101 
1 -5.0887904842732787 0.21623904815946737 0.86602540378443871 -0.50000000000000011 
8 0 8.0000000000000018
1 -4.2344355629253645 2.0653242934402907 1 9.2138983149380387e-18 
1 -4.2344355629253645 2.0653242934402907 0.62017367294604253 -0.78446454055273607 
8 0 8.0622577482985509
1 -1.4175128574031488 4.8779381567762492 0.71940295999367754 -0.69459296077079236 
1 0.76556443707463695 -4.259231026896467 0.42857142857142866 0.90350790290525129 
8 0 7
1 -4.3196628146422 0.27545236498764103 0.8805140954327334 0.47401996555448522 
1 -2.6526665803398597 -4.2584941491468715 0.89346695150181854 0.44912894203563286 
8 0 7.8740078740118111
1 2.5022302647512404 -3.6566939717251596 -0.86638128746468757 0.49938308414585958 
Curves 6
1 2 1 -0.5 -0.24284649810496839 0.97006472895274032 0 
1 0.23205080756887664 8.0621778264910713 -0.5 0.94323016315928288 -0.33213981891142264 0 
1 8.9282032302755105 5.0000000000000009 -0.5 -0.8660254037844386 -0.5 0 
1 8.9282032302755105 5.0000000000000009 -0.5 -0.66112089011878317 -0.095252374261191333 0.74420840753525064 
1 3.598076211353316 4.2320508075688776 5.5 -0.2282966016219023 -0.46172154393841108 -0.8571428571428571 
1 0.23205080756887664 8.0621778264910713 -0.5 0.42748565376649128 -0.48642661782997965 0.76200076200114297 
Polygon3D 0
PolygonOnTriangulations 0
Surfaces 4
1 3.8394127460022318 4.7837609518405335 -0.5 -0 -0 -1 -1 0 0 0 1 -0 
1 1.9317979586692069 4.5003565762822459 1.5141638723240292 -0.90401340603047509 -0.22631117629794911 0.36268858983957292 -0.37234916828072406 -1.828040720354693e-18 -0.92809271998041931 0.21003775517233181 -0.97405505567326056 -0.084266778267173659 
1 4.2853303561052929 5.7971370129396664 1.400507147877351 0.3066866902265023 0.87094687354625899 0.38392032701839357 5.332987013765613e-18 -0.40335793442540385 0.91504228139254407 0.95181052423153722 -0.28063128869758713 -0.12370450988552567 
1 4.934518018386421 3.4483945705776522 1.4593386622447821 0.47434164902525688 -0.82158383625774933 0.31622776601683794 -0.86602540378443871 -0.5 -1.9295971198540244e-18 0.15811388300841894 -0.27386127875258304 -0.94868329805051377 
Triangulations 0

TShapes 20
Ve
1e-07
2 1 -0.5
0 0

0101101
*
Ve
1e-07
0.232050807568877 8.06217782649107 -0.5
0 0

0101101
*
Ed
 1e-07 1 1 0
1  1 0 0 7.28010988928052
2  1 1 0 0 7.28010988928052
2  2 2 0 0 7.28010988928052
4 C0 1 0 2 0
0

0101000
+20 0 -19 0 *
Ve
1e-07
8.92820323027551 5 -0.5
0 0

0101101
*
Ed
 1e-07 1 1 0
1  2 0 0 9.21954445729289
2  3 1 0 0 9.21954445729289
2  4 3 0 0 9.21954445729289
4 C0 1 0 3 0
0

0101000
+19 0 -17 0 *
Ed
 1e-07 1 1 0
1  3 0 0 8
2  5 1 0 0 8
2  6 4 0 0 8
4 C0 1 0 4 0
0

0101000
+17 0 -20 0 *
Wi

0101100
+18 0 +16 0 +15 0 *
Fa
0  1e-07 1 0

0101000
+14 0 *
Ve
1e-07
3.59807621135332 4.23205080756888 5.5
0 0

0101101
*
Ed
 1e-07 1 1 0
1  4 0 0 8.06225774829855
2  7 4 0 0 8.06225774829855
2  8 3 0 0 8.06225774829855
4 C0 4 0 3 0
0

0101000
+17 0 -12 0 *
Ed
 1e-07 1 1 0
1  5 0 0 7
2  9 4 0 0 7
2  10 2 0 0 7
4 C0 4 0 2 0
0

0101000
+12 0 -20 0 *
Wi

0101100
-15 0 +11 0 +10 0 *
Fa
0  1e-07 4 0

0101000
+9 0 *
Ed
 1e-07 1 1 0
1  6 0 0 7.87400787401181
2  11 3 0 0 7.87400787401181
2  12 2 0 0 7.87400787401181
4 C0 3 0 2 0
0

0101000
+19 0 -12 0 *
Wi

0101100
-16 0 +7 0 -11 0 *
Fa
0  1e-07 3 0

0101000
+6 0 *
Wi

0101100
-18 0 -10 0 -7 0 *
Fa
0  1e-07 2 0

0101000
+4 0 *
Sh

0101100
+13 0 +8 0 +5 0 +3 0 *
So

1100000
+2 0 *

+1 0 