DBRep_DrawableShape

CASCADE Topology V1, (c) Matra-Datavision
Locations 2
1
              1               0               0 3.55555555555556 
              0               1               0 3.55555555555556 
              0               0               1 6.22222222222222 
2  1 -1 0
Curve2ds 16
1 1.5707963267948966 -1.1071487177940906 0 1 
2 7.9999999999999991 2.0000000000000013 -0.44721359549995798 0.89442719099991597 -0.89442719099991597 -0.44721359549995798 5
1 0 0.41151684606748806 1 0 
2 -1.9737298215558337e-16 1.9737298215558337e-16 1 1.0965165675310187e-17 -1.0965165675310187e-17 1 4.5825756949558398
1 6.2831853071795862 -6.2831853071795862 0 1 
1 0 -6.2831853071795862 0 1 
2 4.454598555594764e-16 2 1 3.7692757008878766e-17 3.7692757008878766e-17 -1 5.0000000000000009
1 0 1.5707963267948966 1 0 
1 0 -0 1 6.23643797783267e-17 
1 8.8269583686247011e-16 -8.0000000000000018 1 6.23643797783267e-17 
1 5.0713891248309618e-16 8 -3.8720741290939101e-17 -1 
1 0 -0 -5.6196474085964717e-17 -1 
1 7.9999999999999991 4.0022854714882187e-16 6.0993734068912921e-17 -1 
1 0 -0 1 -6.0993734068912908e-17 
1 -5.4825828376551184e-18 -8 1 -6.0993734068912908e-17 
1 0 0 1 3.8720741290939101e-17 
Curves 6
2 3 4 0.99999999999999978 0.11111111111111104 -0.88888888888888895 0.44444444444444442 2.3320605014991139e-18 -0.44721359549995793 -0.89442719099991597 0.99380798999990649 0.099380798999990583 -0.049690399499995284 5
2 3.8888888888888888 4.8888888888888893 2.5555555555555554 0.44444444444444442 0.44444444444444442 0.7777777777777779 0.11111111111111109 -0.88888888888888895 0.44444444444444442 0.88888888888888895 -0.11111111111111112 -0.44444444444444442 4.5825756949558398
2 3 4 1 -0.88888888888888895 0.11111111111111129 0.44444444444444425 0.11111111111111087 -0.88888888888888906 0.44444444444444453 0.44444444444444442 0.44444444444444436 0.7777777777777779 5
1 11 4 -0.99999999999999956 -0.88888888888888895 0.11111111111111117 0.44444444444444448 
1 3.8888888888888888 4.8888888888888893 2.5555555555555558 0.44444444444444442 0.44444444444444442 0.77777777777777779 
1 3.8888888888888888 4.8888888888888893 2.5555555555555558 0.11111111111111112 -0.88888888888888895 0.44444444444444442 
Polygon3D 0
PolygonOnTriangulations 0
Surfaces 4
4 3 4 1 0.44444444444444442 0.44444444444444442 0.77777777777777779 0.11111111111111109 -0.88888888888888895 0.44444444444444442 0.88888888888888895 -0.11111111111111112 -0.44444444444444442 5
1 11 4 -0.99999999999999956 0.11111111111111105 -0.88888888888888895 0.44444444444444448 -0.88888888888888884 0.11111111111111117 0.44444444444444442 -0.44444444444444453 -0.44444444444444448 -0.77777777777777779 
1 3.8888888888888888 4.8888888888888893 2.5555555555555558 0.44444444444444442 0.44444444444444442 0.77777777777777779 0.11111111111111109 -0.88888888888888895 0.44444444444444442 0.88888888888888895 -0.11111111111111112 -0.44444444444444442 
1 3.8888888888888888 4.8888888888888893 2.5555555555555558 0.88888888888888895 -0.11111111111111108 -0.44444444444444442 0.11111111111111112 -0.88888888888888906 0.44444444444444442 -0.44444444444444436 -0.44444444444444431 -0.77777777777777779 
Triangulations 0

TShapes 21
Ve
1.00000001998401e-07
7.96228950662741 4.37971381167157 0.518855246686294
0 0

0101101
*
Ve
1.00000004201829e-07
5.22222222222222 6.22222222222222 4.88888888888889
0 0

0101101
*
Ed
 1e-07 1 1 0
1  1 0 1.51866556386158 2.67794504458899
2  1 1 0 1.51866556386158 2.67794504458899
2  2 2 0 1.51866556386158 2.67794504458899
0

0101000
+21 0 -20 0 *
Ve
1.00000078013216e-07
4.39806396610618 0.815488271150293 4.5922558644248
0 0

0101101
*
Ed
 1e-07 1 1 0
1  2 0 0 1.5707963267949
2  3 1 0 0 1.5707963267949
2  4 3 0 0 1.5707963267949
0

0101000
+18 0 -21 0 *
Ed
 1.00000001256074e-07 1 1 0
1  3 0 6.69470215324706 7.85398163397448
3  5 6CN 1 0 6.69470215324706 7.85398163397448
2  7 4 0 6.69470215324706 7.85398163397448
0

0101000
+18 0 -20 0 *
Ed
 1e-07 1 1 1
2  8 1 0 0 1.5707963267949
0

0101000
+20 0 -20 0 *
Wi

0101100
+19 0 +17 0 -16 0 -15 0 *
Fa
0  1e-07 1 0

0101000
+14 0 *
Ve
1e-07
3.88888888888889 4.88888888888889 2.55555555555556
0 0

0101101
*
Ed
 1e-07 1 1 0
1  4 0 3.41742430504416 8
2  9 2 0 3.41742430504416 8
2  10 2 2 3.41742430504416 8
2  11 3 0 3.41742430504416 8
0

0101000
+21 0 -12 0 *
Ed
 1e-07 1 1 0
1  5 0 0 3
2  12 4 0 0 3
2  13 2 0 0 3
0

0101000
+12 0 -20 0 *
Wi

0101100
-11 0 -10 0 +19 0 *
Fa
0  1e-07 2 0

0101000
+9 0 *
Ed
 1e-07 1 1 0
1  6 0 0 4.58257569495589
2  14 4 0 0 4.58257569495589
2  15 4 2 0 4.58257569495589
2  16 3 0 0 4.58257569495589
0

0101000
+12 0 -18 0 *
Wi

0101100
+11 0 +17 0 +7 0 *
Fa
0  1e-07 3 0

0101000
+6 0 *
Wi

0101100
-7 0 -16 0 +10 0 *
Fa
0  1e-07 4 0

0101000
+4 0 *
Sh

0101100
+13 0 -8 0 -5 0 -3 0 *
So

0100000
+2 0 *

+1 0 