DBRep_DrawableShape

CASCADE Topology V1, (c) Matra-Datavision
Locations 0
Curve2ds 24
1 0 0 0 1 
1 0 0 0 -1 
1 0 6 0.89973541084243747 -0.43643578047198472 
1 0 0 0.99066490652829386 0.13631963531819938 
1 4.1231056256176597 0 0 1 
1 1.0000000000000004 0 0 -1 
1 0 0 1 0 
1 0 0 -0.14925269233005103 0.98879908668658822 
1 0 0 0 -1 
1 8.0000000000000018 0 0 -1 
1 0 -6 -0.92847669088525941 0.37139067635410372 
1 2.7937211830783126 -7.4963405706530919 0.58362862484713585 0.81202070679203819 
1 -5.0000000000000009 0 0 -1 
1 5.0000000000000018 0 0 -1 
1 0 0 -1 0 
1 7.384615384615385 3.0769230769230766 -0.86153846153846159 0.50769230769230778 
1 0 0 1 0 
1 0 0 0.92307692307692313 0.38461538461538464 
1 0 -6 1 0 
1 0 0 0.34921514788478913 -0.93704257133163649 
1 1.0000000000000004 0 1 0 
1 -0.6153846153846152 4.0769230769230766 0.92307692307692313 0.38461538461538464 
1 1.0000000000000004 -4 1 0 
1 4.5397969225022585 0.62469504755442395 0.34921514788478913 -0.93704257133163649 
Curves 12
1 2 2 1 0 0 1 
1 2 2 7 -0.13428793245291837 0.88965755250058431 -0.43643578047198467 
1 1.3846153846153848 6.0769230769230766 1 0 0 1 
1 2 2 1 -0.14925269233005106 0.98879908668658845 0 
1 9.384615384615385 5.0769230769230766 1 0 0 1 
1 9.384615384615385 5.0769230769230766 7 -0.79991837983960801 0.47138047383405474 -0.37139067635410372 
1 5.0769230769230775 7.6153846153846159 1 0 0 1 
1 9.384615384615385 5.0769230769230766 1 -0.86153846153846148 0.50769230769230766 0 
1 2 2 1 0.92307692307692313 0.38461538461538464 -0 
1 2 2 7 0.92307692307692313 0.38461538461538464 -0 
1 1.3846153846153848 6.0769230769230766 1 0.92307692307692313 0.38461538461538464 -0 
1 1.3846153846153848 6.0769230769230766 5 0.92307692307692313 0.38461538461538464 -0 
Polygon3D 0
PolygonOnTriangulations 0
Surfaces 6
1 2 2 1 0.98879908668658845 0.14925269233005106 -0 -0.14925269233005103 0.98879908668658822 0 0 0 1 
1 2 2 1 -0.38461538461538464 0.92307692307692313 0 0.92307692307692313 0.38461538461538464 0 0 0 -1 
1 2 2 7 -0.17200522903844537 0.41281254969226888 0.89442719099991586 -1.5688308701313999e-18 0.90795938450045166 -0.41905817746174695 -0.9850960365281306 -0.072080197794741285 -0.1561737618886061 
1 0.46153846153846145 5.6923076923076925 1 -0.38461538461538464 0.92307692307692313 0 0.92307692307692313 0.38461538461538464 0 0 0 -1 
1 2 2 1 0 0 1 1 0 -0 -0 1 0 
1 9.384615384615385 5.0769230769230766 1 0.50769230769230766 0.86153846153846148 0 0.86153846153846159 -0.50769230769230778 0 0 0 -1 
Triangulations 0

TShapes 34
Ve
1e-07
2 2 7
0 0

0101101
*
Ve
1e-07
2 2 1
0 0

0101101
*
Ed
 1e-07 1 1 0
1  1 0 0 6
2  1 1 0 0 6
2  2 2 0 0 6
0

0101000
-34 0 +33 0 *
Ve
1e-07
1.38461538461538 6.07692307692308 5
0 0

0101101
*
Ed
 1e-07 1 1 0
1  2 0 0 4.58257569495584
2  3 1 0 0 4.58257569495584
2  4 3 0 0 4.58257569495584
0

0101000
-31 0 +34 0 *
Ve
1e-07
1.38461538461538 6.07692307692308 1
0 0

0101101
*
Ed
 1e-07 1 1 0
1  3 0 0 4
2  5 1 0 0 4
2  6 4 0 0 4
0

0101000
-31 0 +29 0 *
Ed
 1e-07 1 1 0
1  4 0 0 4.12310562561766
2  7 1 0 0 4.12310562561766
2  8 5 0 0 4.12310562561766
0

0101000
-29 0 +33 0 *
Wi

0101100
-32 0 -30 0 +28 0 +27 0 *
Fa
0  1e-07 1 0

0111000
+26 0 *
Ve
1e-07
9.38461538461539 5.07692307692308 7
0 0

0101101
*
Ve
1e-07
9.38461538461539 5.07692307692308 1
0 0

0101101
*
Ed
 1e-07 1 1 0
1  5 0 0 6
2  9 6 0 0 6
2  10 2 0 0 6
0

0101000
-24 0 +23 0 *
Ve
1e-07
5.07692307692308 7.61538461538462 5
0 0

0101101
*
Ed
 1e-07 1 1 0
1  6 0 0 5.3851648071345
2  11 6 0 0 5.3851648071345
2  12 3 0 0 5.3851648071345
0

0101000
-21 0 +24 0 *
Ve
1e-07
5.07692307692308 7.61538461538462 1
0 0

0101101
*
Ed
 1e-07 1 1 0
1  7 0 0 4
2  13 6 0 0 4
2  14 4 0 0 4
0

0101000
-21 0 +19 0 *
Ed
 1e-07 1 1 0
1  8 0 0 5
2  15 6 0 0 5
2  16 5 0 0 5
0

0101000
-19 0 +23 0 *
Wi

0101100
-22 0 -20 0 +18 0 +17 0 *
Fa
0  1e-07 6 0

0111000
+16 0 *
Ed
 1e-07 1 1 0
1  9 0 0 8
2  17 2 0 0 8
2  18 5 0 0 8
0

0101000
-23 0 +33 0 *
Ed
 1e-07 1 1 0
1  10 0 0 8
2  19 2 0 0 8
2  20 3 0 0 8
0

0101000
-24 0 +34 0 *
Wi

0101100
-14 0 -22 0 +13 0 +32 0 *
Fa
0  1e-07 2 0

0111000
+12 0 *
Ed
 1e-07 1 1 0
1  11 0 0 4
2  21 4 0 0 4
2  22 5 0 0 4
0

0101000
-19 0 +29 0 *
Ed
 1e-07 1 1 0
1  12 0 0 4
2  23 4 0 0 4
2  24 3 0 0 4
0

0101000
-21 0 +31 0 *
Wi

0101100
-10 0 -18 0 +9 0 +28 0 *
Fa
0  1e-07 4 0

0111000
+8 0 *
Wi

0101100
-27 0 -10 0 +17 0 +14 0 *
Fa
0  1e-07 5 0

0111000
+6 0 *
Wi

0101100
-30 0 -9 0 +20 0 +13 0 *
Fa
0  1e-07 3 0

0111000
+4 0 *
Sh

0101100
-25 0 +15 0 -11 0 +7 0 -5 0 +3 0 *
So

1100000
+2 0 *

+1 0 