DBRep_DrawableShape

CASCADE Topology V1, (c) Matra-Datavision
Locations 2
1
              1               0               0 2.66666666666667 
              0               1               0 2.93333333333333 
              0               0               1 0.533333333333333 
2  1 -1 0
Curve2ds 17
1 0 0.5235987755982987 1 0 
2 -5.9211894646675022e-16 -1.1842378929335003e-16 1 2.0970879354030728e-17 -2.0970879354030728e-17 1 4.3301270189221936
1 1.5707963267948968 -1.4288992721907339 0 1 
2 8 -1.4999999999999996 -0.14142135623730956 0.98994949366116669 -0.98994949366116669 -0.14142135623730956 5
1 0 -0.30469265401539752 1 0 
2 -2.9605947323337511e-16 -5.9211894646675015e-17 1 2.0970879354030728e-17 -2.0970879354030728e-17 1 4.7696960070847281
1 6.2831853071795862 -6.2831853071795862 0 1 
1 0 -6.2831853071795862 0 1 
2 -4.1448326252672511e-16 -1.4999999999999998 1 1.8812112361704039e-17 1.8812112361704039e-17 -1 4.9999999999999991
1 0 -0 1 1.4926331775516e-17 
1 1.9934671197713922e-16 -4 1 1.4926331775516e-17 
1 -5.7238164825119185e-16 8.0000000000000018 7.1547706031398969e-17 -1 
1 0 -0 1 -6.4917207412109839e-17 
1 3.0407775063344566e-16 -4 1 -6.4917207412109839e-17 
1 0 0 1 7.2781287169871361e-17 
1 0 -0 -8.8201051400776308e-17 -1 
1 8 3.4145525912915929e-16 3.965963360188753e-17 -1 
Curves 7
2 6.6666666666666661 6.833333333333333 4.333333333333333 0.66666666666666663 0.73333333333333339 0.13333333333333333 -0.66666666666666674 0.66666666666666674 -0.33333333333333337 -0.33333333333333337 0.13333333333333333 0.93333333333333335 4.3301270189221936
2 5 5 4 -0.66666666666666674 0.66666666666666674 -0.33333333333333326 -0.70710678118654757 -0.70710678118654757 8.1936132246100813e-18 -0.23570226039551576 0.23570226039551576 0.94280904158206336 5
2 4 3.8999999999999999 3.7999999999999998 0.66666666666666663 0.73333333333333339 0.13333333333333333 -0.66666666666666674 0.66666666666666674 -0.33333333333333337 -0.33333333333333337 0.13333333333333333 0.93333333333333335 4.7696960070847281
2 5 5 4 0.33333333333333354 -0.1333333333333335 -0.93333333333333335 -0.66666666666666663 0.66666666666666663 -0.33333333333333359 0.66666666666666663 0.73333333333333339 0.13333333333333333 5
1 1.3333333333333335 4.9666666666666668 11.266666666666667 0.33333333333333331 -0.1333333333333333 -0.93333333333333346 
1 4 3.9000000000000004 3.7999999999999998 -0.66666666666666674 0.66666666666666663 -0.33333333333333331 
1 4 3.9000000000000004 3.7999999999999998 0.66666666666666674 0.73333333333333339 0.13333333333333336 
Polygon3D 0
PolygonOnTriangulations 0
Surfaces 4
4 5 5 4 0.66666666666666674 0.73333333333333339 0.13333333333333336 -0.66666666666666674 0.66666666666666674 -0.33333333333333337 -0.33333333333333337 0.13333333333333333 0.93333333333333335 5
1 4 3.9000000000000004 3.7999999999999998 0.66666666666666674 0.73333333333333339 0.13333333333333336 -0.66666666666666674 0.66666666666666674 -0.33333333333333337 -0.33333333333333337 0.13333333333333333 0.93333333333333335 
1 1.3333333333333335 4.9666666666666668 11.266666666666667 -0.66666666666666674 0.66666666666666674 -0.33333333333333326 0.33333333333333331 -0.13333333333333325 -0.93333333333333335 -0.66666666666666674 -0.73333333333333339 -0.13333333333333339 
1 4 3.9000000000000004 3.7999999999999998 -0.33333333333333337 0.1333333333333333 0.93333333333333346 -0.66666666666666685 0.66666666666666674 -0.33333333333333337 -0.66666666666666663 -0.7333333333333335 -0.13333333333333336 
Triangulations 0

TShapes 26
Ve
1.00000154892307e-07
3.77991532071868 9.72008467928146 2.88995766035932
0 0

0101101
*
Ve
1.00000001986027e-07
5.2232909936926 7.41068360252296 8.37478521766071
0 0

0101101
*
Ed
 1e-07 1 1 0
1  1 0 0 1.5707963267949
2  1 1 0 0 1.5707963267949
2  2 2 1 0 1.5707963267949
0

0101000
+26 0 -25 0 *
Ve
1.000000037943e-07
2.41010133097176 4.5359594676113 8.25171627327908
0 0

0101101
*
Ed
 1e-07 1 1 0
1  2 0 1.12420661817534 1.95249804778903
2  3 1 0 1.12420661817534 1.95249804778903
2  4 3 0 1.12420661817534 1.95249804778903
0

0101000
+23 0 -25 0 *
Ve
1.00000005534914e-07
0.820202661943515 7.07979733805649 2.21010133097176
0 0

0101101
*
Ed
 1e-07 1 1 0
1  3 0 0 1.5707963267949
2  5 1 0 0 1.5707963267949
2  6 2 0 0 1.5707963267949
0

0101000
+21 0 -23 0 *
Ed
 1.00000001831027e-07 1 1 0
1  4 0 5.97849265316419 6.80678408277791
3  7 8CN 1 0 5.97849265316419 6.80678408277791
2  9 4 0 5.97849265316419 6.80678408277791
0

0101000
+21 0 -26 0 *
Wi

0101100
-24 0 +22 0 +20 0 -19 0 *
Fa
0  1e-07 1 0

0101000
+18 0 *
Ve
1e-07
4 3.9 3.8
0 0

0101101
*
Ed
 1e-07 1 1 0
1  5 0 3.66987298107781 8
2  10 3 0 3.66987298107781 8
2  11 3 2 3.66987298107781 8
2  12 2 0 3.66987298107781 8
0

0101000
+25 2 -16 0 *
Ed
 1e-07 1 1 0
1  6 0 0 4.33012701892208
2  13 4 0 0 4.33012701892208
2  14 4 2 0 4.33012701892208
2  15 2 0 0 4.33012701892208
0

0101000
+16 0 -26 2 *
Wi

0101100
+15 1 +24 0 +14 1 *
Fa
0  1e-07 2 1

0101000
+13 0 *
Ed
 1e-07 1 1 0
1  5 0 3.23030399291527 8
2  10 3 0 3.23030399291527 8
2  11 3 2 3.23030399291527 8
2  12 2 0 3.23030399291527 8
0

0101000
+23 0 -16 0 *
Ed
 1e-07 1 1 0
1  7 0 0 4
2  16 4 0 0 4
2  17 3 0 0 4
0

0101000
+16 0 -16 1 *
Wi

0101100
-11 0 -10 0 +15 1 +22 0 *
Fa
0  1e-07 3 0

0101000
+9 0 *
Ed
 1e-07 1 1 0
1  6 0 0 4.76969600708473
2  13 4 0 0 4.76969600708473
2  14 4 2 0 4.76969600708473
2  15 2 0 0 4.76969600708473
0

0101000
+16 0 -21 0 *
Wi

0101100
+11 0 +20 0 +7 0 *
Fa
0  1e-07 2 0

0101000
+6 0 *
Wi

0101100
-7 0 -19 0 +14 1 +10 0 *
Fa
0  1e-07 4 0

0101000
+4 0 *
Sh

0101100
+17 0 +12 0 -8 0 -5 0 -3 0 *
So

0100000
+2 0 *

+1 0 